<svg xmlns="http://www.w3.org/2000/svg" xmlns:xlink="http://www.w3.org/1999/xlink" viewBox="0 0 23.34 24.44"><defs><style>.cls-1,.cls-2,.cls-4{fill:#fff;}.cls-1{clip-rule:evenodd;}.cls-2{fill-rule:evenodd;}.cls-3{clip-path:url(#clip-path);}</style><clipPath id="clip-path"><path class="cls-1" d="M13.12,6.82a.72.72,0,0,0-.21-.51l-.74-.74a.72.72,0,0,0-1,0l-.74.74a.72.72,0,0,0-.21.51v0a3.87,3.87,0,0,1,2.92,0ZM14.75,10a3.11,3.11,0,0,0-6.18,0h1.59a1.89,1.89,0,0,1,1.5.75,1.89,1.89,0,0,1,1.5-.75Zm.57.77H13.17A1.12,1.12,0,0,0,12,11.93v5.89a.38.38,0,1,1-.76,0V11.93a1.12,1.12,0,0,0-1.12-1.12H8v5.58a3.07,3.07,0,0,0,3.07,3.07h1.18a3.07,3.07,0,0,0,3.07-3.07ZM18.73,7a.38.38,0,1,1,0,.76.63.63,0,0,0-.62.62,2.4,2.4,0,0,1-2,2.37v1.63a2.4,2.4,0,0,1,2,2.37.63.63,0,0,0,.62.62.38.38,0,1,1,0,.76,1.39,1.39,0,0,1-1.39-1.39,1.63,1.63,0,0,0-1.25-1.59v2.49a2.4,2.4,0,0,1,2,2.37.63.63,0,0,0,.62.62.38.38,0,0,1,0,.76A1.39,1.39,0,0,1,17.34,18a1.63,1.63,0,0,0-1.25-1.59,3.84,3.84,0,0,1-3.83,3.76H11.08a3.84,3.84,0,0,1-3.83-3.76A1.63,1.63,0,0,0,6,18,1.39,1.39,0,0,1,4.6,19.43a.38.38,0,0,1,0-.76A.63.63,0,0,0,5.23,18a2.4,2.4,0,0,1,2-2.37V12.93A1.64,1.64,0,0,0,6,14.52a1.39,1.39,0,0,1-1.39,1.39.38.38,0,1,1,0-.76.63.63,0,0,0,.62-.62,2.4,2.4,0,0,1,2-2.37V10.79a2.4,2.4,0,0,1-2-2.37.63.63,0,0,0-.62-.62.38.38,0,1,1,0-.76A1.39,1.39,0,0,1,6,8.42a1.63,1.63,0,0,0,1.63,1.63h.18A3.88,3.88,0,0,1,9.45,7.26V6.82a1.48,1.48,0,0,1,.44-1.05h0a1.76,1.76,0,0,1-.92-1,.38.38,0,0,1,.73-.24,1,1,0,0,0,.81.67L10.62,5a1.49,1.49,0,0,1,2.11,0l.12.12a1,1,0,0,0,.81-.67.38.38,0,0,1,.73.24,1.75,1.75,0,0,1-.92,1h0a1.48,1.48,0,0,1,.44,1.05v.43a3.88,3.88,0,0,1,1.64,2.79h.18a1.63,1.63,0,0,0,1.63-1.63A1.38,1.38,0,0,1,18.73,7Z"/></clipPath></defs><title>m90015-110_1</title><g id="图层_2" data-name="图层 2"><g id="图层_1-2" data-name="图层 1"><path class="cls-2" d="M13.12,6.82a.72.72,0,0,0-.21-.51l-.74-.74a.72.72,0,0,0-1,0l-.74.74a.72.72,0,0,0-.21.51v0a3.87,3.87,0,0,1,2.92,0ZM14.75,10a3.11,3.11,0,0,0-6.18,0h1.59a1.89,1.89,0,0,1,1.5.75,1.89,1.89,0,0,1,1.5-.75Zm.57.77H13.17A1.12,1.12,0,0,0,12,11.93v5.89a.38.38,0,1,1-.76,0V11.93a1.12,1.12,0,0,0-1.12-1.12H8v5.58a3.07,3.07,0,0,0,3.07,3.07h1.18a3.07,3.07,0,0,0,3.07-3.07ZM18.73,7a.38.38,0,1,1,0,.76.63.63,0,0,0-.62.62,2.4,2.4,0,0,1-2,2.37v1.63a2.4,2.4,0,0,1,2,2.37.63.63,0,0,0,.62.62.38.38,0,1,1,0,.76,1.39,1.39,0,0,1-1.39-1.39,1.63,1.63,0,0,0-1.25-1.59v2.49a2.4,2.4,0,0,1,2,2.37.63.63,0,0,0,.62.62.38.38,0,0,1,0,.76A1.39,1.39,0,0,1,17.34,18a1.63,1.63,0,0,0-1.25-1.59,3.84,3.84,0,0,1-3.83,3.76H11.08a3.84,3.84,0,0,1-3.83-3.76A1.63,1.63,0,0,0,6,18,1.39,1.39,0,0,1,4.6,19.43a.38.38,0,0,1,0-.76A.63.63,0,0,0,5.23,18a2.4,2.4,0,0,1,2-2.37V12.93A1.64,1.64,0,0,0,6,14.52a1.39,1.39,0,0,1-1.39,1.39.38.38,0,1,1,0-.76.63.63,0,0,0,.62-.62,2.4,2.4,0,0,1,2-2.37V10.79a2.4,2.4,0,0,1-2-2.37.63.63,0,0,0-.62-.62.38.38,0,1,1,0-.76A1.39,1.39,0,0,1,6,8.42a1.63,1.63,0,0,0,1.63,1.63h.18A3.88,3.88,0,0,1,9.45,7.26V6.82a1.48,1.48,0,0,1,.44-1.05h0a1.76,1.76,0,0,1-.92-1,.38.38,0,0,1,.73-.24,1,1,0,0,0,.81.67L10.62,5a1.49,1.49,0,0,1,2.11,0l.12.12a1,1,0,0,0,.81-.67.38.38,0,0,1,.73.24,1.75,1.75,0,0,1-.92,1h0a1.48,1.48,0,0,1,.44,1.05v.43a3.88,3.88,0,0,1,1.64,2.79h.18a1.63,1.63,0,0,0,1.63-1.63A1.38,1.38,0,0,1,18.73,7Z"/><g class="cls-3"><rect class="cls-4" width="23.34" height="24.44"/></g></g></g></svg>