<svg xmlns="http://www.w3.org/2000/svg" viewBox="0 0 14.95 16"><defs><style>.cls-1{fill:#fff;}</style></defs><title>icon-mdocking</title><g id="图层_2" data-name="图层 2"><g id="图层_1-2" data-name="图层 1"><path class="cls-1" d="M4.9,4.7h5.56a1.31,1.31,0,0,0,1-.41,4.78,4.78,0,0,0,1.24-2.1C12.93.8,12.28.09,10.42.09s-1.24,1.13-2,1.23C7.91,1.39,7.93.73,7.08.1,6.47-.36,5.79.92,5,.93S2.72.7,2.72,2.19A3.85,3.85,0,0,0,3.91,4.27,1.35,1.35,0,0,0,4.9,4.7Z"/><path class="cls-1" d="M11.84,6h0a1.63,1.63,0,0,0-1.18-.49H4.73A1.65,1.65,0,0,0,3.59,6C1.72,7.79,0,10.37,0,12.25A4.2,4.2,0,0,0,4,16h6.9a4.18,4.18,0,0,0,4-3.75C14.95,10.33,13.56,7.83,11.84,6ZM5,14.42,2.2,11.74l4.21-4,2.84,2.68L8.13,11.5l-.75-.71.36-.34L6.41,9.18,3.7,11.74,5,13,6,12.11l.75.71Zm3.13-.83L5.33,10.9,6.48,9.81l.75.71-.4.37,1.34,1.26,2.7-2.55L9.54,8.35l-1,.91-.75-.71L9.54,6.93l2.84,2.68Z"/></g></g></svg>