<svg xmlns="http://www.w3.org/2000/svg" viewBox="0 0 16 14.82"><defs><style>.cls-1{fill:#fff;}</style></defs><title>icon-finance</title><g id="图层_2" data-name="图层 2"><g id="图层_1-2" data-name="图层 1"><path class="cls-1" d="M2,1.29H14.06a.71.71,0,0,0,.75-.65A.71.71,0,0,0,14.06,0H2a.71.71,0,0,0-.75.65A.71.71,0,0,0,2,1.29Zm0,0"/><path class="cls-1" d="M15.25,2.59H.75A.74.74,0,0,0,0,3.31V14.09a.74.74,0,0,0,.75.72H15.25a.74.74,0,0,0,.75-.72V3.31a.74.74,0,0,0-.75-.72Zm-4.76,8.07H8.68v1.57a.68.68,0,1,1-1.35,0V10.67H5.52A.71.71,0,0,1,4.76,10a.71.71,0,0,1,.75-.65H7.32V8.44H5.52a.71.71,0,0,1-.75-.65.71.71,0,0,1,.75-.65h1l-.37-.68-.44-.8A.67.67,0,0,1,6,4.73a.74.74,0,0,1,1,.34l.35.64,0,0,.36.66L8,7.07l.37-.67.37-.66,0,0,.35-.64a.73.73,0,0,1,1-.34.67.67,0,0,1,.25.94l-.44.8-.37.68h1a.71.71,0,0,1,.76.65.71.71,0,0,1-.75.65H8.68v.93h1.81a.71.71,0,0,1,.76.64.71.71,0,0,1-.75.65Zm0,0"/></g></g></svg>