<svg xmlns="http://www.w3.org/2000/svg" viewBox="0 0 13.5 16"><defs><style>.cls-1{fill:#fff;}</style></defs><title>icon-power</title><g id="图层_2" data-name="图层 2"><g id="图层_1-2" data-name="图层 1"><circle class="cls-1" cx="6.57" cy="5.89" r="1.5" transform="translate(0.1 11.89) rotate(-84.72)"/><path class="cls-1" d="M13,2.09h-.6a7,7,0,0,1-2.62-.6A7.45,7.45,0,0,1,7.46.38l-.4-.3a.86.86,0,0,0-.71,0L6,.38A15.94,15.94,0,0,1,3.73,1.59a9.61,9.61,0,0,1-2.62.6H.5a.56.56,0,0,0-.5.6V8.94a7.2,7.2,0,0,0,2.42,4.84A6.9,6.9,0,0,0,6.75,16a6.9,6.9,0,0,0,4.33-2.22A6.79,6.79,0,0,0,13.5,8.94V2.7A.56.56,0,0,0,13,2.09ZM8.36,10a.48.48,0,1,1,0,1h-1v1.3a.8.8,0,1,1-1.6,0V8.08a2.34,2.34,0,1,1,1.6,0v2Z"/></g></g></svg>