<svg xmlns="http://www.w3.org/2000/svg" viewBox="0 0 16 15.68"><defs><style>.cls-1{fill:#fff;}</style></defs><title>icon-claiming</title><g id="图层_2" data-name="图层 2"><g id="图层_1-2" data-name="图层 1"><path class="cls-1" d="M15.91,7.56A1,1,0,0,0,15,7H13.76V1a1,1,0,0,0-1-1H3.26a1,1,0,0,0-1,1V7H1a1,1,0,0,0-.93.58A1,1,0,0,0,.26,8.62l7,6.72a1.05,1.05,0,0,0,1.54,0l7-6.72A1,1,0,0,0,15.91,7.56Zm-5.3-1.1v.82H8.68v.93H10.6V9H8.68v1.42H7.31V9h-2V8.22h2V7.29h-2V6.46H7L4.89,3.15h1.5L7.77,5.67l.14.28A2.74,2.74,0,0,1,8,6.21h0a4.38,4.38,0,0,1,.27-.58L9.7,3.15h1.42L9,6.46Z"/></g></g></svg>