<svg xmlns="http://www.w3.org/2000/svg" viewBox="0 0 13.46 15.83"><defs><style>.cls-1{fill:#fff;}</style></defs><title>icon-wzscrap</title><g id="图层_2" data-name="图层 2"><g id="图层_1-2" data-name="图层 1"><path class="cls-1" d="M12,3.52H1.48a.59.59,0,0,0-.59.6l.25,10.56a1.17,1.17,0,0,0,1.17,1.15h8.85a1.17,1.17,0,0,0,1.17-1.15L12.6,4.13a.59.59,0,0,0-.59-.6ZM4.09,11.44v.09l-.74-1.4a.56.56,0,0,1-.07-.22.53.53,0,0,1,0-.18V9.65q.14-.25.45-.74l-.55-.34,1.76.13.7,1.48-.57-.36c-.17.19-.31.38-.44.56a4,4,0,0,0-.26.45c-.06.14-.11.26-.15.37s-.09.19-.1.25Zm2.28.94v.09l-1.65-.11a.45.45,0,0,1-.26-.13A.79.79,0,0,1,4.28,12a1,1,0,0,1-.06-.22.71.71,0,0,1,0-.25c0-.09,0-.17,0-.21l.09-.21.08-.21c.21,0,.87.07,2,.11ZM5.63,8.76,4.39,8l0,0L5.26,6.6a.44.44,0,0,1,.23-.18.89.89,0,0,1,.32,0l.19,0,.17.09.16.13.14.13L6.6,7l.13.13A10.24,10.24,0,0,0,5.65,8.78ZM7,7.43A3.28,3.28,0,0,0,6.73,7c-.09-.13-.17-.23-.25-.32l-.19-.18L6.23,6.4H7.81a.48.48,0,0,1,.38.15l0,.06.44.74L9.22,7,8.36,8.5l-1.62,0,.59-.34c-.09-.19-.18-.45-.28-.65Zm2,4.65a.46.46,0,0,1-.14.18.37.37,0,0,1-.17.08H8.62l-.86,0V13l-.86-1.39.79-1.43v.68a5.88,5.88,0,0,0,1.11,0,2.6,2.6,0,0,0,.67-.13l.22-.09ZM10.12,10a.74.74,0,0,1-.11.28.54.54,0,0,1-.13.14l-.15.11a.72.72,0,0,1-.19.09l-.18.06-.21.06-.18,0a19,19,0,0,0-1-1.71l1.23-.79.08,0,.83,1.43a.5.5,0,0,1,.07.36ZM13,1.47H10l-.66-1A.93.93,0,0,0,8.54,0H4.94a.93.93,0,0,0-.79.43l-.65,1h-3A.51.51,0,0,0,0,2v.66H13.46V2A.51.51,0,0,0,13,1.47Zm-8.76,0L4.66.74A.33.33,0,0,1,4.94.6H8.55a.33.33,0,0,1,.28.14l.45.72Zm0,0"/></g></g></svg>