<svg xmlns="http://www.w3.org/2000/svg" viewBox="0 0 11.52 16"><defs><style>.cls-1{fill:#fff;}</style></defs><title>icon-cfequipment</title><g id="图层_2" data-name="图层 2"><g id="图层_1-2" data-name="图层 1"><path class="cls-1" d="M9.47,6.07A1,1,0,0,1,10,5.18h0V5a.1.1,0,0,1,.1-.1h.08A3.14,3.14,0,0,0,8.9,2.11a2.6,2.6,0,0,0-1.58-.59s-.1.06-.12.09v0A.19.19,0,0,1,7,1.83H6.48v2A2.84,2.84,0,0,1,9.21,6.68a.56.56,0,0,1,0,.07H1.76V6.68a2.84,2.84,0,0,1,2.6-2.81V1.69a.76.76,0,0,0-.37,0A16,16,0,0,0,1,3.17.18.18,0,0,1,.79,3a2.62,2.62,0,0,1,0-.46.39.39,0,0,1,.23-.25A26.07,26.07,0,0,0,3.6,1.24c.14-.09.05-.2,0-.2a12.86,12.86,0,0,0-3.37.2.2.2,0,0,1-.15-.06A.9.9,0,0,1,.1.44C.22.32.21.3.45.32,2,.42,4,.39,4.58.38a1.13,1.13,0,0,1,1.83.2H7A.19.19,0,0,1,7.2.77V.83A.26.26,0,0,0,7.33.9a3.23,3.23,0,0,1,2,.74,3.84,3.84,0,0,1,1.46,3.22h.11A.1.1,0,0,1,11,5v.21h0a1,1,0,0,1,.55.89V7.46a.1.1,0,0,1-.1.1H9.56a.1.1,0,0,1-.1-.1V6.07Z"/><rect class="cls-1" x="1.76" y="7.59" width="7.45" height="5.51"/><path class="cls-1" d="M1.76,15.25c0,.55.12.75.45.75H8.76c.33,0,.45-.2.45-.75V14H1.76Z"/></g></g></svg>