<svg xmlns="http://www.w3.org/2000/svg" viewBox="0 0 14.86 16"><defs><style>.cls-1{fill:#fff;}</style></defs><title>icon-basis</title><g id="图层_2" data-name="图层 2"><g id="图层_1-2" data-name="图层 1"><path class="cls-1" d="M2.29,1.71a.57.57,0,0,1,.57-.57H12a.57.57,0,0,1,.57.57V6.86H2.29Zm11.43,0A1.72,1.72,0,0,0,12,0H2.86A1.72,1.72,0,0,0,1.14,1.71V6.86A1.15,1.15,0,0,0,0,8v6.86A1.15,1.15,0,0,0,1.14,16H13.71a1.15,1.15,0,0,0,1.14-1.14V8a1.15,1.15,0,0,0-1.14-1.14Zm0,0"/><path class="cls-1" d="M4,2.29A.57.57,0,1,0,4,3.43h6.86a.57.57,0,0,0,0-1.14H4Zm6.86,2.29H4A.57.57,0,0,0,4,5.71h6.86a.57.57,0,1,0,0-1.14"/></g></g></svg>