<svg xmlns="http://www.w3.org/2000/svg" viewBox="0 0 16 12.98"><defs><style>.cls-1{fill:#fff;}</style></defs><title>icon-fmkeep</title><g id="图层_2" data-name="图层 2"><g id="图层_1-2" data-name="图层 1"><g id="图层_2-2" data-name="图层 2"><g id="图层_1-2-2" data-name="图层 1-2"><path class="cls-1" d="M15,2H8L5.75.22A1,1,0,0,0,5.13,0H1A1,1,0,0,0,0,1V12a1,1,0,0,0,1,1H15a1,1,0,0,0,1-1V3A1,1,0,0,0,15,2ZM4.51,9.57a.58.58,0,0,1-.43,1,.57.57,0,0,1-.32-.1A2.42,2.42,0,0,1,3,8.74a2.44,2.44,0,0,1,.72-1.69,1.25,1.25,0,0,0,.39-.9,1.2,1.2,0,0,0-.36-.71.58.58,0,1,1,.78-.86,2.34,2.34,0,0,1,.75,1.52h0a2.38,2.38,0,0,1-.71,1.74,1.23,1.23,0,0,0,0,1.73Zm3.78,0a.58.58,0,0,1-.74.87,2.42,2.42,0,0,1-.82-1.7,2.44,2.44,0,0,1,.72-1.69,1.25,1.25,0,0,0,.39-.9,1.2,1.2,0,0,0-.36-.71.58.58,0,1,1,.78-.86A2.33,2.33,0,0,1,9,6.1H9a2.38,2.38,0,0,1-.71,1.74A1.18,1.18,0,0,0,8.21,9.5l.06.06Zm3.78,0a.58.58,0,0,1-.74.87,2.43,2.43,0,0,1-.82-1.7,2.44,2.44,0,0,1,.72-1.69,1.25,1.25,0,0,0,.39-.9,1.2,1.2,0,0,0-.36-.71.56.56,0,0,1-.19-.39.58.58,0,0,1,1-.47,2.33,2.33,0,0,1,.75,1.52,2.38,2.38,0,0,1-.71,1.75,1.21,1.21,0,0,0,0,1.72Z"/><path class="cls-1" d="M9.87.89h5.62A.45.45,0,1,0,15.62,0H9.87a.45.45,0,0,0-.13.89Z"/></g></g></g></g></svg>