<svg xmlns="http://www.w3.org/2000/svg" viewBox="0 0 15.88 15.1"><defs><style>.cls-1{fill:#fff;}</style></defs><title>icon-wzinventory</title><g id="图层_2" data-name="图层 2"><g id="图层_1-2" data-name="图层 1"><g id="图层_2-2" data-name="图层 2"><g id="图层_1-2-2" data-name="图层 1-2"><polygon class="cls-1" points="0.69 3.12 6.6 0 13.64 3.57 7.46 7.21 0.69 3.12"/><polygon class="cls-1" points="0.26 3.68 7.01 7.68 7.2 15.1 0 11.14 0.26 3.68"/><polygon class="cls-1" points="7.04 14.46 8.92 13.21 9.47 13.75 7.2 15.1 7.04 14.46"/><path class="cls-1" d="M11.24,13.88a3.66,3.66,0,1,1,0-7.31,3.94,3.94,0,0,1,3.91,3.62v.08A3.94,3.94,0,0,1,11.24,13.88Zm0-6.31h0a2.66,2.66,0,1,0,0,5.31,2.94,2.94,0,0,0,2.92-2.65A2.94,2.94,0,0,0,11.24,7.57Z"/><path class="cls-1" d="M15,14.72,13,13a.52.52,0,0,1,0-.73h0a.52.52,0,0,1,.73,0l2,1.73a.52.52,0,0,1,0,.73h0A.52.52,0,0,1,15,14.72Z"/></g></g></g></g></svg>