<svg xmlns="http://www.w3.org/2000/svg" viewBox="0 0 16 14.49"><defs><style>.cls-1{fill:#fff;}</style></defs><title>icon-cjobdata</title><g id="图层_2" data-name="图层 2"><g id="图层_1-2" data-name="图层 1"><path class="cls-1" d="M10.14,10.09l-.37.57L9,11.6a.34.34,0,0,0-.07.2s0,0,0,0L8.6,14.29a.16.16,0,0,0,.06.17.19.19,0,0,0,.19,0l2.25-1.14,0,0a.32.32,0,0,0,.15-.12L15,7.95,12.82,6.41Zm-.42,3.53-.58-.41.15-1,1.37,1ZM12.91,7.4l-3,4.08a.19.19,0,0,1-.24,0,.16.16,0,0,1,0-.24l3-4.08a.19.19,0,0,1,.24,0A.17.17,0,0,1,12.91,7.4Z"/><path class="cls-1" d="M15.84,6.07l-1.45-1a.53.53,0,0,0-.71.18L13.1,6l2.21,1.56.58-.79A.55.55,0,0,0,15.84,6.07Z"/><path class="cls-1" d="M11.28,3.73l-2.88,0a1,1,0,0,1-.94-.94V0"/><path class="cls-1" d="M7.75,4.42a.92.92,0,0,1-.91-.91V0l0,0H.91A.92.92,0,0,0,0,.91V13.37a.92.92,0,0,0,.91.91H6.48l4.81-6.77V4.42ZM5.56,10.95a.4.4,0,0,1-.4.4H2.4a.4.4,0,0,1-.4-.4v-.12a.4.4,0,0,1,.4-.4H5.17a.4.4,0,0,1,.4.4Zm.7-2.13H2.46a.46.46,0,1,1,0-.91h3.8a.46.46,0,1,1,0,.91Zm0-2.53H2.46a.46.46,0,1,1,0-.91h3.8a.46.46,0,1,1,0,.91Z"/></g></g></svg>