<svg xmlns="http://www.w3.org/2000/svg" viewBox="0 0 16 15.3"><defs><style>.cls-1{fill:#6e6e6e;}</style></defs><title>icon-video</title><g id="图层_2" data-name="图层 2"><g id="图层_1-2" data-name="图层 1"><path class="cls-1" d="M7,2.78,4.63,0H1.95L4.31,2.78Zm7,0L11.58,0H8.9l2.37,2.78Zm-3.48,0L8.1,0H5.43L7.79,2.78ZM15,0H12.38l2.37,2.78H16V1a1,1,0,0,0-1-1ZM1.15,0H1A1,1,0,0,0,0,1V2.78H3.51L1.15,0ZM0,14.26a1,1,0,0,0,1,1H15a1,1,0,0,0,1-1V3.48H0ZM5.57,6.61c0-.59.49-.87,1-.87a1.1,1.1,0,0,1,.56.14l4,2.3a1,1,0,0,1,0,1.74l-4,2.3a1,1,0,0,1-.56.14c-.56,0-1-.28-1-.87V6.61Zm0,0"/></g></g></svg>