<svg xmlns="http://www.w3.org/2000/svg" viewBox="0 0 16 11.07"><defs><style>.cls-1{fill:#fff;}</style></defs><title>icon-entra</title><g id="图层_2" data-name="图层 2"><g id="图层_1-2" data-name="图层 1"><path class="cls-1" d="M10.33,2.37H7.82v-.7A.85.85,0,0,0,7,.82H.85A.85.85,0,0,0,0,1.66V8.92a.85.85,0,0,0,.85.85H2.23a1.59,1.59,0,0,0,3.13,0H8.1a1.59,1.59,0,0,0,3.13,0H12a.85.85,0,0,0,.85-.85V5.75ZM3.8,10.16a.68.68,0,1,1,.68-.68A.68.68,0,0,1,3.8,10.16Zm5.87,0a.68.68,0,1,1,.68-.68A.68.68,0,0,1,9.66,10.16ZM11,5.34a.26.26,0,0,1-.26.26H9.13a.26.26,0,0,1-.26-.26V3.75a.26.26,0,0,1,.26-.26H10l1,1.19Z"/><rect class="cls-1" x="14.75" y="5.68" width="1.25" height="5.39"/><rect class="cls-1" x="10.99" y="2.66" width="6.2" height="0.72" transform="translate(11.71 -11.2) rotate(68.41)"/></g></g></svg>