<svg xmlns="http://www.w3.org/2000/svg" viewBox="0 0 16 14.32"><defs><style>.cls-1{fill:#fff;}</style></defs><title>icon-vouvher</title><g id="图层_2" data-name="图层 2"><g id="图层_1-2" data-name="图层 1"><path class="cls-1" d="M9.56,1.8l-3-1.7a.75.75,0,0,0-1,.29l-5,8.91a.75.75,0,0,0,.29,1l3,1.7a.75.75,0,0,0,1-.29l5-8.91A.75.75,0,0,0,9.56,1.8Zm-4.8,9a.25.25,0,1,1-.43-.24L8,4a.25.25,0,1,1,.43.24ZM9,2.85,6.64,1.53a.26.26,0,0,1,.25-.45L9.25,2.4A.26.26,0,1,1,9,2.85Z"/><polygon class="cls-1" points="0.78 14.07 4.15 12.92 0 10.6 0.78 14.07"/><rect class="cls-1" x="6.1" y="12.45" width="9.9" height="1.87" rx="0.86" ry="0.86"/><rect class="cls-1" x="10.15" y="8.65" width="5.85" height="1.87" rx="0.86" ry="0.86"/></g></g></svg>