<svg xmlns="http://www.w3.org/2000/svg" viewBox="0 0 13.64 16"><defs><style>.cls-1{fill:#fff;}</style></defs><title>icon-settle</title><g id="图层_2" data-name="图层 2"><g id="图层_1-2" data-name="图层 1"><path class="cls-1" d="M12,0a1.63,1.63,0,0,1,1.63,1.63V14.37A1.63,1.63,0,0,1,12,16H1.63A1.63,1.63,0,0,1,0,14.37V1.63A1.63,1.63,0,0,1,1.63,0ZM10.78,13.57a.5.5,0,1,0,0-1H2.86a.5.5,0,1,0,0,1Zm0-2.57a.5.5,0,1,0,0-1H2.86a.5.5,0,1,0,0,1ZM8.71,6.5H7.32V5.64H8.71a.51.51,0,0,0,0-1H7.53L8.85,3.29a.51.51,0,0,0,0-.72.5.5,0,0,0-.71,0L6.82,3.9,5.5,2.57a.5.5,0,0,0-.71,0,.51.51,0,0,0,0,.72L6.1,4.62H4.93a.51.51,0,0,0,0,1H6.32V6.5H4.93a.51.51,0,0,0,0,1H6.32V8a.51.51,0,0,0,1,0V7.51H8.71a.51.51,0,0,0,0-1Zm0,0"/></g></g></svg>