<svg xmlns="http://www.w3.org/2000/svg" viewBox="0 0 14.98 16"><defs><style>.cls-1{fill:#fff;}</style></defs><title>icon-partyb</title><g id="图层_2" data-name="图层 2"><g id="图层_1-2" data-name="图层 1"><path class="cls-1" d="M14.37,2.72,12.26.34A1,1,0,0,0,11.4,0h-10A1.74,1.74,0,0,0,.5.39a1.36,1.36,0,0,0-.5,1V14.61A1.32,1.32,0,0,0,1.39,16H13.87A1.11,1.11,0,0,0,15,14.89v-11a1.41,1.41,0,0,0-.61-1.16ZM5.44,2.49A2.48,2.48,0,0,1,9,2.49a2.41,2.41,0,0,1,.72,1.78A2.39,2.39,0,0,1,9,6a2.47,2.47,0,0,1-1.78.75A2.52,2.52,0,0,1,5.44,6a2.43,2.43,0,0,1-.72-1.75,2.45,2.45,0,0,1,.72-1.78ZM1.11,5.55V4.16H4.16V5.55Zm12.21,6.94H1.39V10.82H13.32Zm0-3.33H1.39V8.33H13.32Zm0-3.61H10.26V4.16h3.05Zm0,0"/><path class="cls-1" d="M6,6l1.16-.83L8.38,6,8,4.57l1.14-.89-1.44,0L7.21,2.32l-.5,1.33-1.42,0,1.14.89ZM6,6"/></g></g></svg>