<svg xmlns="http://www.w3.org/2000/svg" viewBox="0 0 13.35 16"><defs><style>.cls-1{fill:#fff;}</style></defs><title>icon-report</title><g id="图层_2" data-name="图层 2"><g id="图层_1-2" data-name="图层 1"><rect class="cls-1" x="3.4" width="6.55" height="1.76"/><path class="cls-1" d="M12.35.88H10.77V2.39H2.58V.88H1a1,1,0,0,0-1,1V15a1,1,0,0,0,1,1H12.35a1,1,0,0,0,1-1V1.89A1,1,0,0,0,12.35.88ZM10.52,12.22H2.83a.63.63,0,0,1,0-1.26h7.69a.63.63,0,0,1,0,1.26Zm0-3.28H2.83a.63.63,0,0,1,0-1.26h7.69a.63.63,0,0,1,0,1.26Zm0-3.28H2.83a.63.63,0,0,1,0-1.26h7.69a.63.63,0,0,1,0,1.26Z"/></g></g></svg>