<svg xmlns="http://www.w3.org/2000/svg" viewBox="0 0 12.86 16"><defs><style>.cls-1{fill:#fff;}</style></defs><title>icon-basicd</title><g id="图层_2" data-name="图层 2"><g id="图层_1-2" data-name="图层 1"><g id="图层_2-2" data-name="图层 2"><g id="图层_1-2-2" data-name="图层 1-2"><path class="cls-1" d="M1,2.09A1.14,1.14,0,0,1,2.09,1h6V1a1,1,0,0,0-1-1H1A1,1,0,0,0,0,1V12.38a1,1,0,0,0,1,1H1Z"/><path class="cls-1" d="M11.89,1.65H2.61a1,1,0,0,0-1,1V15a1,1,0,0,0,1,1H11.9a1,1,0,0,0,1-1V2.62a1,1,0,0,0-1-1ZM3.66,4.77h5v1h-5Zm7.05,8H3.66v-1h7.05Zm0-2.36H3.66v-1h7.05Zm0-2.36H3.66v-1h7.05Z"/></g></g></g></g></svg>