<svg xmlns="http://www.w3.org/2000/svg" viewBox="0 0 16 13.06"><defs><style>.cls-1{fill:#6e6e6e;}</style></defs><title>icon-monitor2</title><g id="图层_2" data-name="图层 2"><g id="图层_1-2" data-name="图层 1"><path class="cls-1" d="M14.74,7.08a6.48,6.48,0,0,1-6.73,6A6.48,6.48,0,0,1,1.28,7.11,2.93,2.93,0,0,1,0,6C0,5.15,0,2.62,0,2,2.54-.66,13.4-.7,16,2V6a3,3,0,0,1-1.26,1ZM5.51,10.81h.15a2.73,2.73,0,0,0,2.34,1,2.73,2.73,0,0,0,2.34-1h0l.1-3.26h0a2.49,2.49,0,0,0-4.89,0h0l.1,3.26Zm9.24-8.22C12.46.92,4.29.8,1.27,2.54c0,.3,0,1.64,0,2.11,2.37-1.49,11-1.47,13.46,0ZM8,7A1.32,1.32,0,0,1,9.26,8.42,1.32,1.32,0,0,1,8,9.8,1.32,1.32,0,0,1,6.76,8.42,1.32,1.32,0,0,1,8,7ZM8,8"/></g></g></svg>