<svg xmlns="http://www.w3.org/2000/svg" viewBox="0 0 9.87 16"><defs><style>.cls-1{fill:#fff;}</style></defs><title>icon-food</title><g id="图层_2" data-name="图层 2"><g id="图层_1-2" data-name="图层 1"><path class="cls-1" d="M0,8.73A4.94,4.94,0,0,0,2.54,13a.51.51,0,0,0,0,.11v1.66a.51.51,0,0,0,1,0V13.46a4.88,4.88,0,0,0,.89.18v1.86a.51.51,0,0,0,1,0V13.64a4.88,4.88,0,0,0,.89-.18v1.35a.51.51,0,0,0,1,0V13.16a.51.51,0,0,0,0-.11A4.94,4.94,0,0,0,9.87,8.73a.51.51,0,0,0-.51-.51,5,5,0,0,0-.82.07A4.91,4.91,0,0,0,9.87,4.93a.51.51,0,0,0-.51-.51,4.91,4.91,0,0,0-3,1A4.94,4.94,0,0,0,5.29.15a.51.51,0,0,0-.72,0A4.94,4.94,0,0,0,3.46,5.41a4.91,4.91,0,0,0-3-1A.51.51,0,0,0,0,4.93,4.91,4.91,0,0,0,1.32,8.29a4.94,4.94,0,0,0-.82-.07A.51.51,0,0,0,0,8.73ZM4.93,9.87h0a4.94,4.94,0,0,0,.81-.07A5,5,0,0,0,4.93,11,5,5,0,0,0,4.12,9.8a4.92,4.92,0,0,0,.82.07Zm0,0"/></g></g></svg>