<svg xmlns="http://www.w3.org/2000/svg" viewBox="0 0 16 13.46"><defs><style>.cls-1{fill:#fff;}</style></defs><title>icon-mgstored</title><g id="图层_2" data-name="图层 2"><g id="图层_1-2" data-name="图层 1"><rect class="cls-1" x="10.56" y="12.37" width="5.44" height="1.09"/><rect class="cls-1" x="12.5" y="10.27" width="3.5" height="1.09"/><path class="cls-1" d="M8,13.46H1.43A1.41,1.41,0,0,1,0,12.09V1.38A1.41,1.41,0,0,1,1.43,0H14.56A1.41,1.41,0,0,1,16,1.38V9.17L14.85,8.7V1.38a.28.28,0,0,0-.29-.28H1.43a.28.28,0,0,0-.29.28V12.08a.29.29,0,0,0,.29.28H8v1.1Zm0,0"/><path class="cls-1" d="M9,10.89l.76-1.24c.06-.12-.16-.09-.36-.18S9,9.19,9,9.31L8.46,10.7c-.07.14.35.47.49.19Z"/><path class="cls-1" d="M10,6.11c-.78-.91-.35-1.56-.35-1.56-.25.18-1,2.43,0,2.92.47.22,1.24-.34.36-1.36Z"/><path class="cls-1" d="M10.82,4.55C10,3.65,10.47,3,10.47,3c-.25.18-1,2.43,0,2.92.47.22,1.23-.34.36-1.36Z"/><path class="cls-1" d="M10.81,8c1,.49,2.37-1.5,2.37-1.81,0,0-.26.73-1.49.69s-1.35.89-.89,1.11Z"/><path class="cls-1" d="M9.27,7.64c-.78-.91-.36-1.55-.36-1.55-.25.18-1,2.43,0,2.91.47.22,1.23-.34.36-1.36Z"/><path class="cls-1" d="M10,9.53c1,.49,2.37-1.5,2.37-1.81,0,0-.26.73-1.49.69S9.57,9.31,10,9.53Z"/><path class="cls-1" d="M11.59,6.44c1,.49,2.37-1.5,2.37-1.8,0,0-.27.73-1.48.69-1.37,0-1.35.89-.89,1.11Z"/><path class="cls-1" d="M11.66,5.08c1.11.52,1.08-2.31,1.08-2.31-.25.15-2.19,1.79-1.08,2.31Z"/><path class="cls-1" d="M11.66,5.08"/><path class="cls-1" d="M7.26,10.73,6.77,9.36c-.06-.12-.17.06-.38.15S6,9.56,6,9.68L6.79,11c.06.14.6,0,.47-.24Z"/><path class="cls-1" d="M4.18,6.84C3,6.83,2.72,6.1,2.72,6.1,2.7,6.4,4,8.43,5,8c.47-.2.52-1.13-.85-1.14Z"/><path class="cls-1" d="M3.44,5.26C2.22,5.25,2,4.52,2,4.52c0,.3,1.25,2.33,2.31,1.88.47-.2.52-1.13-.85-1.14Z"/><path class="cls-1" d="M6.17,7.49c1.06-.46.34-2.72.1-2.91,0,0,.41.66-.41,1.54s-.17,1.57.31,1.37Z"/><path class="cls-1" d="M4.89,8.39c-1.22,0-1.46-.74-1.46-.74C3.42,8,4.68,10,5.74,9.53c.48-.2.52-1.13-.85-1.14Z"/><path class="cls-1" d="M6.88,9c1.06-.45.34-2.72.1-2.91,0,0,.4.66-.41,1.54S6.41,9.25,6.88,9Z"/><path class="cls-1" d="M5.43,5.91c1.06-.45.34-2.72.1-2.91,0,0,.41.67-.41,1.54S5,6.11,5.43,5.91Z"/><path class="cls-1" d="M4.41,5C5.53,4.5,3.28,2.69,3.28,2.69c0,.28,0,2.77,1.13,2.29Z"/><path class="cls-1" d="M4.41,5"/></g></g></svg>