<svg xmlns="http://www.w3.org/2000/svg" viewBox="0 0 14.65 16"><defs><style>.cls-1{fill:#fff;}</style></defs><title>icon-sfproduction</title><g id="图层_2" data-name="图层 2"><g id="图层_1-2" data-name="图层 1"><path class="cls-1" d="M14.4,3.79,7.51.06a.48.48,0,0,0-.46,0L.25,3.79A.48.48,0,0,0,0,4.21V15.46a.48.48,0,0,0,1,0V4.54l12.75,0,0,11a.48.48,0,0,0,.47.48h0a.48.48,0,0,0,.48-.47l0-11.32A.48.48,0,0,0,14.4,3.79Z"/><path class="cls-1" d="M9.7,12.87A3.93,3.93,0,0,0,10.91,10,3.87,3.87,0,0,0,7.08,6.13a3.91,3.91,0,0,0,0,7.81,3.74,3.74,0,0,0,2-.55l1.65,2.07a.42.42,0,0,0,.59.06.44.44,0,0,0,.06-.6Zm-2.62.21a3,3,0,1,1,3-3A3,3,0,0,1,7.08,13.08Z"/></g></g></svg>