<svg xmlns="http://www.w3.org/2000/svg" viewBox="0 0 14.22 16"><defs><style>.cls-1{fill:#fff;}</style></defs><title>icon-mreceived</title><g id="图层_2" data-name="图层 2"><g id="图层_1-2" data-name="图层 1"><g id="图层_2-2" data-name="图层 2"><g id="图层_1-2-2" data-name="图层 1-2"><path class="cls-1" d="M12.39,4.23H9.23a1,1,0,0,1-1-1s0,0,0-.06V.05"/><path class="cls-1" d="M8.94,4.9A1.63,1.63,0,0,1,7.5,3.44V0H1A1,1,0,0,0,0,1s0,0,0,.06V14.94A1.05,1.05,0,0,0,1,16H8A4.75,4.75,0,0,1,7,13a4.68,4.68,0,0,1,4.6-4.7,4.49,4.49,0,0,1,.82.08V4.9ZM5.5,12.74H2.59a.5.5,0,1,1,0-1H5.5a.5.5,0,0,1,0,1ZM6.76,9.89H2.59a.5.5,0,1,1,0-1H6.76a.5.5,0,1,1,0,1ZM6.76,7H2.59a.5.5,0,0,1,0-1H6.76a.5.5,0,0,1,0,1Z"/><path class="cls-1" d="M10.4,14.9a.5.5,0,0,1-.36-.15L8.49,13.16a1,1,0,0,1,0-1.36L10,10.22a.5.5,0,0,1,.71.7L9.21,12.5l1.55,1.55a.5.5,0,0,1-.36.85Z"/><rect class="cls-1" x="8.67" y="11.9" width="5.55" height="1.1" rx="0.5" ry="0.5"/></g></g></g></g></svg>