<svg xmlns="http://www.w3.org/2000/svg" viewBox="0 0 16 14.47"><defs><style>.cls-1{fill:#fff;}</style></defs><title>icon-msafety</title><g id="图层_2" data-name="图层 2"><g id="图层_1-2" data-name="图层 1"><path class="cls-1" d="M15.33,13.22H14.06V5.92a5.66,5.66,0,0,0-.49-2.3,5.92,5.92,0,0,0-1.32-1.88A6.26,6.26,0,0,0,7.94,0,6.28,6.28,0,0,0,5.55.47a6.16,6.16,0,0,0-2,1.27A5.92,5.92,0,0,0,2.28,3.62a5.67,5.67,0,0,0-.49,2.3v7.3H.63a.63.63,0,0,0-.63.63.64.64,0,0,0,.65.63h14.7a.63.63,0,1,0,0-1.25Zm-7.74-.61V8.2H5.3L8.44,2.52V7.15h2.21Zm0,0"/></g></g></svg>