<svg xmlns="http://www.w3.org/2000/svg" viewBox="0 0 15.27 16"><defs><style>.cls-1{fill:#fff;}</style></defs><title>icon-fmlicence</title><g id="图层_2" data-name="图层 2"><g id="图层_1-2" data-name="图层 1"><rect class="cls-1" x="10.58" y="14.92" width="4.69" height="1.08"/><rect class="cls-1" x="12.43" y="13.02" width="2.84" height="1.08"/><path class="cls-1" d="M7.63,16H1.36A1.37,1.37,0,0,1,0,14.63V1.36A1.37,1.37,0,0,1,1.36,0H13.91a1.37,1.37,0,0,1,1.36,1.36v10l-1.09-.47V1.36a.27.27,0,0,0-.27-.27H1.36a.28.28,0,0,0-.27.27V14.63a.28.28,0,0,0,.27.27H7.63V16Zm0,0"/><path class="cls-1" d="M11.1,11.08a1.15,1.15,0,0,0-.64.26l-1.34-.49,1.36-.49a1.19,1.19,0,0,0,.64.22.41.41,0,0,0,.42-.33.55.55,0,0,0,0-.15c0-.28-.18-.43-.54-.45a.63.63,0,0,0,.22-.43A.44.44,0,0,0,11,8.84a.56.56,0,0,0-.25-.06q-.44,0-.61.72l-2.36.88L5.44,9.51q-.16-.74-.61-.74a.56.56,0,0,0-.25.06.44.44,0,0,0-.22.37.63.63,0,0,0,.22.43Q4,9.67,4,10.1a.56.56,0,0,0,0,.15.42.42,0,0,0,.42.33,1.19,1.19,0,0,0,.64-.22l1.37.49-1.35.48a1.13,1.13,0,0,0-.62-.25.46.46,0,0,0-.45.33.55.55,0,0,0,0,.15q0,.42.55.45a.63.63,0,0,0-.22.43.44.44,0,0,0,.22.37.55.55,0,0,0,.27.08q.41,0,.59-.71l2.35-.86,2.35.86q.18.71.6.71a.53.53,0,0,0,.26-.08.44.44,0,0,0,.23-.37A.63.63,0,0,0,11,12q.54,0,.54-.45a.55.55,0,0,0,0-.15.45.45,0,0,0-.44-.33Zm0,0"/><path class="cls-1" d="M4.6,7.74a3.19,3.19,0,0,0,1.56.93v.15a.64.64,0,0,0,.19.47.72.72,0,0,0,.47.21.59.59,0,0,0,.43-.1.82.82,0,0,0,.49.16.78.78,0,0,0,.46-.15.59.59,0,0,0,.41.09.78.78,0,0,0,.47-.22.63.63,0,0,0,.19-.47V8.71A3.3,3.3,0,0,0,11,7.76a2.21,2.21,0,0,0,.53-1.91,3.39,3.39,0,0,0-1.19-2.13,3.74,3.74,0,0,0-2.53-.9,3.76,3.76,0,0,0-2.53.89A3.38,3.38,0,0,0,4.08,5.85a2.15,2.15,0,0,0,0,.4A2.18,2.18,0,0,0,4.6,7.74Zm4-2.6a.92.92,0,0,1,.72-.35.93.93,0,0,1,.73.35,1.25,1.25,0,0,1,.3.84,1.25,1.25,0,0,1-.3.84.93.93,0,0,1-.73.35.91.91,0,0,1-.72-.35A1.25,1.25,0,0,1,8.28,6a1.25,1.25,0,0,1,.3-.84ZM7.51,7.45a.39.39,0,0,1,.29-.19q.14,0,.27.21a.78.78,0,0,1,.13.4q0,.29-.38.29A.49.49,0,0,1,7.43,8a.29.29,0,0,1-.07-.2.62.62,0,0,1,.15-.38Zm-2-2.31a.93.93,0,0,1,1.45,0,1.24,1.24,0,0,1,.3.84,1.24,1.24,0,0,1-.3.84.93.93,0,0,1-1.45,0A1.24,1.24,0,0,1,5.17,6a1.24,1.24,0,0,1,.3-.84Zm0,0"/></g></g></svg>