<svg xmlns="http://www.w3.org/2000/svg" viewBox="0 0 13.5 16"><defs><style>.cls-1{fill:#fff;}</style></defs><title>icon-quality</title><g id="图层_2" data-name="图层 2"><g id="图层_1-2" data-name="图层 1"><path class="cls-1" d="M13,2.09h-.6a7,7,0,0,1-2.62-.6A7.45,7.45,0,0,1,7.46.38l-.4-.3a.86.86,0,0,0-.71,0L6,.38A15.94,15.94,0,0,1,3.73,1.59a9.61,9.61,0,0,1-2.62.6H.5a.56.56,0,0,0-.5.6V8.94a7.2,7.2,0,0,0,2.42,4.84A6.9,6.9,0,0,0,6.75,16a6.9,6.9,0,0,0,4.33-2.22A6.79,6.79,0,0,0,13.5,8.94V2.7A.56.56,0,0,0,13,2.09ZM10.91,6.7,6.45,11.16a.68.68,0,0,1-1,0l0,0,0,0L2.88,8.57a.65.65,0,0,1,.93-.93L5.92,9.76l4-4a.68.68,0,0,1,1,1Z"/></g></g></svg>