<svg xmlns="http://www.w3.org/2000/svg" viewBox="0 0 12.66 16"><defs><style>.cls-1{fill:#fff;}</style></defs><title>icon-inspect</title><g id="图层_2" data-name="图层 2"><g id="图层_1-2" data-name="图层 1"><path class="cls-1" d="M12.66,4.23l-3.23,0A1.06,1.06,0,0,1,8.37,3.15V.05"/><path class="cls-1" d="M9.13,4.9A1.65,1.65,0,0,1,7.67,3.44V0H1.06A1.06,1.06,0,0,0,0,1.06V14.94A1.06,1.06,0,0,0,1.06,16H11.58a1.06,1.06,0,0,0,1.06-1.06V4.9Zm.16,5.24H7v2.31a.66.66,0,1,1-1.32,0V10.14H3.35a.66.66,0,1,1,0-1.32H5.66V6.51A.66.66,0,0,1,7,6.51V8.82H9.3a.66.66,0,1,1,0,1.32Z"/></g></g></svg>