<svg xmlns="http://www.w3.org/2000/svg" viewBox="0 0 16 14.88"><defs><style>.cls-1{fill:#fff;}</style></defs><title>icon-sfduty</title><g id="图层_2" data-name="图层 2"><g id="图层_1-2" data-name="图层 1"><path class="cls-1" d="M5.8,11.83v-1A3.35,3.35,0,0,0,7.72,7.66,3.13,3.13,0,0,0,4.91,4.3,3.13,3.13,0,0,0,2.09,7.66,3.35,3.35,0,0,0,4,10.84v1A7.27,7.27,0,0,0,0,14v.85H9.82V14A7.27,7.27,0,0,0,5.8,11.83Z"/><path class="cls-1" d="M8.13,1.88q0-.13.2-.16l.51-.07a6.21,6.21,0,0,0,.68-.12,1.93,1.93,0,0,0,.7-.31,3.74,3.74,0,0,0,.43-.33L11,.55l.36-.3A1.53,1.53,0,0,1,11.78,0v3.6H8.17q0-.4,0-.83t0-.92m3.26,7.59q-.49-.37-1-.76A8.62,8.62,0,0,1,9.67,8a5.3,5.3,0,0,1-.58-.74,4.86,4.86,0,0,1-.43-.83,5.83,5.83,0,0,1-.29-1,10,10,0,0,1-.17-1.19h3.57V9.64l-.2-.07-.18-.1m1-5.21h3.55a10,10,0,0,1-.15,1.18,6.12,6.12,0,0,1-.26.95,4.09,4.09,0,0,1-.4.8,5.9,5.9,0,0,1-.56.73q-.36.39-.75.75l-1,.87a1.27,1.27,0,0,1-.47.14V4.26M14.1,1.37a1.45,1.45,0,0,0,.6.25,5.74,5.74,0,0,0,.62.08l.49,0q.2,0,.2.11,0,1,0,1.79H12.38V0a1.23,1.23,0,0,1,.45.22,3.84,3.84,0,0,1,.41.36l.4.41a3.18,3.18,0,0,0,.44.39"/></g></g></svg>