<svg xmlns="http://www.w3.org/2000/svg" viewBox="0 0 14.28 16"><defs><style>.cls-1{fill:#fff;}</style></defs><title>icon-mplan</title><g id="图层_2" data-name="图层 2"><g id="图层_1-2" data-name="图层 1"><path class="cls-1" d="M14.26,12.19a.43.43,0,0,0-.3-.32l-.1,0a1,1,0,0,1-.6-.48,1.07,1.07,0,0,1-.11-.77l0-.1a.44.44,0,0,0-.12-.42,2.94,2.94,0,0,0-.37-.25,3.17,3.17,0,0,0-.39-.21.42.42,0,0,0-.42.1l-.07.08a1,1,0,0,1-1.41,0l-.07-.08a.42.42,0,0,0-.42-.1,3.06,3.06,0,0,0-.39.21,2.82,2.82,0,0,0-.37.25.43.43,0,0,0-.12.42l0,.1a1.08,1.08,0,0,1-.11.77,1,1,0,0,1-.6.48l-.1,0a.43.43,0,0,0-.3.32,3,3,0,0,0,0,.45,3,3,0,0,0,0,.45.43.43,0,0,0,.3.32l.1,0a1,1,0,0,1,.6.48,1.08,1.08,0,0,1,.11.77l0,.1a.44.44,0,0,0,.12.42,2.88,2.88,0,0,0,.37.25,3,3,0,0,0,.39.21.42.42,0,0,0,.42-.1l.07-.08a1,1,0,0,1,1.42,0l.07.08a.42.42,0,0,0,.42.1,3.08,3.08,0,0,0,.39-.21,2.8,2.8,0,0,0,.37-.25.44.44,0,0,0,.12-.42l0-.1a1.07,1.07,0,0,1,.11-.77,1,1,0,0,1,.6-.48l.1,0a.43.43,0,0,0,.3-.32,3,3,0,0,0,0-.45A3.13,3.13,0,0,0,14.26,12.19ZM11.1,13.94a1.3,1.3,0,1,1,1.27-1.29A1.28,1.28,0,0,1,11.1,13.94Z"/><path class="cls-1" d="M11.45,0H1.55A1.6,1.6,0,0,0,0,1.63V14.37A1.6,1.6,0,0,0,1.55,16H7.67a4.86,4.86,0,0,1-1.24-3.25A4.66,4.66,0,0,1,11,8a4.32,4.32,0,0,1,2,.52V1.63A1.6,1.6,0,0,0,11.45,0ZM6,9.71,4,11.77H4l0,0a.43.43,0,0,1-.62,0L2.18,10.57a.48.48,0,0,1,0-.66.43.43,0,0,1,.62,0l.86.9L5.34,9.06a.43.43,0,0,1,.62,0H6A.48.48,0,0,1,6,9.71ZM6,3.82,4,5.88H4l0,0a.43.43,0,0,1-.62,0L2.18,4.68a.48.48,0,0,1,0-.66A.43.43,0,0,1,2.8,4l.86.9L5.34,3.17a.43.43,0,0,1,.62,0H6A.48.48,0,0,1,6,3.82Zm4.41,1.24H8.09a.53.53,0,0,1,0-1h2.28a.53.53,0,0,1,0,1Z"/></g></g></svg>