<svg xmlns="http://www.w3.org/2000/svg" viewBox="0 0 16 12.89"><defs><style>.cls-1{fill:#fff;}</style></defs><title>icon-creport</title><g id="图层_2" data-name="图层 2"><g id="图层_1-2" data-name="图层 1"><g id="图层_2-2" data-name="图层 2"><g id="图层_1-2-2" data-name="图层 1-2"><g id="图层_2-2-2" data-name="图层 2-2"><g id="图层_1-2-2-2" data-name="图层 1-2-2"><path class="cls-1" d="M14.59,12.89H1.41A1.41,1.41,0,0,1,0,11.48V1.41A1.41,1.41,0,0,1,1.41,0H14.59A1.41,1.41,0,0,1,16,1.41V11.48A1.41,1.41,0,0,1,14.59,12.89ZM1.41.94a.47.47,0,0,0-.47.47V11.48a.47.47,0,0,0,.47.47H14.59a.47.47,0,0,0,.47-.47V1.41a.47.47,0,0,0-.47-.47Z"/><rect class="cls-1" x="9.42" y="2.13" width="4.45" height="0.98" rx="0.47" ry="0.47"/><rect class="cls-1" x="10.3" y="3.83" width="3.58" height="0.98" rx="0.47" ry="0.47"/><rect class="cls-1" x="11.28" y="5.53" width="2.58" height="0.98" rx="0.47" ry="0.47"/><rect class="cls-1" x="4.71" y="5.8" width="2.88" height="0.73" rx="0.35" ry="0.35"/><rect class="cls-1" x="3.86" y="7.41" width="0.96" height="0.96" rx="0.46" ry="0.46"/><rect class="cls-1" x="7.47" y="7.41" width="0.96" height="0.96" rx="0.46" ry="0.46"/><path class="cls-1" d="M4.38,10.8A1.24,1.24,0,0,1,3.16,9.54v0h.71a.53.53,0,0,0,.46.56.53.53,0,0,0,.47-.56l.71-.06a1.23,1.23,0,0,1-1.1,1.35Z"/><path class="cls-1" d="M8,10.8A1.24,1.24,0,0,1,6.78,9.54v0h.71a.53.53,0,0,0,.46.56.54.54,0,0,0,.47-.56l.71-.06A1.23,1.23,0,0,1,8,10.8Z"/><path class="cls-1" d="M8.74,10H3.59c-1.28,0-1.41-.28-1.41-1.51V6.83l2-2.9H8.08l2.08,2.9V8.47C10.16,9.69,10,10,8.74,10ZM3.1,9H9.2V7.13L7.59,4.88H4.71L3.12,7.13V8.47c0,.22,0,.43,0,.56Z"/></g></g></g></g></g></g></svg>