<svg xmlns="http://www.w3.org/2000/svg" viewBox="0 0 15.92 16"><defs><style>.cls-1{fill:#fff;}</style></defs><title>icon-basics</title><g id="图层_2" data-name="图层 2"><g id="图层_1-2" data-name="图层 1"><path class="cls-1" d="M14.49,9.07l.64-.64L14,7.32,13.38,8a2.85,2.85,0,0,0-1.43-.56V6.53H10.35V7.4A5.32,5.32,0,0,0,8.92,8l-.64-.64L7.16,8.44l.64.64a3.83,3.83,0,0,0-.56,1.43H6.37V12.1h.87a5.31,5.31,0,0,0,.56,1.43l-.64.56,1.12,1.1.64-.64a2.85,2.85,0,0,0,1.43.56V16h1.59v-.8a5.31,5.31,0,0,0,1.43-.56l.64.64,1.11-1.11-.64-.64A3.83,3.83,0,0,0,15,12.1h.87V10.5H15a3.89,3.89,0,0,0-.56-1.43Zm-3.34,4.62A2.45,2.45,0,0,1,8.75,11.3,2.4,2.4,0,0,1,11.14,8.9a2.35,2.35,0,0,1,2.39,2.39,2.4,2.4,0,0,1-2.39,2.39ZM6.37,1.59,5.57,0H0V15.92H6.37V14.33H1.59V4.78H14.33V6.37h1.59V1.59Zm0,0"/></g></g></svg>