<svg xmlns="http://www.w3.org/2000/svg" viewBox="0 0 15.6 16"><defs><style>.cls-1{fill:#fff;}</style></defs><title>icon-attend</title><g id="图层_2" data-name="图层 2"><g id="图层_1-2" data-name="图层 1"><path class="cls-1" d="M15.6,6.74V3.18A.64.64,0,0,0,15,2.54H12.46V1a1,1,0,1,0-2,0V2.54h-5V1a1,1,0,0,0-2,0V2.54H.64A.64.64,0,0,0,0,3.18V14.57A1.44,1.44,0,0,0,1.43,16H14.17a1.44,1.44,0,0,0,1.43-1.43V6.83s0-.06,0-.09ZM12.12,9.32l-4.8,4.8h0a.74.74,0,0,1-.37.2H6.57a.74.74,0,0,1-.32-.19h0L3.48,11.35a.75.75,0,0,1,0-1.06h0a.75.75,0,0,1,1.06,0l2.24,2.24,4.27-4.27a.75.75,0,0,1,1.06,1.06Zm2-3.53a.75.75,0,0,1-.75.75H2.2a.75.75,0,0,1-.75-.75h0A.75.75,0,0,1,2.2,5H13.4a.75.75,0,0,1,.75.75Zm0,0"/></g></g></svg>