<svg xmlns="http://www.w3.org/2000/svg" viewBox="0 0 13.5 16"><defs><style>.cls-1{fill:#fff;}</style></defs><title>icon-grainqc</title><g id="图层_2" data-name="图层 2"><g id="图层_1-2" data-name="图层 1"><circle class="cls-1" cx="6.75" cy="8.2" r="1.83"/><path class="cls-1" d="M13,2.09h-.6a7,7,0,0,1-2.62-.6A7.45,7.45,0,0,1,7.46.38l-.4-.3a.86.86,0,0,0-.71,0L6,.38A15.94,15.94,0,0,1,3.73,1.59a9.61,9.61,0,0,1-2.62.6H.5a.56.56,0,0,0-.5.6V8.94a7.2,7.2,0,0,0,2.42,4.84A6.9,6.9,0,0,0,6.75,16a6.9,6.9,0,0,0,4.33-2.22A6.79,6.79,0,0,0,13.5,8.94V2.7A.56.56,0,0,0,13,2.09Zm-1.52,8.62L6.75,13.44,2,10.71V5.24L6.75,2.51l4.73,2.73Z"/><path class="cls-1" d="M2.78,5.68v4.59l4,2.3,4-2.3V5.68l-4-2.3ZM9.35,8.2a2.6,2.6,0,1,1-2.6-2.6A2.6,2.6,0,0,1,9.35,8.2Z"/></g></g></svg>