<svg xmlns="http://www.w3.org/2000/svg" viewBox="0 0 16 16"><defs><style>.cls-1{fill:#fff;}</style></defs><title>icon-datainit</title><g id="图层_2" data-name="图层 2"><g id="图层_1-2" data-name="图层 1"><path class="cls-1" d="M8,16A8,8,0,1,1,12.62,1.47l.24.17L12.76.08,13.83,0,14,3.52l-3.91.12,0-1.07,2.13-.07-.36-.24A6.92,6.92,0,0,0,1.55,10.51,7,7,0,0,0,8,14.92a6.92,6.92,0,0,0,6.49-9.3l1-.39A8,8,0,0,1,8,16Zm0,0"/><path class="cls-1" d="M5.42,10.87l-.23,0a1.68,1.68,0,0,1-.46-3.3A1.68,1.68,0,0,1,7.2,6.34a2.35,2.35,0,0,1,4.42,1.12,2.59,2.59,0,0,1,0,.26,1.68,1.68,0,0,1-.8,3.16l-.23,0Zm0,0"/></g></g></svg>