<svg xmlns="http://www.w3.org/2000/svg" viewBox="0 0 16 15.97"><defs><style>.cls-1{fill:#fff;}</style></defs><title>icon-storage</title><g id="图层_2" data-name="图层 2"><g id="图层_1-2" data-name="图层 1"><path class="cls-1" d="M15.95,4.45l-.16.27a.43.43,0,0,1-.59.16L8,1.14.8,4.87a.49.49,0,0,1-.59-.16L.05,4.45a.37.37,0,0,1,.16-.53L7.57.13A.66.66,0,0,1,8.27.07l7.52,3.84a.36.36,0,0,1,.16.53ZM.85,5.73l.27-.16L8,2l6.72,3.52.43.21c.16.05.27.11.27.27V15.7a.25.25,0,0,1-.27.27H.85a.25.25,0,0,1-.27-.27V6c0-.16.11-.16.27-.27Zm2,8.53a.05.05,0,0,0,.05.05H13.07a.05.05,0,0,0,.05-.05v-1a.05.05,0,0,0-.05-.05H2.93a.05.05,0,0,0-.05.05Zm0-2.24a.05.05,0,0,0,.05.05H13.07a.05.05,0,0,0,.05-.05v-1a.05.05,0,0,0-.05-.05H2.93a.05.05,0,0,0-.05.05Zm0-2.19a.05.05,0,0,0,.05.05H13.07a.05.05,0,0,0,.05-.05v-1a.05.05,0,0,0-.05-.05H2.93a.05.05,0,0,0-.05.05Zm0,0"/></g></g></svg>