<svg xmlns="http://www.w3.org/2000/svg" viewBox="0 0 15.43 16"><defs><style>.cls-1{fill:#fff;}</style></defs><title>icon-wzclassify</title><g id="图层_2" data-name="图层 2"><g id="图层_1-2" data-name="图层 1"><path class="cls-1" d="M5.78,12.12h6.27v1.29H5.78Zm0-2.58h6.27v1.29H5.78ZM5.78,7h6.27V8.25H5.78Zm-2.4,5.17H4.65v1.29H3.37Zm0-2.58H4.65v1.29H3.37ZM3.37,7H4.65V8.25H3.37Zm0,0"/><path class="cls-1" d="M9.07,2.1,8.62,3.31l2.93,1.06H2.27L8.13,1,7.35,0,0,4.37v11c0,.36,0,.65.38.65H15c.36,0,.45-.29.45-.65v-11ZM14.32,15H1V5.3H14.32Zm0,0"/></g></g></svg>