<svg xmlns="http://www.w3.org/2000/svg" viewBox="0 0 15.74 16"><defs><style>.cls-1{fill:#fff;}</style></defs><title>icon-scale</title><g id="图层_2" data-name="图层 2"><g id="图层_1-2" data-name="图层 1"><g id="图层_2-2" data-name="图层 2"><g id="图层_1-2-2" data-name="图层 1-2"><g id="图层_2-2-2" data-name="图层 2-2"><g id="图层_1-2-2-2" data-name="图层 1-2-2"><path class="cls-1" d="M7.13,8.69V1.62a7.19,7.19,0,1,0,7.25,7.17V8.67Z"/><path class="cls-1" d="M15.37,7.75A.37.37,0,0,1,15,7.38V7.28A6.54,6.54,0,0,0,8.71.74V7.33a.37.37,0,0,1-.73,0v-7A.37.37,0,0,1,8.35,0h.11a7.28,7.28,0,0,1,7.28,7.28h0v.11A.37.37,0,0,1,15.37,7.75Z"/><path class="cls-1" d="M15.24,7.81H8.4a.37.37,0,0,1,0-.73h6.84a.37.37,0,0,1,0,.73Z"/></g></g></g></g></g></g></svg>