<svg xmlns="http://www.w3.org/2000/svg" viewBox="0 0 16 15.96"><defs><style>.cls-1{fill:#fff;}</style></defs><title>icon-grain</title><g id="图层_2" data-name="图层 2"><g id="图层_1-2" data-name="图层 1"><g id="图层_2-2" data-name="图层 2"><g id="图层_1-2-2" data-name="图层 1-2"><path class="cls-1" d="M15.94,4.45l-.16.27a.43.43,0,0,1-.59.16h0L8,1.14.8,4.87a.49.49,0,0,1-.59-.16L.05,4.45a.37.37,0,0,1,.12-.51l0,0L7.57.13a.66.66,0,0,1,.7-.06l7.51,3.84a.36.36,0,0,1,.19.47l0,.06ZM.85,5.73l.27-.16L8,2l6.71,3.52.43.21c.16,0,.27.11.27.27v9.69a.25.25,0,0,1-.23.27H.85a.25.25,0,0,1-.27-.27V6C.58,5.84.69,5.84.85,5.73Zm1,9a0,0,0,0,0,0,0H14.09a0,0,0,0,0,0,0h0V6.8a0,0,0,0,0,0,0H1.9a0,0,0,0,0,0,0h0Z"/><path class="cls-1" d="M3.49,13a.5.5,0,0,1-.37-.83L5.73,9.3a.55.55,0,0,1,.38-.16.5.5,0,0,1,.37.18l1.66,2L10.56,8.4a.51.51,0,0,1,.4-.18.5.5,0,0,1,.39.21l1.55,2.18a.5.5,0,1,1-.81.58L10.91,9.54,8.52,12.36a.52.52,0,0,1-.76,0l-1.67-2L3.86,12.86A.5.5,0,0,1,3.49,13Z"/></g></g></g></g></svg>