<svg xmlns="http://www.w3.org/2000/svg" viewBox="0 0 14.92 16"><defs><style>.cls-1{fill:#fff;}</style></defs><title>icon-log</title><g id="图层_2" data-name="图层 2"><g id="图层_1-2" data-name="图层 1"><path class="cls-1" d="M14.9,13.56a.62.62,0,0,1,0,.2,1.17,1.17,0,0,1-.07.24,1.09,1.09,0,0,1-.12.22.44.44,0,0,1-.15.14.32.32,0,0,1-.15,0l-.14,0-.18,0h-.21l-.21,0a.43.43,0,0,0-.19.12.68.68,0,0,0-.19.4.83.83,0,0,0,.06.43.27.27,0,0,1,0,.28.48.48,0,0,1-.13.11l-.2.11-.23.08-.21,0a.17.17,0,0,1-.12,0,.32.32,0,0,1-.08-.1h0a.9.9,0,0,0-.26-.37.65.65,0,0,0-.43-.16.66.66,0,0,0-.43.16.86.86,0,0,0-.27.37.25.25,0,0,1-.1.12.31.31,0,0,1-.15,0,.8.8,0,0,1-.22,0l-.24-.09a1.11,1.11,0,0,1-.22-.12.61.61,0,0,1-.15-.14.23.23,0,0,1,0-.11.42.42,0,0,1,.05-.19.68.68,0,0,0,.06-.37.64.64,0,0,0-.18-.38.47.47,0,0,0-.24-.14,1,1,0,0,0-.26,0,1.1,1.1,0,0,0-.3.06.29.29,0,0,1-.19,0,.31.31,0,0,1-.14-.13A1.46,1.46,0,0,1,8.52,14a1.41,1.41,0,0,1-.08-.25.56.56,0,0,1,0-.21.22.22,0,0,1,.14-.19,1,1,0,0,0,.38-.28.64.64,0,0,0,.17-.43.61.61,0,0,0-.17-.43A1.07,1.07,0,0,0,8.57,12a.18.18,0,0,1-.1-.1.34.34,0,0,1,0-.16.77.77,0,0,1,0-.2,1.32,1.32,0,0,1,.07-.22,1.07,1.07,0,0,1,.1-.19A.45.45,0,0,1,8.76,11a.17.17,0,0,1,.11,0L9,11a.83.83,0,0,0,.44.05.7.7,0,0,0,.4-.2.5.5,0,0,0,.12-.2,1.09,1.09,0,0,0,0-.24,1.21,1.21,0,0,0,0-.22L10,10l0-.1a.16.16,0,0,1,0-.1.41.41,0,0,1,.15-.17,1.19,1.19,0,0,1,.23-.12l.24-.07.19,0a.18.18,0,0,1,.14.06.32.32,0,0,1,.07.12.85.85,0,0,0,.25.33.64.64,0,0,0,.41.14.72.72,0,0,0,.43-.14.7.7,0,0,0,.26-.34.45.45,0,0,1,.09-.11.18.18,0,0,1,.12-.06l.21,0,.23.08a.83.83,0,0,1,.2.13.7.7,0,0,1,.15.17.16.16,0,0,1,0,.12.41.41,0,0,1,0,.09.73.73,0,0,0-.06.43.69.69,0,0,0,.2.39.64.64,0,0,0,.41.19.93.93,0,0,0,.45-.08.22.22,0,0,1,.14,0,.21.21,0,0,1,.14.06.86.86,0,0,1,.19.3,1.52,1.52,0,0,1,.11.4.24.24,0,0,1,0,.19.28.28,0,0,1-.11.09.83.83,0,0,0-.37.27.68.68,0,0,0-.15.44.69.69,0,0,0,.46.67l.08.06a.31.31,0,0,1,.11.16Zm-3.24.63a1.51,1.51,0,0,0,.59-.12,1.47,1.47,0,0,0,.48-.33,1.58,1.58,0,0,0,.32-.48,1.49,1.49,0,0,0,.12-.59,1.51,1.51,0,0,0-.12-.59,1.52,1.52,0,0,0-.81-.81,1.51,1.51,0,0,0-.59-.12,1.48,1.48,0,0,0-.59.12,1.53,1.53,0,0,0-.81.81,1.55,1.55,0,0,0,0,1.18,1.58,1.58,0,0,0,.32.48,1.54,1.54,0,0,0,.48.33,1.42,1.42,0,0,0,.59.12Zm0,0"/><path class="cls-1" d="M12.66,4.23l-3.23,0A1.06,1.06,0,0,1,8.37,3.15V.05"/><path class="cls-1" d="M9.13,4.9A1.65,1.65,0,0,1,7.67,3.44V0H1.06A1.06,1.06,0,0,0,0,1.06V14.94A1.06,1.06,0,0,0,1.06,16h7.1a4.69,4.69,0,0,1,4.49-7.61V4.9ZM5.62,12.74h-3a.5.5,0,1,1,0-1h3a.5.5,0,1,1,0,1ZM6.91,9.89H2.64a.5.5,0,1,1,0-1H6.91a.5.5,0,1,1,0,1ZM6.91,7H2.64a.5.5,0,1,1,0-1H6.91a.5.5,0,1,1,0,1Z"/></g></g></svg>