<svg xmlns="http://www.w3.org/2000/svg" viewBox="0 0 16 14.08"><defs><style>.cls-1{fill:#6e6e6e;}</style></defs><title>icon-opstandard</title><g id="图层_2" data-name="图层 2"><g id="图层_1-2" data-name="图层 1"><path class="cls-1" d="M9.73,9.94v1.38H6.27V9.94a.78.78,0,0,0-.79-.76H.79A.78.78,0,0,0,0,9.94v3.24a.91.91,0,0,0,.93.9H15.07a.91.91,0,0,0,.93-.9V9.94a.78.78,0,0,0-.79-.76H10.52A.78.78,0,0,0,9.73,9.94Z"/><rect class="cls-1" x="1.27" y="0.01" width="1.65" height="7.87"/><path class="cls-1" d="M14.73,7.9V1a1,1,0,0,0-1-1H5.19a1,1,0,0,0-1,1V7.9Zm-2-1.74H6.11V4.87h6.65Zm0-3H6.11V1.88h6.65Zm0,0"/></g></g></svg>