<svg xmlns="http://www.w3.org/2000/svg" viewBox="0 0 16 14.45"><defs><style>.cls-1{fill:#fff;}</style></defs><title>icon-mproject</title><g id="图层_2" data-name="图层 2"><g id="图层_1-2" data-name="图层 1"><path class="cls-1" d="M16,11.45a.36.36,0,0,0-.25-.27l-.09,0a.87.87,0,0,1-.5-.41.93.93,0,0,1-.09-.66l0-.09a.38.38,0,0,0-.1-.36,2.48,2.48,0,0,0-.31-.21,2.66,2.66,0,0,0-.33-.18.35.35,0,0,0-.35.09l-.06.07a.85.85,0,0,1-1.19,0l-.06-.07a.35.35,0,0,0-.35-.09,2.56,2.56,0,0,0-.33.18,2.38,2.38,0,0,0-.31.21.38.38,0,0,0-.1.36l0,.09a.94.94,0,0,1-.09.66.87.87,0,0,1-.51.41l-.08,0a.37.37,0,0,0-.25.27,2.62,2.62,0,0,0,0,.39,2.62,2.62,0,0,0,0,.39.36.36,0,0,0,.25.27l.08,0a.87.87,0,0,1,.51.42.94.94,0,0,1,.09.66l0,.08a.38.38,0,0,0,.1.36,2.42,2.42,0,0,0,.31.21,2.52,2.52,0,0,0,.33.18.35.35,0,0,0,.35-.09l.06-.06a.85.85,0,0,1,1.2,0l.06.06a.35.35,0,0,0,.35.09,2.58,2.58,0,0,0,.33-.18A2.36,2.36,0,0,0,15,14a.38.38,0,0,0,.1-.36l0-.09a.93.93,0,0,1,.09-.66.88.88,0,0,1,.51-.42l.08,0a.37.37,0,0,0,.25-.27,2.62,2.62,0,0,0,0-.39A2.73,2.73,0,0,0,16,11.45Zm-2.66,1.5a1.11,1.11,0,1,1,1.07-1.11A1.09,1.09,0,0,1,13.32,12.95Z"/><path class="cls-1" d="M14.07,2.19H7.3C6.95,1.63,7-.08,5.35,0H.94A1,1,0,0,0,0,1V11.65a1,1,0,0,0,.94,1H10a3.69,3.69,0,0,1-.15-1,3.4,3.4,0,0,1,3.28-3.5A3.13,3.13,0,0,1,15,8.78V3.19A1,1,0,0,0,14.07,2.19ZM2.44,9.05a.7.7,0,0,1,0-1.39.7.7,0,0,1,0,1.39Zm0-2.93a.7.7,0,0,1,0-1.39.7.7,0,0,1,0,1.39ZM9.67,9H4.74a.68.68,0,0,1,0-1.36H9.67A.68.68,0,0,1,9.67,9Zm0-2.93H4.74a.68.68,0,0,1,0-1.36H9.67a.68.68,0,0,1,0,1.36Z"/></g></g></svg>