<svg xmlns="http://www.w3.org/2000/svg" viewBox="0 0 13.61 16"><defs><style>.cls-1{fill:#fff;}</style></defs><title>icon-abnormal</title><g id="图层_2" data-name="图层 2"><g id="图层_1-2" data-name="图层 1"><path class="cls-1" d="M6.86,12.86a3.66,3.66,0,0,1,5.69-3V3l-3-3H.74A.74.74,0,0,0,0,.74V14.64a.74.74,0,0,0,.74.74H7.88A3.64,3.64,0,0,1,6.86,12.86ZM2.83,3H8a.49.49,0,1,1,0,1H2.83a.49.49,0,1,1,0-1Zm0,2.86H8.92a.49.49,0,1,1,0,1H2.83a.49.49,0,1,1,0-1ZM2.34,9.17a.49.49,0,0,1,.49-.49H7a.49.49,0,1,1,0,1H2.83A.49.49,0,0,1,2.34,9.17Z"/><path class="cls-1" d="M10.5,9.79a3.11,3.11,0,1,0,3.11,3.11A3.11,3.11,0,0,0,10.5,9.79Zm-.64,1.27a.6.6,0,1,1,1.21,0v1.88a.6.6,0,1,1-1.21,0Zm.64,4.27a.69.69,0,1,1,.69-.69A.69.69,0,0,1,10.5,15.33Z"/></g></g></svg>