<svg xmlns="http://www.w3.org/2000/svg" viewBox="0 0 15.98 16"><defs><style>.cls-1{fill:#fff;}</style></defs><title>icon-norm</title><g id="图层_2" data-name="图层 2"><g id="图层_1-2" data-name="图层 1"><path class="cls-1" d="M13.79,1.2h1.67V14.41H13.79Zm-3.32.48-.23.07a.63.63,0,0,1-.74-.28.43.43,0,0,1,0-.36A.55.55,0,0,1,9.84.81L12.44,0l.32,2.32a.44.44,0,0,1-.09.34.6.6,0,0,1-.42.22h-.07a.56.56,0,0,1-.58-.44l0-.35c-3,4.16-9.92,8.62-10.22,8.81A.65.65,0,0,1,1,11a.63.63,0,0,1-.45-.18.45.45,0,0,1-.14-.37.49.49,0,0,1,.23-.35c.07,0,6.92-4.48,9.85-8.43Zm2,2.46V14.41H10.78V4.13ZM9.54,7.19v7.23H7.87V7.19Zm-3,3.17v4.05H4.86V10.36ZM3.34,11.95v2.47H1.68V11.95ZM16,16H0V14.76H16V16Zm0,0"/></g></g></svg>