<svg xmlns="http://www.w3.org/2000/svg" viewBox="0 0 13.88 16"><defs><style>.cls-1{fill:#fff;}</style></defs><title>icon-cdrug</title><g id="图层_2" data-name="图层 2"><g id="图层_1-2" data-name="图层 1"><path class="cls-1" d="M9.51,12.77A.89.89,0,0,0,9,13l-1-.38L9,12.2a.92.92,0,0,0,.49.17.32.32,0,0,0,.33-.26.43.43,0,0,0,0-.12c0-.22-.14-.34-.42-.35a.49.49,0,0,0,.17-.34A.34.34,0,0,0,9.44,11a.44.44,0,0,0-.2,0q-.35,0-.47.56l-1.83.68L5.1,11.54Q5,11,4.63,11a.44.44,0,0,0-.2,0,.34.34,0,0,0-.17.29.49.49,0,0,0,.17.34Q4,11.67,4,12a.43.43,0,0,0,0,.12.33.33,0,0,0,.33.26.92.92,0,0,0,.49-.17l1.07.38L4.86,13a.87.87,0,0,0-.49-.2A.36.36,0,0,0,4,13a.43.43,0,0,0,0,.12q0,.33.43.35a.49.49,0,0,0-.17.34.35.35,0,0,0,.17.29.43.43,0,0,0,.21.06q.32,0,.46-.55L6.94,13l1.83.67q.14.55.47.55a.42.42,0,0,0,.2-.06.34.34,0,0,0,.18-.29.49.49,0,0,0-.17-.34q.42,0,.42-.35a.43.43,0,0,0,0-.12.35.35,0,0,0-.35-.26Zm0,0"/><path class="cls-1" d="M4.45,10.16a2.48,2.48,0,0,0,1.22.72V11a.5.5,0,0,0,.15.37.56.56,0,0,0,.37.16.46.46,0,0,0,.34-.08.64.64,0,0,0,.38.13.61.61,0,0,0,.36-.12.46.46,0,0,0,.32.07A.6.6,0,0,0,8,11.37.49.49,0,0,0,8.11,11v-.09a2.57,2.57,0,0,0,1.31-.74A1.72,1.72,0,0,0,9.83,8.7,2.63,2.63,0,0,0,8.91,7a2.91,2.91,0,0,0-2-.7A2.93,2.93,0,0,0,5,7,2.63,2.63,0,0,0,4.05,8.7,1.67,1.67,0,0,0,4,9a1.7,1.7,0,0,0,.43,1.15Zm3.09-2a.71.71,0,0,1,.56-.27.72.72,0,0,1,.57.27,1,1,0,0,1,0,1.31.72.72,0,0,1-.57.27.71.71,0,0,1-.56-.27,1,1,0,0,1,0-1.31Zm-.83,1.8a.3.3,0,0,1,.22-.15q.11,0,.21.16a.6.6,0,0,1,.1.31q0,.22-.3.22a.38.38,0,0,1-.29-.1.23.23,0,0,1-.05-.16.48.48,0,0,1,.11-.29ZM5.14,8.14a.72.72,0,0,1,1.13,0,1,1,0,0,1,0,1.31.72.72,0,0,1-1.13,0,1,1,0,0,1,0-1.31Zm0,0"/><path class="cls-1" d="M3.11,0A1.34,1.34,0,0,0,1.77,1.34V3.81a1.34,1.34,0,0,0,2.68,0V1.34A1.34,1.34,0,0,0,3.11,0Zm.48,3.81a.48.48,0,1,1-1,0V1.34a.48.48,0,1,1,1,0Z"/><path class="cls-1" d="M6.89,5.14A1.34,1.34,0,0,1,5.55,3.81V1.34a1.34,1.34,0,0,1,2.68,0V3.81A1.34,1.34,0,0,1,6.89,5.14Zm0-4.28a.48.48,0,0,0-.48.48V3.81a.48.48,0,1,0,1,0V1.34A.48.48,0,0,0,6.89.86Z"/><path class="cls-1" d="M12.53,2.12h-1V3.81a.91.91,0,0,1-1.81,0V2.12h-2V3.81A.91.91,0,1,1,6,3.81V2.12H4V3.81a.91.91,0,1,1-1.81,0V2.12H1.35A1.35,1.35,0,0,0,0,3.47V14.65A1.35,1.35,0,0,0,1.35,16H12.53a1.35,1.35,0,0,0,1.35-1.35V3.47A1.35,1.35,0,0,0,12.53,2.12ZM13,14.65a.45.45,0,0,1-.45.45H1.35a.45.45,0,0,1-.45-.45V5.54H13Z"/><path class="cls-1" d="M10.66,5.14A1.34,1.34,0,0,1,9.32,3.81V1.34a1.34,1.34,0,0,1,2.68,0V3.81A1.34,1.34,0,0,1,10.66,5.14Zm0-4.28a.48.48,0,0,0-.48.48V3.81a.48.48,0,0,0,1,0V1.34A.48.48,0,0,0,10.66.86Z"/></g></g></svg>