<svg xmlns="http://www.w3.org/2000/svg" viewBox="0 0 14.56 16"><defs><style>.cls-1{fill:#fff;}</style></defs><title>icon-sfstorage</title><g id="图层_2" data-name="图层 2"><g id="图层_1-2" data-name="图层 1"><path class="cls-1" d="M14.32,3.77,7.46.06A.48.48,0,0,0,7,.06L.25,3.77A.47.47,0,0,0,0,4.18V15.37a.47.47,0,0,0,.95,0V4.51l12.67,0,0,10.93a.47.47,0,0,0,.47.48h0a.47.47,0,0,0,.47-.47l0-11.25A.47.47,0,0,0,14.32,3.77Z"/><path class="cls-1" d="M6.2,6.32l-.4.36A4,4,0,0,1,5.34,7a2,2,0,0,1-.74.33,6.5,6.5,0,0,1-.72.12l-.54.07q-.21,0-.22.17,0,.49,0,1t0,.88H7V5.77a1.62,1.62,0,0,0-.4.23Z"/><path class="cls-1" d="M3.39,11.52a6.18,6.18,0,0,0,.31,1,5.2,5.2,0,0,0,.45.88,5.65,5.65,0,0,0,.61.78,9.2,9.2,0,0,0,.8.76q.5.42,1,.81h0l.19.1.22.07v-5.7H3.21A10.59,10.59,0,0,0,3.39,11.52Z"/><path class="cls-1" d="M7.64,10.25V16a1.35,1.35,0,0,0,.5-.15l1-.92q.42-.38.79-.8a6.25,6.25,0,0,0,.59-.77,4.33,4.33,0,0,0,.42-.85,6.48,6.48,0,0,0,.28-1,10.59,10.59,0,0,0,.16-1.26Z"/><path class="cls-1" d="M11.26,7.57l-.52,0a6.08,6.08,0,0,1-.66-.08,1.54,1.54,0,0,1-.64-.27h0A3.4,3.4,0,0,1,9,6.78l-.43-.44A4.16,4.16,0,0,0,8.12,6a1.3,1.3,0,0,0-.48-.23V9.59h3.8q0-.83,0-1.9Q11.47,7.59,11.26,7.57Z"/></g></g></svg>