<svg xmlns="http://www.w3.org/2000/svg" viewBox="0 0 15.99 13.02"><defs><style>.cls-1{fill:#fff;}</style></defs><title>icon-personnel</title><g id="图层_2" data-name="图层 2"><g id="图层_1-2" data-name="图层 1"><path class="cls-1" d="M7.13,9.27V8A4.12,4.12,0,0,0,9.5,4.14C9.5,1.85,8,0,6,0S2.58,1.85,2.58,4.14A4.12,4.12,0,0,0,4.94,8V9.27A8.94,8.94,0,0,0,0,12v1H12.08V12A8.94,8.94,0,0,0,7.13,9.27Z"/><path class="cls-1" d="M8.12,12.13l-.26-1.67a8.34,8.34,0,0,0-1.1.93v.8H8.52Z"/><path class="cls-1" d="M12.21,9.31V8.38a3.16,3.16,0,0,0,1.81-3,2.94,2.94,0,0,0-2.65-3.17,2.28,2.28,0,0,0-1,.26,5.33,5.33,0,0,1-.88,5.08,2.67,2.67,0,0,0,1.08.83v.94L10,9.5c.2.1,3.05,1.15,3.43,2.68H16v-.8A6.85,6.85,0,0,0,12.21,9.31Z"/></g></g></svg>