<svg xmlns="http://www.w3.org/2000/svg" viewBox="0 0 16 15.79"><defs><style>.cls-1{fill:#6e6e6e;}</style></defs><title>icon-police</title><g id="图层_2" data-name="图层 2"><g id="图层_1-2" data-name="图层 1"><path class="cls-1" d="M3.4,14.22l-.52,1.57H13.11l-.52-1.57ZM8,4.72A4.08,4.08,0,0,0,3.89,8.8v5h8.21v-5A4.08,4.08,0,0,0,8,4.73H8Zm3.35,4.19a.35.35,0,0,1-.7,0A2.56,2.56,0,0,0,8.06,6.36H8a.35.35,0,1,1,0-.7h.06a3.26,3.26,0,0,1,3.26,3.26ZM3.24,7.17a.66.66,0,0,0-.52-.78L.79,6A.66.66,0,1,0,.54,7.3l1.92.39a.67.67,0,0,0,.78-.52ZM2.8,2.71,4,4.24a.66.66,0,0,0,1-.83L3.83,1.88a.66.66,0,1,0-1,.83Zm5.29.58a.67.67,0,0,0,.68-.65v-2a.66.66,0,1,0-1.33,0v2a.66.66,0,0,0,.65.68Zm3.07,1.2a.66.66,0,0,0,.48.16.67.67,0,0,0,.46-.22L13.39,3a.66.66,0,0,0-1-.88L11.1,3.55a.66.66,0,0,0-.16.54.64.64,0,0,0,.22.4ZM16,6.89a.66.66,0,0,0-.76-.56l-1.94.3a.67.67,0,1,0,.2,1.31l1.94-.29a.66.66,0,0,0,.44-.26.68.68,0,0,0,.12-.5Zm0,0"/></g></g></svg>