<svg xmlns="http://www.w3.org/2000/svg" viewBox="0 0 13.66 16"><defs><style>.cls-1{fill:#fff;}</style></defs><title>icon-contract</title><g id="图层_2" data-name="图层 2"><g id="图层_1-2" data-name="图层 1"><path class="cls-1" d="M6.87,12.89a3.67,3.67,0,0,1,5.7-3.05V3l-3-3H.74A.74.74,0,0,0,0,.74V14.67a.74.74,0,0,0,.74.74H7.89A3.65,3.65,0,0,1,6.87,12.89ZM2.84,3H8a.49.49,0,1,1,0,1H2.84a.49.49,0,1,1,0-1Zm0,2.87h6.1a.49.49,0,1,1,0,1H2.84a.49.49,0,1,1,0-1ZM2.34,9.19a.49.49,0,0,1,.49-.49H7a.49.49,0,1,1,0,1H2.84A.49.49,0,0,1,2.34,9.19Z"/><path class="cls-1" d="M10.54,9.77a3.11,3.11,0,1,0,3.11,3.11A3.11,3.11,0,0,0,10.54,9.77Zm1.52,3.65h-1v1a.54.54,0,1,1-1.08,0v-1H9a.54.54,0,0,1,0-1.08h1v-1a.54.54,0,0,1,1.08,0v1h1a.54.54,0,1,1,0,1.08Z"/></g></g></svg>