<svg xmlns="http://www.w3.org/2000/svg" viewBox="0 0 15 16"><defs><style>.cls-1{fill:#fff;}</style></defs><title>icon-caranalysis</title><g id="图层_2" data-name="图层 2"><g id="图层_1-2" data-name="图层 1"><path class="cls-1" d="M4.85,7.49,2.6,10.13H6.68V7.49Zm.89,2.23H4L5,8.48h.72Z"/><path class="cls-1" d="M2.6,10.13v3.23h.9a1.37,1.37,0,1,1,2.75,0h.44V10.13Z"/><circle class="cls-1" cx="4.87" cy="13.36" r="0.97"/><path class="cls-1" d="M6.25,6.19v7.17H9.85a1.37,1.37,0,1,1,2.75,0h1.21V6.19Z"/><circle class="cls-1" cx="11.23" cy="13.36" r="0.97"/><rect class="cls-1" y="0.91" width="0.99" height="14.59"/><rect class="cls-1" x="7" y="8" width="0.99" height="15" transform="translate(-8 23) rotate(-90)"/><rect class="cls-1" x="0.95" y="3.83" width="6.63" height="1.04" rx="0.5" ry="0.5" transform="translate(-1.82 4.29) rotate(-45)"/><rect class="cls-1" x="8.09" y="1.92" width="7.22" height="1.04" rx="0.5" ry="0.5" transform="translate(1.01 7.78) rotate(-38.33)"/><rect class="cls-1" x="5.43" y="2.85" width="4.62" height="1.04" rx="0.5" ry="0.5" transform="translate(12.28 10.48) rotate(-146.11)"/></g></g></svg>