<svg xmlns="http://www.w3.org/2000/svg" viewBox="0 0 13.79 16"><defs><style>.cls-1{fill:#fff;}</style></defs><title>icon-task</title><g id="图层_2" data-name="图层 2"><g id="图层_1-2" data-name="图层 1"><path class="cls-1" d="M9.29,9.59A2.5,2.5,0,0,0,9.06,9c.11-.15.51-.73.22-1l-.15-.15c-.24-.24-.86.14-1,.23a2.47,2.47,0,0,0-.57-.24C7.52,7.66,7.38,7,7,7H6.82c-.34,0-.54.7-.58.87a2.44,2.44,0,0,0-.56.24c-.14-.1-.73-.51-1-.22L4.5,8c-.25.25.17.92.24,1a2.39,2.39,0,0,0-.23.55c-.17,0-.88.17-.88.58v.16c0,.36.75.55.89.59a2.43,2.43,0,0,0,.23.55c-.08.13-.48.79-.23,1l.15.12c.33.33,1-.21,1-.21l0,0a2.46,2.46,0,0,0,.59.25c0,.14.23.88.59.88H7c.46,0,.58-.87.58-.87h0a2.51,2.51,0,0,0,.6-.24c.15.1.75.48,1,.23l.16-.16c.32-.32-.2-1-.22-1a2.45,2.45,0,0,0,.24-.56c.18,0,.86-.24.86-.58v-.16c0-.45-.82-.57-.87-.58Zm-2.4,2a1.32,1.32,0,1,1,1.32-1.32,1.32,1.32,0,0,1-1.32,1.32Zm5.27-9.36V1.35A1.28,1.28,0,0,0,10.73,0,1.28,1.28,0,0,0,9.3,1.35v.86h-1V1.35A1.28,1.28,0,0,0,6.9,0,1.28,1.28,0,0,0,5.47,1.35v.86h-1V1.35A1.28,1.28,0,0,0,3.07,0,1.28,1.28,0,0,0,1.64,1.35v.86H0V16H13.79V2.21Zm-2.1-.86c0-.42.19-.59.66-.59s.66.17.66.59v2.3c0,.42-.19.59-.66.59s-.66-.17-.66-.59Zm-3.83,0c0-.42.19-.59.66-.59s.66.17.66.59v2.3c0,.42-.19.59-.66.59s-.66-.17-.66-.59Zm-3.83,0c0-.42.19-.59.66-.59s.67.17.67.59v2.3c0,.42-.19.59-.67.59s-.66-.17-.66-.59Zm10.23,13.5H1.15V5.28H12.63v9.57Zm0,0"/></g></g></svg>