<svg xmlns="http://www.w3.org/2000/svg" viewBox="0 0 16 14.04"><defs><style>.cls-1{fill:#fff;}</style></defs><title>icon-sales</title><g id="图层_2" data-name="图层 2"><g id="图层_1-2" data-name="图层 1"><circle class="cls-1" cx="9.22" cy="3.61" r="3.61"/><path class="cls-1" d="M5.78,7.66V6.25c0-.55-2.33-3-2.88-3h0C2.33,3.28,0,5.71,0,6.25V13a1,1,0,0,0,1,1h.3A7.14,7.14,0,0,1,5.78,7.66ZM2.89,5.1A1.54,1.54,0,1,1,1.34,6.64,1.54,1.54,0,0,1,2.89,5.1Z"/><path class="cls-1" d="M2.43,14A6.78,6.78,0,1,1,16,14"/></g></g></svg>