<svg xmlns="http://www.w3.org/2000/svg" viewBox="0 0 15.97 16"><defs><style>.cls-1{fill:#fff;}</style></defs><title>icon-site</title><g id="图层_2" data-name="图层 2"><g id="图层_1-2" data-name="图层 1"><path class="cls-1" d="M1.78,6.77c.9-3.09,2.89-5.29,6.51-5.6a8.81,8.81,0,0,0,.88-.06A5.35,5.35,0,0,0,10,.76C11.15.3,13.68-.53,15,.48c1.11.88.91,3,.22,4.42a7.56,7.56,0,0,1,.72,4.36c-3.22.13-7,0-10.1.06a3.13,3.13,0,0,0,2.7,3.11,3.44,3.44,0,0,0,3.26-1.64h3.86a7,7,0,0,1-7.5,4.81A7.92,7.92,0,0,1,5.75,15c-1.29.71-4.16,1.75-5.3.28-.87-1.12-.31-3.15.17-4.47A17.1,17.1,0,0,1,5.2,3.93s.06-.06.06-.11A16,16,0,0,0,1.78,6.77ZM15.35,2.58C15.3.65,12.8.84,11.49,1.61a7.81,7.81,0,0,1,3.42,2.77,5.14,5.14,0,0,0,.44-1.81ZM5.8,7.27h6.12C11.75,3.34,6,3.66,5.8,7.27ZM1.28,14.18c.31,1.74,2.76,1.24,3.86.45A7.83,7.83,0,0,1,2.05,10.9a6.44,6.44,0,0,0-.77,3.28Zm0,0"/></g></g></svg>