<svg xmlns="http://www.w3.org/2000/svg" viewBox="0 0 15.91 14.37"><defs><style>.cls-1{fill:#fff;}</style></defs><title>icon-office</title><g id="图层_2" data-name="图层 2"><g id="图层_1-2" data-name="图层 1"><g id="图层_2-2" data-name="图层 2"><g id="图层_1-2-2" data-name="图层 1-2"><rect class="cls-1" y="2.48" width="15.91" height="11.89" rx="1" ry="1"/><path class="cls-1" d="M9.85,3.92H6.06a1.5,1.5,0,0,1-1.5-1.5V1.5A1.5,1.5,0,0,1,6.06,0H9.85a1.5,1.5,0,0,1,1.5,1.5v.92A1.5,1.5,0,0,1,9.85,3.92ZM6.06,1a.5.5,0,0,0-.5.5v.92a.5.5,0,0,0,.5.5H9.85a.5.5,0,0,0,.5-.5V1.5a.5.5,0,0,0-.5-.5Z"/></g></g></g></g></svg>