<svg xmlns="http://www.w3.org/2000/svg" viewBox="0 0 15.44 16"><defs><style>.cls-1{fill:#fff;}</style></defs><title>icon-egdrill</title><g id="图层_2" data-name="图层 2"><g id="图层_1-2" data-name="图层 1"><path class="cls-1" d="M7.72,15.11"/><path class="cls-1" d="M4.54,8.62A.53.53,0,0,1,4,8.09V7.88a.52.52,0,0,1,.16-.37.54.54,0,0,1,.38-.15H7.44V3.24a.52.52,0,0,1,.16-.37A.54.54,0,0,1,8,2.72H8.2a.53.53,0,0,1,.54.53V8.09a.53.53,0,0,1-.54.53Z"/><path class="cls-1" d="M7.12,9"/><path class="cls-1" d="M14.44,10.54,9.13,16l1.37-3.73-2.31-.35,5.1-5.46L11.5,10.2Zm0,0"/><path class="cls-1" d="M7.72,0A7.64,7.64,0,0,0,0,7.56a7.64,7.64,0,0,0,7.72,7.56H8V13.91a6.58,6.58,0,0,1-5.18-2.13,6.27,6.27,0,0,1-.64-7.63A6.58,6.58,0,0,1,9.53,1.43a6.39,6.39,0,0,1,4.7,6.12c0,.08,0,.16,0,.24h1.21c0-.08,0-.16,0-.24A7.64,7.64,0,0,0,7.72,0Z"/></g></g></svg>