<svg xmlns="http://www.w3.org/2000/svg" viewBox="0 0 16 11.41"><defs><style>.cls-1{fill:#fff;}</style></defs><title>icon-sampl</title><g id="图层_2" data-name="图层 2"><g id="图层_1-2" data-name="图层 1"><g id="图层_2-2" data-name="图层 2"><g id="图层_1-2-2" data-name="图层 1-2"><path class="cls-1" d="M10.31,2.72H7.81V2a.89.89,0,0,0-.89-.89h-6A.89.89,0,0,0,0,2V9.27a.89.89,0,0,0,.89.89H2.23a1.59,1.59,0,0,0,3.1,0H8.09a1.59,1.59,0,0,0,3.12,0H12a.89.89,0,0,0,.89-.89V6.1ZM3.8,10.5a.68.68,0,1,1,.64-.73v0A.68.68,0,0,1,3.8,10.5Zm5.86,0a.68.68,0,1,1,.68-.68h0a.68.68,0,0,1-.68.68h0ZM11,5.69a.26.26,0,0,1-.26.26H9.13a.26.26,0,0,1-.26-.26V4.11a.26.26,0,0,1,.26-.26H10L11,5Z"/><rect class="cls-1" x="14.76" y="6.03" width="1.24" height="5.38"/><rect class="cls-1" x="15.11" y="0.17" width="0.55" height="6.2"/><rect class="cls-1" x="4.2" y="0.16" width="0.55" height="6.2"/><rect class="cls-1" x="4.41" width="11.25" height="0.55"/></g></g></g></g></svg>