<svg xmlns="http://www.w3.org/2000/svg" viewBox="0 0 15.38 16.36"><defs><style>.cls-1{fill:#fff;}</style></defs><title>icon-transfer</title><g id="图层_2" data-name="图层 2"><g id="图层_1-2" data-name="图层 1"><g id="图层_2-2" data-name="图层 2"><g id="图层_1-2-2" data-name="图层 1-2"><rect class="cls-1" x="10.03" y="7.01" width="3.38" height="3.38"/><rect class="cls-1" x="2.02" y="8.54" width="4.55" height="0.73"/><rect class="cls-1" x="5.81" y="7.28" width="0.59" height="2.18" transform="translate(-4.13 6.77) rotate(-45)"/><rect class="cls-1" x="4.99" y="9.21" width="2.21" height="0.59" transform="translate(-4.93 7.09) rotate(-45)"/><rect class="cls-1" x="2.02" y="11.8" width="3.38" height="3.38"/><rect class="cls-1" x="8.86" y="13.33" width="4.55" height="0.73"/><rect class="cls-1" x="8.23" y="12.86" width="2.18" height="0.59" transform="translate(-6.57 10.44) rotate(-45)"/><rect class="cls-1" x="9.03" y="13.18" width="0.59" height="2.21" transform="translate(-7.37 10.78) rotate(-45)"/><polygon class="cls-1" points="15.33 16.36 14.33 16.36 14.38 4.79 7.64 1.14 1 4.79 1 16.3 0 16.3 0 4.19 7.64 0 15.38 4.19 15.33 16.36"/><polygon class="cls-1" points="7.59 0.64 14.78 4.58 14.87 4.82 0.54 4.83 7.59 0.64"/></g></g></g></g></svg>