<svg xmlns="http://www.w3.org/2000/svg" viewBox="0 0 16 14.27"><defs><style>.cls-1{fill:#fff;}</style></defs><title>icon-pdaccident</title><g id="图层_2" data-name="图层 2"><g id="图层_1-2" data-name="图层 1"><path class="cls-1" d="M15.66,11.86,9.39,1c-.77-1.32-2-1.32-2.82,0L.33,11.86c-.77,1.33-.14,2.41,1.39,2.41H14.27c1.53,0,2.19-1.09,1.39-2.42ZM7.13,4.08a1.2,1.2,0,0,1,1.72,0A1.28,1.28,0,0,1,9.19,5c0,.31-.47,2.6-.62,4.26H7.44C7.3,7.58,6.8,5.29,6.8,5a1.28,1.28,0,0,1,.34-.9ZM8.84,12a1.2,1.2,0,0,1-1.69,0,1.12,1.12,0,0,1-.35-.84,1.2,1.2,0,0,1,2-.85,1.15,1.15,0,0,1,.36.85,1.12,1.12,0,0,1-.36.84Zm0,0"/></g></g></svg>