<svg xmlns="http://www.w3.org/2000/svg" viewBox="0 0 16 12.33"><defs><style>.cls-1{fill:#6e6e6e;}</style></defs><title>icon-videofault</title><g id="图层_2" data-name="图层 2"><g id="图层_1-2" data-name="图层 1"><polygon class="cls-1" points="11.23 2.24 9.33 0 7.17 0 9.08 2.24 11.23 2.24"/><polygon class="cls-1" points="8.43 2.24 6.53 0 4.37 0 6.28 2.24 8.43 2.24"/><path class="cls-1" d="M12.89,2.24V.84A.83.83,0,0,0,12,0H10l1.91,2.24Z"/><path class="cls-1" d="M12.89,4.81v-2H0v8.69a.83.83,0,0,0,.84.84H8ZM4.48,9.25V5.32c0-.48.39-.7.84-.7a.89.89,0,0,1,.45.11L9,6.58A.79.79,0,0,1,9,8L5.77,9.83a.82.82,0,0,1-.45.11C4.88,9.95,4.48,9.72,4.48,9.25Z"/><path class="cls-1" d="M.92,0H.84A.83.83,0,0,0,0,.84v1.4H2.83Z"/><polygon class="cls-1" points="5.63 2.24 3.73 0 1.57 0 3.47 2.24 5.63 2.24"/><path class="cls-1" d="M15.87,11.44l-2.6-4.3a.55.55,0,0,0-1,0l-2.59,4.3c-.28.49-.05.89.52.89h5.19c.57,0,.81-.4.52-.89ZM12.44,8.56a.45.45,0,0,1,.64,0,.47.47,0,0,1,.12.33c0,.12-.17,1-.23,1.58h-.42c-.05-.61-.24-1.46-.24-1.58a.47.47,0,0,1,.12-.33Zm.63,2.93a.44.44,0,0,1-.63,0,.42.42,0,0,1-.13-.31.44.44,0,0,1,.76-.31.43.43,0,0,1,.13.31.42.42,0,0,1-.13.31Zm0,0"/></g></g></svg>