<svg xmlns="http://www.w3.org/2000/svg" viewBox="0 0 16 13.71"><defs><style>.cls-1{fill:#fff;}</style></defs><title>icon-dynamic</title><g id="图层_2" data-name="图层 2"><g id="图层_1-2" data-name="图层 1"><path class="cls-1" d="M8.26.09,4.13,2.74H2.07A2.06,2.06,0,0,0,0,4.79V8.92A2.06,2.06,0,0,0,2.07,11H4.13l4.13,2.64c.58.25,1,0,1-.59V.68c0-.57-.46-.84-1-.59Zm3.48,3.32a.52.52,0,1,0-.75.7,3,3,0,0,1,.43.67,4.63,4.63,0,0,1,.46,2.06,4.62,4.62,0,0,1-.46,2.06A3,3,0,0,1,11,9.6a.52.52,0,1,0,.75.7,3.91,3.91,0,0,0,.6-.92,5.65,5.65,0,0,0,.57-2.52,5.64,5.64,0,0,0-.57-2.52,3.94,3.94,0,0,0-.6-.92Zm3.17-.64a6.3,6.3,0,0,0-1.13-1.46.52.52,0,1,0-.69.77,3.51,3.51,0,0,1,.28.29A6.31,6.31,0,0,1,14,3.3a6.9,6.9,0,0,1,1,3.56,6.9,6.9,0,0,1-1,3.56,6.43,6.43,0,0,1-.66.92,3.44,3.44,0,0,1-.28.29.52.52,0,1,0,.69.77,6.29,6.29,0,0,0,1.13-1.46A7.92,7.92,0,0,0,16,6.86a7.91,7.91,0,0,0-1.1-4.08Zm0,0"/></g></g></svg>