<svg xmlns="http://www.w3.org/2000/svg" viewBox="0 0 14 16"><defs><style>.cls-1{fill:#fff;}</style></defs><title>icon-post</title><g id="图层_2" data-name="图层 2"><g id="图层_1-2" data-name="图层 1"><path class="cls-1" d="M2.58,7.52H6v.93H2.58ZM2.58,5h3V6h-3Zm0-2.36h8.79v.93H2.58ZM14,16H4.55V12.7c0-1.3,0-2.36,1.57-2.36h.43l2.45,5L8.1,10.73,9.28,9.55a2.36,2.36,0,1,1,2.36-2.36A2.36,2.36,0,0,1,9.28,9.55l1.18,1.18-.92,4.58,2.45-5h.44C14,10.34,14,11.4,14,12.7Zm0,0"/><path class="cls-1" d="M3.52,16H1.25A1.25,1.25,0,0,1,0,14.75V1.25A1.25,1.25,0,0,1,1.25,0h11.5A1.25,1.25,0,0,1,14,1.25V9l-1-.43V1.25A.25.25,0,0,0,12.75,1H1.25A.25.25,0,0,0,1,1.25v13.5a.25.25,0,0,0,.25.25H3.52v1Zm0,0"/></g></g></svg>