<svg xmlns="http://www.w3.org/2000/svg" viewBox="0 0 16 12.62"><defs><style>.cls-1{fill:#fff;}</style></defs><title>icon-hiddendanger</title><g id="图层_2" data-name="图层 2"><g id="图层_1-2" data-name="图层 1"><g id="图层_2-2" data-name="图层 2"><g id="图层_1-2-2" data-name="图层 1-2"><path class="cls-1" d="M15.68,3l-1.75-.33a.42.42,0,0,0-.46.37L12.2,10a.42.42,0,0,0,.29.51l1.75.33a.42.42,0,0,0,.46-.37L16,3.53A.42.42,0,0,0,15.69,3Zm-1.17,7a.13.13,0,1,1-.25,0l.81-4.43a.13.13,0,1,1,.25,0Zm1-6.26L14.21,3.5a.15.15,0,0,1-.1-.18.14.14,0,0,1,.15-.13h0l1.36.25a.16.16,0,0,1-.06.3Z"/><polygon class="cls-1" points="13.06 12.62 14.53 11.28 12.15 10.83 13.06 12.62"/><path class="cls-1" d="M5.77.88.29,10.44c-.67,1.17-.12,2.12,1.23,2.12h9L11.77,7,8.26.88a1.32,1.32,0,0,0-2.49,0Zm.5,2.73h0a1.06,1.06,0,0,1,1.5,0l0,0a1.12,1.12,0,0,1,.3.8c0,.28-.41,2.29-.55,3.75h-1C6.42,6.69,6,4.67,6,4.4A1.12,1.12,0,0,1,6.27,3.61Zm1.5,7a1.06,1.06,0,0,1-1.49,0A1,1,0,0,1,6,9.83a1,1,0,0,1,1.8-.75,1,1,0,0,1,0,1.49Z"/></g></g></g></g></svg>