<svg xmlns="http://www.w3.org/2000/svg" viewBox="0 0 15.01 16"><defs><style>.cls-1{fill:#fff;}</style></defs><title>icon-business</title><g id="图层_2" data-name="图层 2"><g id="图层_1-2" data-name="图层 1"><path class="cls-1" d="M11.11,12.56V9.23a3.39,3.39,0,1,0,3.42,3.39s0,0,0-.05Z"/><path class="cls-1" d="M15,12.1s0,0,0-.05a3.39,3.39,0,0,0-3.39-3.39h-.05v3.41"/><path class="cls-1" d="M12.11,4.05,9,4A1,1,0,0,1,8,3v-3"/><path class="cls-1" d="M8.74,4.69a1.58,1.58,0,0,1-1.4-1.4V0H1A1,1,0,0,0,0,1V14.29a1,1,0,0,0,1,1H7.8A4.49,4.49,0,0,1,12.09,8V4.69ZM5.38,12.18H2.53a.48.48,0,0,1,0-1H5.38a.48.48,0,0,1,0,1ZM6.61,9.46H2.53a.48.48,0,0,1,0-1H6.61a.48.48,0,0,1,0,1Zm0-2.72H2.53a.48.48,0,0,1,0-1H6.61a.48.48,0,0,1,0,1Z"/></g></g></svg>