<svg xmlns="http://www.w3.org/2000/svg" viewBox="0 0 10.8 16"><defs><style>.cls-1{fill:#6e6e6e;}</style></defs><title>icon-cwgrain</title><g id="图层_2" data-name="图层 2"><g id="图层_1-2" data-name="图层 1"><path class="cls-1" d="M6.82,8.4v-6A2.48,2.48,0,0,0,4.3,0,2.48,2.48,0,0,0,1.79,2.45v6A4.14,4.14,0,0,0,0,11.8,4.26,4.26,0,0,0,4.3,16a4.26,4.26,0,0,0,4.3-4.2A4.14,4.14,0,0,0,6.82,8.4ZM4.3,15.08A3.32,3.32,0,0,1,.94,11.8,3.24,3.24,0,0,1,2.52,9l.22-.14V2.45a1.57,1.57,0,0,1,3.14,0V8.9L6.09,9A3.24,3.24,0,0,1,7.66,11.8,3.32,3.32,0,0,1,4.3,15.08Z"/><path class="cls-1" d="M4.74,10.31V4.24H3.87v6.08a1.49,1.49,0,0,0-1.09,1.42,1.52,1.52,0,0,0,3,0A1.49,1.49,0,0,0,4.74,10.31Z"/><rect class="cls-1" x="7.85" y="1.72" width="2.95" height="0.91" rx="0.42" ry="0.42"/><rect class="cls-1" x="7.85" y="3.64" width="2.95" height="0.91" rx="0.42" ry="0.42"/><rect class="cls-1" x="7.85" y="5.56" width="2.95" height="0.91" rx="0.42" ry="0.42"/></g></g></svg>