<svg xmlns="http://www.w3.org/2000/svg" viewBox="0 0 15.89 14.21"><defs><style>.cls-1{fill:#fff;}</style></defs><title>icon-home2</title><g id="图层_2" data-name="图层 2"><g id="图层_1-2" data-name="图层 1"><g id="图层_2-2" data-name="图层 2"><g id="图层_1-2-2" data-name="图层 1-2"><polyline class="cls-1" points="0.5 7.63 7.95 0.5 15.39 7.63"/><path class="cls-1" d="M15.39,8.13A.5.5,0,0,1,15,8L7.95,1.19.85,8a.5.5,0,0,1-.69-.72L7.6.14a.5.5,0,0,1,.69,0l7.44,7.13a.5.5,0,0,1-.35.86Z"/><polygon class="cls-1" points="1.33 7.46 1.33 14.21 5.89 14.21 5.89 9.42 10.07 9.42 10.07 14.21 14.62 14.21 14.62 7.46 1.33 7.46"/></g></g></g></g></svg>