<svg xmlns="http://www.w3.org/2000/svg" viewBox="0 0 16 10.29"><defs><style>.cls-1{fill:#fff;}</style></defs><title>icon-wage</title><g id="图层_2" data-name="图层 2"><g id="图层_1-2" data-name="图层 1"><path class="cls-1" d="M.82,10.29H15.18A.82.82,0,0,0,16,9.47V4.8H0V9.47a.82.82,0,0,0,.82.82ZM3.91,7.18a.32.32,0,0,1,.63,0V8.26a.32.32,0,1,1-.63,0Zm-1.38,0a.32.32,0,0,1,.63,0V8.26a.32.32,0,1,1-.63,0Zm-1.37,0a.32.32,0,0,1,.63,0V8.26a.32.32,0,1,1-.63,0ZM0,.82V2.64H16V.82A.82.82,0,0,0,15.18,0H.82A.82.82,0,0,0,0,.82Zm0,0"/></g></g></svg>