<svg xmlns="http://www.w3.org/2000/svg" viewBox="0 0 15.77 16"><defs><style>.cls-1{fill:#fff;}</style></defs><title>icon-capital</title><g id="图层_2" data-name="图层 2"><g id="图层_1-2" data-name="图层 1"><path class="cls-1" d="M.34,7.63l.84-.46a.38.38,0,0,1,.18,0h0a.37.37,0,0,1,.18,0l6.11,3.35a.38.38,0,0,0,.18,0h0a.37.37,0,0,0,.18,0l6.11-3.35a.38.38,0,0,1,.18,0h0a.37.37,0,0,1,.18,0l.85.47a.38.38,0,0,1,0,.66L8.16,12.35a.39.39,0,0,1-.19,0h0a.37.37,0,0,1-.18,0L.34,8.29a.38.38,0,0,1,0-.67ZM.11,4.21,7.68,0a.38.38,0,0,1,.18,0h0a.37.37,0,0,1,.18,0l7.57,4.16a.22.22,0,0,1,0,.38L8.09,8.76a.38.38,0,0,1-.18,0h0a.37.37,0,0,1-.18,0L.18,4.63A.35.35,0,0,1,0,4.5a.18.18,0,0,1,.07-.29Zm7.81,10,6.19-3.4a.38.38,0,0,1,.18,0h0a.37.37,0,0,1,.18,0l.85.47a.38.38,0,0,1,0,.66L8.09,16a.39.39,0,0,1-.19,0h0a.37.37,0,0,1-.18,0L.34,11.89a.38.38,0,0,1,0-.67l.84-.46a.38.38,0,0,1,.18,0h0a.37.37,0,0,1,.18,0L7.66,14.1a.41.41,0,0,1,.12.09s.15,0,.15,0Zm0,0"/></g></g></svg>