<svg xmlns="http://www.w3.org/2000/svg" viewBox="0 0 15.96 16"><defs><style>.cls-1{fill:#fff;}</style></defs><title>icon-mmarket</title><g id="图层_2" data-name="图层 2"><g id="图层_1-2" data-name="图层 1"><path class="cls-1" d="M9.68,5.8a2.32,2.32,0,0,1-3.28.12,2.32,2.32,0,0,1,.12-3.28C7.46,1.7,12-.24,12.29,0S10.62,4.86,9.68,5.8Z"/><path class="cls-1" d="M10.17,9.77a2.32,2.32,0,0,1-.12-3.28,2.32,2.32,0,0,1,3.28.12c.94.94,2.87,5.51,2.61,5.77S11.11,10.71,10.17,9.77Z"/><path class="cls-1" d="M6.35,10.2a2.32,2.32,0,0,1,3.28-.12,2.32,2.32,0,0,1-.12,3.28C8.58,14.3,4,16.24,3.74,16S5.42,11.14,6.35,10.2Z"/><path class="cls-1" d="M5.8,6.34a2.32,2.32,0,0,1,.12,3.28A2.32,2.32,0,0,1,2.64,9.5C1.7,8.56-.24,4,0,3.73S4.86,5.4,5.8,6.34Z"/></g></g></svg>