<svg xmlns="http://www.w3.org/2000/svg" viewBox="0 0 12.82 16"><defs><style>.cls-1{fill:#fff;}</style></defs><title>icon-file</title><g id="图层_2" data-name="图层 2"><g id="图层_1-2" data-name="图层 1"><path class="cls-1" d="M1,2.09A1.14,1.14,0,0,1,2.09,1h6V1a1,1,0,0,0-1-1H1A1,1,0,0,0,0,1V12.38a1,1,0,0,0,1,1H1Z"/><path class="cls-1" d="M12.82,5.35H9.93a1,1,0,0,1-1-1V1.49"/><path class="cls-1" d="M9.55,5.92A1.33,1.33,0,0,1,8.4,4.76V1.53H2.49a1,1,0,0,0-1,1V15a1,1,0,0,0,1,1h9.34a1,1,0,0,0,1-1V5.92Zm.06,5.7H3.94a.48.48,0,1,1,0-1H9.62a.48.48,0,0,1,0,1Zm0-3.06H3.94a.48.48,0,0,1,0-1H9.62a.48.48,0,0,1,0,1Z"/></g></g></svg>