<svg xmlns="http://www.w3.org/2000/svg" viewBox="0 0 14.57 15.9"><defs><style>.cls-1{fill:#fff;}</style></defs><title>icon-wzenter</title><g id="图层_2" data-name="图层 2"><g id="图层_1-2" data-name="图层 1"><g id="图层_2-2" data-name="图层 2"><g id="图层_1-2-2" data-name="图层 1-2"><rect class="cls-1" x="8.73" y="10.92" width="3.19" height="3.19"/><rect class="cls-1" x="8.73" y="6.58" width="3.19" height="3.19"/><rect class="cls-1" x="3.3" y="10.92" width="3.19" height="3.19"/><rect class="cls-1" x="1.18" y="8.02" width="4.29" height="0.68"/><rect class="cls-1" x="4.76" y="6.83" width="0.55" height="2.06" transform="translate(-4.08 5.86) rotate(-45)"/><rect class="cls-1" x="3.98" y="8.65" width="2.09" height="0.55" transform="translate(-4.84 6.17) rotate(-45)"/><path class="cls-1" d="M14,15.9H12.08a.5.5,0,0,1,0-1h1.44l0-10.4L7.24,1.07,1,4.5V5.9a.5.5,0,0,1-1,0V4.2a.5.5,0,0,1,.26-.44L7,.06a.5.5,0,0,1,.48,0l6.83,3.7a.5.5,0,0,1,.26.44l-.05,11.2A.5.5,0,0,1,14,15.9Z"/><polygon class="cls-1" points="7.19 0.56 13.97 4.28 14.06 4.5 0.54 4.52 7.19 0.56"/></g></g></g></g></svg>