<svg xmlns="http://www.w3.org/2000/svg" viewBox="0 0 16 14.17"><defs><style>.cls-1{fill:#fff;}</style></defs><title>icon-mnotice</title><g id="图层_2" data-name="图层 2"><g id="图层_1-2" data-name="图层 1"><path class="cls-1" d="M16,6.86C15.88,3.21,14.61,0,13.29,0c-2.24,0-.65,4.81-11.64,4.92C.7,4.93,0,6.13,0,7S.84,9.11,1.79,9.1l.75,0c.27,1,1.07.76,1.09,1.32s.08,2.14.1,2.64.29,1.06.66,1.06l2.08,0a.63.63,0,0,0,.71-.64c0-.35-.53-.65-.55-1.06s-.07-1.73-.08-2.14.59-.79,1.24-.61c4.49,1.2,4.25,4.06,5.95,4,1.32,0,2.38-3.26,2.27-6.91Zm-2.56,4.88c-.29,0-1.46-1.92-1.55-4.76s1-5,1.25-5,1.31,2.18,1.4,5-.8,4.75-1.1,4.75Zm0,0"/></g></g></svg>