<svg xmlns="http://www.w3.org/2000/svg" viewBox="0 0 16 15.59"><defs><style>.cls-1{fill:#6e6e6e;}</style></defs><title>icon-cgrains</title><g id="图层_2" data-name="图层 2"><g id="图层_1-2" data-name="图层 1"><path class="cls-1" d="M8.32,8.13A1,1,0,0,0,7.63,8c.69-1,1-2.75.65-3.12S6.92,4.7,6.06,5a2.47,2.47,0,0,0,.12-.74c0-1.86-1.36-3.22-1.94-3.22S2.3,2.53,2.3,4.29A2.48,2.48,0,0,0,2.41,5C1.55,4.7.5,4.55.21,4.85S0,5.77.16,6.34A4.93,4.93,0,0,0,.85,8a1,1,0,0,0-.69.16c-.24.24-.17,1,0,1.58a4.33,4.33,0,0,0,1,2,3.11,3.11,0,0,0,1.16.7v1.76h.82V12.58a3.36,3.36,0,0,0,.71,0v2.56h.82V12.61a3.34,3.34,0,0,0,.71,0v1.56h.82V12.38a3.11,3.11,0,0,0,1.16-.7,4.32,4.32,0,0,0,1-2C8.49,9.11,8.56,8.38,8.32,8.13ZM4.65,11.51v-.45a2.84,2.84,0,0,1,.7-1.37,4,4,0,0,1,2.39-1,4,4,0,0,1-1,2.39,2.86,2.86,0,0,1-2.11.74v-.19S4.65,11.56,4.65,11.51ZM6.72,7.79a2.8,2.8,0,0,1-2.09.73,3.11,3.11,0,0,0,0-.66A2.86,2.86,0,0,1,5.34,6.4a3.88,3.88,0,0,1,2.36-1A4,4,0,0,1,6.72,7.79ZM4.24,6.18A2.29,2.29,0,0,1,3.11,4.29a2.92,2.92,0,0,1,1.12-2.4,3,3,0,0,1,1.12,2.4A2.36,2.36,0,0,1,4.24,6.18ZM3.86,8.51a2.71,2.71,0,0,1-2.11-.72,4,4,0,0,1-1-2.36,4,4,0,0,1,2.36,1A2.68,2.68,0,0,1,3.86,8.51Zm.74.78a3,3,0,0,0-.37.58,3,3,0,0,0-.37-.58,1.43,1.43,0,0,0,.37-.08A1.42,1.42,0,0,0,4.61,9.29Zm-.78,1.77v.78a2.84,2.84,0,0,1-2.11-.74,4,4,0,0,1-1-2.39,4,4,0,0,1,2.39,1A2.84,2.84,0,0,1,3.83,11.06Z"/><path class="cls-1" d="M14.54,9.38V2a2.05,2.05,0,0,0-4.11,0V9.38A3.39,3.39,0,0,0,9,12.16a3.52,3.52,0,0,0,7,0A3.38,3.38,0,0,0,14.54,9.38Zm-2.05,5.46a2.71,2.71,0,0,1-2.74-2.68A2.65,2.65,0,0,1,11,9.9l.18-.11V2a1.28,1.28,0,0,1,2.56,0V9.79l.18.11a2.65,2.65,0,0,1,1.28,2.26A2.71,2.71,0,0,1,12.48,14.84Z"/><path class="cls-1" d="M12.87,10.9V3.37H12.1V10.9a1.33,1.33,0,0,0-1,1.26,1.36,1.36,0,0,0,2.72,0A1.33,1.33,0,0,0,12.87,10.9Z"/></g></g></svg>