<svg xmlns="http://www.w3.org/2000/svg" viewBox="0 0 16 13.33"><defs><style>.cls-1{fill:#fff;}</style></defs><title>icon-configure</title><g id="图层_2" data-name="图层 2"><g id="图层_1-2" data-name="图层 1"><path class="cls-1" d="M16,7.64v5a.68.68,0,0,1-.67.67H.67a.64.64,0,0,1-.47-.2.64.64,0,0,1-.2-.47v-5A3.35,3.35,0,0,1,.26,6.36L2.74.61A.93.93,0,0,1,3.12.18,1,1,0,0,1,3.67,0h8.66a1,1,0,0,1,.55.18.93.93,0,0,1,.38.44l2.48,5.75A3.35,3.35,0,0,1,16,7.64Zm-5.34-.31h3.29l0-.09,0-.08L11.68,2H4.31L2.1,7.16l0,.09,0,.08H5.34l1,2H9.66l1-2Zm0,0"/></g></g></svg>