<svg xmlns="http://www.w3.org/2000/svg" viewBox="0 0 14.54 15.88"><defs><style>.cls-1{fill:#fff;}</style></defs><title>icon-wzshift</title><g id="图层_2" data-name="图层 2"><g id="图层_1-2" data-name="图层 1"><g id="图层_2-2" data-name="图层 2"><g id="图层_1-2-2" data-name="图层 1-2"><rect class="cls-1" x="8.72" y="10.91" width="3.18" height="3.18"/><rect class="cls-1" x="3.3" y="6.57" width="3.18" height="3.18"/><rect class="cls-1" x="3.3" y="10.91" width="3.18" height="3.18"/><rect class="cls-1" x="8.76" y="8.01" width="4.29" height="0.68"/><rect class="cls-1" x="12.34" y="6.81" width="0.55" height="2.05" transform="translate(-1.85 11.22) rotate(-45)"/><rect class="cls-1" x="11.56" y="8.64" width="2.08" height="0.55" transform="translate(-2.61 11.52) rotate(-45)"/><path class="cls-1" d="M2.48,15.88H.55a.5.5,0,0,1-.5-.5L0,4.19a.5.5,0,0,1,.26-.44L7.08.06a.5.5,0,0,1,.48,0l6.72,3.69a.5.5,0,0,1,.26.44v1.7a.5.5,0,0,1-1,0V4.49L7.32,1.07,1,4.49,1,14.88H2.48a.5.5,0,0,1,0,1Z"/><polygon class="cls-1" points="7.37 0.56 0.59 4.28 0.51 4.5 14 4.51 7.37 0.56"/></g></g></g></g></svg>