<svg xmlns="http://www.w3.org/2000/svg" viewBox="0 0 16 12.54"><defs><style>.cls-1{fill:#fff;}</style></defs><title>icon-mgrecord</title><g id="图层_2" data-name="图层 2"><g id="图层_1-2" data-name="图层 1"><path class="cls-1" d="M15,1.93H8L5.76.21A1,1,0,0,0,5.14,0H1A1,1,0,0,0,0,1V11.58a1,1,0,0,0,1,1H15a1,1,0,0,0,1-1V2.89A1,1,0,0,0,15,1.93ZM11.28,7.81a.83.83,0,0,0,.41.3l.1.06a.35.35,0,0,1,.13.19.69.69,0,0,1,0,.24,1.33,1.33,0,0,1-.08.28,1.28,1.28,0,0,1-.14.26.53.53,0,0,1-.19.16.39.39,0,0,1-.18,0,.5.5,0,0,1-.17,0l-.21,0a1.15,1.15,0,0,0-.26,0l-.26.05a.53.53,0,0,0-.22.14.79.79,0,0,0-.24.47.93.93,0,0,0,.07.5.31.31,0,0,1,0,.33.58.58,0,0,1-.16.13L9.61,11l-.28.09a1.1,1.1,0,0,1-.25,0,.21.21,0,0,1-.14-.06A.38.38,0,0,1,8.85,11h0a1.05,1.05,0,0,0-.32-.44A.8.8,0,0,0,8,10.33a.82.82,0,0,0-.52.18,1,1,0,0,0-.33.43.29.29,0,0,1-.13.14.38.38,0,0,1-.19,0,1,1,0,0,1-.26,0l-.3-.1A1.38,1.38,0,0,1,6,10.84a.73.73,0,0,1-.18-.16.26.26,0,0,1,0-.13.48.48,0,0,1,.06-.22.78.78,0,0,0,.07-.43.74.74,0,0,0-.22-.44.58.58,0,0,0-.29-.16,1.2,1.2,0,0,0-.32,0,1.37,1.37,0,0,0-.36.06.36.36,0,0,1-.24,0,.38.38,0,0,1-.17-.15,1.68,1.68,0,0,1-.15-.26,1.63,1.63,0,0,1-.1-.29.62.62,0,0,1,0-.25.25.25,0,0,1,.17-.23,1.22,1.22,0,0,0,.46-.32.73.73,0,0,0,.2-.5.7.7,0,0,0-.2-.5,1.3,1.3,0,0,0-.46-.31.22.22,0,0,1-.13-.12.38.38,0,0,1-.05-.19A.87.87,0,0,1,4.1,6a1.52,1.52,0,0,1,.09-.25,1.28,1.28,0,0,1,.13-.22.54.54,0,0,1,.16-.15.21.21,0,0,1,.13,0l.14,0a1,1,0,0,0,.53.06.86.86,0,0,0,.48-.23.58.58,0,0,0,.15-.24A1.26,1.26,0,0,0,6,4.63a1.42,1.42,0,0,0,0-.25l0-.16,0-.11a.18.18,0,0,1,0-.11.49.49,0,0,1,.18-.2,1.48,1.48,0,0,1,.28-.14l.3-.09.23,0a.23.23,0,0,1,.17.07.38.38,0,0,1,.09.14,1,1,0,0,0,.3.39.79.79,0,0,0,.5.17.9.9,0,0,0,.52-.16.82.82,0,0,0,.32-.4.52.52,0,0,1,.11-.13.21.21,0,0,1,.15-.07,1.05,1.05,0,0,1,.26,0l.28.09a1,1,0,0,1,.25.15A.85.85,0,0,1,10,4a.18.18,0,0,1,0,.14.49.49,0,0,1,0,.11.83.83,0,0,0-.07.5.81.81,0,0,0,.74.67,1.17,1.17,0,0,0,.55-.09.28.28,0,0,1,.17,0,.27.27,0,0,1,.17.07,1,1,0,0,1,.22.35,1.72,1.72,0,0,1,.13.47.27.27,0,0,1,0,.22.34.34,0,0,1-.13.1,1,1,0,0,0-.45.32.78.78,0,0,0-.19.51A.8.8,0,0,0,11.28,7.81Z"/><path class="cls-1" d="M9.29,6.06a1.84,1.84,0,0,0-.59-.38A1.89,1.89,0,0,0,8,5.54a1.84,1.84,0,0,0-1.3.52,1.78,1.78,0,0,0-.39.56A1.76,1.76,0,0,0,6.3,8a1.85,1.85,0,0,0,.39.57A1.87,1.87,0,0,0,7.28,9,1.77,1.77,0,0,0,8,9.1,1.89,1.89,0,0,0,8.71,9a1.78,1.78,0,0,0,.59-.38A1.84,1.84,0,0,0,9.69,8a1.69,1.69,0,0,0,.14-.69,1.72,1.72,0,0,0-.14-.69A1.74,1.74,0,0,0,9.29,6.06Z"/></g></g></svg>