<svg xmlns="http://www.w3.org/2000/svg" viewBox="0 0 16 16"><defs><style>.cls-1{fill:#fff;}</style></defs><title>icon-flow</title><g id="图层_2" data-name="图层 2"><g id="图层_1-2" data-name="图层 1"><path class="cls-1" d="M14.93,10.67H13.87V8.53A1.07,1.07,0,0,0,12.8,7.47H8.53V5.33h2.13a1.07,1.07,0,0,0,1.07-1.07V1.07A1.07,1.07,0,0,0,10.67,0H5.33A1.07,1.07,0,0,0,4.27,1.07v3.2A1.07,1.07,0,0,0,5.33,5.33H7.47V7.47H3.2A1.07,1.07,0,0,0,2.13,8.53v2.13H1.07A1.07,1.07,0,0,0,0,11.73v3.2A1.07,1.07,0,0,0,1.07,16h3.2a1.07,1.07,0,0,0,1.07-1.07v-3.2a1.07,1.07,0,0,0-1.07-1.07H3.2V8.53h9.6v2.13H11.73a1.07,1.07,0,0,0-1.07,1.07v3.2A1.07,1.07,0,0,0,11.73,16h3.2A1.07,1.07,0,0,0,16,14.93v-3.2a1.07,1.07,0,0,0-1.07-1.07Zm0,0"/></g></g></svg>