<svg xmlns="http://www.w3.org/2000/svg" viewBox="0 0 15.44 14.42"><defs><style>.cls-1{fill:#fff;}</style></defs><title>icon-sfconference</title><g id="图层_2" data-name="图层 2"><g id="图层_1-2" data-name="图层 1"><path class="cls-1" d="M6.76,4.88q0-.08.13-.1l.33,0,.44-.08a1.26,1.26,0,0,0,.45-.2,2.44,2.44,0,0,0,.28-.22L8.65,4l.24-.2a1,1,0,0,1,.25-.14V6H6.79q0-.26,0-.54t0-.6M8.89,9.82l-.62-.5a5.62,5.62,0,0,1-.49-.47,3.45,3.45,0,0,1-.38-.48,3.17,3.17,0,0,1-.28-.54,3.8,3.8,0,0,1-.19-.63,6.52,6.52,0,0,1-.11-.78H9.14v3.5L9,9.89l-.12-.06m.65-3.4h2.31a6.49,6.49,0,0,1-.1.77,4,4,0,0,1-.17.62,2.67,2.67,0,0,1-.26.52,3.84,3.84,0,0,1-.37.48q-.23.26-.49.49l-.62.56a.83.83,0,0,1-.31.09V6.43m1.12-1.88a1,1,0,0,0,.39.16l.4.05.32,0q.13,0,.13.07,0,.66,0,1.17H9.54V3.65a.8.8,0,0,1,.3.14A2.51,2.51,0,0,1,10.1,4l.26.27a2.07,2.07,0,0,0,.29.25"/><path class="cls-1" d="M15,1.56H8.2V.49a.49.49,0,1,0-1,0V1.56H.49a.49.49,0,1,0,0,1h.81v8.6a1.34,1.34,0,0,0,1.33,1.33H6.4L5.25,13.6a.48.48,0,0,0,.68.68l1.64-1.64a.19.19,0,0,1,.28,0L9.5,14.28a.48.48,0,1,0,.68-.68L9,12.46H12.8a1.34,1.34,0,0,0,1.33-1.33V2.52H15a.48.48,0,1,0,0-1Zm-1.79,9.57a.36.36,0,0,1-.36.36H2.63a.36.36,0,0,1-.36-.36V2.52h10.9Zm0,0"/><path class="cls-1" d="M5.33,6.12H3.57a.47.47,0,1,1,0-.93H5.33a.47.47,0,0,1,0,.93Zm0,2.47H3.57a.47.47,0,1,1,0-.93H5.33a.47.47,0,0,1,0,.93Zm0,0"/></g></g></svg>