<svg xmlns="http://www.w3.org/2000/svg" viewBox="0 0 16 13.48"><defs><style>.cls-1{fill:#fff;}</style></defs><title>icon-weigh</title><g id="图层_2" data-name="图层 2"><g id="图层_1-2" data-name="图层 1"><polygon class="cls-1" points="16 13.48 0.64 13.48 1.28 12.55 15.36 12.55 16 13.48"/><path class="cls-1" d="M12.31,3H9.56V2.27a.93.93,0,0,0-.93-.93H5.24A2.94,2.94,0,0,1,1,5.06v5.16a.93.93,0,0,0,.93.93H3.44a1.74,1.74,0,0,0,3.43,0h3a1.74,1.74,0,0,0,3.43,0h.87a.93.93,0,0,0,.93-.93V6.74ZM5.16,11.57a.75.75,0,1,1,.75-.75A.75.75,0,0,1,5.16,11.57Zm6.42,0a.75.75,0,1,1,.75-.75A.75.75,0,0,1,11.58,11.57ZM13.09,6.3a.28.28,0,0,1-.28.28H11a.28.28,0,0,1-.28-.28V4.55A.28.28,0,0,1,11,4.27h1l1.12,1.31Z"/><path class="cls-1" d="M2.57,0A2.57,2.57,0,1,0,5.14,2.57,2.57,2.57,0,0,0,2.57,0ZM2.52.35h.34V1.1H2.52ZM1.11,2.84H.35V2.5h.75ZM4,1.19H4L2.79,2.7a.23.23,0,1,1-.33-.33L4,1.19ZM4,2.84V2.5h.75v.34Z"/></g></g></svg>