<svg xmlns="http://www.w3.org/2000/svg" viewBox="0 0 16 11.3"><defs><style>.cls-1,.cls-2{fill:#fff;}.cls-1{fill-rule:evenodd;}</style></defs><title>icon-cassets</title><g id="图层_2" data-name="图层 2"><g id="图层_1-2" data-name="图层 1"><path class="cls-1" d="M9.83,10.46H8.16V9.62h2.22a3.09,3.09,0,0,1-.16-1A3.12,3.12,0,0,1,14,5.61V1.26A1.26,1.26,0,0,0,12.76,0H1.26A1.26,1.26,0,0,0,0,1.26V8.37A1.26,1.26,0,0,0,1.26,9.62h4.6v.84H4.18a.63.63,0,0,0-.63.63v.21h6.9v-.21A.63.63,0,0,0,9.83,10.46ZM7.53,7.73a.53.53,0,0,1-1.05,0V7.3H5.11a.4.4,0,0,1,0-.79H6.48V5.86H5.11a.4.4,0,0,1,0-.79H6.17L4.53,2.82a.62.62,0,0,1-.13-.37.53.53,0,0,1,.54-.52.6.6,0,0,1,.52.3L7,4.56,8.6,2.24a.61.61,0,0,1,.5-.31.5.5,0,0,1,.53.51.62.62,0,0,1-.13.38L7.83,5.06H8.91a.4.4,0,0,1,0,.79H7.53v.65H8.91a.4.4,0,0,1,0,.79H7.53Z"/><path class="cls-2" d="M16,8.39a.33.33,0,0,0-.24-.24l-.08,0a.82.82,0,0,1-.48-.37.78.78,0,0,1-.09-.59l0-.08a.33.33,0,0,0-.1-.32,2.35,2.35,0,0,0-.3-.19,2.58,2.58,0,0,0-.31-.16.34.34,0,0,0-.33.08L14,6.57a.84.84,0,0,1-1.13,0l-.06-.06a.34.34,0,0,0-.33-.08,2.49,2.49,0,0,0-.31.16,2.26,2.26,0,0,0-.3.19.32.32,0,0,0-.1.32l0,.08a.79.79,0,0,1-.09.59.82.82,0,0,1-.48.37l-.08,0a.34.34,0,0,0-.24.24,2.19,2.19,0,0,0,0,.34,2.19,2.19,0,0,0,0,.34.33.33,0,0,0,.24.24l.08,0a.81.81,0,0,1,.48.37.79.79,0,0,1,.09.59l0,.07a.32.32,0,0,0,.1.32,2.3,2.3,0,0,0,.3.19,2.44,2.44,0,0,0,.31.16.34.34,0,0,0,.33-.08l.05-.06a.84.84,0,0,1,1.13,0l.05.06a.34.34,0,0,0,.33.08,2.51,2.51,0,0,0,.31-.16,2.24,2.24,0,0,0,.3-.19.33.33,0,0,0,.1-.32l0-.08a.78.78,0,0,1,.09-.59.82.82,0,0,1,.48-.37l.08,0A.34.34,0,0,0,16,9.08a2.19,2.19,0,0,0,0-.34A2.27,2.27,0,0,0,16,8.39ZM13.46,9.72a1,1,0,1,1,1-1A1,1,0,0,1,13.46,9.72Z"/></g></g></svg>