<svg xmlns="http://www.w3.org/2000/svg" xmlns:xlink="http://www.w3.org/1999/xlink" viewBox="0 0 15.93 15.98"><defs><style>.cls-1{fill:none;}.cls-2{clip-path:url(#clip-path);}.cls-3{fill:#fff;}</style><clipPath id="clip-path"><rect class="cls-1" width="15.96" height="16"/></clipPath></defs><title>icon-admin</title><g id="图层_2" data-name="图层 2"><g id="图层_1-2" data-name="图层 1"><g id="图层_2-2" data-name="图层 2"><g id="图层_1-2-2" data-name="图层 1-2"><g class="cls-2"><path class="cls-3" d="M15.91,10.16a1.51,1.51,0,0,1,0,.49,2.87,2.87,0,0,1-.17.59,2.69,2.69,0,0,1-.29.54,1.08,1.08,0,0,1-.38.34.78.78,0,0,1-.36.1,1,1,0,0,1-.34-.07l-.43-.1a2.31,2.31,0,0,0-.53,0,2.49,2.49,0,0,0-.53.11,1.06,1.06,0,0,0-.45.29,1.68,1.68,0,0,0-.48,1,2,2,0,0,0,.15,1,.67.67,0,0,1,0,.69,1.19,1.19,0,0,1-.33.28,4,4,0,0,1-.49.26,3.07,3.07,0,0,1-.56.19,2.17,2.17,0,0,1-.51.07.42.42,0,0,1-.29-.12.79.79,0,0,1-.19-.26h0A2.2,2.2,0,0,0,9,14.68a1.59,1.59,0,0,0-1-.38A1.62,1.62,0,0,0,7,14.68a2.12,2.12,0,0,0-.66.9.6.6,0,0,1-.26.3.75.75,0,0,1-.38.1,2,2,0,0,1-.53-.09,4.5,4.5,0,0,1-.6-.22,2.73,2.73,0,0,1-.54-.3A1.49,1.49,0,0,1,3.6,15a.56.56,0,0,1-.1-.28,1,1,0,0,1,.13-.45,1.68,1.68,0,0,0,.14-.9,1.58,1.58,0,0,0-.44-.93,1.16,1.16,0,0,0-.58-.34A2.34,2.34,0,0,0,2.1,12a2.7,2.7,0,0,0-.73.14.71.71,0,0,1-.48,0,.77.77,0,0,1-.35-.32,3.6,3.6,0,0,1-.3-.55A3.46,3.46,0,0,1,0,10.7a1.37,1.37,0,0,1,0-.53.53.53,0,0,1,.34-.48A2.48,2.48,0,0,0,1.28,9,1.56,1.56,0,0,0,1.69,8a1.5,1.5,0,0,0-.41-1A2.62,2.62,0,0,0,.35,6.3.45.45,0,0,1,.1,6,.83.83,0,0,1,0,5.6a1.9,1.9,0,0,1,.07-.5,3.25,3.25,0,0,1,.18-.53A2.64,2.64,0,0,1,.51,4.1a1.1,1.1,0,0,1,.32-.32.43.43,0,0,1,.26-.07,1,1,0,0,1,.28.07,2,2,0,0,0,1.07.13,1.72,1.72,0,0,0,1-.49,1.23,1.23,0,0,0,.3-.5,2.68,2.68,0,0,0,.12-.59,3,3,0,0,0,0-.53V1.46a.39.39,0,0,0-.06-.24A.39.39,0,0,1,3.8,1,1,1,0,0,1,4.13.54,2.92,2.92,0,0,1,4.7.25,3.9,3.9,0,0,1,5.3.07,3.21,3.21,0,0,1,5.76,0a.45.45,0,0,1,.35.14.79.79,0,0,1,.18.3,2.08,2.08,0,0,0,.61.81,1.56,1.56,0,0,0,1,.35A1.77,1.77,0,0,0,9,1.29,1.72,1.72,0,0,0,9.63.44,1.1,1.1,0,0,1,9.84.16a.43.43,0,0,1,.3-.14,2.07,2.07,0,0,1,.52.07,3.55,3.55,0,0,1,.56.19,2,2,0,0,1,.5.31,1.73,1.73,0,0,1,.37.41.4.4,0,0,1,0,.3,1,1,0,0,1-.07.23,1.8,1.8,0,0,0-.14,1,1.69,1.69,0,0,0,.49,1,1.57,1.57,0,0,0,1,.45,2.29,2.29,0,0,0,1.12-.2.55.55,0,0,1,.34-.07.52.52,0,0,1,.34.15,2.11,2.11,0,0,1,.45.73,3.74,3.74,0,0,1,.26,1,.59.59,0,0,1-.1.45.7.7,0,0,1-.26.22,2,2,0,0,0-.91.66A1.68,1.68,0,0,0,14.3,8a1.69,1.69,0,0,0,1.14,1.64l.21.14a.75.75,0,0,1,.26.4ZM8,11.7a3.71,3.71,0,0,0,1.45-.29,3.61,3.61,0,0,0,1.19-.81,3.89,3.89,0,0,0,.8-1.19A3.66,3.66,0,0,0,11.68,8,3.8,3.8,0,0,0,8,4.24a3.65,3.65,0,0,0-1.44.29,3.75,3.75,0,0,0-2,2,3.82,3.82,0,0,0,0,2.91,3.89,3.89,0,0,0,.8,1.19,3.79,3.79,0,0,0,1.18.81A3.49,3.49,0,0,0,8,11.7Z"/></g></g></g></g></g></svg>