<svg xmlns="http://www.w3.org/2000/svg" viewBox="0 0 15.36 16"><defs><style>.cls-1{fill:#fff;}</style></defs><title>icon-depl</title><g id="图层_2" data-name="图层 2"><g id="图层_1-2" data-name="图层 1"><path class="cls-1" d="M1.86,16h.95a.53.53,0,0,0,.53-.53V10h-2v5.47a.53.53,0,0,0,.53.53ZM8.16,0H7.21a.53.53,0,0,0-.53.53V8.67h2V.53A.53.53,0,0,0,8.16,0ZM2.81,0H1.86a.53.53,0,0,0-.53.53V5.33h2V.53A.53.53,0,0,0,2.81,0ZM13.5,0h-1A.53.53,0,0,0,12,.53V3.33h2V.53A.53.53,0,0,0,13.5,0Zm1.19,4H11.35a.67.67,0,0,0-.67.67v2a.67.67,0,0,0,.67.67h3.34a.67.67,0,0,0,.67-.67v-2A.67.67,0,0,0,14.69,4ZM12.54,16h.95a.53.53,0,0,0,.53-.53V8H12v7.47a.53.53,0,0,0,.53.53ZM9.35,9.33H6a.67.67,0,0,0-.67.67v2a.67.67,0,0,0,.67.67H9.35A.67.67,0,0,0,10,12V10a.67.67,0,0,0-.67-.67ZM7.2,16h.95a.53.53,0,0,0,.53-.53V13.33h-2v2.14A.53.53,0,0,0,7.2,16ZM4,6H.67A.67.67,0,0,0,0,6.67v2a.67.67,0,0,0,.67.67H4a.67.67,0,0,0,.67-.67v-2A.67.67,0,0,0,4,6ZM4,6"/></g></g></svg>