<svg xmlns="http://www.w3.org/2000/svg" viewBox="0 0 16 15.96"><defs><style>.cls-1{fill:#fff;}</style></defs><title>icon-granary</title><g id="图层_2" data-name="图层 2"><g id="图层_1-2" data-name="图层 1"><g id="图层_2-2" data-name="图层 2"><g id="图层_1-2-2" data-name="图层 1-2"><path class="cls-1" d="M15.94,4.45l-.16.27a.43.43,0,0,1-.59.16h0L8,1.14.8,4.87a.49.49,0,0,1-.59-.16L.05,4.45a.37.37,0,0,1,.12-.51l0,0L7.57.13a.66.66,0,0,1,.7-.06l7.51,3.84a.36.36,0,0,1,.19.47l0,.06ZM.85,5.73l.27-.16L8,2l6.71,3.52.43.21c.16,0,.27.11.27.27v9.69a.25.25,0,0,1-.23.27H.85a.25.25,0,0,1-.27-.27V6C.58,5.84.69,5.84.85,5.73Zm1,9a0,0,0,0,0,0,0H14.09a0,0,0,0,0,0,0h0V6.8a0,0,0,0,0,0,0H1.9a0,0,0,0,0,0,0h0Z"/><path class="cls-1" d="M6.08,9.11a2.34,2.34,0,0,0-.53,2.31h0l-.82.87a.24.24,0,1,0,.35.33l.72-.77A2.31,2.31,0,0,0,6,12.2L4.93,13.38a.24.24,0,1,0,.35.33l1.08-1.14a2.31,2.31,0,0,0,.36.23L6,13.56a.24.24,0,1,0,.35.33l.81-.9h0a2.34,2.34,0,0,0,2.28-.66.24.24,0,0,0,0-.34h0a2.35,2.35,0,0,0-.3-.24A2.33,2.33,0,0,0,10.71,11a.24.24,0,0,0,0-.34h0A2.32,2.32,0,0,0,9.37,10,2.34,2.34,0,0,0,10.7,7.87a.24.24,0,0,0-.25-.23h0a2.34,2.34,0,0,0-2.1,1.46,2.32,2.32,0,0,0-.7-1.3.24.24,0,0,0-.34,0h0a2.33,2.33,0,0,0-.63,1.6,2.34,2.34,0,0,0-.26-.29.24.24,0,0,0-.34,0h0Zm1.33,2h0a2.34,2.34,0,0,0,.3.24,2.34,2.34,0,0,0-.71.14,2.34,2.34,0,0,0,.1-.67,2.33,2.33,0,0,0,.26.29Z"/></g></g></g></g></svg>