<svg xmlns="http://www.w3.org/2000/svg" viewBox="0 0 16 16"><defs><style>.cls-1{fill:#fff;}</style></defs><title>icon-buy</title><g id="图层_2" data-name="图层 2"><g id="图层_1-2" data-name="图层 1"><path class="cls-1" d="M14.82,0H1.18A1.18,1.18,0,0,0,0,1.18V14.82A1.18,1.18,0,0,0,1.18,16H14.82A1.18,1.18,0,0,0,16,14.82V1.18A1.18,1.18,0,0,0,14.82,0ZM13.14,4.73a5.44,5.44,0,0,1-10.4,0A1.29,1.29,0,0,1,1.68,3.44a1.31,1.31,0,1,1,2.62,0,1.29,1.29,0,0,1-.56,1,4.43,4.43,0,0,0,8.43-.05,1.29,1.29,0,0,1-.47-1,1.31,1.31,0,0,1,2.62,0A1.3,1.3,0,0,1,13.14,4.73Z"/></g></g></svg>