<svg xmlns="http://www.w3.org/2000/svg" viewBox="0 0 16 12.31"><defs><style>.cls-1{fill:#6e6e6e;}</style></defs><title>icon-ctpoint</title><g id="图层_2" data-name="图层 2"><g id="图层_1-2" data-name="图层 1"><path class="cls-1" d="M2,7.81H.89v-6A1.6,1.6,0,0,1,2.49.19h9.3V1.26H2.49A.53.53,0,0,0,2,1.79Z"/><path class="cls-1" d="M13.11,12.31h-9V11.25h9a.53.53,0,0,0,.53-.53V5.06H14.7v5.66A1.6,1.6,0,0,1,13.11,12.31Z"/><circle class="cls-1" cx="1.46" cy="10.52" r="1.46"/><circle class="cls-1" cx="6.2" cy="5.41" r="1.46"/><circle class="cls-1" cx="10.33" cy="8.05" r="1.46"/><circle class="cls-1" cx="14.54" cy="1.46" r="1.46"/><rect class="cls-1" x="1.12" y="7.35" width="5.44" height="0.68" transform="translate(-4.51 5.65) rotate(-49.76)"/><rect class="cls-1" x="8.37" y="4.92" width="0.68" height="3.92" transform="translate(-2.22 8.81) rotate(-48.29)"/><rect class="cls-1" x="9.19" y="4.62" width="6.2" height="0.68" transform="matrix(0.57, -0.82, 0.82, 0.57, 1.18, 12.19)"/></g></g></svg>