<svg xmlns="http://www.w3.org/2000/svg" viewBox="0 0 16 11.95"><defs><style>.cls-1{fill:#fff;}</style></defs><title>icon-sftraining</title><g id="图层_2" data-name="图层 2"><g id="图层_1-2" data-name="图层 1"><path class="cls-1" d="M1.91,4.09Q1.91,4,2,4l.31,0,.41-.07a1.17,1.17,0,0,0,.42-.19,2.27,2.27,0,0,0,.26-.2l.23-.21.22-.18A.93.93,0,0,1,4.12,3V5.15H1.93q0-.24,0-.5t0-.56m2,4.61-.58-.46a5.23,5.23,0,0,1-.46-.43,3.22,3.22,0,0,1-.35-.45,3,3,0,0,1-.26-.5,3.54,3.54,0,0,1-.18-.59A6.07,6.07,0,0,1,2,5.53H4.12V8.8L4,8.75,3.89,8.7m.6-3.16H6.65a6,6,0,0,1-.09.72,3.71,3.71,0,0,1-.16.58,2.48,2.48,0,0,1-.24.48,3.58,3.58,0,0,1-.34.44q-.22.24-.45.46l-.58.53a.77.77,0,0,1-.29.09V5.53m1-1.75a.88.88,0,0,0,.36.15l.38,0,.3,0q.12,0,.12.07,0,.61,0,1.09H4.49V2.95a.75.75,0,0,1,.28.13A2.33,2.33,0,0,1,5,3.29l.24.25a1.93,1.93,0,0,0,.27.23"/><path class="cls-1" d="M10.32,4.87l.07,0h.09s0,0,.07-.05l1.15-1.34,1.17,1.34.07.05H13a.08.08,0,0,0,.07,0,.25.25,0,0,0,.13-.21V.23A.22.22,0,0,0,13,0h-2.7a.25.25,0,0,0-.13.21V4.61a.26.26,0,0,0,.13.26Z"/><path class="cls-1" d="M13.13,6.76h-2.9c-.1,0-.18.18-.18.41s.08.41.18.41h2.92c.1,0,.18-.18.18-.41s-.1-.41-.2-.41Z"/><path class="cls-1" d="M13.13,8.61h-2.9c-.1,0-.18.18-.18.41s.08.41.18.41h2.92c.1,0,.18-.18.18-.41s-.1-.41-.2-.41Z"/><path class="cls-1" d="M6.09,7.45"/><path class="cls-1" d="M14.07.26V1.41a1.84,1.84,0,0,1,.74.33v9a23.46,23.46,0,0,0-6.29,0v-9a1.81,1.81,0,0,1,.8-.33V.23A4,4,0,0,0,8,.75,7.47,7.47,0,0,0,4.29,0C2.29,0,0,.44,0,1.64v9.73a.59.59,0,0,0,.21.44.58.58,0,0,0,.46.13,22.53,22.53,0,0,1,3.62-.28,22.77,22.77,0,0,1,3.62.28h.18a22.53,22.53,0,0,1,3.62-.28,22.77,22.77,0,0,1,3.62.28.61.61,0,0,0,.46-.13.55.55,0,0,0,.21-.44V1.64C15.92,1,15.13.49,14.07.26ZM7.52,10.92a23.3,23.3,0,0,0-3.29-.21A26.89,26.89,0,0,0,1,10.92V1.57A6.1,6.1,0,0,1,4.24.93a6.1,6.1,0,0,1,3.29.64Zm0,0"/></g></g></svg>