<svg xmlns="http://www.w3.org/2000/svg" viewBox="0 0 16 12.08"><defs><style>.cls-1{fill:#fff;}</style></defs><title>icon-auxiliary</title><g id="图层_2" data-name="图层 2"><g id="图层_1-2" data-name="图层 1"><rect class="cls-1" x="13.26" y="9.45" width="0.99" height="0.99"/><path class="cls-1" d="M11.52.58V12H16V.58ZM15,11h-2.4V8.92H15ZM15,8h-2.4V1.8H15Z"/><rect class="cls-1" x="8.34" y="9.45" width="0.99" height="0.99"/><path class="cls-1" d="M6.6.58V12h4.48V.58ZM10,11H7.64V8.92H10ZM10,8H7.64V1.8H10Z"/><path class="cls-1" d="M2.37,0,0,11.15l4.38.93L6.76.93Zm1.2,10.91-2.35-.5.44-2L4,8.87Zm.64-3-2.35-.5,1.28-6,2.35.5Z"/><rect class="cls-1" x="2.12" y="9.12" width="0.99" height="0.99" transform="translate(2.06 -0.33) rotate(12)"/><rect class="cls-1" x="13.35" y="1.66" width="0.79" height="4.24"/><rect class="cls-1" x="8.45" y="1.66" width="0.79" height="4.24"/><rect class="cls-1" x="3.52" y="1.39" width="0.79" height="4.24" transform="translate(0.81 -0.74) rotate(11.97)"/></g></g></svg>