<svg xmlns="http://www.w3.org/2000/svg" viewBox="0 0 16 14.26"><defs><style>.cls-1{fill:#fff;}</style></defs><title>icon-performance</title><g id="图层_2" data-name="图层 2"><g id="图层_1-2" data-name="图层 1"><path class="cls-1" d="M15.8,7.38,15,8.11,13,6.06l.75-.74a.57.57,0,0,1,.79-.07l1.36,1.33a.59.59,0,0,1-.08.79Zm-3.18-1L9.11,9.84l-.49.54-1,.87a.37.37,0,0,0-.11.2s0,0,0,0L6.71,14a.17.17,0,0,0,0,.2.21.21,0,0,0,.2,0l2.59-.8,0,0a.34.34,0,0,0,.18-.1l5-4.89ZM8,13.51,7.48,13l.34-1.07,1.28,1.26Zm4.51-6L8.66,11.28a.2.2,0,0,1-.26,0,.17.17,0,0,1,0-.26l3.89-3.81a.2.2,0,0,1,.26,0,.18.18,0,0,1,0,.26ZM9.77,14.06h3a1.46,1.46,0,0,0,1.42-1.49V9.63ZM12.73,0H1.42A1.46,1.46,0,0,0,0,1.49V12.57a1.46,1.46,0,0,0,1.42,1.49H4.28l9.87-10V1.49A1.46,1.46,0,0,0,12.73,0ZM6.11,11.13H2a.46.46,0,0,1,0-.92H7ZM10.59,6V5.22L7,9.21,4.27,6.69l-2,2.17A.46.46,0,0,1,2,9H2a.46.46,0,0,1-.34-.77L4.21,5.38,6.93,7.9,10,4.48H8.32a.46.46,0,0,1,0-.92h2.8l.09,0,.08,0,.06,0,0,0,0,.06,0,.07a.3.3,0,0,1,0,.07.42.42,0,0,1,0,.1V5.07L10.59,6Zm0,0"/></g></g></svg>