<svg xmlns="http://www.w3.org/2000/svg" viewBox="0 0 15.55 15.53"><defs><style>.cls-1{fill:#fff;}</style></defs><title>icon-threedi</title><g id="图层_2" data-name="图层 2"><g id="图层_1-2" data-name="图层 1"><g id="图层_2-2" data-name="图层 2"><g id="图层_1-2-2" data-name="图层 1-2"><path class="cls-1" d="M14.76,6.8c0,.29.1.68.1,1a7.12,7.12,0,0,1-7.09,7.09H7.19a1.87,1.87,0,0,1-.19.68h.78a7.79,7.79,0,0,0,7.76-7.76,5.85,5.85,0,0,0-.1-1.26,5.33,5.33,0,0,1-.69.29ZM.68,7.77a8.48,8.48,0,0,1,.68-3.11,2,2,0,0,1-.58-.37A8.34,8.34,0,0,0,0,7.77a7.55,7.55,0,0,0,3.79,6.6.84.84,0,0,1,.29-.58A6.89,6.89,0,0,1,.68,7.77ZM7.77,0A7.64,7.64,0,0,0,3,1.65c.19.1.29.29.49.49A6.49,6.49,0,0,1,7.76.68,6.77,6.77,0,0,1,13.38,3.4c.19-.1.29-.29.49-.37A6.92,6.92,0,0,0,7.75,0ZM3,3.5,6.21,6.6v1L2.62,4ZM2.25,3.3,5,12.72l-.68.19L1.65,3.5ZM6.31,13.49,5.83,13l8.06-8.24.49.49Zm2-6.41L8.16,6.5,13,4.65l.48.59Zm4.56-2.62L2.53,2.72,2.62,2,13,3.69ZM6.51,8.35l.68.19L5.73,13l-.68-.19Z"/><path class="cls-1" d="M5,15.05a1.46,1.46,0,1,1,1.46-1.46A1.46,1.46,0,0,1,5,15.05ZM5,12.8a.78.78,0,1,0,.11,0Zm9.13-7.49a1.5,1.5,0,0,1-1.46-1.46,1.46,1.46,0,0,1,2.92,0,1.5,1.5,0,0,1-1.46,1.45Zm0-2.25a.84.84,0,0,0-.78.78.78.78,0,1,0,1.56,0,.84.84,0,0,0-.78-.78ZM1.46,3.4A1.5,1.5,0,0,1,0,1.94,1.5,1.5,0,0,1,1.46.48,1.5,1.5,0,0,1,2.92,1.94,1.5,1.5,0,0,1,1.46,3.4Zm0-2.25a.75.75,0,0,0-.78.72s0,0,0,.07a.84.84,0,0,0,.78.78.84.84,0,0,0,.79-.78.84.84,0,0,0-.79-.78ZM7.08,8.44A1.41,1.41,0,0,1,5.72,7h0A1.46,1.46,0,0,1,8.63,7,1.5,1.5,0,0,1,7.1,8.44Zm0-2.25A.84.84,0,0,0,6.3,7c.1.37.37.78.78.78A.84.84,0,0,0,7.87,7a.72.72,0,0,0-.65-.78H7.09Z"/></g></g></g></g></svg>