<svg xmlns="http://www.w3.org/2000/svg" viewBox="0 0 16 10.48"><defs><style>.cls-1{fill:#fff;}</style></defs><title>icon-importtool</title><g id="图层_2" data-name="图层 2"><g id="图层_1-2" data-name="图层 1"><path class="cls-1" d="M11.89,3.23a4.12,4.12,0,0,0-.6,0,4.11,4.11,0,0,0-8.14.83,3.45,3.45,0,0,0-1.53,6.37H14.55a4.11,4.11,0,0,0-2.66-7.24ZM10.41,7,8.25,9.14a.35.35,0,0,1-.49,0L5.59,7a.35.35,0,0,1,.25-.6H6.92V3.79a.35.35,0,0,1,.35-.35H8.73a.35.35,0,0,1,.35.35V6.41h1.08A.35.35,0,0,1,10.41,7Z"/></g></g></svg>