<svg xmlns="http://www.w3.org/2000/svg" viewBox="0 0 14.47 16"><defs><style>.cls-1{fill:#fff;}</style></defs><title>icon-pams</title><g id="图层_2" data-name="图层 2"><g id="图层_1-2" data-name="图层 1"><g id="图层_2-2" data-name="图层 2"><g id="图层_1-2-2" data-name="图层 1-2"><path class="cls-1" d="M10.54,3.43a.51.51,0,1,0-1,0,.51.51,0,1,0,0,1h0a.51.51,0,1,0,1,0,.51.51,0,1,0,0-1Zm.18,5-3.1-5a.5.5,0,0,0-.86,0l-3,5.09a.51.51,0,0,0,.18.7.46.46,0,0,0,.25.08A.48.48,0,0,0,4.62,9l.84-1.41H9L9.85,9a.51.51,0,0,0,.86-.55Zm-.18,3.89a.51.51,0,0,0-.51-.51H4.17a.51.51,0,1,0,0,1H10a.51.51,0,0,0,.51-.49Zm-3.81-2a.51.51,0,0,0-.51-.51h-2a.51.51,0,0,0,0,1h2A.51.51,0,0,0,6.73,10.28ZM12.95,16H1.52A1.53,1.53,0,0,1,0,14.48v-13A1.53,1.53,0,0,1,1.52,0H13a1.53,1.53,0,0,1,1.52,1.52v13A1.53,1.53,0,0,1,13,16Z"/><polygon class="cls-1" points="6.05 6.6 7.2 4.66 8.39 6.6 6.05 6.6"/></g></g></g></g></svg>