<svg xmlns="http://www.w3.org/2000/svg" viewBox="0 0 15.95 16"><defs><style>.cls-1{fill:#fff;fill-rule:evenodd;}</style></defs><title>icon-energy</title><g id="图层_2" data-name="图层 2"><g id="图层_1-2" data-name="图层 1"><path class="cls-1" d="M14.79,5h0L8.09.09a.44.44,0,0,0-.52,0L0,5.91l.53.69H1.2V14.8A1.2,1.2,0,0,0,2.41,16H13.59a1.2,1.2,0,0,0,1.2-1.2V6.61h.66l.5-.7Zm-3.31,4.4-4.6,4.47a.35.35,0,0,1-.58-.33l.88-3.28-2.38,0a.35.35,0,0,1-.33-.58l4.6-4.47a.35.35,0,0,1,.58.33L8.77,8.89l2.38,0A.35.35,0,0,1,11.48,9.45Z"/></g></g></svg>