<svg xmlns="http://www.w3.org/2000/svg" viewBox="0 0 16 12.89"><defs><style>.cls-1{fill:#fff;}</style></defs><title>icon-ppe</title><g id="图层_2" data-name="图层 2"><g id="图层_1-2" data-name="图层 1"><g id="图层_2-2" data-name="图层 2"><g id="图层_1-2-2" data-name="图层 1-2"><path class="cls-1" d="M14.57,0H1.43A1.43,1.43,0,0,0,0,1.43V9.55A1.43,1.43,0,0,0,1.43,11H6.69v1H4.77a.71.71,0,0,0-.71.71h0v.24h7.88v-.24a.71.71,0,0,0-.7-.71H9.31V11h5.26A1.43,1.43,0,0,0,16,9.55V1.43A1.43,1.43,0,0,0,14.57,0ZM10.84,3.21,8.94,5.78h1.23a.45.45,0,0,1,0,.91H8.6v.74h1.57a.45.45,0,0,1,0,.91H8.6v.5a.6.6,0,0,1-1.2,0v-.5H5.83a.45.45,0,1,1,0-.91H7.4V6.69H5.83a.45.45,0,1,1,0-.91H7L5.17,3.21A.71.71,0,0,1,5,2.78a.61.61,0,0,1,.6-.59.68.68,0,0,1,.59.35L8,5.22l1.8-2.65a.69.69,0,0,1,.57-.36.57.57,0,0,1,.6.55s0,0,0,0A.71.71,0,0,1,10.84,3.21Z"/></g></g></g></g></svg>