<svg xmlns="http://www.w3.org/2000/svg" viewBox="0 0 13.9 16"><defs><style>.cls-1{fill:#fff;}</style></defs><title>icon-qc</title><g id="图层_2" data-name="图层 2"><g id="图层_1-2" data-name="图层 1"><g id="图层_2-2" data-name="图层 2"><g id="图层_1-2-2" data-name="图层 1-2"><path class="cls-1" d="M13.88,4.51c0-.26-.08-2.53-.5-2.85A.59.59,0,0,0,13,1.55l-.35,0a8.62,8.62,0,0,1-1.4.14,4.63,4.63,0,0,1-1.22-.25H10A9,9,0,0,1,8.06.63L7.52.28C7.24.08,7.12,0,6.93,0s-.31.08-.59.27L5.8.61a8.87,8.87,0,0,1-1.94.86l-.16.05a3.77,3.77,0,0,1-1,.23A8.62,8.62,0,0,1,1.2,1.6l-.37,0a.59.59,0,0,0-.35.12C.14,1.93.05,3.56,0,4.51a22.47,22.47,0,0,0,.22,4,9.33,9.33,0,0,0,1.31,3.82,11.67,11.67,0,0,0,2.15,1.91A13.28,13.28,0,0,0,6.95,16a14,14,0,0,0,3.22-1.75,11.52,11.52,0,0,0,2.15-1.91c.93-1.09,1.31-3.84,1.31-3.88s0-.28.06-.42A17.38,17.38,0,0,0,13.88,4.51ZM11.81,8.7a.65.65,0,0,1-.46.48l-.15,0a1.58,1.58,0,0,0-1.09,1.89l0,.15a.65.65,0,0,1-.19.61,4.28,4.28,0,0,1-.57.37,4.63,4.63,0,0,1-.61.31.65.65,0,0,1-.64-.16L8,12.28a1.59,1.59,0,0,0-2.19,0l-.1.11a.65.65,0,0,1-.64.16,4.4,4.4,0,0,1-.6-.31,4.43,4.43,0,0,1-.57-.37.66.66,0,0,1-.19-.64l0-.15A1.59,1.59,0,0,0,2.7,9.2l-.15,0a.65.65,0,0,1-.44-.48,4.44,4.44,0,0,1,0-.68,4.44,4.44,0,0,1,0-.67.65.65,0,0,1,.46-.48l.15,0A1.58,1.58,0,0,0,3.81,4.93l0-.15A.65.65,0,0,1,4,4.15a4.36,4.36,0,0,1,.57-.37,4.65,4.65,0,0,1,.59-.32.65.65,0,0,1,.64.16l.11.12A1.58,1.58,0,0,0,8,3.73l.11-.12a.65.65,0,0,1,.64-.16,4.74,4.74,0,0,1,.6.31,4.43,4.43,0,0,1,.57.37.66.66,0,0,1,.19.64l0,.15a1.58,1.58,0,0,0,1.08,1.9l.16,0a.65.65,0,0,1,.46.49h0a4.57,4.57,0,0,1,0,.7,4.44,4.44,0,0,1,0,.65Z"/><circle class="cls-1" cx="6.95" cy="8.01" r="1.95"/></g></g></g></g></svg>