<svg xmlns="http://www.w3.org/2000/svg" viewBox="0 0 15.41 16"><defs><style>.cls-1{fill:#fff;}</style></defs><title>icon-budget</title><g id="图层_2" data-name="图层 2"><g id="图层_1-2" data-name="图层 1"><path class="cls-1" d="M4,4.7H8.56a1,1,0,0,0,.8-.41,5.1,5.1,0,0,0,1-2.1C10.58.8,10,.09,8.52.09s-1,1.13-1.6,1.23C6.47,1.39,6.49.73,5.79.1c-.5-.45-1.06.83-1.72.83S2.22.7,2.22,2.19a4.14,4.14,0,0,0,1,2.08A1,1,0,0,0,4,4.7Z"/><path class="cls-1" d="M8.88,15.42V7.94a.87.87,0,0,1,.94-.85h.54c-.22-.34-.44-.77-.68-1.07h0a1.22,1.22,0,0,0-1-.49H3.87A1.23,1.23,0,0,0,2.93,6C1.41,7.79,0,10.37,0,12.25,0,13.91,1.48,16,3.29,16H8.93l.16,0A.92.92,0,0,1,8.88,15.42Zm-2.49-2v.91H5.48v-.88a3.78,3.78,0,0,1-1.83-.68l.6-.78a2.73,2.73,0,0,0,1.53.54c.65,0,.94-.24.94-.69,0-1.06-2.81-1-2.81-2.61a1.64,1.64,0,0,1,1.57-1.6V6.7H6.4v.9a2.7,2.7,0,0,1,1.54.72L7.25,9a1.78,1.78,0,0,0-1.18-.46c-.55,0-.85.22-.85.65,0,1,2.81.83,2.81,2.59A1.68,1.68,0,0,1,6.4,13.42Z"/><path class="cls-1" d="M14.46,7.56H10.25a1,1,0,0,0-.94.94v6.35a1,1,0,0,0,.94.94h4.22a1,1,0,0,0,.94-.94V8.51A1,1,0,0,0,14.46,7.56Zm-3.23,7a.21.21,0,0,1-.21.21h-.75a.21.21,0,0,1-.21-.21V14a.21.21,0,0,1,.21-.21H11a.21.21,0,0,1,.21.21Zm0-1.5a.21.21,0,0,1-.21.21h-.75a.21.21,0,0,1-.21-.21v-.57a.21.21,0,0,1,.21-.21H11a.21.21,0,0,1,.21.21Zm0-1.5a.21.21,0,0,1-.21.21h-.75a.21.21,0,0,1-.21-.21V11a.21.21,0,0,1,.21-.21H11a.21.21,0,0,1,.21.21Zm1.67,3a.21.21,0,0,1-.21.21h-.75a.21.21,0,0,1-.21-.21V14a.21.21,0,0,1,.21-.21h.75a.21.21,0,0,1,.21.21Zm0-1.5a.21.21,0,0,1-.21.21h-.75a.21.21,0,0,1-.21-.21v-.57a.21.21,0,0,1,.21-.21h.75a.21.21,0,0,1,.21.21Zm0-1.5a.21.21,0,0,1-.21.21h-.75a.21.21,0,0,1-.21-.21V11a.21.21,0,0,1,.21-.21h.75a.21.21,0,0,1,.21.21Zm1.67,3a.21.21,0,0,1-.21.21h-.75a.21.21,0,0,1-.21-.21V14a.21.21,0,0,1,.21-.21h.75a.21.21,0,0,1,.21.21Zm0-1.5a.21.21,0,0,1-.21.21h-.75a.21.21,0,0,1-.21-.21v-.57a.21.21,0,0,1,.21-.21h.75a.21.21,0,0,1,.21.21Zm0-1.5a.21.21,0,0,1-.21.21h-.75a.21.21,0,0,1-.21-.21V11a.21.21,0,0,1,.21-.21h.75a.21.21,0,0,1,.21.21Zm0-1.65a.38.38,0,0,1-.38.38H10.45a.38.38,0,0,1-.38-.38v-1a.38.38,0,0,1,.38-.38h3.74a.38.38,0,0,1,.38.38Z"/></g></g></svg>