<svg xmlns="http://www.w3.org/2000/svg" viewBox="0 0 16 15.04"><defs><style>.cls-1{fill:#fff;}</style></defs><title>icon-sys</title><g id="图层_2" data-name="图层 2"><g id="图层_1-2" data-name="图层 1"><g id="图层_2-2" data-name="图层 2"><g id="图层_1-2-2" data-name="图层 1-2"><path class="cls-1" d="M15.94,6.41a1.06,1.06,0,0,0-.75-.79l-.26-.06a2.6,2.6,0,0,1-1.5-1.19,2.63,2.63,0,0,1-.28-1.92l.08-.25a1.08,1.08,0,0,0-.3-1A7.33,7.33,0,0,0,12,.55,7.9,7.9,0,0,0,11,0,1.06,1.06,0,0,0,10,.3L9.79.5A2.56,2.56,0,0,1,8,1.2,2.57,2.57,0,0,1,6.21.49L6,.3A1.06,1.06,0,0,0,5,0,7.64,7.64,0,0,0,4,.55a7.22,7.22,0,0,0-.93.61,1.07,1.07,0,0,0-.3,1l.07.25a2.63,2.63,0,0,1-.28,1.91,2.58,2.58,0,0,1-1.51,1.2l-.25.06a1.08,1.08,0,0,0-.75.78A7.3,7.3,0,0,0,0,7.52,7.3,7.3,0,0,0,.06,8.64a1.06,1.06,0,0,0,.75.78l.25.06a2.57,2.57,0,0,1,1.51,1.2,2.63,2.63,0,0,1,.28,1.92l-.07.24a1.08,1.08,0,0,0,.3,1A7.33,7.33,0,0,0,4,14.5,7.53,7.53,0,0,0,5,15a1.06,1.06,0,0,0,1.05-.26l.17-.19a2.58,2.58,0,0,1,3.58,0l.17.19A1.06,1.06,0,0,0,11,15a7.66,7.66,0,0,0,1-.51,7,7,0,0,0,.93-.61,1.08,1.08,0,0,0,.3-1l-.07-.25A2.61,2.61,0,0,1,15,9.47l.25-.06a1.08,1.08,0,0,0,.73-.75,7.3,7.3,0,0,0,0-1.13,7.53,7.53,0,0,0-.06-1.12ZM8,10.73A3.21,3.21,0,0,1,8,4.33H8a3.21,3.21,0,0,1,0,6.42Z"/></g></g></g></g></svg>