<svg xmlns="http://www.w3.org/2000/svg" viewBox="0 0 16 14.5"><defs><style>.cls-1{fill:#fff;}</style></defs><title>icon-download</title><g id="图层_2" data-name="图层 2"><g id="图层_1-2" data-name="图层 1"><g id="图层_2-2" data-name="图层 2"><g id="图层_1-2-2" data-name="图层 1-2"><path class="cls-1" d="M7.85,9a.17.17,0,0,0,.3,0l3.09-4.22a.14.14,0,0,0,0-.12.07.07,0,0,0-.07-.06h-2V.31A.4.4,0,0,0,9.1.09.19.19,0,0,0,9,0H7a.19.19,0,0,0-.15.09.4.4,0,0,0,0,.22V4.6h-2a.08.08,0,0,0-.07.06.14.14,0,0,0,0,.12Z"/><path class="cls-1" d="M15.48,10.11,13.05,8.44H11.54l2.54,2.06-2.81,0a.33.33,0,0,0-.23.14l-.76,1.85H5.73L5,10.58a.33.33,0,0,0-.23-.14H1.94l2.53-2H2.95L.54,10.11A1.14,1.14,0,0,0,0,11.28l.45,2.47a1.07,1.07,0,0,0,1,.75H14.53a1.07,1.07,0,0,0,1-.75L16,11.28A1.14,1.14,0,0,0,15.48,10.11Z"/></g></g></g></g></svg>