<svg xmlns="http://www.w3.org/2000/svg" viewBox="0 0 13.65 16"><defs><style>.cls-1{fill:#fff;}</style></defs><title>icon-cctv</title><g id="图层_2" data-name="图层 2"><g id="图层_1-2" data-name="图层 1"><g id="图层_2-2" data-name="图层 2"><g id="图层_1-2-2" data-name="图层 1-2"><path class="cls-1" d="M13.59,1.46a3.29,3.29,0,0,1-2.32-.22A11.44,11.44,0,0,0,6.83,0C4.44,0,2.8,1.21,2,1.46a3.33,3.33,0,0,1-1.83,0,19.11,19.11,0,0,0,1.19,9.91A8,8,0,0,0,6.83,16a9.18,9.18,0,0,0,5.36-4.63C14.11,7.62,13.59,1.46,13.59,1.46ZM11.53,11A8.18,8.18,0,0,1,7,15V8H1.12A20,20,0,0,1,1,2.26a3,3,0,0,0,1.6,0A10.42,10.42,0,0,1,6.83,1H7V8h5.5A11.06,11.06,0,0,1,11.53,11Z"/></g></g></g></g></svg>