<svg xmlns="http://www.w3.org/2000/svg" viewBox="0 0 16 15.69"><defs><style>.cls-1{fill:#fff;}</style></defs><title>icon-upgrade</title><g id="图层_2" data-name="图层 2"><g id="图层_1-2" data-name="图层 1"><g id="图层_2-2" data-name="图层 2"><g id="图层_1-2-2" data-name="图层 1-2"><path class="cls-1" d="M.91,15.67,4,14.85a.39.39,0,0,0,.17-.65L1.91,11.95a.39.39,0,0,0-.65.17L.44,15.2a.39.39,0,0,0,.48.47Z"/><path class="cls-1" d="M15.62.38C14.51-.74,9.46.72,6.69,3.48c-.35.35-.69.71-1,1.07a9.52,9.52,0,0,0-3.32.35l-2,2a1.13,1.13,0,0,0,0,1.59l.17.17A6,6,0,0,0,2.94,9a3.22,3.22,0,0,0,.94,3.1,3.34,3.34,0,0,0,3.76.81A5.13,5.13,0,0,0,8,15.08l.17.17a1.13,1.13,0,0,0,1.59,0l2-2c.28-.28.34-2.17.35-3.52l.39-.39C15.27,6.53,16.74,1.49,15.62.38Zm-4,6.26a1.49,1.49,0,1,1,0-2.11h0A1.49,1.49,0,0,1,11.58,6.64Z"/></g></g></g></g></svg>