<svg xmlns="http://www.w3.org/2000/svg" viewBox="0 0 16 12.96"><defs><style>.cls-1{fill:#fff;}</style></defs><title>icon-operation</title><g id="图层_2" data-name="图层 2"><g id="图层_1-2" data-name="图层 1"><path class="cls-1" d="M8,3.91H8a1.45,1.45,0,0,0,0,2.9H8a1.45,1.45,0,0,0,0-2.9Z"/><path class="cls-1" d="M15.19,0H.81A.81.81,0,0,0,0,.81v9.4A.81.81,0,0,0,.81,11H6.68v1H4.88a.81.81,0,0,0-.81.81V13h7.85v-.15a.81.81,0,0,0-.81-.81H9.32V11h5.87a.81.81,0,0,0,.81-.81V.81A.81.81,0,0,0,15.19,0Zm-3.6,5.87a.49.49,0,0,1-.34.35l-.11,0a1.18,1.18,0,0,0-.81,1.4l0,.11a.49.49,0,0,1-.14.47,3.17,3.17,0,0,1-.42.27,3.47,3.47,0,0,1-.45.23.48.48,0,0,1-.48-.12l-.08-.08a1.17,1.17,0,0,0-1.62,0l-.08.08a.48.48,0,0,1-.48.12,3.4,3.4,0,0,1-.45-.23,3.31,3.31,0,0,1-.42-.27.49.49,0,0,1-.14-.47l0-.11a1.19,1.19,0,0,0-.13-.87,1.16,1.16,0,0,0-.68-.54l-.11,0a.48.48,0,0,1-.34-.35,3.3,3.3,0,0,1,0-.51,3.3,3.3,0,0,1,0-.51.49.49,0,0,1,.34-.35l.11,0a1.17,1.17,0,0,0,.68-.54,1.19,1.19,0,0,0,.12-.87l0-.11a.48.48,0,0,1,.14-.47,3.26,3.26,0,0,1,.42-.28A3.46,3.46,0,0,1,6.64,2a.48.48,0,0,1,.48.12l.08.09a1.17,1.17,0,0,0,1.61,0l.08-.09A.48.48,0,0,1,9.36,2a3.57,3.57,0,0,1,.45.23,3.31,3.31,0,0,1,.42.27.49.49,0,0,1,.14.47l0,.11a1.19,1.19,0,0,0,.12.87,1.17,1.17,0,0,0,.68.54l.12,0a.48.48,0,0,1,.34.35,3.41,3.41,0,0,1,0,.51A3.3,3.3,0,0,1,11.59,5.87Z"/></g></g></svg>