<svg xmlns="http://www.w3.org/2000/svg" viewBox="0 0 16 9.11"><defs><style>.cls-1{fill:#fff;fill-rule:evenodd;}</style></defs><title>icon-oa</title><g id="图层_2" data-name="图层 2"><g id="图层_1-2" data-name="图层 1"><path class="cls-1" d="M14.16,8.94l-.62-2.25H10.7l-.62,2.25H8.3L11.11.17h2.06L16,8.94ZM11.08,5.33h2.09l-.26-1c-.27-.91-.51-1.92-.77-2.87h0c-.23,1-.49,2-.75,2.87ZM3.93,7.59c1.3,0,2.13-1.2,2.13-3.07s-.83-3-2.13-3-2.13,1.13-2.13,3S2.62,7.59,3.93,7.59Zm0,1.52C1.6,9.11,0,7.37,0,4.52S1.6,0,3.93,0,7.85,1.67,7.85,4.52,6.25,9.11,3.93,9.11Z"/></g></g></svg>