<svg xmlns="http://www.w3.org/2000/svg" viewBox="0 0 16 15.8"><defs><style>.cls-1{fill:#fff;}</style></defs><title>icon-reserve</title><g id="图层_2" data-name="图层 2"><g id="图层_1-2" data-name="图层 1"><g id="图层_2-2" data-name="图层 2"><g id="图层_1-2-2" data-name="图层 1-2"><path class="cls-1" d="M13.5,1.64H3.59A1.66,1.66,0,0,0,1.86,3.22v11a1.66,1.66,0,0,0,1.73,1.56H14.27A1.66,1.66,0,0,0,16,14.23v-11a1.66,1.66,0,0,0-1.73-1.56ZM11.62,3S10.76,6.77,9.5,5.75,11.25,3.13,11.62,3ZM10.48,6.31c1.56.4,2.12-.47,2.12-.47-.09.4-2.42,2.65-3.63,1.69C8.46,7.09,8.72,5.85,10.48,6.31Zm.73,1.24c-.09.4-2.42,2.65-3.63,1.69C7.05,8.81,7.32,7.56,9.07,8c1.56.4,2.13-.48,2.13-.48ZM8.61,2.61s-.75.74,0,2.18c.81,1.61-.35,2.14-.88,1.7C6.51,5.52,8.23,2.78,8.61,2.61ZM7.22,4.32s-.75.74,0,2.18C8,8.11,6.84,8.63,6.31,8.2,5.12,7.25,6.85,4.49,7.22,4.32ZM5.57,11.57l-1.7,1.77c-.34.4-.88-.3-.72-.5l1.39-2.11c.15-.18.25.17.53.4s.65.26.5.44Zm-.76-1.5c-1.21-1,.53-3.71.91-3.88,0,0-.75.74,0,2.18C6.5,10,5.34,10.48,4.81,10.08Zm1.28,1c-.53-.43-.26-1.68,1.49-1.21,1.56.4,2.12-.47,2.12-.47-.09.37-2.44,2.63-3.61,1.66Zm8.52,2.56a.45.45,0,0,1-.45.43h-5a.45.45,0,0,1-.45-.45h0a.45.45,0,0,1,.45-.45h5a.45.45,0,0,1,.45.45h0Zm-.45-1.35H10.93a.45.45,0,0,1,0-.89h3.22a.45.45,0,0,1,0,.89Z"/><path class="cls-1" d="M2.2,13.42H1.56a1,1,0,0,1-1-1V1.56a1,1,0,0,1,1-1H13.08a1,1,0,0,1,1,1V2.2h.53V1.56A1.56,1.56,0,0,0,13.08,0H1.56A1.56,1.56,0,0,0,0,1.56V12.38a1.56,1.56,0,0,0,1.56,1.56H2.2Z"/></g></g></g></g></svg>