<svg xmlns="http://www.w3.org/2000/svg" viewBox="0 0 15.99 14.7"><defs><style>.cls-1{fill:#fff;}</style></defs><title>icon-home</title><g id="图层_2" data-name="图层 2"><g id="图层_1-2" data-name="图层 1"><g id="图层_2-2" data-name="图层 2"><g id="图层_1-2-2" data-name="图层 1-2"><path class="cls-1" d="M13.71,7.34a.13.13,0,0,0,0-.06L8,2.58,2.29,7.28v6.79a.64.64,0,0,0,.63.63H6.74V10.12H9.27V14.7h3.81a.64.64,0,0,0,.63-.63Zm2.21-.68a.33.33,0,0,0,0-.45L13.71,4.4v-4A.31.31,0,0,0,13.4,0H11.49a.31.31,0,0,0-.32.31h0V2.29L8.76.28a1.21,1.21,0,0,0-1.53,0L.11,6.21a.33.33,0,0,0,0,.45l.61.74a.33.33,0,0,0,.21.11.34.34,0,0,0,.24-.07L8,1.7l6.87,5.73a.31.31,0,0,0,.21.07h0a.33.33,0,0,0,.21-.11Z"/></g></g></g></g></svg>