<svg xmlns="http://www.w3.org/2000/svg" viewBox="0 0 15.95 16"><defs><style>.cls-1,.cls-2{fill:#fff;}.cls-1{fill-rule:evenodd;}</style></defs><title>icon-gts_1</title><g id="图层_2" data-name="图层 2"><g id="图层_1-2" data-name="图层 1"><path class="cls-1" d="M1.2,6.6V8.73H2.55V7.63a.36.36,0,0,1,.36-.36H13.1a.36.36,0,0,1,.36.36V16h.13a1.2,1.2,0,0,0,1.2-1.2V6.61h.66l.5-.7L14.79,5h0L8.09.09a.44.44,0,0,0-.52,0L0,5.91l.53.69Z"/><path class="cls-1" d="M7,13.12C7,13,6.87,13,6.87,13H2.6v-.69c0-.28-.19-.06-.19-.06S.95,13.43.79,13.59a.14.14,0,0,0,0,.22l1.56,1.37s.19.22.19,0V14.4h4.3s.12,0,.12-.16ZM.73,10.44c0-.12.09-.12.09-.12H5.09V9.6c0-.28.19-.06.19-.06s1.47,1.18,1.62,1.34a.14.14,0,0,1,0,.22L5.34,12.46s-.19.22-.19,0v-.75H.85s-.12.06-.12-.12Z"/><rect class="cls-2" x="9.1" y="8.01" width="3.64" height="3.62" rx="1" ry="1"/><rect class="cls-2" x="9.1" y="12.37" width="3.64" height="3.62" rx="1" ry="1"/></g></g></svg>