<svg xmlns="http://www.w3.org/2000/svg" viewBox="0 0 16 11"><defs><style>.cls-1{fill:#fff;}</style></defs><title>icon-spm</title><g id="图层_2" data-name="图层 2"><g id="图层_1-2" data-name="图层 1"><g id="图层_2-2" data-name="图层 2"><g id="图层_1-2-2" data-name="图层 1-2"><path class="cls-1" d="M15,8.09V8a7,7,0,0,0-5-6.71A1.5,1.5,0,0,0,8.51,0h-1A1.5,1.5,0,0,0,6,1.28,7,7,0,0,0,1,8v.1A1.5,1.5,0,0,0,1.51,11h13A1.5,1.5,0,0,0,15,8.09ZM9,2.65a.5.5,0,0,1,1,0V6.49a.5.5,0,0,1-1,0Zm-3,0a.5.5,0,0,1,1,0V6.49a.5.5,0,0,1-1,0ZM15.4,9.56a.87.87,0,0,1-.86.86h-13A.87.87,0,0,1,.7,9.56h0a.87.87,0,0,1,.86-.86h13A.87.87,0,0,1,15.4,9.56Z"/></g></g></g></g></svg>