<svg xmlns="http://www.w3.org/2000/svg" viewBox="0 0 15.37 16"><defs><style>.cls-1{fill:#fff;}</style></defs><title>icon-vehicle</title><g id="图层_2" data-name="图层 2"><g id="图层_1-2" data-name="图层 1"><g id="图层_2-2" data-name="图层 2"><g id="图层_1-2-2" data-name="图层 1-2"><path class="cls-1" d="M8,0A4.36,4.36,0,0,0,3.59,4.36h0C3.59,6.77,8,11.61,8,11.61s4.37-4.83,4.37-7.24A4.36,4.36,0,0,0,8,0ZM8,6.18a1.8,1.8,0,1,1,1.8-1.8h0A1.8,1.8,0,0,1,8,6.18Z"/><path class="cls-1" d="M0,8.51v7.37l4.73-1.49a.41.41,0,0,1,.24,0L10.36,16l5-1.55V8.51l-3.52-.19a29.88,29.88,0,0,1-3.41,4.48.62.62,0,0,1-.86.11l-.11-.11A31.26,31.26,0,0,1,3.8,7.89Z"/></g></g></g></g></svg>