<svg xmlns="http://www.w3.org/2000/svg" viewBox="0 0 16 14.42"><defs><style>.cls-1{fill:#fff;}</style></defs><title>icon-gas_1</title><g id="图层_2" data-name="图层 2"><g id="图层_1-2" data-name="图层 1"><g id="图层_2-2" data-name="图层 2"><g id="图层_1-2-2" data-name="图层 1-2"><path class="cls-1" d="M4.42,11.91A4.2,4.2,0,0,1,0,8,4,4,0,0,1,2.69,4.35,5.2,5.2,0,0,1,8.07,0a5.19,5.19,0,0,1,5.41,4.91.66.66,0,1,1-1.33,0A3.87,3.87,0,0,0,8.07,1.33,3.84,3.84,0,0,0,4,4.85a.66.66,0,0,1-.49.63A2.75,2.75,0,0,0,1.33,8a2.89,2.89,0,0,0,3.09,2.61A2.89,2.89,0,0,0,7.51,8,.66.66,0,0,1,8.84,8,4.2,4.2,0,0,1,4.42,11.91Z"/><path class="cls-1" d="M12.54,11.57a.66.66,0,0,1,0-1.32A2.22,2.22,0,0,0,14.65,8a.66.66,0,0,1,1.32,0,3.55,3.55,0,0,1-3.41,3.66Z"/><path class="cls-1" d="M15.34,8.6A.66.66,0,0,1,14.68,8a2.18,2.18,0,0,0-1.93-1.92h0a.67.67,0,0,1-.42-.21.84.84,0,0,1-.17-.72V5.08a.66.66,0,0,1,.74-.76.62.62,0,0,1,.56.55,3.51,3.51,0,0,1,2.54,3,.66.66,0,0,1-.59.73Zm-2.78-3,.17,0Z"/><path class="cls-1" d="M4.85,14.42a.66.66,0,0,1-.13-1.31C10.34,12,9.85,8.38,9.82,8.23A.66.66,0,1,1,11.13,8s.7,5-6.15,6.39Z"/></g></g></g></g></svg>