<svg xmlns="http://www.w3.org/2000/svg" viewBox="0 0 15.93 16"><defs><style>.cls-1{fill:#fff;}</style></defs><title>icon-videoConfig</title><g id="图层_2" data-name="图层 2"><g id="图层_1-2" data-name="图层 1"><g id="图层_2-2" data-name="图层 2"><g id="图层_1-2-2" data-name="图层 1-2"><path class="cls-1" d="M6,13.29,7.63,9.68l2.1,4.8,1.21-2.41.74,1.67,1-.47L11,9.48,9.79,11.9,7.64,7l-2,4.39-.87-.87L2.95,11.92l.67.87L4.7,12ZM1.21,6.59H.53L0,5.9,7.56.09a.43.43,0,0,1,.52,0l6.69,5h0l1.16.86-.49.7h-.66v8.19A1.21,1.21,0,0,1,13.57,16H2.41a1.21,1.21,0,0,1-1.21-1.21Z"/></g></g></g></g></svg>