<svg xmlns="http://www.w3.org/2000/svg" viewBox="0 0 16 15.34"><defs><style>.cls-1{fill:#fff;}</style></defs><title>icon-news</title><g id="图层_2" data-name="图层 2"><g id="图层_1-2" data-name="图层 1"><g id="图层_2-2" data-name="图层 2"><g id="图层_1-2-2" data-name="图层 1-2"><path class="cls-1" d="M11.45,7.27a.91.91,0,1,0-.91-.91.91.91,0,0,0,.91.91Zm-3.27,0a.91.91,0,1,0-.91-.91.91.91,0,0,0,.91.91Zm-3.27,0A.91.91,0,1,0,4,6.35v0A.91.91,0,0,0,4.91,7.27Zm3,5.09L3.47,15.28a.37.37,0,0,1-.56-.3V12.36H1.46A1.46,1.46,0,0,1,0,10.91V1.46A1.45,1.45,0,0,1,1.45,0h13.1A1.45,1.45,0,0,1,16,1.45h0v9.45a1.45,1.45,0,0,1-1.45,1.46H7.92Z"/></g></g></g></g></svg>