<svg xmlns="http://www.w3.org/2000/svg" viewBox="0 0 15.2 16"><defs><style>.cls-1{fill:#fff;}</style></defs><title>icon-fictitious</title><g id="图层_2" data-name="图层 2"><g id="图层_1-2" data-name="图层 1"><g id="图层_2-2" data-name="图层 2"><g id="图层_1-2-2" data-name="图层 1-2"><polygon class="cls-1" points="7.66 5.82 14.69 3.16 7.59 0 0.53 3.18 7.66 5.82"/><path class="cls-1" d="M12.74,7.68c-.07-.31-.25-.57-1.08-.13l-1,.56,0,1.77s0,.05,1.14-.62S12.81,8,12.74,7.68Z"/><path class="cls-1" d="M8.06,6.44l0,9.54,7.06-3.56.05-8.63Zm4.63,5.72L11.3,10.52l-.56.39,0,2.34-1,.62-.2-6,2.34-1.36c1.2-.65,1.86-.35,2,.14.5,1.71-1.29,3-1.29,3l1.56,1.61Z"/><path class="cls-1" d="M7.34,6.46,0,3.76l.07,8.78L7.41,16Zm-3,6.46-1.29-.64L1.17,5.6l1.4.74,1.18,4.17L5,7.35l1.35.72Z"/></g></g></g></g></svg>