<svg xmlns="http://www.w3.org/2000/svg" viewBox="0 0 13.54 16"><defs><style>.cls-1{fill:#fff;}</style></defs><title>icon-spslice</title><g id="图层_2" data-name="图层 2"><g id="图层_1-2" data-name="图层 1"><path class="cls-1" d="M9.85,10.77v1c1.74.37,2.75,1,2.75,1.51,0,.74-2.27,1.82-5.83,1.82S.94,14,.94,13.24c0-.5,1-1.14,2.75-1.51v-1C1.62,11.18,0,12,0,13.24,0,15,3.49,16,6.77,16s6.77-1,6.77-2.76C13.54,12,11.92,11.18,9.85,10.77Z"/><path class="cls-1" d="M12.63,1.92,6.94,0A.55.55,0,0,0,6.6,0L.91,1.92a.55.55,0,0,0-.38.53V8.06c0,3.57,6,5.53,6,5.53a.63.63,0,0,0,.42,0c1.09-.4,6-2.35,6-5.53V2.45A.55.55,0,0,0,12.63,1.92Zm-5.86,1a2,2,0,1,1-2,2A2,2,0,0,1,6.77,2.94Zm0,8.85A9.7,9.7,0,0,1,3.12,9.53,3.76,3.76,0,0,1,6,8.19H7.5a3.76,3.76,0,0,1,2.91,1.35A9.68,9.68,0,0,1,6.77,11.79Z"/></g></g></svg>