<svg xmlns="http://www.w3.org/2000/svg" viewBox="0 0 15.95 16"><defs><style>.cls-1{fill:#fff;}</style></defs><title>icon-wms</title><g id="图层_2" data-name="图层 2"><g id="图层_1-2" data-name="图层 1"><path class="cls-1" d="M14.79,5h0L8.09.09a.44.44,0,0,0-.52,0L0,5.91l.53.69H1.2V14.8A1.2,1.2,0,0,0,2.41,16H13.59a1.2,1.2,0,0,0,1.2-1.2V6.61h.66l.5-.7ZM8.72,14.45a.41.41,0,0,1-.41.41H5.47a.41.41,0,0,1-.41-.41V11.61a.41.41,0,0,1,.41-.41H8.31a.41.41,0,0,1,.41.41Zm4.39,0a.41.41,0,0,1-.41.41H9.85a.41.41,0,0,1-.41-.41V11.61a.41.41,0,0,1,.41-.41H12.7a.41.41,0,0,1,.41.41Zm0-4.35a.41.41,0,0,1-.41.41H9.85a.41.41,0,0,1-.41-.41V7.25a.41.41,0,0,1,.41-.41H12.7a.41.41,0,0,1,.41.41Z"/></g></g></svg>