<svg xmlns="http://www.w3.org/2000/svg" viewBox="0 0 16.21 16.71"><defs><style>.cls-1,.cls-2{fill:#fff;}.cls-1{stroke:#fff;stroke-miterlimit:10;stroke-width:0.71px;}</style></defs><title>icon-humidity</title><g id="图层_2" data-name="图层 2"><g id="图层_1-2" data-name="图层 1"><g id="图层_2-2" data-name="图层 2"><g id="图层_1-2-2" data-name="图层 1-2"><path class="cls-1" d="M5.5,10.62V2.21A1.88,1.88,0,0,0,3.61.36a1.88,1.88,0,0,0-1.9,1.85v8.41A3.13,3.13,0,0,0,.36,13.19a3.21,3.21,0,0,0,3.24,3.17,3.21,3.21,0,0,0,3.24-3.17A3.13,3.13,0,0,0,5.5,10.62Zm-1.9,5a2.52,2.52,0,0,1-2.52-2.47,2.45,2.45,0,0,1,1.19-2.09l.17-.1V2.21a1.18,1.18,0,1,1,2.37,0V11l.17.1a2.45,2.45,0,0,1,1.17,2.09A2.52,2.52,0,0,1,3.61,15.66Z"/><path class="cls-1" d="M4,12v-7H3.24v7a1.22,1.22,0,0,0-.89,1.17,1.26,1.26,0,1,0,2.52,0A1.22,1.22,0,0,0,4,12Z"/><path class="cls-2" d="M16.2,10.48A7.42,7.42,0,0,0,16,9.37C15.53,8.1,15,6.46,12,1.67c0,0-3.9,5.8-4.2,9v.26A4.14,4.14,0,0,0,12,15h0a4.14,4.14,0,0,0,4.2-4.08h0A4,4,0,0,0,16.2,10.48Zm-4.09,2.85A2.79,2.79,0,0,1,10,8.64v.13a3.15,3.15,0,0,0,4.68,2.75A2.8,2.8,0,0,1,12.11,13.32Z"/></g></g></g></g></svg>