<svg xmlns="http://www.w3.org/2000/svg" viewBox="0 0 15.93 16"><defs><style>.cls-1{fill:#fff;}</style></defs><title>icon-dosmartConfig</title><g id="图层_2" data-name="图层 2"><g id="图层_1-2" data-name="图层 1"><g id="图层_2-2" data-name="图层 2"><g id="图层_1-2-2" data-name="图层 1-2"><path class="cls-1" d="M6.19,12.24a1.16,1.16,0,1,1,1.16-1.16h0A1.16,1.16,0,0,1,6.19,12.24Zm2.89-1.57a.4.4,0,0,0-.27-.29l-.1,0a.94.94,0,0,1-.64-1.12l0-.09A.4.4,0,0,0,8,8.78a2.64,2.64,0,0,0-.34-.22,2.81,2.81,0,0,0-.36-.18.4.4,0,0,0-.4.09l-.06.07a.94.94,0,0,1-1.3,0l-.06-.07A.4.4,0,0,0,5,8.38a2.77,2.77,0,0,0-.36.18,2.6,2.6,0,0,0-.34.22.4.4,0,0,0-.11.38l0,.09a.94.94,0,0,1-.65,1.13l-.09,0a.4.4,0,0,0-.27.29,2.65,2.65,0,0,0,0,.4,2.65,2.65,0,0,0,0,.4.4.4,0,0,0,.27.29l.09,0a.94.94,0,0,1,.65,1.13l0,.09a.4.4,0,0,0,.11.38,2.64,2.64,0,0,0,.34.22,2.63,2.63,0,0,0,.36.18.4.4,0,0,0,.4-.09l.06-.07a.94.94,0,0,1,1.3,0l.06.07a.4.4,0,0,0,.4.09,2.76,2.76,0,0,0,.36-.18A2.55,2.55,0,0,0,8,13.39.4.4,0,0,0,8.1,13l0-.09a.94.94,0,0,1,.65-1.13l.09,0a.4.4,0,0,0,.27-.29,2.65,2.65,0,0,0,0-.4,2.72,2.72,0,0,0,0-.4ZM10.9,10a.83.83,0,1,1,.74-.91h0a.83.83,0,0,1-.74.91h0ZM12.83,8.7a.28.28,0,0,0-.21-.18h-.07A.68.68,0,0,1,12,7.77V7.71a.28.28,0,0,0-.11-.26l-.26-.13-.27-.1a.28.28,0,0,0-.27.09l0,.06a.68.68,0,0,1-.92.1l-.05,0a.28.28,0,0,0-.28,0l-.24.16-.23.18A.28.28,0,0,0,9.3,8l0,.06a.67.67,0,0,1-.38.85l-.06,0a.28.28,0,0,0-.17.22,1.88,1.88,0,0,0,0,.57A.27.27,0,0,0,9,9.89H9a.68.68,0,0,1,.55.75v.06a.28.28,0,0,0,.11.26,2.81,2.81,0,0,0,.53.23.28.28,0,0,0,.27-.09l0-.05a.68.68,0,0,1,.92-.1l0,0a.28.28,0,0,0,.28,0l.24-.16.23-.18a.28.28,0,0,0,.05-.28l0-.06a.68.68,0,0,1,.38-.84l.06,0a.28.28,0,0,0,.17-.22,1.89,1.89,0,0,0,0-.29,1.94,1.94,0,0,0,0-.29ZM1.21,6.59H.53L0,5.9,7.56.09a.43.43,0,0,1,.52,0l6.69,5h0l1.16.86-.49.7h-.66v8.19A1.21,1.21,0,0,1,13.57,16H2.41a1.21,1.21,0,0,1-1.21-1.21Z"/></g></g></g></g></svg>