<svg xmlns="http://www.w3.org/2000/svg" viewBox="0 0 16 12.96"><defs><style>.cls-1{fill:#fff;}</style></defs><title>icon-dss</title><g id="图层_2" data-name="图层 2"><g id="图层_1-2" data-name="图层 1"><path class="cls-1" d="M15.19,0H.81A.81.81,0,0,0,0,.81v9.4A.81.81,0,0,0,.81,11H6.68v1H4.88a.81.81,0,0,0-.81.81V13h7.85v-.15a.81.81,0,0,0-.81-.81H9.32V11h5.87a.81.81,0,0,0,.81-.81V.81A.81.81,0,0,0,15.19,0ZM5.67,9.31a.41.41,0,0,1-.4.4H4.41a.41.41,0,0,1-.4-.4V7.83a.41.41,0,0,1,.4-.4h.86a.41.41,0,0,1,.4.4ZM9,9.31a.41.41,0,0,1-.4.4H7.73a.41.41,0,0,1-.4-.4V6.14a.41.41,0,0,1,.4-.4h.88a.41.41,0,0,1,.4.4Zm3.35,0a.41.41,0,0,1-.4.4h-.88a.41.41,0,0,1-.4-.4V4.47a.41.41,0,0,1,.4-.4H12a.41.41,0,0,1,.4.4Zm-.43-6.17-.36-.59L7.76,4.94,6.89,3.56,4.4,5.12l-.46-.73,3.22-2L8,3.75l3.1-1.93-.36-.59,1.66.3Z"/></g></g></svg>