<svg xmlns="http://www.w3.org/2000/svg" viewBox="0 0 15.7 15.69"><defs><style>.cls-1{fill:#fff;}</style></defs><title>icon-gxlzlk</title><g id="图层_2" data-name="图层 2"><g id="图层_1-2" data-name="图层 1"><g id="图层_2-2" data-name="图层 2"><g id="图层_1-2-2" data-name="图层 1-2"><path class="cls-1" d="M11.77,4.28H7.84a.36.36,0,0,1,0-.71h3.92a.36.36,0,0,1,.36.36.34.34,0,0,1-.32.36Zm0,3.56H2.14a.36.36,0,1,1,0-.71h9.63a.36.36,0,0,1,.36.36.34.34,0,0,1-.31.36h0Zm0,2.5H2.14a.36.36,0,1,1,0-.71h9.63a.36.36,0,0,1,.36.36.34.34,0,0,1-.31.36h0Zm0,2.5H2.14a.36.36,0,1,1,0-.71h9.63a.36.36,0,0,1,.36.36.34.34,0,0,1-.31.36h0ZM1.78,2.5a.34.34,0,0,1,.32-.36H6.42a.34.34,0,0,1,.36.36V5a.34.34,0,0,1-.32.36H2.14A.34.34,0,0,1,1.78,5Zm13.55.36a.34.34,0,0,0-.36.36v11a.73.73,0,0,1-.73.74h-.56a1.32,1.32,0,0,0,.21-.74V1.46A1.45,1.45,0,0,0,12.47,0h-11A1.45,1.45,0,0,0,0,1.43s0,0,0,0V14.19a1.46,1.46,0,0,0,1.41,1.5H14.24a1.45,1.45,0,0,0,1.46-1.43s0,0,0,0v-11a.34.34,0,0,0-.31-.36h-.05Z"/></g></g></g></g></svg>