<svg xmlns="http://www.w3.org/2000/svg" viewBox="0 0 15.91 16"><defs><style>.cls-1{fill:#fff;}</style></defs><title>icon-hr</title><g id="图层_2" data-name="图层 2"><g id="图层_1-2" data-name="图层 1"><g id="图层_2-2" data-name="图层 2"><g id="图层_1-2-2" data-name="图层 1-2"><path class="cls-1" d="M3.25,3.68A4.82,4.82,0,0,0,5.76,7.89a3.62,3.62,0,0,1-2,.61,3.75,3.75,0,0,1,0-7.5c.11,0,.2,0,.3,0A4.79,4.79,0,0,0,3.25,3.68Z"/><path class="cls-1" d="M12.18,8.5a3.59,3.59,0,0,1-1.91-.56A4.79,4.79,0,0,0,12.05,1h.11a3.75,3.75,0,0,1,0,7.5Z"/><path class="cls-1" d="M4.27,9.57h7.38c4.42,0,4.21,6.43,4.21,6.43H.06S-.49,9.57,4.27,9.57Z"/><circle class="cls-1" cx="7.96" cy="3.68" r="3.68"/></g></g></g></g></svg>