<svg xmlns="http://www.w3.org/2000/svg" viewBox="0 0 15.95 16"><defs><style>.cls-1,.cls-2{fill:#fff;}.cls-1{fill-rule:evenodd;}</style></defs><title>icon-dosmartControl</title><g id="图层_2" data-name="图层 2"><g id="图层_1-2" data-name="图层 1"><path class="cls-1" d="M14.79,6.61v8.2a1.2,1.2,0,0,1-1.2,1.2h-.13V7.63a.36.36,0,0,0-.36-.36H2.91a.36.36,0,0,0-.36.36V16H2.41a1.2,1.2,0,0,1-1.2-1.2V6.6H.53L0,5.91,7.57.09a.44.44,0,0,1,.52,0l6.69,5h0l1.16.86-.5.7Z"/><path class="cls-2" d="M12,8.38h-.32a.4.4,0,0,0-.4-.4h-.66a.4.4,0,0,0-.4.4H4a.4.4,0,0,0-.4.4V9a.4.4,0,0,0,.4.4h6.13a.4.4,0,0,0,.4.4h.66a.4.4,0,0,0,.4-.4H12a.4.4,0,0,0,.4-.4V8.78A.4.4,0,0,0,12,8.38Z"/><path class="cls-2" d="M12,11.3H8.79a.4.4,0,0,0-.4-.4H7.72a.4.4,0,0,0-.4.4H4a.4.4,0,0,0-.4.4v.22a.4.4,0,0,0,.4.4H7.32a.4.4,0,0,0,.4.4h.66a.4.4,0,0,0,.4-.4H12a.4.4,0,0,0,.4-.4v-.22A.4.4,0,0,0,12,11.3Z"/><path class="cls-2" d="M12,14.21H5.81a.4.4,0,0,0-.4-.4H4.75a.4.4,0,0,0-.4.4H4a.4.4,0,0,0-.4.4v.22a.4.4,0,0,0,.4.4h.3a.4.4,0,0,0,.4.4h.66a.4.4,0,0,0,.4-.4H12a.4.4,0,0,0,.4-.4v-.22A.4.4,0,0,0,12,14.21Z"/></g></g></svg>