<svg xmlns="http://www.w3.org/2000/svg" viewBox="0 0 15.98 13.66"><defs><style>.cls-1{fill:#fff;}</style></defs><title>icon-skin</title><g id="图层_2" data-name="图层 2"><g id="图层_1-2" data-name="图层 1"><g id="图层_2-2" data-name="图层 2"><g id="图层_1-2-2" data-name="图层 1-2"><path class="cls-1" d="M4.29,0H5.64L6,.18a1.78,1.78,0,0,1,.31.33,1.6,1.6,0,0,0,.59.4,4,4,0,0,0,.8.21H8a1.36,1.36,0,0,0,.4,0A2.45,2.45,0,0,0,9.56.6c.14-.11.22-.3.37-.4l.25-.14c.07,0,.12,0,.18,0h.4A3.56,3.56,0,0,1,12,.1a2.13,2.13,0,0,1,.46.38L13,1l1.91,1.81c.2.21.42.4.63.59A1.51,1.51,0,0,1,16,4v.12a.74.74,0,0,1-.2.61l-1.58,1.5a1.51,1.51,0,0,1-.77.56,1,1,0,0,1-.94-.4,1.07,1.07,0,0,0-.22-.2h0V13a.8.8,0,0,1-.28.45,2.69,2.69,0,0,1-1.44.18H5.15a2.2,2.2,0,0,1-1-.12.87.87,0,0,1-.33-.38,2,2,0,0,1,0-.64V6.16h0A2.64,2.64,0,0,1,3,6.73a.85.85,0,0,1-.74-.12,2.59,2.59,0,0,1-.3-.28l-.71-.67L.89,5.33C.75,5.22.63,5.09.49,5a1.55,1.55,0,0,1-.4-.47A.69.69,0,0,1,0,4.1a1.27,1.27,0,0,1,.51-.73c.14-.12.25-.25.4-.37L3.14.87l.4-.4A1.07,1.07,0,0,1,4.29.06Z"/></g></g></g></g></svg>