<svg xmlns="http://www.w3.org/2000/svg" viewBox="0 0 16 14.53"><defs><style>.cls-1{fill:#fff;}</style></defs><title>icon-pss</title><g id="图层_2" data-name="图层 2"><g id="图层_1-2" data-name="图层 1"><g id="图层_2-2" data-name="图层 2"><g id="图层_1-2-2" data-name="图层 1-2"><path class="cls-1" d="M5,10.12a4.21,4.21,0,0,0-.11,1C5,13,7.26,14,8.9,13.64c-1.21-.4-2.47-1.51-2.43-2.77a2.62,2.62,0,0,1,.05-.45l1.33.16L7,9.65l-.83-.93-1.13.62L3.92,10Z"/><path class="cls-1" d="M11,11.47a4.22,4.22,0,0,0,.07-1.06C11,8.55,8.62,7.64,7,8c1.24.4,2.51,1.45,2.52,2.71a2.6,2.6,0,0,1,0,.46l-1.34-.13L9,12l.87.91L11,12.24l1.12-.64Z"/><path class="cls-1" d="M14.84,6v7.44a1,1,0,0,1-.35.77,1.27,1.27,0,0,1-.85.32h-.13V6.93a.35.35,0,0,0-.36-.33H2.92a.35.35,0,0,0-.36.33h0v7.6H2.43a1.27,1.27,0,0,1-.85-.32,1,1,0,0,1-.36-.77V6H.53L0,5.36,7.6.08a.47.47,0,0,1,.53,0l6.71,4.5h0L16,5.36,15.5,6Z"/></g></g></g></g></svg>