<svg xmlns="http://www.w3.org/2000/svg" viewBox="0 0 16 14.88"><defs><style>.cls-1{fill:#fff;}</style></defs><title>icon-safeTrack</title><g id="图层_2" data-name="图层 2"><g id="图层_1-2" data-name="图层 1"><g id="图层_2-2" data-name="图层 2"><g id="图层_1-2-2" data-name="图层 1-2"><path class="cls-1" d="M12.85,0H.74A.74.74,0,0,0,0,.74H0v12.6a.74.74,0,0,0,.72.75h7.2l-.38-.49h0l-.34-.44h0a6.24,6.24,0,0,1-.46-.75.64.64,0,0,1,0-.63C7.3,10.92,9,8.56,11.87,8.56a5.12,5.12,0,0,1,.87.07l.31.06h.06l.47.1V.74A.74.74,0,0,0,12.85,0ZM9.78,1.56S9,5.18,7.74,4.21,9.42,1.68,9.78,1.56Zm-2.9-.4a1.81,1.81,0,0,0,0,2.13C7.63,4.85,6.51,5.35,6,4.93c-1.16-.93.52-3.59.88-3.75ZM5.53,2.82s-.72.71,0,2.1C6.31,6.48,5.16,7,4.65,6.57,3.5,5.64,5.17,3,5.53,2.82Zm-1.61,7L2.29,11.55c-.33.4-.85-.29-.69-.48L2.94,9c.14-.17.24.16.52.4s.62.23.48.41ZM3.2,8.38c-1.15-.93.52-3.59.88-3.75,0,0-.72.71,0,2.1C4.83,8.29,3.71,8.79,3.2,8.38Zm1.23,1C3.91,9,4.18,7.77,5.87,8.21c1.51.4,2.05-.46,2.05-.46C7.84,8.13,5.58,10.31,4.43,9.38ZM5.88,7.59C5.37,7.19,5.63,6,7.32,6.41,8.83,6.82,9.37,6,9.37,6,9.29,6.34,7,8.52,5.89,7.59ZM7.25,5.93C6.73,5.53,7,4.32,8.69,4.76c1.51.4,2.05-.46,2.05-.46C10.63,4.69,8.38,6.85,7.25,5.93Z"/><path class="cls-1" d="M11.87,11a1.05,1.05,0,0,0-1,1.07v0a1.08,1.08,0,0,0,1,1.08,1.05,1.05,0,0,0,1-1.08A1,1,0,0,0,11.95,11Z"/><path class="cls-1" d="M11.87,9.26a5.05,5.05,0,0,0-4,2.5.64.64,0,0,0,0,.65,4.54,4.54,0,0,0,4.05,2.47,4.93,4.93,0,0,0,4-2.47.64.64,0,0,0,0-.68A5,5,0,0,0,11.87,9.26Zm0,4.59a1.69,1.69,0,0,1-1.73-1.64s0-.09,0-.13a1.7,1.7,0,0,1,1.67-1.73h.07A1.68,1.68,0,0,1,13.6,12s0,.08,0,.11A1.68,1.68,0,0,1,12,13.84h-.13Z"/></g></g></g></g></svg>