<svg xmlns="http://www.w3.org/2000/svg" viewBox="0 0 15.85 15"><defs><style>.cls-1{fill:#fff;}</style></defs><title>icon-chongdan</title><g id="图层_2" data-name="图层 2"><g id="图层_1-2" data-name="图层 1"><g id="图层_2-2" data-name="图层 2"><g id="图层_1-2-2" data-name="图层 1-2"><path class="cls-1" d="M14.53,7.11h0a.65.65,0,1,0-.64-.67h0a.66.66,0,0,0,.63.64Zm-7.9-1h0A3,3,0,0,1,9.26,3.18V1.5h-6V3.18A3,3,0,0,1,5.93,6.13v.33h.72Zm-.72,5h.72v-3H5.91Zm-.64-4.7H.66v.72H5.27Zm0,6.08H.66v.72H5.27Zm6.63-6.08H7.3v.72h4.61Zm0,6.08H7.3v.72h4.61Zm-8.5-1.43H4.58v-.29H4.2a1.58,1.58,0,0,0-.29,0,1.58,1.58,0,0,0,.58-1A.52.52,0,0,0,4,9.3H3.93a.72.72,0,0,0-.56.26l.19.19a.45.45,0,0,1,.32-.18.25.25,0,0,1,.26.29c0,.27-.28.6-.76,1Zm-2.33,0h.48v-1c0-.29,0-.61-.06-.88h0l.26.54.72,1.35H3V8.58H2.53v1c0,.29,0,.62.06.89h0l-.27-.55L1.59,8.58H1.07ZM14.85,5.18a1.32,1.32,0,1,1-.65,0V3.45a2,2,0,0,0-2-2H9.92V3.16A3,3,0,0,1,12.56,6.1v7.58A1.32,1.32,0,0,1,11.24,15H7.94a1.32,1.32,0,0,1-1.32-1.32h0V13H5.91v.66A1.32,1.32,0,0,1,4.6,15H1.32A1.32,1.32,0,0,1,0,13.68H0V6.11A3,3,0,0,1,2.64,3.16V1.48H2.07a.33.33,0,1,1,0-.66h.57V.33a.33.33,0,1,1,.66,0V.82h6V.33a.33.33,0,1,1,.66,0V.82h2.31a2.64,2.64,0,0,1,2.64,2.64Z"/></g></g></g></g></svg>