<svg xmlns="http://www.w3.org/2000/svg" viewBox="0 0 16 15.36"><defs><style>.cls-1{fill:#2c9ee7;}</style></defs><title>icon-trainAdmin-h</title><g id="图层_2" data-name="图层 2"><g id="图层_1-2" data-name="图层 1"><path class="cls-1" d="M3.39,15.36a.55.55,0,0,1-.55-.55V12.45H1.61A1.62,1.62,0,0,1,0,10.84V1.61A1.62,1.62,0,0,1,1.61,0H14.39A1.62,1.62,0,0,1,16,1.61v9.22a1.62,1.62,0,0,1-1.61,1.61H8l-4.3,2.82A.55.55,0,0,1,3.39,15.36ZM1.61.39A1.22,1.22,0,0,0,.39,1.61v9.22a1.22,1.22,0,0,0,1.22,1.22H3.23v2.75a.16.16,0,0,0,.25.13l4.39-2.88h6.52a1.22,1.22,0,0,0,1.22-1.22V1.61A1.22,1.22,0,0,0,14.39.39Zm9.76,7.09A1.08,1.08,0,1,1,12.45,6.4,1.08,1.08,0,0,1,11.37,7.49Zm0-1.77a.69.69,0,1,0,.69.69A.69.69,0,0,0,11.37,5.71ZM8.18,7.49A1.08,1.08,0,1,1,9.26,6.4,1.08,1.08,0,0,1,8.18,7.49Zm0-1.77a.69.69,0,1,0,.69.69A.69.69,0,0,0,8.18,5.71ZM5,7.49A1.08,1.08,0,1,1,6.07,6.4,1.08,1.08,0,0,1,5,7.49ZM5,5.71a.69.69,0,1,0,.69.69A.69.69,0,0,0,5,5.71Z"/></g></g></svg>