<svg xmlns="http://www.w3.org/2000/svg" viewBox="0 0 15.77 16"><defs><style>.cls-1{fill:#2c9ee7;}</style></defs><title>icon-integrate-h</title><g id="图层_2" data-name="图层 2"><g id="图层_1-2" data-name="图层 1"><path class="cls-1" d="M7.9,16a.59.59,0,0,1-.3-.07L.42,12a.55.55,0,0,1,0-1l.82-.45a.55.55,0,0,1,.27-.07.57.57,0,0,1,.3.07L7.75,13.8l.09.06,6-3.32a.54.54,0,0,1,.26-.07.58.58,0,0,1,.3.07l.83.45a.55.55,0,0,1,0,1l-7.11,4A.56.56,0,0,1,7.9,16ZM1.54,10.84a.23.23,0,0,0-.12,0l-.82.45a.19.19,0,0,0,0,.33l7.18,4a.23.23,0,0,0,.22,0l7.11-4a.19.19,0,0,0,0-.33l-.83-.45a.22.22,0,0,0-.21,0l-6,3.29a.24.24,0,0,1-.12.09.28.28,0,0,1-.3-.07l-.07,0L1.63,10.86ZM8,12.48a.59.59,0,0,1-.3-.07l-7.25-4a.55.55,0,0,1,0-1h0L1.25,7A.55.55,0,0,1,1.51,7a.58.58,0,0,1,.3.07l6,3.27.09,0a.23.23,0,0,0,.12,0L14,7A.55.55,0,0,1,14.22,7a.59.59,0,0,1,.3.07l.83.45a.55.55,0,0,1,0,1l-7.11,4A.56.56,0,0,1,8,12.48ZM.6,7.79A.19.19,0,0,0,.5,8a.19.19,0,0,0,.1.16l7.25,4a.23.23,0,0,0,.21,0l7.11-4a.19.19,0,0,0,0-.33l-.83-.45a.23.23,0,0,0-.21,0l-6,3.28a.53.53,0,0,1-.26.07.59.59,0,0,1-.3-.07l-6-3.28-.09,0a.24.24,0,0,0-.12,0ZM7.9,9a.58.58,0,0,1-.3-.07l-7.34-4a.53.53,0,0,1-.2-.19A.38.38,0,0,1,0,4.36a.37.37,0,0,1,.2-.22L7.6.07A.55.55,0,0,1,7.87,0a.59.59,0,0,1,.3.07l7.4,4.07a.39.39,0,0,1,0,.7L8.17,8.9A.55.55,0,0,1,7.9,9Zm0-8.6a.23.23,0,0,0-.12,0L.38,4.46h0l.08.07,7.34,4a.22.22,0,0,0,.21,0l7.4-4.07h0V4.46L8,.39Z"/></g></g></svg>