<svg xmlns="http://www.w3.org/2000/svg" viewBox="0 0 16 13.03"><defs><style>.cls-1{fill:#2c9ee7;}</style></defs><title>icon-operation-h</title><g id="图层_2" data-name="图层 2"><g id="图层_1-2" data-name="图层 1"><path class="cls-1" d="M8,7a1.59,1.59,0,0,1-1.13-.47A1.61,1.61,0,0,1,8,3.82H8A1.61,1.61,0,0,1,8,7ZM8,4.21A1.22,1.22,0,1,0,9.21,5.43,1.21,1.21,0,0,0,8,4.21Z"/><path class="cls-1" d="M12,13H4v-.34a1,1,0,0,1,1-1H6.51v-.57H1a1,1,0,0,1-1-1V1A1,1,0,0,1,1,0H15a1,1,0,0,1,1,1v9.17a1,1,0,0,1-1,1H9.49v.57H11a1,1,0,0,1,1,1Zm-7.66-.39h7.26A.59.59,0,0,0,11,12.1H9.09V10.75H15a.59.59,0,0,0,.59-.59V1A.59.59,0,0,0,15,.39H1A.59.59,0,0,0,.39,1v9.17a.59.59,0,0,0,.59.59H6.91V12.1H5A.59.59,0,0,0,4.37,12.64ZM9.2,8.95a.66.66,0,0,1-.48-.2l-.08-.08a.94.94,0,0,0-1.29,0l-.07.07a.66.66,0,0,1-.68.16,3.41,3.41,0,0,1-.47-.24,3.41,3.41,0,0,1-.44-.29.67.67,0,0,1-.19-.67l0-.1a1,1,0,0,0-.1-.69.93.93,0,0,0-.55-.44l-.1,0A.66.66,0,0,1,4.3,6a3.34,3.34,0,0,1,0-.53,3.37,3.37,0,0,1,0-.53.67.67,0,0,1,.48-.5l.11,0a.93.93,0,0,0,.54-.43,1,1,0,0,0,.1-.7l0-.1a.67.67,0,0,1,.19-.67,3.22,3.22,0,0,1,.44-.29,3.38,3.38,0,0,1,.47-.24.66.66,0,0,1,.68.16l.08.08A.93.93,0,0,0,8,2.45H8a.93.93,0,0,0,.65-.26l.07-.08a.66.66,0,0,1,.68-.16,3.58,3.58,0,0,1,.47.24,3.33,3.33,0,0,1,.44.29.67.67,0,0,1,.19.67l0,.11a1,1,0,0,0,.65,1.12l.1,0a.66.66,0,0,1,.48.5,3.46,3.46,0,0,1,0,.53,3.38,3.38,0,0,1,0,.53h0a.67.67,0,0,1-.48.5l-.11,0a.94.94,0,0,0-.54.43,1,1,0,0,0-.1.7l0,.1a.67.67,0,0,1-.2.67,3.18,3.18,0,0,1-.44.29,3.42,3.42,0,0,1-.47.24A.59.59,0,0,1,9.2,8.95ZM8,8a1.33,1.33,0,0,1,.92.37L9,8.48a.27.27,0,0,0,.25.06h0a3.46,3.46,0,0,0,.4-.21A3.14,3.14,0,0,0,10,8.09a.28.28,0,0,0,.07-.25l0-.11A1.35,1.35,0,0,1,11,6.11l.12,0a.28.28,0,0,0,.18-.19,3.28,3.28,0,0,0,0-.46,3.44,3.44,0,0,0,0-.46.28.28,0,0,0-.18-.19l-.12,0a1.35,1.35,0,0,1-.93-1.61l0-.13A.28.28,0,0,0,10,2.77h0a3.21,3.21,0,0,0-.38-.25,3.41,3.41,0,0,0-.41-.21A.27.27,0,0,0,9,2.38l-.08.09A1.42,1.42,0,0,1,8,2.84H8a1.32,1.32,0,0,1-.92-.37L7,2.38a.28.28,0,0,0-.25-.06h0a3.41,3.41,0,0,0-.41.21A3.11,3.11,0,0,0,6,2.78.28.28,0,0,0,5.88,3l0,.11a1.35,1.35,0,0,1-.14,1A1.33,1.33,0,0,1,5,4.76l-.12,0A.28.28,0,0,0,4.69,5h0a3.26,3.26,0,0,0,0,.46,3.3,3.3,0,0,0,0,.46.27.27,0,0,0,.18.19L5,6.1a1.33,1.33,0,0,1,.79.62,1.35,1.35,0,0,1,.14,1l0,.12A.28.28,0,0,0,6,8.09H6a3.28,3.28,0,0,0,.38.25,3.32,3.32,0,0,0,.41.21A.27.27,0,0,0,7,8.48l.07-.08A1.35,1.35,0,0,1,8,8Z"/></g></g></svg>