<svg xmlns="http://www.w3.org/2000/svg" viewBox="0 0 15.42 16"><defs><style>.cls-1{fill:#2c9ee7;}</style></defs><title>icon-budget-h</title><g id="图层_2" data-name="图层 2"><g id="图层_1-2" data-name="图层 1"><path class="cls-1" d="M8.55,4.95H4.1a1.17,1.17,0,0,1-.93-.49,4.33,4.33,0,0,1-1-2.14,1.45,1.45,0,0,1,.36-1.09A1.77,1.77,0,0,1,3.87.91h.29c.22,0,.46-.23.7-.45S5.57-.21,6,.14A3.22,3.22,0,0,1,6.59,1c.17.29.22.34.32.32s.14-.09.22-.31S7.46.1,8.51.1a2.09,2.09,0,0,1,1.67.57,2,2,0,0,1,.32,1.68,5.2,5.2,0,0,1-1,2.13A1.14,1.14,0,0,1,8.55,4.95ZM3.61,1.26a1.17,1.17,0,0,0-.83.22,1.13,1.13,0,0,0-.25.84,3.82,3.82,0,0,0,.92,1.93.83.83,0,0,0,.65.35H8.55a.79.79,0,0,0,.64-.33,4.76,4.76,0,0,0,1-2A1.71,1.71,0,0,0,9.91.89,1.78,1.78,0,0,0,8.51.44c-.81,0-.93.34-1,.66s-.18.49-.5.54-.51-.21-.67-.49A2.87,2.87,0,0,0,5.72.4c-.13-.12-.27,0-.63.32a1.54,1.54,0,0,1-.93.54H3.61Z"/><path class="cls-1" d="M8.91,16H3.4C1.51,16,0,13.9,0,12.16c0-1.93,1.46-4.52,2.91-6.24a1.38,1.38,0,0,1,1-.5H8.71a1.31,1.31,0,0,1,.77.25v-.1l.31.4a7.08,7.08,0,0,1,.46.7l.22.36.17.27H9.79A.68.68,0,0,0,9,7.95v7.31a.73.73,0,0,0,.17.44l.2.26-.32,0H8.91ZM4,5.77a1,1,0,0,0-.78.37C1.77,7.81.35,10.32.35,12.16c0,1.57,1.41,3.49,3,3.49H8.77a1,1,0,0,1-.08-.4V7.95a1,1,0,0,1,1.1-1H10l-.06-.1c-.13-.22-.27-.45-.4-.63l0,0a1,1,0,0,0-.8-.41H4Zm2.65,8.6H5.36v-.88a3.85,3.85,0,0,1-1.72-.69l-.14-.11.79-1,.14.09a2.49,2.49,0,0,0,1.4.49c.66,0,.75-.27.75-.5s-.49-.56-1-.8c-.76-.33-1.7-.74-1.7-1.75A1.73,1.73,0,0,1,5.36,7.48V6.56H6.61v.9A2.82,2.82,0,0,1,8,8.18l.14.13-.91.88-.12-.09a1.56,1.56,0,0,0-1-.42c-.66,0-.66.35-.66.46,0,.29.45.47,1,.69.79.33,1.78.74,1.78,1.84a1.79,1.79,0,0,1-1.59,1.77ZM5.71,14h.55v-.87l.15,0c.92-.15,1.45-.68,1.45-1.46s-.8-1.2-1.57-1.52c-.61-.25-1.18-.49-1.18-1,0-.24.1-.81,1-.81a1.85,1.85,0,0,1,1.14.4l.42-.41a2.38,2.38,0,0,0-1.26-.53l-.15,0V6.91H5.71v.87l-.15,0c-.88.14-1.39.65-1.39,1.4s.76,1.11,1.49,1.43,1.26.55,1.26,1.12c0,.32-.14.85-1.1.85a2.71,2.71,0,0,1-1.45-.46L4,12.62a3.63,3.63,0,0,0,1.56.53l.16,0Z"/><path class="cls-1" d="M14.32,15.8H10.19a1.1,1.1,0,0,1-1.1-1.1V8.5a1.1,1.1,0,0,1,1.1-1.1h4.13a1.1,1.1,0,0,1,1.1,1.1V14.7A1.1,1.1,0,0,1,14.32,15.8ZM10.19,7.75a.75.75,0,0,0-.75.75V14.7a.75.75,0,0,0,.75.75h4.13a.75.75,0,0,0,.75-.75V8.5a.75.75,0,0,0-.75-.75Zm4,7.07h-.73a.38.38,0,0,1-.38-.38v-.55a.38.38,0,0,1,.38-.38h.73a.38.38,0,0,1,.38.38v.55A.38.38,0,0,1,14.22,14.81Zm-.73-1a0,0,0,0,0,0,0v.55a0,0,0,0,0,0,0h.73a0,0,0,0,0,0,0v-.55a0,0,0,0,0,0,0Zm-.9,1h-.73a.38.38,0,0,1-.38-.38v-.55a.38.38,0,0,1,.38-.38h.73a.38.38,0,0,1,.38.38v.55A.38.38,0,0,1,12.59,14.81Zm-.73-1a0,0,0,0,0,0,0v.55a0,0,0,0,0,0,0h.73a0,0,0,0,0,0,0v-.55a0,0,0,0,0,0,0Zm-.9,1h-.73a.38.38,0,0,1-.38-.38v-.55a.38.38,0,0,1,.38-.38H11a.38.38,0,0,1,.38.38v.55A.38.38,0,0,1,11,14.81Zm-.73-1a0,0,0,0,0,0,0v.55a0,0,0,0,0,0,0H11a0,0,0,0,0,0,0v-.55a0,0,0,0,0,0,0Zm4-.51h-.73a.38.38,0,0,1-.38-.38v-.55a.38.38,0,0,1,.38-.38h.73a.38.38,0,0,1,.38.38V13A.38.38,0,0,1,14.22,13.34Zm-.73-1a0,0,0,0,0,0,0V13a0,0,0,0,0,0,0h.73a0,0,0,0,0,0,0v-.55a0,0,0,0,0,0,0Zm-.9,1h-.73a.38.38,0,0,1-.38-.38v-.55a.38.38,0,0,1,.38-.38h.73a.38.38,0,0,1,.38.38V13A.38.38,0,0,1,12.59,13.34Zm-.73-1a0,0,0,0,0,0,0V13a0,0,0,0,0,0,0h.73a0,0,0,0,0,0,0v-.55a0,0,0,0,0,0,0Zm-.9,1h-.73A.38.38,0,0,1,9.85,13v-.55a.38.38,0,0,1,.38-.38H11a.38.38,0,0,1,.38.38V13A.38.38,0,0,1,11,13.34Zm-.73-1a0,0,0,0,0,0,0V13a0,0,0,0,0,0,0H11a0,0,0,0,0,0,0v-.55a0,0,0,0,0,0,0Zm4-.51h-.73a.38.38,0,0,1-.38-.38v-.55a.38.38,0,0,1,.38-.38h.73a.38.38,0,0,1,.38.38v.55A.38.38,0,0,1,14.22,11.88Zm-.73-1a0,0,0,0,0,0,0v.55a0,0,0,0,0,0,0h.73a0,0,0,0,0,0,0v-.55a0,0,0,0,0,0,0Zm-.9,1h-.73a.38.38,0,0,1-.38-.38v-.55a.38.38,0,0,1,.38-.38h.73a.38.38,0,0,1,.38.38v.55A.38.38,0,0,1,12.59,11.88Zm-.73-1a0,0,0,0,0,0,0v.55a0,0,0,0,0,0,0h.73a0,0,0,0,0,0,0v-.55a0,0,0,0,0,0,0Zm-.9,1h-.73a.38.38,0,0,1-.38-.38v-.55a.38.38,0,0,1,.38-.38H11a.38.38,0,0,1,.38.38v.55A.38.38,0,0,1,11,11.88Zm-.73-1a0,0,0,0,0,0,0v.55a0,0,0,0,0,0,0H11a0,0,0,0,0,0,0v-.55a0,0,0,0,0,0,0Zm3.82-.49H10.4a.54.54,0,0,1-.54-.54v-1a.54.54,0,0,1,.54-.54h3.66a.54.54,0,0,1,.54.54v1A.54.54,0,0,1,14.05,10.43ZM10.4,8.69a.2.2,0,0,0-.19.19v1a.2.2,0,0,0,.19.2h3.66a.2.2,0,0,0,.19-.2v-1a.2.2,0,0,0-.19-.19Z"/></g></g></svg>