<svg xmlns="http://www.w3.org/2000/svg" viewBox="0 0 13.67 16"><defs><style>.cls-1{fill:#2c9ee7;}</style></defs><title>icon-sups-h</title><g id="图层_2" data-name="图层 2"><g id="图层_1-2" data-name="图层 1"><path class="cls-1" d="M6.83,16C3.44,16,0,15,0,13.12c0-.9.79-1.66,2.27-2.19l.12.33c-.93.33-2,.92-2,1.86,0,1.58,3.3,2.53,6.49,2.53s6.49-.95,6.49-2.53c0-.94-1.12-1.53-2.06-1.86l.12-.33c1.5.53,2.29,1.29,2.29,2.19C13.67,15,10.23,16,6.83,16Z"/><path class="cls-1" d="M6.84,13.68a.8.8,0,0,1-.26,0c-.24-.08-6.05-2-6.05-5.57V2.57A.72.72,0,0,1,1,1.89L6.61,0a.71.71,0,0,1,.45,0l5.6,1.85a.72.72,0,0,1,.49.68V8.06a4.26,4.26,0,0,1-1.71,3.16A14.75,14.75,0,0,1,7.1,13.63.8.8,0,0,1,6.84,13.68ZM6.83.35l-.12,0L1.12,2.22a.37.37,0,0,0-.25.35V8.06c0,3.33,5.76,5.22,5.81,5.24a.45.45,0,0,0,.3,0A14.39,14.39,0,0,0,11.21,11a3.93,3.93,0,0,0,1.59-2.9V2.57a.37.37,0,0,0-.25-.35L7,.37Zm0,11.54-.06,0A9.61,9.61,0,0,1,3.11,9.62L3,9.5l.09-.11A3.87,3.87,0,0,1,6.11,8H7.56a3.86,3.86,0,0,1,3,1.38l.09.11-.1.11a9.59,9.59,0,0,1-3.67,2.26ZM3.48,9.5a9.52,9.52,0,0,0,3.36,2,9.51,9.51,0,0,0,3.36-2A3.53,3.53,0,0,0,7.56,8.36H6.11A3.53,3.53,0,0,0,3.48,9.5ZM6.83,7.19A2.15,2.15,0,1,1,9,5,2.16,2.16,0,0,1,6.83,7.19Zm0-4A1.81,1.81,0,1,0,8.64,5,1.81,1.81,0,0,0,6.83,3.23Z"/></g></g></svg>