<svg xmlns="http://www.w3.org/2000/svg" viewBox="0 0 16 14.73"><defs><style>.cls-1{fill:#2c9ee7;}</style></defs><title>icon-home-h</title><g id="图层_2" data-name="图层 2"><g id="图层_1-2" data-name="图层 1"><path class="cls-1" d="M13,14.73H9V10.26H7v4.47H3a.82.82,0,0,1-.82-.82V7.19l.07,0L8,2.45l5.74,4.76a.31.31,0,0,1,0,.14v6.56A.82.82,0,0,1,13,14.73Zm-3.52-.39H13a.43.43,0,0,0,.42-.42V7.4L8,3,2.62,7.4v6.51a.43.43,0,0,0,.42.42H6.56V9.87H9.44Zm4.08-7h0ZM1.1,7.71H1a.52.52,0,0,1-.33-.18l-.6-.72A.5.5,0,0,1,0,6.44.51.51,0,0,1,.18,6.1l7-5.8A1.38,1.38,0,0,1,8.86.3L10.9,2V.54A.5.5,0,0,1,11.41,0h1.86a.5.5,0,0,1,.51.51V4.4l2,1.7a.51.51,0,0,1,.18.34.5.5,0,0,1-.11.37l-.6.72A.51.51,0,0,1,15,7.7H14.9a.5.5,0,0,1-.33-.11L8,2.11,1.43,7.59A.55.55,0,0,1,1.1,7.71ZM8,.39A1,1,0,0,0,7.39.6l-7,5.8a.12.12,0,0,0,0,.08.11.11,0,0,0,0,.08l.6.72a.13.13,0,0,0,.08,0,.14.14,0,0,0,.09,0L8,1.6l6.82,5.69a.11.11,0,0,0,.08,0,.12.12,0,0,0,.08,0l.6-.72a.11.11,0,0,0,0-.08.12.12,0,0,0,0-.08L13.38,4.58v-4a.11.11,0,0,0-.11-.11H11.41a.11.11,0,0,0-.11.11V2.85L8.61.6A1,1,0,0,0,8,.39Z"/></g></g></svg>