<svg xmlns="http://www.w3.org/2000/svg" viewBox="0 0 16 10.59"><defs><style>.cls-1{fill:#2c9ee7;}</style></defs><title>icon-importtool-h</title><g id="图层_2" data-name="图层 2"><g id="图层_1-2" data-name="图层 1"><path class="cls-1" d="M14.47,10.59H1.71l0,0A3.55,3.55,0,0,1,3.09,4a4.2,4.2,0,0,1,8.27-.85l.45,0a4.19,4.19,0,0,1,2.72,7.39ZM1.81,10.25H14.35a3.84,3.84,0,0,0-3.1-6.7l-.16,0,0-.16a3.85,3.85,0,0,0-7.63.78v.16H3.27a3.21,3.21,0,0,0-1.46,5.89ZM8,9.39a.51.51,0,0,1-.36-.15L5.52,7.15a.51.51,0,0,1,.36-.88h.89V3.88a.51.51,0,0,1,.51-.51H8.72a.51.51,0,0,1,.51.51V6.27h.89a.51.51,0,0,1,.36.88L8.36,9.24A.51.51,0,0,1,8,9.39ZM5.88,6.61a.17.17,0,0,0-.12.29L7.88,9a.17.17,0,0,0,.24,0l2.12-2.09a.17.17,0,0,0-.12-.29H8.89V3.88a.17.17,0,0,0-.17-.17H7.28a.17.17,0,0,0-.17.17V6.61Z"/></g></g></svg>