<svg xmlns="http://www.w3.org/2000/svg" viewBox="0 0 16 15.9"><defs><style>.cls-1{fill:#2c9ee7;}</style></defs><title>icon-videoConfig-h</title><g id="图层_2" data-name="图层 2"><g id="图层_1-2" data-name="图层 1"><path class="cls-1" d="M2.6,15.9a1.35,1.35,0,0,1-1.35-1.35V6.78H.69L0,5.89,7.49.12a.62.62,0,0,1,.74,0l6.49,4.81-.11.15.11-.15L16,5.88l-.65.91H14.8v7.75a1.36,1.36,0,0,1-.4,1,1.34,1.34,0,0,1-1,.4H2.6ZM.89,6.39h.75v8.15a1,1,0,0,0,.28.68,1,1,0,0,0,.69.28H13.45a1,1,0,0,0,.68-.28,1,1,0,0,0,.28-.68V6.4h.74L15.46,6,8,.43a.23.23,0,0,0-.27,0L.55,6ZM9.69,14.7l-2-4.63L6.14,13.42,4.79,12.07l-1.06.8-.87-1.16,2.07-1.55.76.76,2-4.41,2.09,4.77L11,9l1.88,4.23-1.32.59-.63-1.42Zm-2-5.59,2,4.67,1.18-2.36.81,1.82.61-.27L10.93,9.86,9.76,12.21,7.69,7.47,5.81,11.6l-.92-.92L3.4,11.79l.4.53,1-.77L6,12.75Z"/></g></g></svg>