<svg xmlns="http://www.w3.org/2000/svg" viewBox="0 0 16 9.22"><defs><style>.cls-1{fill:#2c9ee7;}</style></defs><title>icon-oa-h</title><g id="图层_2" data-name="图层 2"><g id="图层_1-2" data-name="图层 1"><path class="cls-1" d="M4,9.22c-2.43,0-4-1.82-4-4.64S1.57,0,4,0,8,1.8,8,4.57,6.42,9.22,4,9.22ZM4,.34C1.74.34.34,2,.34,4.57S1.77,8.88,4,8.88,7.66,7.19,7.66,4.57,6.25.34,4,.34ZM16,9.06H13.85l-.6-2.2H10.73l-.6,2.2H8L10.88.16h2.26Zm-1.9-.34h1.43L12.89.5H11.13L8.49,8.72H9.87l.6-2.2h3ZM4,7.74c-1.37,0-2.25-1.24-2.25-3.16S2.61,1.47,4,1.47,6.25,2.66,6.25,4.57,5.36,7.74,4,7.74ZM4,1.81c-1.18,0-1.91,1.06-1.91,2.77S2.82,7.4,4,7.4,5.91,6.32,5.91,4.57,5.18,1.81,4,1.81Zm9.23,3.72H10.75l.31-1.15c.26-.92.51-1.89.73-2.79l0-.13h.31l0,.12c.1.37.2.74.29,1.11.15.56.3,1.14.46,1.68Zm-2-.34h1.59l-.2-.72c-.16-.54-.31-1.12-.46-1.69L12,2.22c-.18.74-.39,1.51-.6,2.25Z"/></g></g></svg>