<svg xmlns="http://www.w3.org/2000/svg" viewBox="0 0 13.92 16"><defs><style>.cls-1{fill:#2c9ee7;}</style></defs><title>icon-qc-h</title><g id="图层_2" data-name="图层 2"><g id="图层_1-2" data-name="图层 1"><path class="cls-1" d="M7,16a12.67,12.67,0,0,1-3.28-1.74,11.6,11.6,0,0,1-2.14-1.9A9.29,9.29,0,0,1,.22,8.53a22.14,22.14,0,0,1-.2-4C.08,2,.42,1.75.53,1.66A.74.74,0,0,1,1,1.51l.4.05a8.3,8.3,0,0,0,1.38.15,3.54,3.54,0,0,0,1-.21l.17-.05A8.52,8.52,0,0,0,5.74.62L6.27.29A1.15,1.15,0,0,1,6.94,0,1.14,1.14,0,0,1,7.6.29l0,0,.49.31A8.62,8.62,0,0,0,10,1.45l.05,0a4.37,4.37,0,0,0,1.14.23,8.24,8.24,0,0,0,1.34-.14,3.17,3.17,0,0,1,.39,0,.75.75,0,0,1,.43.14c.44.34.54,2.16.56,2.92h0a17.14,17.14,0,0,1-.18,3.48v.09c0,.11,0,.21,0,.32a9.55,9.55,0,0,1-1.32,3.89,11.43,11.43,0,0,1-2.14,1.9A13,13,0,0,1,7,16ZM1,1.85a.4.4,0,0,0-.23.08C.59,2,.4,2.81.35,4.59a21.82,21.82,0,0,0,.2,3.9A9,9,0,0,0,1.8,12.14,11.25,11.25,0,0,0,3.87,14,13.58,13.58,0,0,0,7,15.66,14.18,14.18,0,0,0,10,14a11.11,11.11,0,0,0,2.08-1.84,9.5,9.5,0,0,0,1.24-3.7c0-.12,0-.22,0-.33V8a16.85,16.85,0,0,0,.18-3.43,6.15,6.15,0,0,0-.42-2.66.41.41,0,0,0-.22-.07l-.33,0a8.58,8.58,0,0,1-1.4.14,4.64,4.64,0,0,1-1.24-.25l-.05,0A8.94,8.94,0,0,1,8,.92L7.45.59l0,0C7.14.39,7.07.34,6.94.34s-.21,0-.48.23L5.92.92A8.88,8.88,0,0,1,4,1.77l-.16,0a3.83,3.83,0,0,1-1.09.23A8.6,8.6,0,0,1,1.3,1.9ZM8.58,12.65A.81.81,0,0,1,8,12.41l-.1-.11a1.38,1.38,0,0,0-1.9,0l-.1.1a.81.81,0,0,1-.81.2,4.49,4.49,0,0,1-.62-.31,4.48,4.48,0,0,1-.58-.38.81.81,0,0,1-.23-.8l0-.14a1.38,1.38,0,0,0-1-1.64l-.14,0A.81.81,0,0,1,2,8.69,4.46,4.46,0,0,1,2,8,4.47,4.47,0,0,1,2,7.3a.81.81,0,0,1,.58-.6l.15,0A1.37,1.37,0,0,0,3.56,6,1.38,1.38,0,0,0,3.7,5l0-.14a.81.81,0,0,1,.24-.8,4.4,4.4,0,0,1,.58-.38,4.72,4.72,0,0,1,.62-.32.81.81,0,0,1,.81.2L6,3.7a1.38,1.38,0,0,0,1.89,0L8,3.59a.81.81,0,0,1,.81-.2,4.81,4.81,0,0,1,.62.31,4.46,4.46,0,0,1,.58.38.81.81,0,0,1,.23.8l0,.15a1.38,1.38,0,0,0,.95,1.63l.14,0a.81.81,0,0,1,.58.6,4.57,4.57,0,0,1,0,.7,4.51,4.51,0,0,1,0,.69h0a.81.81,0,0,1-.58.6l-.15,0A1.38,1.38,0,0,0,10.21,11l0,.14a.81.81,0,0,1-.24.8,4.32,4.32,0,0,1-.58.38,4.67,4.67,0,0,1-.62.31A.69.69,0,0,1,8.58,12.65ZM7,11.59a1.72,1.72,0,0,1,1.19.47l.11.12a.47.47,0,0,0,.45.11A4.54,4.54,0,0,0,9.27,12a4.24,4.24,0,0,0,.53-.34.47.47,0,0,0,.13-.44l0-.15A1.72,1.72,0,0,1,11.07,9l.16,0a.47.47,0,0,0,.32-.33,4.42,4.42,0,0,0,0-.63,4.47,4.47,0,0,0,0-.64A.47.47,0,0,0,11.22,7l-.16,0A1.72,1.72,0,0,1,9.88,4.94l.05-.16a.47.47,0,0,0-.13-.44A4.4,4.4,0,0,0,9.27,4a4.67,4.67,0,0,0-.57-.29.47.47,0,0,0-.44.11l-.11.12a1.72,1.72,0,0,1-2.37,0l-.11-.12a.47.47,0,0,0-.45-.11A4.68,4.68,0,0,0,4.65,4a4.35,4.35,0,0,0-.53.35A.46.46,0,0,0,4,4.79l0,.15A1.72,1.72,0,0,1,2.85,7L2.69,7a.47.47,0,0,0-.32.33,4.39,4.39,0,0,0,0,.63,4.4,4.4,0,0,0,0,.63A.47.47,0,0,0,2.69,9l.15,0A1.72,1.72,0,0,1,4,11.06l0,.15a.47.47,0,0,0,.13.44,4.37,4.37,0,0,0,.53.34,4.38,4.38,0,0,0,.56.29.47.47,0,0,0,.45-.11l.1-.11A1.73,1.73,0,0,1,7,11.59Z"/><path class="cls-1" d="M7,10.08A2.08,2.08,0,1,1,9,8,2.08,2.08,0,0,1,7,10.08ZM7,6.26A1.74,1.74,0,1,0,8.7,8,1.74,1.74,0,0,0,7,6.26Z"/></g></g></svg>