<svg xmlns="http://www.w3.org/2000/svg" viewBox="0 0 16 15.91"><defs><style>.cls-1{fill:#2c9ee7;}</style></defs><title>icon-energy-h</title><g id="图层_2" data-name="图层 2"><g id="图层_1-2" data-name="图层 1"><path class="cls-1" d="M2.58,15.91a1.34,1.34,0,0,1-1.34-1.34V6.77H.68L0,5.89,7.5.12a.61.61,0,0,1,.73,0l6.5,4.82h0L16,5.88l-.64.9H14.8v7.78a1.34,1.34,0,0,1-1.34,1.34H2.58ZM.86,6.41H1.6v8.15a1,1,0,0,0,.29.7,1,1,0,0,0,.7.29H13.46a1,1,0,0,0,1-1V6.42h.73L15.5,6l-1-.73h0L8,.41a.25.25,0,0,0-.29,0L.51,6Z"/><path class="cls-1" d="M6.7,14a.52.52,0,0,1-.26-.07.51.51,0,0,1-.25-.58l.8-3-2.05,0a.52.52,0,0,1-.47-.87L8.94,5.18a.52.52,0,0,1,.87.49l-.8,3,2.05,0a.52.52,0,0,1,.47.87L7.06,13.83A.51.51,0,0,1,6.7,14Zm.76-4-.92,3.42a.16.16,0,0,0,.26.15l4.48-4.34a.15.15,0,0,0,0-.19A.15.15,0,0,0,11.13,9h0L8.54,9l.92-3.42a.16.16,0,0,0-.26-.15L4.72,9.78a.16.16,0,0,0,.15.26h0Z"/></g></g></svg>