<svg xmlns="http://www.w3.org/2000/svg" viewBox="0 0 16 14.45"><defs><style>.cls-1{fill:#2c9ee7;}</style></defs><title>icon-gas-h</title><g id="图层_2" data-name="图层 2"><g id="图层_1-2" data-name="图层 1"><path class="cls-1" d="M4.5,12A4.29,4.29,0,0,1,0,8,4,4,0,0,1,2.64,4.3,5.34,5.34,0,0,1,8.06,0a5.26,5.26,0,0,1,5.48,5,.19.19,0,1,1-.37,0A4.89,4.89,0,0,0,8.06.37,5,5,0,0,0,3,4.46v.11l-.1,0A3.67,3.67,0,0,0,.37,8,3.92,3.92,0,0,0,4.5,11.64,3.92,3.92,0,0,0,8.63,8,.19.19,0,1,1,9,8,4.29,4.29,0,0,1,4.5,12Z"/><path class="cls-1" d="M12.45,11.68a.19.19,0,0,1,0-.37,3.28,3.28,0,0,0,3.18-3.37.19.19,0,1,1,.37,0A3.65,3.65,0,0,1,12.45,11.68Z"/><path class="cls-1" d="M15.81,8.12A.19.19,0,0,1,15.63,8,3.25,3.25,0,0,0,13.3,5.15c-.14,0-.14-.17-.14-.26v0a.19.19,0,0,1,.23-.21.19.19,0,0,1,.14.2A3.62,3.62,0,0,1,16,7.92a.19.19,0,0,1-.17.2Z"/><path class="cls-1" d="M5,14.45a.19.19,0,0,1,0-.37c6.49-1.32,5.88-6,5.87-6A.19.19,0,0,1,11.24,8c0,.05.71,5.06-6.16,6.45Z"/></g></g></svg>