<svg xmlns="http://www.w3.org/2000/svg" viewBox="0 0 16 11.13"><defs><style>.cls-1{fill:#2c9ee7;}</style></defs><title>icon-spm-h</title><g id="图层_2" data-name="图层 2"><g id="图层_1-2" data-name="图层 1"><path class="cls-1" d="M14.34,11.13H1.66A1.66,1.66,0,0,1,0,9.47,1.64,1.64,0,0,1,1,8,7.07,7.07,0,0,1,5.9,1.29,1.66,1.66,0,0,1,7.51,0h1A1.66,1.66,0,0,1,10.1,1.29,7.07,7.07,0,0,1,15,8a1.64,1.64,0,0,1,1,1.51A1.66,1.66,0,0,1,14.34,11.13ZM7.51.39A1.27,1.27,0,0,0,6.27,1.48l0,.12-.12,0A6.67,6.67,0,0,0,1.37,8v.23l-.13,0A1.25,1.25,0,0,0,.39,9.47a1.27,1.27,0,0,0,1.27,1.27H14.34a1.27,1.27,0,0,0,1.27-1.27,1.26,1.26,0,0,0-.85-1.19l-.13,0V8A6.67,6.67,0,0,0,9.87,1.64l-.12,0,0-.12A1.27,1.27,0,0,0,8.49.39Zm6.85,10.17H1.71a1,1,0,0,1,0-2.08H14.36a1,1,0,0,1,0,2.08ZM1.71,8.88a.65.65,0,1,0,0,1.3H14.36a.65.65,0,0,0,0-1.3ZM9.46,7.21a.68.68,0,0,1-.68-.68V2.79a.68.68,0,1,1,1.36,0V6.53A.68.68,0,0,1,9.46,7.21Zm0-4.71a.29.29,0,0,0-.29.29V6.53a.29.29,0,1,0,.58,0V2.79A.29.29,0,0,0,9.46,2.5ZM6.53,7.21a.68.68,0,0,1-.68-.68V2.79a.68.68,0,1,1,1.36,0V6.53A.68.68,0,0,1,6.53,7.21Zm0-4.71a.29.29,0,0,0-.29.29V6.53a.29.29,0,1,0,.58,0V2.79A.29.29,0,0,0,6.53,2.5Z"/></g></g></svg>