<svg xmlns="http://www.w3.org/2000/svg" viewBox="0 0 16 15.7"><defs><style>.cls-1{fill:#2c9ee7;}</style></defs><title>icon-upgrade-h</title><g id="图层_2" data-name="图层 2"><g id="图层_1-2" data-name="图层 1"><path class="cls-1" d="M1,15.7A.57.57,0,0,1,.44,15l.81-3a.57.57,0,0,1,1-.25l2.2,2.2a.57.57,0,0,1-.25,1l-3,.81Zm.81-3.76H1.74a.19.19,0,0,0-.13.13l-.81,3a.19.19,0,0,0,.23.23l3-.81a.19.19,0,0,0,.08-.32L1.92,12A.18.18,0,0,0,1.79,11.94Z"/><path class="cls-1" d="M8.93,15.58A1.28,1.28,0,0,1,8,15.21L7.85,15c-.14-.14-.3-.49-.37-2a3.42,3.42,0,0,1-3.63-.91,3.32,3.32,0,0,1-1-3C1.09,9.13.7,9,.55,8.81L.38,8.64a1.29,1.29,0,0,1,0-1.82l2-2c.1-.1.36-.36,3.3-.39.29-.32.61-.64,1-1C9.38.67,14.42-.76,15.59.41h0c1.17,1.17-.26,6.21-3.05,9l-.34.34c0,3.13-.29,3.39-.39,3.5l-2,2A1.28,1.28,0,0,1,8.93,15.58Zm-1.09-3v.26c.06,1.68.23,1.93.27,2l.17.17a.93.93,0,0,0,1.29,0l2-2s.27-.37.28-3.31V9.59l.06-.06.39-.39c2.71-2.71,4-7.52,3.05-8.46S9.56,1,6.86,3.73c-.37.37-.69.71-1,1l-.06.06H5.72c-2.7,0-3.07.24-3.11.28l-2,2a.91.91,0,0,0,0,1.29l.17.17s.32.23,2.25.27h.23l0,.22a3,3,0,0,0,.87,2.85,3.07,3.07,0,0,0,3.48.74Zm2.63-5.25a1.65,1.65,0,1,1,1.16-.48h0A1.64,1.64,0,0,1,10.47,7.29Zm0-2.91a1.27,1.27,0,1,0,.9.37A1.27,1.27,0,0,0,10.47,4.38Z"/></g></g></svg>