<svg xmlns="http://www.w3.org/2000/svg" viewBox="0 0 16 15.17"><defs><style>.cls-1{fill:#2c9ee7;}</style></defs><title>icon-chongdan-h</title><g id="图层_2" data-name="图层 2"><g id="图层_1-2" data-name="图层 1"><path class="cls-1" d="M11.28,15.17H8a1.48,1.48,0,0,1-1.48-1.48v-.47H6.21v.47a1.48,1.48,0,0,1-1.48,1.48H1.48A1.48,1.48,0,0,1,0,13.69V6.21A3.1,3.1,0,0,1,2.6,3.14V1.81H2.22a.5.5,0,0,1,0-1H2.6V.5a.5.5,0,0,1,1,0V.81H9.14V.5a.5.5,0,1,1,1,0V.81h2.1A2.78,2.78,0,0,1,15,3.59V5.16A1.48,1.48,0,0,1,14.52,8h0A1.48,1.48,0,0,1,14,5.16V3.59a1.78,1.78,0,0,0-1.78-1.78h-2.1V3.14a3.1,3.1,0,0,1,2.6,3.06v7.48A1.48,1.48,0,0,1,11.28,15.17ZM5.86,12.86h1v.83A1.13,1.13,0,0,0,8,14.82h3.25a1.13,1.13,0,0,0,1.12-1.12V6.21A2.75,2.75,0,0,0,10,3.47l-.16,0v-2h2.45a2.13,2.13,0,0,1,2.13,2.13V5.43l-.13,0a1.12,1.12,0,0,0,.27,2.22h0a1.12,1.12,0,0,0,.28-2.21l-.13,0V3.59a2.43,2.43,0,0,0-2.43-2.43H9.79V.5a.15.15,0,1,0-.3,0v.66H3.25V.5A.15.15,0,0,0,3,.5v.66H2.22a.15.15,0,0,0,0,.3H3v2l-.16,0A2.75,2.75,0,0,0,.35,6.21v7.48a1.13,1.13,0,0,0,1.12,1.12H4.73a1.13,1.13,0,0,0,1.12-1.12Zm6.26.57H7.21V12.37h4.91Zm-4.56-.35h4.2v-.35H7.56Zm-2,.35H.65V12.37H5.56ZM1,13.08h4.2v-.35H1Zm5.9-1.72h-1V8.08h1ZM6.21,11h.34V8.43H6.21Zm-2.89.32H2.54l-.65-1.2v1.2H1.06V8.47h.79L2.5,9.66h0V8.47h.83v1.1l.07-.07a.88.88,0,0,1,.68-.32.69.69,0,0,1,.72.71,1.25,1.25,0,0,1-.33.77h.42v.64H3.36v-.46l.06-.05c.3-.27.69-.65.69-.88s0-.1-.08-.1a.29.29,0,0,0-.19.12l-.12.14-.39-.39ZM2.75,11H3V8.83H2.85v.82c0,.25,0,.56.06.8l0,.25H2.63l-.06-.1-.25-.54L1.64,8.83H1.41V11h.12v-.83c0-.22,0-.45,0-.68l0-.37h.3l.06.1.25.54Zm9.37-3.55H7.21V6.36h4.91ZM7.56,7.07h4.2V6.72H7.56Zm-2,.35H.65V6.36H5.56ZM1,7.07h4.2V6.72H1Zm13.53.3h0a.81.81,0,0,1-.81-.82.83.83,0,1,1,.83.82Zm0-1.3a.47.47,0,0,0-.47.47.45.45,0,0,0,.46.47h0a.52.52,0,0,0,.34-.13.47.47,0,0,0-.33-.81ZM6.9,6.73h-1v-.5A2.75,2.75,0,0,0,3.41,3.5l-.16,0v-2H9.5v2l-.16,0A2.75,2.75,0,0,0,6.9,6.22h0Zm-.69-.35h.34V6.22a3.11,3.11,0,0,1,2.6-3V1.83H3.61V3.17a3.1,3.1,0,0,1,2.6,3.06Z"/></g></g></svg>