<svg xmlns="http://www.w3.org/2000/svg" viewBox="0 0 16 15.9"><defs><style>.cls-1{fill:#2c9ee7;}</style></defs><title>icon-wms-h</title><g id="图层_2" data-name="图层 2"><g id="图层_1-2" data-name="图层 1"><path class="cls-1" d="M2.6,15.9a1.35,1.35,0,0,1-1.35-1.35V6.79H.69L0,5.89,7.49.12a.62.62,0,0,1,.74,0l6.43,4.77h.13V5l1.2.89-.65.92H14.8v7.75a1.35,1.35,0,0,1-1.35,1.35H2.6Zm.14-.39H13.27v.39l0-.39h.12a1,1,0,0,0,1-1V6.4h.74L15.46,6,8,.44a.23.23,0,0,0-.27,0L.55,6l.34.44h.75v8.15a1,1,0,0,0,1,1Zm9.84-.71H9.82a.59.59,0,0,1-.59-.59V11.44a.59.59,0,0,1,.59-.59h2.76a.59.59,0,0,1,.59.59V14.2A.59.59,0,0,1,12.58,14.79ZM9.82,11.24a.2.2,0,0,0-.2.2V14.2a.2.2,0,0,0,.2.2h2.76a.2.2,0,0,0,.2-.2V11.44a.2.2,0,0,0-.2-.2ZM8.33,14.79H5.57A.59.59,0,0,1,5,14.2V11.44a.59.59,0,0,1,.59-.59H8.33a.59.59,0,0,1,.59.59V14.2A.59.59,0,0,1,8.33,14.79ZM5.57,11.24a.2.2,0,0,0-.2.2V14.2a.2.2,0,0,0,.2.2H8.33a.2.2,0,0,0,.2-.2V11.44a.2.2,0,0,0-.2-.2Zm7-.67H9.82A.59.59,0,0,1,9.23,10V7.22a.59.59,0,0,1,.59-.59h2.76a.59.59,0,0,1,.59.59V10A.59.59,0,0,1,12.58,10.57ZM9.82,7a.2.2,0,0,0-.2.2V10a.2.2,0,0,0,.2.2h2.76a.2.2,0,0,0,.2-.2V7.22a.2.2,0,0,0-.2-.2Z"/></g></g></svg>