<svg xmlns="http://www.w3.org/2000/svg" viewBox="0 0 15.12 16"><defs><style>.cls-1{fill:#2c9ee7;}</style></defs><title>icon-fictitious-h</title><g id="图层_2" data-name="图层 2"><g id="图层_1-2" data-name="图层 1"><path class="cls-1" d="M7.6,6,.21,3.3,7.54,0l7.37,3.28ZM1.21,3.27,7.6,5.64l6.32-2.39L7.54.41Z"/><path class="cls-1" d="M10.53,10h0l-.08,0-.07-.11,0-1.88,1.07-.6c.46-.24.78-.3,1-.2a.62.62,0,0,1,.31.45c.16.67-.17,1.26-1,1.74S10.62,10,10.53,10Zm.17-1.8V9.5c.15-.08.4-.22.82-.47,1-.59.85-1.13.8-1.34h0c0-.14-.07-.17-.1-.19s-.22-.05-.67.19Z"/><path class="cls-1" d="M7.84,16l0-9.67L15.12,3.6,15,12.34Zm.35-9.41,0,8.8,6.46-3.26.06-8ZM9.42,14,9.21,7.78l2.36-1.37a2,2,0,0,1,1.72-.3.85.85,0,0,1,.5.55,3,3,0,0,1-1.15,3l1.52,1.59-1.72,1L11.1,10.66l-.32.23,0,2.28ZM9.6,8l.18,5.33.6-.37,0-2.27.76-.54,1.36,1.59,1-.59L12.08,9.61l.17-.13s1.62-1.22,1.18-2.72a.47.47,0,0,0-.28-.31c-.18-.08-.61-.14-1.39.28Z"/><path class="cls-1" d="M7.56,16,.07,12.47,0,3.58,7.48,6.33ZM.44,12.23,7.18,15.4,7.11,6.6.38,4.12ZM4.51,13,3,12.23l-2-7,1.82,1,1,3.59L4.93,7.07l1.65.87ZM3.32,12l1,.49L6.1,8.11l-1-.51L3.8,11,2.51,6.48,1.62,6Z"/></g></g></svg>