<svg xmlns="http://www.w3.org/2000/svg" viewBox="0 0 16 14.91"><defs><style>.cls-1{fill:#2c9ee7;}</style></defs><title>icon-safeTrack-h</title><g id="图层_2" data-name="图层 2"><g id="图层_1-2" data-name="图层 1"><path class="cls-1" d="M8.33,14.14H.92A.92.92,0,0,1,0,13.22V.92A.92.92,0,0,1,.92,0H12.74a.92.92,0,0,1,.92.92V9l-.46-.09h0l-.6-.13a4.82,4.82,0,0,0-.81-.07c-2.63,0-4.24,2.13-4.82,3a.43.43,0,0,0,0,.42,5.91,5.91,0,0,0,.41.68ZM.92.39A.53.53,0,0,0,.39.92v12.3a.53.53,0,0,0,.52.52H7.53l-.47-.6a6.28,6.28,0,0,1-.46-.76.82.82,0,0,1,0-.81c.61-1,2.33-3.23,5.15-3.23a5.22,5.22,0,0,1,.88.07l.6.12V.92a.53.53,0,0,0-.52-.52Zm1.29,11.4a.6.6,0,0,1-.37-.15c-.25-.2-.4-.56-.23-.77l1.3-2a.3.3,0,0,1,.24-.14h0c.15,0,.24.12.34.24a1.41,1.41,0,0,0,.21.23A1.41,1.41,0,0,0,4,9.4c.14.07.27.13.3.28a.29.29,0,0,1-.07.25h0L2.57,11.61A.46.46,0,0,1,2.21,11.79Zm.95-2.56L1.91,11.11a.5.5,0,0,0,.24.28s.07,0,.12,0L3.8,9.76h0a1.75,1.75,0,0,1-.34-.21,1.75,1.75,0,0,1-.27-.29ZM4,9.8l-.15-.12Zm1.15,0a1.22,1.22,0,0,1-.79-.27h0a.85.85,0,0,1-.27-.9.85.85,0,0,1-.94-.07,1.46,1.46,0,0,1-.44-1.4,4.67,4.67,0,0,1,1.34-2.6l.37-.17A3.86,3.86,0,0,1,5.51,2.78l.3-.14a3.69,3.69,0,0,1,1-1.48l1-.46L7,1.48s-.59.63,0,1.83a3,3,0,0,1,.2.51.84.84,0,0,1,0-.2c.19-1,2.22-2,2.4-2.09L10,1.42l-.08.34C9.87,2,9.36,4.17,8.48,4.6l.23.05c1.3.35,1.77-.33,1.79-.36l.59-.88-.23,1A3.69,3.69,0,0,1,9.62,5.73l-.07.33A3.86,3.86,0,0,1,8.21,7.41l-.09.4A4.68,4.68,0,0,1,5.85,9.65,2,2,0,0,1,5.19,9.77Zm.07-1.47a.75.75,0,0,0-.72.33.46.46,0,0,0,.11.56,1,1,0,0,0,1,.11A4.21,4.21,0,0,0,7,8.48,2.75,2.75,0,0,1,5.87,8.4,2.44,2.44,0,0,0,5.26,8.31ZM3.66,5.73a4.21,4.21,0,0,0-.52,1.55,1,1,0,0,0,.31.94h0a.46.46,0,0,0,.57,0c.29-.23.27-.74,0-1.36A2.75,2.75,0,0,1,3.66,5.73ZM5.27,7.91A2.78,2.78,0,0,1,6,8,1.62,1.62,0,0,0,7.73,7.7a3.35,3.35,0,0,1-.46.2,1.46,1.46,0,0,1-1.45-.15h0a.85.85,0,0,1-.27-.9.85.85,0,0,1-.94-.07,1.46,1.46,0,0,1-.44-1.4,3.35,3.35,0,0,1,.1-.48,1.63,1.63,0,0,0,0,1.78,1.82,1.82,0,0,1,.22,1.41A1.39,1.39,0,0,1,5.27,7.91ZM6.68,6.56A.75.75,0,0,0,6,6.89a.46.46,0,0,0,.11.56h0a1,1,0,0,0,1,.11,4,4,0,0,0,1.24-.7l.06-.09v.05l.11-.09a2.75,2.75,0,0,1-1.16-.08A2.44,2.44,0,0,0,6.68,6.56ZM5,4.22a3.89,3.89,0,0,0-.4,1.31,1,1,0,0,0,.31.94.46.46,0,0,0,.57,0c.29-.23.27-.74,0-1.36a2.84,2.84,0,0,1-.31-1ZM5.8,5A1.74,1.74,0,0,1,6,6.34a1.74,1.74,0,0,1,1.3-.1l-.14-.1a.85.85,0,0,1-.27-.9.85.85,0,0,1-.94-.07Zm3.12,1.1-.34.14-.16,0A1.39,1.39,0,0,0,8.92,6.14ZM8,4.94a.75.75,0,0,0-.72.33.46.46,0,0,0,.11.56,1,1,0,0,0,1,.11,4,4,0,0,0,1.28-.73l.06-.09A2.79,2.79,0,0,1,8.61,5,2.45,2.45,0,0,0,8,4.94Zm1.76.17h0l0,0ZM6.29,2.55a4,4,0,0,0-.43,1.36,1,1,0,0,0,.31.94.46.46,0,0,0,.57,0c.29-.23.27-.74,0-1.36a2.81,2.81,0,0,1-.31-1Zm1,1.52a1.34,1.34,0,0,1,0,.65,1.27,1.27,0,0,1,.49-.16l-.15-.1A1,1,0,0,1,7.32,4.07Zm2.13-2c-.6.32-1.68,1-1.79,1.62a.46.46,0,0,0,.21.47.38.38,0,0,0,.39.1C8.74,4.1,9.2,3,9.45,2.07ZM5.08,4,5,4.12l.08,0S5.08,4,5.08,4Zm.47-.57a1.4,1.4,0,0,0-.08.52q0-.08,0-.17A3.18,3.18,0,0,1,5.55,3.41Zm.84-1v0h0Z"/><path class="cls-1" d="M11.78,13.22A1.26,1.26,0,0,1,10.58,12a1.21,1.21,0,0,1,2.1-.86A1.15,1.15,0,0,1,13,12,1.22,1.22,0,0,1,11.78,13.22Zm0-2.1A.83.83,0,0,0,11,12a.86.86,0,0,0,.81.86.83.83,0,0,0,.81-.86.77.77,0,0,0-.2-.59A.83.83,0,0,0,11.78,11.12Z"/><path class="cls-1" d="M11.78,14.91a4.63,4.63,0,0,1-4.13-2.52.82.82,0,0,1,0-.83A5.13,5.13,0,0,1,11.78,9a5.06,5.06,0,0,1,4.09,2.5.83.83,0,0,1,0,.88A5,5,0,0,1,11.78,14.91Zm0-5.49A4.75,4.75,0,0,0,8,11.77a.43.43,0,0,0,0,.44,4.24,4.24,0,0,0,3.79,2.31,4.61,4.61,0,0,0,3.76-2.32.43.43,0,0,0,0-.46A4.67,4.67,0,0,0,11.78,9.43Zm0,4.48A1.85,1.85,0,0,1,9.9,12a1.85,1.85,0,0,1,1.89-1.89A1.83,1.83,0,0,1,13.67,12a1.83,1.83,0,0,1-.5,1.36A1.89,1.89,0,0,1,11.78,13.91Zm0-3.43a1.46,1.46,0,0,0-1.5,1.5,1.45,1.45,0,0,0,1.5,1.54,1.5,1.5,0,0,0,1.1-.45A1.44,1.44,0,0,0,13.28,12,1.43,1.43,0,0,0,11.78,10.48Z"/></g></g></svg>