<svg xmlns="http://www.w3.org/2000/svg" viewBox="0 0 15.53 16"><defs><style>.cls-1{fill:#2c9ee7;}</style></defs><title>icon-threedi-h</title><g id="图层_2" data-name="图层 2"><g id="图层_1-2" data-name="图层 1"><polygon class="cls-1" points="12.38 5.84 8.89 6.7 8.77 6.33 12.26 5.47 12.38 5.84"/><polygon class="cls-1" points="3.29 3.87 5.97 6.01 5.72 6.3 3.04 4.15 3.29 3.87"/><polygon class="cls-1" points="6.87 9.03 6.34 12.67 5.97 12.61 6.49 8.97 6.87 9.03"/><path class="cls-1" d="M1.89,4.29A1.57,1.57,0,1,1,3.46,2.72,1.57,1.57,0,0,1,1.89,4.29Zm0-2.79A1.23,1.23,0,1,0,3.12,2.72,1.23,1.23,0,0,0,1.89,1.49Z"/><path class="cls-1" d="M14,6.74a1.57,1.57,0,1,1,1.57-1.57A1.57,1.57,0,0,1,14,6.74Zm0-2.79a1.23,1.23,0,1,0,1.23,1.23A1.23,1.23,0,0,0,14,3.95Z"/><path class="cls-1" d="M7.15,8.87A1.57,1.57,0,1,1,8.72,7.3,1.57,1.57,0,0,1,7.15,8.87Zm0-2.79A1.23,1.23,0,1,0,8.38,7.3,1.23,1.23,0,0,0,7.15,6.08Z"/><path class="cls-1" d="M5.35,12.69,2.63,4.51a1.83,1.83,0,0,1-.32.11L5,12.79A1.84,1.84,0,0,1,5.35,12.69Z"/><path class="cls-1" d="M12.1,5.08a1.85,1.85,0,0,1,.06-.34L3.74,3a1.9,1.9,0,0,1-.07.34Z"/><path class="cls-1" d="M12.69,6.62,6.95,13.08a1.92,1.92,0,0,1,.24.25L13,6.83A1.88,1.88,0,0,1,12.69,6.62Z"/><path class="cls-1" d="M4.15,13.49A7,7,0,0,1,.34,7.3,6.87,6.87,0,0,1,1,4.36a1.87,1.87,0,0,1-.29-.2A7.28,7.28,0,0,0,4,13.8,1.85,1.85,0,0,1,4.15,13.49Z"/><path class="cls-1" d="M3.36,1.58a6.92,6.92,0,0,1,9.76,1.93,1.85,1.85,0,0,1,.33-.13A7.27,7.27,0,0,0,3.12,1.32,1.87,1.87,0,0,1,3.36,1.58Z"/><path class="cls-1" d="M14.25,7c0,.1,0,.19,0,.29a7,7,0,0,1-6.65,6.94c0,.06,0,.12,0,.19s0,.1,0,.15a7.3,7.3,0,0,0,7-7.29c0-.13,0-.25,0-.37A1.85,1.85,0,0,1,14.25,7Z"/><path class="cls-1" d="M5.76,16a1.57,1.57,0,1,1,1.57-1.57A1.57,1.57,0,0,1,5.76,16Zm0-2.79A1.23,1.23,0,1,0,7,14.43,1.23,1.23,0,0,0,5.76,13.21Z"/></g></g></svg>