<svg xmlns="http://www.w3.org/2000/svg" viewBox="0 0 16 15.9"><defs><style>.cls-1{fill:#2c9ee7;}</style></defs><title>icon-gts-h</title><g id="图层_2" data-name="图层 2"><g id="图层_1-2" data-name="图层 1"><path class="cls-1" d="M13.45,15.9h-.32V7.59A.16.16,0,0,0,13,7.43H3.09a.16.16,0,0,0-.16.16V8.85H1.25V6.78H.69L0,5.89,7.49.12a.62.62,0,0,1,.74,0l6.44,4.77h.13V5l1.2.89-.65.91H14.8v7.75a1.36,1.36,0,0,1-.4,1A1.35,1.35,0,0,1,13.45,15.9ZM3.09,7H13a.55.55,0,0,1,.55.55v7.92a1,1,0,0,0,.61-.28,1,1,0,0,0,.28-.68V6.4h.74L15.46,6,8,.43a.23.23,0,0,0-.28,0L.55,6l.34.44h.75V8.46h.91V7.59A.55.55,0,0,1,3.09,7Z"/><path class="cls-1" d="M2.68,15.18A.4.4,0,0,1,2.4,15L.91,13.72a.33.33,0,0,1-.12-.23.34.34,0,0,1,.11-.27c.15-.15,1.44-1.19,1.59-1.31a.3.3,0,0,1,.33-.11c.08,0,.17.11.17.32v.47H6.93a.29.29,0,0,1,.29.32V14a.34.34,0,0,1-.12.29.29.29,0,0,1-.21.06h-4v.53a.28.28,0,0,1-.17.3ZM1.21,13.47l1.32,1.16V14H6.83V13H2.6v-.66C2.08,12.74,1.39,13.31,1.21,13.47Zm-.06,0h0Zm5.67-.51h0Zm-1.5-.35-.08,0a.28.28,0,0,1-.17-.3v-.53H1.17a.27.27,0,0,1-.32-.09.38.38,0,0,1-.07-.23V10.31A.29.29,0,0,1,1.07,10H5V9.5c0-.21.09-.29.17-.32a.32.32,0,0,1,.35.13c.12.09,1.41,1.13,1.56,1.29a.32.32,0,0,1,0,.5l-1.5,1.32A.36.36,0,0,1,5.32,12.56ZM1.17,11.33H5.46V12l1.32-1.17c-.19-.17-.87-.73-1.38-1.14v.69H1.17Zm5.66-.53h0Zm-5.66-.49h0Z"/><path class="cls-1" d="M12.23,11.66H9.48a.58.58,0,0,1-.58-.58V8.35a.58.58,0,0,1,.58-.58h2.75a.58.58,0,0,1,.58.58v2.73A.58.58,0,0,1,12.23,11.66ZM9.48,8.15a.19.19,0,0,0-.19.19v2.73a.19.19,0,0,0,.19.19h2.75a.19.19,0,0,0,.19-.19V8.35a.19.19,0,0,0-.19-.19Z"/><path class="cls-1" d="M12.23,15.89H9.48a.58.58,0,0,1-.58-.58V12.57A.58.58,0,0,1,9.48,12h2.75a.58.58,0,0,1,.58.58v2.73A.58.58,0,0,1,12.23,15.89ZM9.48,12.38a.19.19,0,0,0-.19.19v2.73a.19.19,0,0,0,.19.19h2.75a.19.19,0,0,0,.19-.19V12.57a.19.19,0,0,0-.19-.19Z"/></g></g></svg>