<svg xmlns="http://www.w3.org/2000/svg" viewBox="0 0 15.37 16"><defs><style>.cls-1{fill:#2c9ee7;}</style></defs><title>icon-vehicle-h</title><g id="图层_2" data-name="图层 2"><g id="图层_1-2" data-name="图层 1"><path class="cls-1" d="M7.94,11.78l-.14-.15c-.18-.19-4.3-4.8-4.3-7.19a4.44,4.44,0,1,1,8.88,0c0,2.39-4.13,7-4.31,7.19ZM7.94.36A4.08,4.08,0,0,0,3.87,4.44c0,2,3.35,6,4.08,6.79C8.66,10.41,12,6.46,12,4.44A4.08,4.08,0,0,0,7.94.36Zm0,6A1.94,1.94,0,1,1,9.88,4.45,1.94,1.94,0,0,1,7.94,6.39Zm0-3.52A1.58,1.58,0,1,0,9.52,4.45,1.58,1.58,0,0,0,7.94,2.88Z"/><path class="cls-1" d="M10.3,16,5,14.41a.23.23,0,0,0-.13,0L0,15.93V8.33l4-.65.06.11a27.17,27.17,0,0,0,3.25,4.42l.3.36a.43.43,0,0,0,.66,0l.31-.36a26.16,26.16,0,0,0,3-4l.06-.1,3.72.2v6.11ZM4.92,14l.17,0,5.21,1.56L15,14.16V8.66l-3.15-.17a26.92,26.92,0,0,1-3,4l-.3.35a.81.81,0,0,1-1.24,0L7,12.45A28,28,0,0,1,3.8,8.08L.36,8.64v6.8l4.38-1.37Z"/></g></g></svg>