<svg xmlns="http://www.w3.org/2000/svg" viewBox="0 0 16 15.08"><defs><style>.cls-1{fill:#2c9ee7;}</style></defs><title>icon-sys-h</title><g id="图层_2" data-name="图层 2"><g id="图层_1-2" data-name="图层 1"><path class="cls-1" d="M10.66,15.08a1.2,1.2,0,0,1-.86-.35l-.17-.18a2.36,2.36,0,0,0-3.27,0l-.16.17A1.19,1.19,0,0,1,5,15a7.45,7.45,0,0,1-1-.51,7.23,7.23,0,0,1-.94-.61,1.21,1.21,0,0,1-.35-1.2l.07-.24a2.4,2.4,0,0,0-.26-1.75,2.34,2.34,0,0,0-1.38-1.1L.91,9.56a1.19,1.19,0,0,1-.86-.9A7.24,7.24,0,0,1,0,7.54,7.27,7.27,0,0,1,.06,6.41a1.21,1.21,0,0,1,.86-.9l.25-.06A2.35,2.35,0,0,0,2.53,4.37a2.4,2.4,0,0,0,.25-1.75l-.07-.23a1.21,1.21,0,0,1,.35-1.19A7.17,7.17,0,0,1,4,.57,7.59,7.59,0,0,1,5,.06,1.2,1.2,0,0,1,6.2.35l.17.19A2.34,2.34,0,0,0,8,1.19H8A2.33,2.33,0,0,0,9.63.54L9.8.35A1.2,1.2,0,0,1,11,.06a7.87,7.87,0,0,1,1,.51,7.31,7.31,0,0,1,.94.61,1.22,1.22,0,0,1,.35,1.2l-.08.24a2.4,2.4,0,0,0,1.63,2.84l.24.06a1.19,1.19,0,0,1,.86.9A7.46,7.46,0,0,1,16,7.54a7.26,7.26,0,0,1-.06,1.12,1.21,1.21,0,0,1-.86.9l-.24.06a2.4,2.4,0,0,0-1.63,2.85l.07.24a1.21,1.21,0,0,1-.35,1.2,6.94,6.94,0,0,1-.94.61A7.61,7.61,0,0,1,11,15,1,1,0,0,1,10.66,15.08ZM8,13.57a2.68,2.68,0,0,1,1.86.75l.18.19a.87.87,0,0,0,.85.21,7.54,7.54,0,0,0,.94-.49,6.93,6.93,0,0,0,.89-.58A.89.89,0,0,0,13,12.8l-.07-.25A2.72,2.72,0,0,1,14.76,9.3L15,9.24a.9.9,0,0,0,.61-.64,7.21,7.21,0,0,0,.05-1.07,7.47,7.47,0,0,0-.06-1.07h0A.88.88,0,0,0,15,5.83l-.26-.06a2.72,2.72,0,0,1-1.86-3.24L13,2.28a.89.89,0,0,0-.25-.85,7.24,7.24,0,0,0-.89-.58,7.81,7.81,0,0,0-.94-.49A.87.87,0,0,0,10,.57L9.86.77A2.66,2.66,0,0,1,8,1.51H8A2.67,2.67,0,0,1,6.14.77L6,.57A.87.87,0,0,0,5.11.36a7.55,7.55,0,0,0-.94.49,7.13,7.13,0,0,0-.89.58A.89.89,0,0,0,3,2.28l.07.24a2.73,2.73,0,0,1-.28,2A2.68,2.68,0,0,1,1.24,5.78L1,5.83a.9.9,0,0,0-.61.64A7.27,7.27,0,0,0,.33,7.54,7.25,7.25,0,0,0,.38,8.6.87.87,0,0,0,1,9.24l.24.06a2.67,2.67,0,0,1,1.59,1.25,2.73,2.73,0,0,1,.29,2L3,12.79a.89.89,0,0,0,.25.85,7.24,7.24,0,0,0,.89.58,7.42,7.42,0,0,0,.94.49A.87.87,0,0,0,6,14.5l.17-.18A2.7,2.7,0,0,1,8,13.57Zm0-2.72a3.31,3.31,0,1,1,.16,0H8Zm-.08-.33H8a2.92,2.92,0,1,0-.08,0Z"/></g></g></svg>