<svg xmlns="http://www.w3.org/2000/svg" viewBox="0 0 16 13.03"><defs><style>.cls-1{fill:#2c9ee7;}</style></defs><title>icon-dss-h</title><g id="图层_2" data-name="图层 2"><g id="图层_1-2" data-name="图层 1"><path class="cls-1" d="M12,13H4v-.34a1,1,0,0,1,1-1H6.51v-.57H1a1,1,0,0,1-1-1V1A1,1,0,0,1,1,0H15a1,1,0,0,1,1,1v9.17a1,1,0,0,1-1,1H9.49v.57H11a1,1,0,0,1,1,1Zm-7.66-.39h7.26A.59.59,0,0,0,11,12.1H9.09V10.75H15a.59.59,0,0,0,.59-.59V1A.59.59,0,0,0,15,.39H1A.59.59,0,0,0,.39,1v9.17a.59.59,0,0,0,.59.59H6.91V12.1H5A.59.59,0,0,0,4.37,12.64Zm7.49-2.77H11a.59.59,0,0,1-.59-.59V4.56A.59.59,0,0,1,11,4h.85a.59.59,0,0,1,.59.59V9.28A.59.59,0,0,1,11.86,9.87ZM11,4.36a.2.2,0,0,0-.2.2V9.28a.2.2,0,0,0,.2.2h.85a.2.2,0,0,0,.2-.2V4.56a.2.2,0,0,0-.2-.2ZM8.59,9.87H7.74a.59.59,0,0,1-.59-.59V6.19a.59.59,0,0,1,.59-.59h.85a.59.59,0,0,1,.59.59V9.28A.59.59,0,0,1,8.59,9.87ZM7.74,6a.2.2,0,0,0-.2.2V9.28a.2.2,0,0,0,.2.2h.85a.2.2,0,0,0,.2-.2V6.19a.2.2,0,0,0-.2-.2ZM5.34,9.87H4.5a.59.59,0,0,1-.59-.59V7.83a.59.59,0,0,1,.59-.59h.84a.59.59,0,0,1,.59.59V9.28A.59.59,0,0,1,5.34,9.87ZM4.5,7.64a.2.2,0,0,0-.2.2V9.28a.2.2,0,0,0,.2.2h.84a.2.2,0,0,0,.2-.2V7.83a.2.2,0,0,0-.2-.2ZM4.43,5.46l-.66-1L7.25,2.24l.84,1.35,2.69-1.68-.48-.79,2.27.42L11.9,3.74,11.42,3,7.7,5.29,6.86,3.94Zm-.11-.92.24.38L7,3.4l.84,1.35,3.72-2.33.22.37.28-.94-1-.18.23.37L8,4.13,7.12,2.78Z"/></g></g></svg>