<svg xmlns="http://www.w3.org/2000/svg" viewBox="0 0 14.51 16"><defs><style>.cls-1{fill:#2c9ee7;}</style></defs><title>icon-pams-h</title><g id="图层_2" data-name="图层 2"><g id="图层_1-2" data-name="图层 1"><path class="cls-1" d="M12.84,16H1.67A1.67,1.67,0,0,1,0,14.33V1.67A1.67,1.67,0,0,1,1.67,0H12.84a1.67,1.67,0,0,1,1.67,1.67V14.33A1.67,1.67,0,0,1,12.84,16ZM1.67.36A1.31,1.31,0,0,0,.36,1.67V14.33a1.31,1.31,0,0,0,1.31,1.31H12.84a1.31,1.31,0,0,0,1.31-1.31V1.67A1.31,1.31,0,0,0,12.84.36ZM10,12.9H4.28a.68.68,0,1,1,0-1.35H10a.68.68,0,1,1,0,1.35Zm-5.71-1a.32.32,0,1,0,0,.64H10a.32.32,0,1,0,0-.64Zm2-1h-2a.68.68,0,1,1,0-1.35h2a.68.68,0,1,1,0,1.35Zm-2-1a.32.32,0,1,0,0,.64h2a.32.32,0,1,0,0-.64Zm0-.48a.62.62,0,0,1-.35-.1.65.65,0,0,1-.3-.41.68.68,0,0,1,.07-.51l2.93-5a.67.67,0,0,1,1.15,0l3,4.9a.67.67,0,0,1,.08.52.69.69,0,0,1-.8.5A.68.68,0,0,1,9.66,9L8.89,7.81H5.62L4.85,9.1A.64.64,0,0,1,4.28,9.43Zm2.93-6a.32.32,0,0,0-.27.16L4,8.59a.33.33,0,0,0,0,.24A.31.31,0,0,0,4.12,9a.29.29,0,0,0,.42-.1l.88-1.47H9.09L10,8.85a.33.33,0,0,0,.2.15.33.33,0,0,0,.38-.23.31.31,0,0,0,0-.24h0l-3-4.9A.32.32,0,0,0,7.21,3.46ZM10,5.2a.68.68,0,0,1-.66-.52.68.68,0,0,1,0-1.31.68.68,0,0,1,1.31,0,.68.68,0,0,1,0,1.31A.68.68,0,0,1,10,5.2Zm-.5-1.49a.32.32,0,1,0,0,.64h.18v.18a.32.32,0,1,0,.64,0V4.35h.18a.32.32,0,1,0,0-.64H10.3V3.53a.32.32,0,1,0-.64,0v.18Z"/><path class="cls-1" d="M8.7,6.81H5.79L7.21,4.39ZM6.41,6.46H8.06L7.22,5.08Z"/></g></g></svg>