<svg xmlns="http://www.w3.org/2000/svg" viewBox="0 0 16 15.9"><defs><style>.cls-1{fill:#2c9ee7;}</style></defs><title>icon-dosmartConfig-h</title><g id="图层_2" data-name="图层 2"><g id="图层_1-2" data-name="图层 1"><path class="cls-1" d="M2.6,15.9a1.35,1.35,0,0,1-1.35-1.35V6.78H.69L0,5.89,7.49.12a.62.62,0,0,1,.74,0L16,5.88l-.65.91H14.8v7.75a1.36,1.36,0,0,1-.4,1,1.34,1.34,0,0,1-1,.4H2.6ZM.89,6.39h.75v8.15a1,1,0,0,0,1,1H13.45a1,1,0,0,0,.68-.28,1,1,0,0,0,.28-.68V6.4h.74L15.46,6,8,.44a.23.23,0,0,0-.27,0L.55,6Zm6.35,7.39a.57.57,0,0,1-.41-.17l-.06-.07a.75.75,0,0,0-1,0l-.05.06a.57.57,0,0,1-.58.14,2.68,2.68,0,0,1-.38-.19,2.69,2.69,0,0,1-.36-.23.57.57,0,0,1-.17-.57l0-.08a.72.72,0,0,0-.5-.85l-.07,0a.57.57,0,0,1-.41-.43,2.72,2.72,0,0,1,0-.43,2.72,2.72,0,0,1,0-.43.57.57,0,0,1,.41-.43l.09,0a.71.71,0,0,0,.41-.33.72.72,0,0,0,.08-.53l0-.08a.57.57,0,0,1,.17-.57,2.67,2.67,0,0,1,.36-.23,2.81,2.81,0,0,1,.38-.19.57.57,0,0,1,.58.14l.06.07a.75.75,0,0,0,1,0l.06-.06a.57.57,0,0,1,.58-.14,2.81,2.81,0,0,1,.38.19,2.65,2.65,0,0,1,.36.23.57.57,0,0,1,.17.57l0,.09a.72.72,0,0,0,.08.51.72.72,0,0,0,.42.33l.08,0a.57.57,0,0,1,.41.43h0a2.77,2.77,0,0,1,0,.43,2.71,2.71,0,0,1,0,.43.57.57,0,0,1-.41.43l-.09,0a.72.72,0,0,0-.49.86l0,.08a.57.57,0,0,1-.17.57,2.59,2.59,0,0,1-.36.23,2.81,2.81,0,0,1-.38.19A.51.51,0,0,1,7.24,13.78Zm-1-.82a1.11,1.11,0,0,1,.77.31l.07.07a.19.19,0,0,0,.16,0h0a2.72,2.72,0,0,0,.32-.16,2.46,2.46,0,0,0,.3-.19.19.19,0,0,0,0-.16l0-.09a1.11,1.11,0,0,1,.76-1.33l.1,0a.19.19,0,0,0,.12-.12,3.67,3.67,0,0,0,0-.72.19.19,0,0,0-.11-.12l-.09,0a1.11,1.11,0,0,1-.77-1.33l0-.1a.19.19,0,0,0,0-.16h0a2.61,2.61,0,0,0-.3-.19,2.74,2.74,0,0,0-.32-.16.19.19,0,0,0-.16,0L7,8.6a1.13,1.13,0,0,1-1.54,0l-.07-.08a.19.19,0,0,0-.16,0h0A2.71,2.71,0,0,0,5,8.66a2.52,2.52,0,0,0-.3.19.19.19,0,0,0,0,.16l0,.09a1.12,1.12,0,0,1-.11.83,1.11,1.11,0,0,1-.65.51l-.1,0a.19.19,0,0,0-.11.12h0a2.61,2.61,0,0,0,0,.36,2.58,2.58,0,0,0,0,.36.19.19,0,0,0,.11.12l.09,0a1.11,1.11,0,0,1,.78,1.33l0,.1a.19.19,0,0,0,0,.16h0a2.66,2.66,0,0,0,.3.19,2.54,2.54,0,0,0,.32.16.19.19,0,0,0,.16,0l.06-.06A1.12,1.12,0,0,1,6.28,13Zm0-.7A1.32,1.32,0,1,1,7.6,10.94,1.32,1.32,0,0,1,6.28,12.26Zm0-2.25a.93.93,0,1,0,.93.93A.93.93,0,0,0,6.28,10Zm4,1.26h-.1a1.91,1.91,0,0,1-.29-.11A2,2,0,0,1,9.57,11a.46.46,0,0,1-.19-.45v-.06A.46.46,0,0,0,9,10H9a.46.46,0,0,1-.37-.32,1.94,1.94,0,0,1,0-.31,1.93,1.93,0,0,1,0-.31.46.46,0,0,1,.3-.39l.06,0a.45.45,0,0,0,.23-.23.46.46,0,0,0,0-.34l0,0a.46.46,0,0,1,.09-.48,1.9,1.9,0,0,1,.24-.2,2,2,0,0,1,.26-.17.46.46,0,0,1,.48.06l0,0a.46.46,0,0,0,.62-.07l0,0A.46.46,0,0,1,11.36,7a2,2,0,0,1,.29.11,2,2,0,0,1,.28.14.46.46,0,0,1,.18.45v.07a.45.45,0,0,0,.09.31.46.46,0,0,0,.29.18h.05a.47.47,0,0,1,.37.31h0a2,2,0,0,1,.05.31,2,2,0,0,1,0,.32.46.46,0,0,1-.3.39l-.06,0a.46.46,0,0,0-.25.57l0,.05a.46.46,0,0,1-.09.48,2,2,0,0,1-.24.2,2,2,0,0,1-.26.17.46.46,0,0,1-.48-.06l0,0a.46.46,0,0,0-.62.07l0,0A.46.46,0,0,1,10.25,11.27ZM9.9,7.51h0l-.21.14-.19.15a.08.08,0,0,0,0,.06l0,.06a.86.86,0,0,1,0,.64A.84.84,0,0,1,9,9L9,9a.09.09,0,0,0,0,0,1.9,1.9,0,0,0,0,.24,1.8,1.8,0,0,0,0,.24l0,0h.06a.85.85,0,0,1,.7.95v.07a.09.09,0,0,0,0,.06l.22.11.23.09.05,0,0-.05a.85.85,0,0,1,1.17-.13l.06,0h.06l.21-.14.19-.15a.09.09,0,0,0,0-.06l0-.06a.85.85,0,0,1,.47-1.08l.07,0a.09.09,0,0,0,0,0,1.9,1.9,0,0,0,0-.24,1.94,1.94,0,0,0,0-.24l0,0h-.07a.85.85,0,0,1-.54-.34.84.84,0,0,1-.15-.61l0-.08a.1.1,0,0,0,0,0l-.22-.11-.23-.09-.05,0,0,.05a.85.85,0,0,1-.56.3A.83.83,0,0,1,10,7.57l-.06-.05Zm.85,2.61a1,1,0,1,1,.11,0h-.11Zm0-1.61h-.06a.61.61,0,1,0,.13,1.21h0a.61.61,0,0,0-.06-1.21Z"/></g></g></svg>