<svg xmlns="http://www.w3.org/2000/svg" viewBox="0 0 15.93 16"><defs><style>.cls-1{fill:#2c9ee7;}</style></defs><title>icon-hr-h</title><g id="图层_2" data-name="图层 2"><g id="图层_1-2" data-name="图层 1"><path class="cls-1" d="M3.85,8.69A3.85,3.85,0,1,1,3.85,1l.21,0h.1l.33,0-.18.28a4.46,4.46,0,0,0-.74,2.47h0A4.49,4.49,0,0,0,5.91,7.72l.28.15-.27.18A3.7,3.7,0,0,1,3.85,8.69Zm0-7.31a3.46,3.46,0,0,0,0,6.92,3.31,3.31,0,0,0,1.58-.4,4.88,4.88,0,0,1-2.26-4.1h0A4.85,4.85,0,0,1,3.81,1.37Z"/><path class="cls-1" d="M12.07,8.69h0a3.69,3.69,0,0,1-2-.58l-.29-.18.3-.16A4.48,4.48,0,0,0,11.81,1.3L11.6,1h.47a3.85,3.85,0,0,1,0,7.71Zm-1.46-.74a3.3,3.3,0,0,0,1.46.35h0a3.46,3.46,0,0,0,.24-6.91,4.87,4.87,0,0,1-1.71,6.57Z"/><path class="cls-1" d="M15.86,16H.08l0-.18c0-.14-.27-3.45,1.42-5.3A3.75,3.75,0,0,1,4.37,9.34h7.19a3.54,3.54,0,0,1,2.65,1.08c1.76,1.82,1.66,5.24,1.66,5.39ZM.44,15.61h15c0-.74-.13-3.45-1.55-4.91a3.17,3.17,0,0,0-2.37-1H4.37a3.37,3.37,0,0,0-2.6,1.06C.41,12.27.41,14.9.44,15.61Z"/><path class="cls-1" d="M8,7.58a3.79,3.79,0,1,1,3.79-3.79A3.79,3.79,0,0,1,8,7.58ZM8,.39a3.4,3.4,0,1,0,3.4,3.4A3.4,3.4,0,0,0,8,.39Z"/></g></g></svg>