<svg xmlns="http://www.w3.org/2000/svg" viewBox="0 0 16 12.97"><defs><style>.cls-1{fill:#2c9ee7;}</style></defs><title>icon-ppe-h</title><g id="图层_2" data-name="图层 2"><g id="图层_1-2" data-name="图层 1"><path class="cls-1" d="M12,13H4v-.43a.9.9,0,0,1,.89-.89H6.52v-.54H1.59A1.6,1.6,0,0,1,0,9.51V1.59A1.6,1.6,0,0,1,1.59,0H14.41A1.6,1.6,0,0,1,16,1.59V9.51a1.6,1.6,0,0,1-1.59,1.59H9.48v.54h1.67a.9.9,0,0,1,.89.89Zm-7.69-.39h7.3v0a.5.5,0,0,0-.5-.5H9.09V10.72h5.32a1.2,1.2,0,0,0,1.2-1.2V1.59a1.2,1.2,0,0,0-1.2-1.2H1.59a1.2,1.2,0,0,0-1.2,1.2V9.51a1.2,1.2,0,0,0,1.2,1.2H6.91V12H4.86a.5.5,0,0,0-.5.5ZM8,9.59a.77.77,0,0,1-.78-.78V8.52H5.89a.64.64,0,0,1,0-1.28H7.22V6.91H5.89a.64.64,0,0,1,0-1.28h.8L5.08,3.45a.89.89,0,0,1-.19-.53.79.79,0,0,1,.8-.77.86.86,0,0,1,.74.43L8,4.92,9.61,2.58a.85.85,0,0,1,.72-.43.76.76,0,0,1,.78.76.9.9,0,0,1-.19.54L9.3,5.64h.81a.64.64,0,0,1,0,1.28H8.78v.33h1.33a.64.64,0,0,1,0,1.28H8.78V8.8A.77.77,0,0,1,8,9.59ZM5.89,7.64a.25.25,0,0,0,0,.49H7.61V8.8a.39.39,0,0,0,.78,0V8.13h1.73a.25.25,0,0,0,0-.49H8.39V6.52h1.73a.25.25,0,0,0,0-.49H8.53L10.6,3.22a.5.5,0,0,0,.11-.31.37.37,0,0,0-.39-.37.48.48,0,0,0-.39.26L8,5.62,6.11,2.79a.47.47,0,0,0-.41-.25.4.4,0,0,0-.41.38.5.5,0,0,0,.11.3L7.45,6H5.89a.25.25,0,0,0,0,.49H7.61V7.64Z"/></g></g></svg>