<svg xmlns="http://www.w3.org/2000/svg" viewBox="0 0 16 15.9"><defs><style>.cls-1{fill:#2c9ee7;}</style></defs><title>icon-pss-h</title><g id="图层_2" data-name="图层 2"><g id="图层_1-2" data-name="图层 1"><path class="cls-1" d="M8.23,15a3.87,3.87,0,0,1-2.29-.76,2.84,2.84,0,0,1-1.17-2.14,6,6,0,0,1,.06-1L3.5,10.93,6.3,9.25l2,2.49-1.58-.21c0,.09,0,.18,0,.27A3.24,3.24,0,0,0,9,14.57l.61.23-.64.14A3.23,3.23,0,0,1,8.23,15ZM4.62,10.71l.69.11L5.26,11a4.79,4.79,0,0,0-.09,1.07,2.44,2.44,0,0,0,1,1.85,3.46,3.46,0,0,0,2,.68A3.43,3.43,0,0,1,6.34,11.8a3.3,3.3,0,0,1,.05-.52l0-.18,1,.13L6.21,9.76Z"/><path class="cls-1" d="M9.75,14.2l-2.1-2.44,1.59.17c0-.09,0-.18,0-.27a3.23,3.23,0,0,0-2.3-2.71l-.62-.21L7,8.57a3.78,3.78,0,0,1,3,.61,2.84,2.84,0,0,1,1.22,2.11,5.89,5.89,0,0,1,0,1l1.34.17ZM8.58,12.25l1.24,1.44,1.56-1-.69-.09.06-.21a4.79,4.79,0,0,0,.06-1.07A2.44,2.44,0,0,0,9.74,9.49a3.45,3.45,0,0,0-2-.63,3.43,3.43,0,0,1,1.92,2.79,3.29,3.29,0,0,1,0,.52l0,.18Z"/><path class="cls-1" d="M2.6,15.9a1.35,1.35,0,0,1-1.35-1.35V6.79H.69L0,5.89,7.49.12a.62.62,0,0,1,.74,0L16,5.88l-.65.91H14.8v7.75a1.35,1.35,0,0,1-1.35,1.35h-.32V7.59A.16.16,0,0,0,13,7.43H3.1a.16.16,0,0,0-.16.16V15.9H2.6ZM.89,6.39h.75v8.15a1,1,0,0,0,.91,1V7.59A.55.55,0,0,1,3.1,7H13a.55.55,0,0,1,.55.55V15.5a1,1,0,0,0,.89-1V6.4h.74L15.46,6,8,.44a.23.23,0,0,0-.27,0L.55,6Z"/></g></g></svg>