<svg xmlns="http://www.w3.org/2000/svg" viewBox="0 0 15.86 16"><defs><style>.cls-1{fill:#2c9ee7;}</style></defs><title>icon-humidity-h</title><g id="图层_2" data-name="图层 2"><g id="图层_1-2" data-name="图层 1"><path class="cls-1" d="M3.35,16A3.32,3.32,0,0,1,0,12.72a3.25,3.25,0,0,1,1.32-2.6V2a2,2,0,0,1,2-2,2,2,0,0,1,2,2v8.14a3.25,3.25,0,0,1,1.32,2.6A3.32,3.32,0,0,1,3.35,16ZM3.35.35A1.66,1.66,0,0,0,1.67,2V10.3l-.07.05A2.87,2.87,0,0,0,.35,12.72a3,3,0,0,0,3,2.92,3,3,0,0,0,3-2.92,2.87,2.87,0,0,0-1.25-2.37L5,10.3V2A1.66,1.66,0,0,0,3.35.35Z"/><path class="cls-1" d="M3.35,14.1A1.39,1.39,0,0,1,2,12.72a1.36,1.36,0,0,1,.88-1.27V4.6H3.88v6.86a1.36,1.36,0,0,1,.88,1.27A1.39,1.39,0,0,1,3.35,14.1ZM3.18,5v6.76l-.13,0a1,1,0,0,0-.75,1,1.05,1.05,0,0,0,2.1,0,1,1,0,0,0-.75-1l-.13,0V5Z"/><path class="cls-1" d="M11.58,14.7a4.23,4.23,0,0,1-4.29-4.16v-.08c0-.06,0-.12,0-.18.3-3.15,4-8.66,4.14-8.9l.15-.23.14.23c2.91,4.69,3.45,6.28,3.88,7.55A7.71,7.71,0,0,1,15.84,10h0a3.48,3.48,0,0,1,0,.43v.05A4.23,4.23,0,0,1,11.58,14.7Zm0-12.9C10.86,2.89,7.9,7.6,7.64,10.3c0,0,0,.1,0,.15v.09a3.94,3.94,0,0,0,7.87,0v-.05a3.17,3.17,0,0,0,0-.38,7.1,7.1,0,0,0-.22-1C14.85,7.81,14.34,6.27,11.57,1.8ZM11.67,13A2.91,2.91,0,0,1,9.51,8.17l.33-.36,0,.54s0,0,0,.06A2.9,2.9,0,0,0,14.13,11l.43-.24-.18.46A2.93,2.93,0,0,1,11.67,13ZM9.48,8.8a2.56,2.56,0,0,0,4.36,2.67A3.25,3.25,0,0,1,9.48,8.8Z"/></g></g></svg>