<svg xmlns="http://www.w3.org/2000/svg" viewBox="0 0 16 16"><defs><style>.cls-1{fill:#2c9ee7;}</style></defs><title>icon-gxlzlk-h</title><g id="图层_2" data-name="图层 2"><g id="图层_1-2" data-name="图层 1"><path class="cls-1" d="M14.35,16H1.65A1.65,1.65,0,0,1,0,14.31V1.65A1.63,1.63,0,0,1,1.65,0H12.58a1.63,1.63,0,0,1,1.65,1.65v12.7a1.6,1.6,0,0,1-.09.55h.21a.53.53,0,0,0,.55-.55v-11a.55.55,0,0,1,1.1,0v11A1.63,1.63,0,0,1,14.35,16ZM1.65.39A1.24,1.24,0,0,0,.39,1.65V14.31a1.25,1.25,0,0,0,1.26,1.29h12.7a1.24,1.24,0,0,0,1.26-1.26v-11a.16.16,0,0,0-.32,0v11a.92.92,0,0,1-.94.94h-.9l.2-.31a1.11,1.11,0,0,0,.18-.64V1.65A1.24,1.24,0,0,0,12.58.39ZM11.9,13.16H2.32a.55.55,0,1,1,0-1.1H11.9a.55.55,0,0,1,.55.55A.53.53,0,0,1,11.9,13.16Zm-9.58-.71a.16.16,0,1,0,0,.32H11.9a.14.14,0,0,0,.16-.16.16.16,0,0,0-.16-.16Zm9.58-1.77H2.32a.55.55,0,1,1,0-1.1H11.9a.55.55,0,0,1,.55.55A.53.53,0,0,1,11.9,10.68ZM2.32,10a.16.16,0,1,0,0,.32H11.9a.14.14,0,0,0,.16-.16A.16.16,0,0,0,11.9,10ZM11.9,8.2H2.32a.55.55,0,1,1,0-1.1H11.9a.55.55,0,0,1,.55.55A.53.53,0,0,1,11.9,8.2ZM2.32,7.49a.16.16,0,1,0,0,.32H11.9a.14.14,0,0,0,.16-.16.16.16,0,0,0-.16-.16ZM6.58,5.71H2.32a.53.53,0,0,1-.55-.55V2.68a.53.53,0,0,1,.55-.55H6.58a.53.53,0,0,1,.55.55V5.16A.53.53,0,0,1,6.58,5.71ZM2.32,2.52a.14.14,0,0,0-.16.16V5.16a.14.14,0,0,0,.16.16H6.58a.14.14,0,0,0,.16-.16V2.68a.14.14,0,0,0-.16-.16ZM11.9,4.65H8a.55.55,0,1,1,0-1.1h3.9a.55.55,0,0,1,.55.55A.53.53,0,0,1,11.9,4.65ZM8,3.94a.16.16,0,0,0,0,.32h3.9a.14.14,0,0,0,.16-.16.16.16,0,0,0-.16-.16Z"/></g></g></svg>