<svg xmlns="http://www.w3.org/2000/svg" viewBox="0 0 16.21 16"><defs><style>.cls-1{fill:#2c9ee7;}</style></defs><title>icon-reserve-h</title><g id="图层_2" data-name="图层 2"><g id="图层_1-2" data-name="图层 1"><path class="cls-1" d="M14.3,16H3.75a1.83,1.83,0,0,1-1.91-1.74V3.37A1.83,1.83,0,0,1,3.75,1.63H14.3a1.83,1.83,0,0,1,1.91,1.74V14.26A1.83,1.83,0,0,1,14.3,16ZM3.75,2A1.44,1.44,0,0,0,2.24,3.37V14.26A1.44,1.44,0,0,0,3.75,15.6H14.3a1.44,1.44,0,0,0,1.51-1.35V3.37A1.44,1.44,0,0,0,14.3,2ZM14.19,14.33H9.26a.64.64,0,1,1,0-1.28h4.93a.64.64,0,1,1,0,1.28Zm-4.93-.88a.24.24,0,1,0,0,.49h4.93a.24.24,0,1,0,0-.49Zm-5.47.26a.62.62,0,0,1-.39-.15c-.26-.21-.42-.58-.24-.8l1.36-2.06a.34.34,0,0,1,.25-.14c.15,0,.25.12.35.25a1.48,1.48,0,0,0,.22.24,1.48,1.48,0,0,0,.28.17c.14.07.28.14.31.29a.3.3,0,0,1-.07.26h0L4.16,13.52A.48.48,0,0,1,3.79,13.7Zm1-2.69-1.3,2a.52.52,0,0,0,.26.3s.08,0,.13,0l1.61-1.67,0,0a1.84,1.84,0,0,1-.36-.22A1.85,1.85,0,0,1,4.8,11Zm.93.61-.15-.13Zm8.49.92H11a.64.64,0,1,1,0-1.28h3.19a.64.64,0,0,1,0,1.28ZM11,11.67a.24.24,0,1,0,0,.49h3.19a.24.24,0,1,0,0-.49Zm-4.09-.08a1.27,1.27,0,0,1-.82-.28h0a.88.88,0,0,1-.27-1,.88.88,0,0,1-1-.07h0a1.52,1.52,0,0,1-.46-1.46,4.88,4.88,0,0,1,1.4-2.71l.39-.17a4,4,0,0,1,1.1-1.66l.32-.14A3.85,3.85,0,0,1,8.62,2.59l1-.46-.8.78s-.62.66,0,1.92a3,3,0,0,1,.24.62.86.86,0,0,1,0-.29C9.29,4.08,11.42,3,11.61,3l.34-.11-.08.35c-.06.26-.6,2.55-1.54,3l.26.06h0c1.36.36,1.86-.35,1.88-.38l.6-.9-.24,1a3.86,3.86,0,0,1-1.3,1.35l-.08.35a4,4,0,0,1-1.39,1.41L10,9.53A4.89,4.89,0,0,1,7.6,11.46,2.11,2.11,0,0,1,6.91,11.59ZM6.34,11a1.08,1.08,0,0,0,1,.11,4.46,4.46,0,0,0,1.49-.89,2.86,2.86,0,0,1-1.24-.08c-.7-.19-1.23-.09-1.41.26a.49.49,0,0,0,.11.6ZM5.07,10a.49.49,0,0,0,.61,0c.3-.24.29-.78,0-1.43a2.85,2.85,0,0,1-.33-1.19A4.46,4.46,0,0,0,4.75,9a1.09,1.09,0,0,0,.33,1ZM7,9.66a2.9,2.9,0,0,1,.74.11C9,10.09,9.5,9.53,9.59,9.4a3.58,3.58,0,0,1-.51.23,1.52,1.52,0,0,1-1.51-.15.88.88,0,0,1-.27-1,.88.88,0,0,1-1-.07A1.52,1.52,0,0,1,5.85,7,3.54,3.54,0,0,1,6,6.46c-.1.12-.55.75,0,1.9a1.88,1.88,0,0,1,.23,1.49A1.43,1.43,0,0,1,7,9.66ZM8.47,8.23a.79.79,0,0,0-.76.35.49.49,0,0,0,.11.6,1.08,1.08,0,0,0,1,.11,4.16,4.16,0,0,0,1.29-.73l0-.07v0l.15-.13a2.86,2.86,0,0,1-1.24-.08A2.56,2.56,0,0,0,8.47,8.23ZM6.65,5.79a4.09,4.09,0,0,0-.42,1.36,1.09,1.09,0,0,0,.33,1,.49.49,0,0,0,.61,0c.3-.24.29-.78,0-1.43A2.85,2.85,0,0,1,6.8,5.51l-.1.19.09,0Zm4.24,2a3.4,3.4,0,0,1-.44.19l-.3.08A1.47,1.47,0,0,0,10.9,7.75ZM7.52,6.61A1.82,1.82,0,0,1,7.71,8a1.82,1.82,0,0,1,1.42-.11l-.18-.12a.88.88,0,0,1-.27-1,.88.88,0,0,1-1-.07Zm2.32-.07a.79.79,0,0,0-.76.35.49.49,0,0,0,.11.6,1.08,1.08,0,0,0,1,.11,4.23,4.23,0,0,0,1.34-.76l.07-.11a2.93,2.93,0,0,1-1.16-.09h0A2.56,2.56,0,0,0,9.85,6.53Zm1.83.18v0l.05,0ZM8.05,4a4.16,4.16,0,0,0-.45,1.41,1.09,1.09,0,0,0,.33,1,.49.49,0,0,0,.61,0c.3-.24.29-.78,0-1.43a2.93,2.93,0,0,1-.33-1.09ZM9.12,5.55a1.43,1.43,0,0,1,0,.78,1.32,1.32,0,0,1,.55-.18L9.46,6A1,1,0,0,1,9.12,5.55Zm2.26-2c-.63.34-1.78,1.09-1.89,1.7a.48.48,0,0,0,.22.49.41.41,0,0,0,.42.11C10.63,5.66,11.12,4.46,11.38,3.52ZM7.32,4.85a1.48,1.48,0,0,0-.11.77,2.49,2.49,0,0,1,0-.32A3.4,3.4,0,0,1,7.32,4.85Zm.85-1,0,.07,0,0Z"/><path class="cls-1" d="M2.23,14.17H1.74A1.74,1.74,0,0,1,0,12.43V1.74A1.74,1.74,0,0,1,1.74,0H13.12a1.74,1.74,0,0,1,1.74,1.74V2h-.92V1.74a.82.82,0,0,0-.82-.82H1.74a.82.82,0,0,0-.82.82v10.7a.82.82,0,0,0,.82.82h.49ZM1.74.4A1.34,1.34,0,0,0,.4,1.74v10.7a1.34,1.34,0,0,0,1.34,1.34h.09v-.12H1.74A1.22,1.22,0,0,1,.52,12.43V1.74A1.22,1.22,0,0,1,1.74.52H13.12a1.22,1.22,0,0,1,1.21,1.09h.12A1.34,1.34,0,0,0,13.12.4Z"/></g></g></svg>