<svg xmlns="http://www.w3.org/2000/svg" viewBox="0 0 16 15.9"><defs><style>.cls-1{fill:#2c9ee7;}</style></defs><title>icon-dosmartControl-h</title><g id="图层_2" data-name="图层 2"><g id="图层_1-2" data-name="图层 1"><path class="cls-1" d="M2.6,15.9a1.35,1.35,0,0,1-1.35-1.35V6.79H.69L0,5.89,7.49.12a.62.62,0,0,1,.74,0l6.43,4.77h.13V5l1.2.89-.65.92H14.8v7.75a1.35,1.35,0,0,1-1.35,1.35h-.32V7.59A.16.16,0,0,0,13,7.43H3.1a.16.16,0,0,0-.16.16V15.9H2.6ZM.89,6.39h.75v8.15a1,1,0,0,0,.28.68,1,1,0,0,0,.63.28V7.59A.55.55,0,0,1,3.1,7H13a.55.55,0,0,1,.55.55V15.5a1,1,0,0,0,.89-1V6.4h.74L15.46,6,8,.44a.23.23,0,0,0-.27,0L.55,6Z"/><path class="cls-1" d="M11.17,9.91h-.64a.59.59,0,0,1-.56-.4H4.19a.59.59,0,0,1-.59-.59V8.71a.59.59,0,0,1,.59-.59H10a.59.59,0,0,1,.55-.4h.64a.59.59,0,0,1,.56.4h.15a.59.59,0,0,1,.59.59v.21a.59.59,0,0,1-.59.59h-.15A.59.59,0,0,1,11.17,9.91Zm-7-1.4a.2.2,0,0,0-.2.2v.21a.2.2,0,0,0,.2.2h6.14v.2a.2.2,0,0,0,.2.2h.64a.2.2,0,0,0,.2-.2v-.2h.51a.2.2,0,0,0,.2-.2V8.71a.2.2,0,0,0-.2-.2h-.51v-.2a.2.2,0,0,0-.2-.2h-.64a.2.2,0,0,0-.2.2v.2H4.19Z"/><path class="cls-1" d="M8.4,12.74H7.76a.59.59,0,0,1-.56-.4h-3a.59.59,0,0,1-.59-.59v-.21A.59.59,0,0,1,4.19,11h3a.59.59,0,0,1,.55-.4H8.4A.59.59,0,0,1,9,11h2.92a.59.59,0,0,1,.59.59v.21a.59.59,0,0,1-.59.59H9A.59.59,0,0,1,8.4,12.74Zm-4.21-1.4a.2.2,0,0,0-.2.2v.21a.2.2,0,0,0,.2.2H7.56v.2a.2.2,0,0,0,.2.2H8.4a.2.2,0,0,0,.2-.2V12h3.28a.2.2,0,0,0,.2-.2v-.21a.2.2,0,0,0-.2-.2H8.59v-.2a.2.2,0,0,0-.2-.2H7.76a.2.2,0,0,0-.2.2v.2H4.19Z"/><path class="cls-1" d="M5.52,15.56H4.88a.59.59,0,0,1-.56-.4H4.19a.59.59,0,0,1-.59-.59v-.21a.59.59,0,0,1,.59-.59h.13a.59.59,0,0,1,.55-.4h.64a.59.59,0,0,1,.56.4h5.8a.59.59,0,0,1,.59.59v.21a.59.59,0,0,1-.59.59H6.07A.59.59,0,0,1,5.52,15.56Zm-1.33-1.4a.2.2,0,0,0-.2.2v.21a.2.2,0,0,0,.2.2h.49V15a.2.2,0,0,0,.2.2h.64a.2.2,0,0,0,.2-.2v-.2h6.16a.2.2,0,0,0,.2-.2v-.21a.2.2,0,0,0-.2-.2H5.71V14a.2.2,0,0,0-.2-.2H4.88a.2.2,0,0,0-.2.2v.2Z"/></g></g></svg>