<svg xmlns="http://www.w3.org/2000/svg" viewBox="0 0 13.7 16"><defs><style>.cls-1{fill:#2c9ee7;}</style></defs><title>icon-cctv-h</title><g id="图层_2" data-name="图层 2"><g id="图层_1-2" data-name="图层 1"><path class="cls-1" d="M6.86,16h0a8,8,0,0,1-5.49-4.63A19,19,0,0,1,.15,1.58l0-.19.19,0a3.11,3.11,0,0,0,1.7,0,6.28,6.28,0,0,0,.77-.34,8.89,8.89,0,0,1,4-1.1,9.59,9.59,0,0,1,3.83,1l.58.24a3.05,3.05,0,0,0,2.17.2l.19-.05,0,.2c0,.25.49,6.11-1.4,9.79A9.06,9.06,0,0,1,6.89,16ZM.47,1.81a18.51,18.51,0,0,0,1.17,9.42,7.71,7.71,0,0,0,5.2,4.43,8.93,8.93,0,0,0,5.1-4.43C13.6,8,13.38,2.87,13.32,1.81a3.42,3.42,0,0,1-2.18-.26l-.58-.25a9.3,9.3,0,0,0-3.7-1A8.6,8.6,0,0,0,3,1.4a6.46,6.46,0,0,1-.82.36A3.34,3.34,0,0,1,.47,1.81ZM6.84,15.06V8.21H1.13l0-.14A19.87,19.87,0,0,1,1,2.36l0-.19.19,0a2.82,2.82,0,0,0,1.48,0,5.66,5.66,0,0,0,.66-.29A7.84,7.84,0,0,1,6.85,1h.32V7.82h5.42l0,.2a11,11,0,0,1-.95,3h0a8.14,8.14,0,0,1-4.54,4Zm.34-6.9v6.43a7.86,7.86,0,0,0,4.12-3.77h0a10.35,10.35,0,0,0,.88-2.66ZM1.41,7.87H6.83V1.29a7.57,7.57,0,0,0-3.38.94,5.76,5.76,0,0,1-.71.31,3.05,3.05,0,0,1-1.47,0A19.53,19.53,0,0,0,1.41,7.87Z"/></g></g></svg>