<svg xmlns="http://www.w3.org/2000/svg" viewBox="0 0 16 13.4"><defs><style>.cls-1{fill:#fff;}</style></defs><title>icon-dew</title><g id="图层_2" data-name="图层 2"><g id="图层_1-2" data-name="图层 1"><path class="cls-1" d="M12.12.51,11.81,0,11.5.51C11.34.78,7.62,7,7.62,9.21a4.19,4.19,0,1,0,8.38,0C16,7,12.16.58,12.12.51Zm3.17,8.7a3.47,3.47,0,0,1-6.95,0c0-1.65,2.6-6.3,3.47-7.81C12.68,2.91,15.28,7.56,15.28,9.21Z"/><path class="cls-1" d="M9.81,7.51V7.36l-.08.12a2.7,2.7,0,0,0,4.59,2.86l.08-.12-.14.05A3.29,3.29,0,0,1,9.81,7.51Z"/><path class="cls-1" d="M7,6.57a.82.82,0,0,0-.58-.14c.58-.86.85-2.3.54-2.61S5.8,3.69,5.08,4a2.07,2.07,0,0,0,.1-.62C5.18,1.79,4,.65,3.55.65S1.93,1.87,1.93,3.35A2.08,2.08,0,0,0,2,4C1.3,3.69.42,3.57.17,3.82S0,4.59.14,5.06A4.13,4.13,0,0,0,.71,6.43a.82.82,0,0,0-.58.14c-.2.2-.14.82,0,1.32A3.63,3.63,0,0,0,1,9.54a2.6,2.6,0,0,0,1,.59v1.48h.69V10.3a2.81,2.81,0,0,0,.6,0v2.14h.69V10.32a2.8,2.8,0,0,0,.6,0v1.31h.69V10.13a2.6,2.6,0,0,0,1-.59A3.62,3.62,0,0,0,7,7.89C7.11,7.38,7.17,6.77,7,6.57ZM3.89,9.4V9a2.38,2.38,0,0,1,.59-1.14,3.37,3.37,0,0,1,2-.82,3.36,3.36,0,0,1-.82,2,2.39,2.39,0,0,1-1.77.62V9.52S3.9,9.44,3.89,9.4ZM5.63,6.28a2.34,2.34,0,0,1-1.75.61,2.6,2.6,0,0,0,0-.55,2.4,2.4,0,0,1,.6-1.23,3.25,3.25,0,0,1,2-.82A3.34,3.34,0,0,1,5.63,6.28ZM3.55,4.93a1.92,1.92,0,0,1-.94-1.59,2.45,2.45,0,0,1,.94-2,2.54,2.54,0,0,1,.94,2A2,2,0,0,1,3.55,4.93Zm-.31,2a2.27,2.27,0,0,1-1.77-.6,3.34,3.34,0,0,1-.81-2,3.33,3.33,0,0,1,2,.82A2.24,2.24,0,0,1,3.24,6.88Zm.62.65A2.49,2.49,0,0,0,3.55,8a2.49,2.49,0,0,0-.31-.48,1.19,1.19,0,0,0,.31-.07A1.19,1.19,0,0,0,3.86,7.53ZM3.21,9v.65a2.38,2.38,0,0,1-1.77-.62,3.36,3.36,0,0,1-.82-2,3.37,3.37,0,0,1,2,.82A2.38,2.38,0,0,1,3.21,9Z"/></g></g></svg>