<svg xmlns="http://www.w3.org/2000/svg" viewBox="0 0 16 15.16"><defs><style>.cls-1{fill:#fff;}</style></defs><title>icon-temper</title><g id="图层_2" data-name="图层 2"><g id="图层_1-2" data-name="图层 1"><path class="cls-1" d="M9.31,9.59V3.53a1.37,1.37,0,0,0-2.74,0V9.59a2.26,2.26,0,0,0-1,1.85,2.34,2.34,0,0,0,4.69,0A2.26,2.26,0,0,0,9.31,9.59ZM7.95,13.23a1.81,1.81,0,0,1-1.83-1.78A1.76,1.76,0,0,1,7,9.94l.12-.07V3.53a.85.85,0,0,1,1.71,0V9.86l.12.07a1.77,1.77,0,0,1,.85,1.51A1.81,1.81,0,0,1,7.95,13.23Z"/><path class="cls-1" d="M8.2,10.6v-5H7.69v5a.88.88,0,0,0-.65.84.91.91,0,0,0,1.81,0A.88.88,0,0,0,8.2,10.6Z"/><path class="cls-1" d="M15.68,4.62a.32.32,0,0,1-.15,0L8,.73.47,4.59A.32.32,0,0,1,.18,4L8,0l7.82,4a.32.32,0,0,1-.15.61Z"/><path class="cls-1" d="M14,15.16H1.84V5.26a.32.32,0,1,1,.65,0v9.26H13.4V5.26a.32.32,0,1,1,.65,0Z"/></g></g></svg>