<svg xmlns="http://www.w3.org/2000/svg" viewBox="0 0 16 13.96"><defs><style>.cls-1{fill:#2196f3;}</style></defs><title>icon-lp1</title><g id="图层_2" data-name="图层 2"><g id="图层_1-2" data-name="图层 1"><path class="cls-1" d="M12.3,3.3h-.74V2a.07.07,0,0,0-.07-.07H6.8V1.16h4.69A.81.81,0,0,1,12.3,2Z"/><path class="cls-1" d="M15,14H.95A1,1,0,0,1,0,13V.95A1,1,0,0,1,.95,0H6.24L8,2.84H15a1,1,0,0,1,1,.95V13A1,1,0,0,1,15,14ZM.95.87A.08.08,0,0,0,.87.95V13a.08.08,0,0,0,.08.08H15a.08.08,0,0,0,.08-.08V3.79A.08.08,0,0,0,15,3.71H7.49L5.76.87Z"/><rect class="cls-1" x="1.82" y="10.9" width="4.4" height="1.02" rx="0.51" ry="0.51"/></g></g></svg>