<svg xmlns="http://www.w3.org/2000/svg" viewBox="0 0 15.32 16"><defs><style>.cls-1{fill:#fff;}</style></defs><title>icon-gtemper</title><g id="图层_2" data-name="图层 2"><g id="图层_1-2" data-name="图层 1"><path class="cls-1" d="M7.69,9.11A.91.91,0,0,0,7,9c.64-1,.94-2.54.6-2.88s-1.25-.14-2,.16a2.28,2.28,0,0,0,.11-.69c0-1.72-1.26-3-1.79-3s-1.79,1.35-1.79,3a2.29,2.29,0,0,0,.11.69c-.8-.3-1.77-.44-2-.16S0,6.92.15,7.45A4.56,4.56,0,0,0,.78,9a.9.9,0,0,0-.64.15c-.22.22-.16.9,0,1.46a4,4,0,0,0,.93,1.82A2.87,2.87,0,0,0,2.12,13v1.63h.76V13.22a3.1,3.1,0,0,0,.66,0v2.36h.76V13.24a3.08,3.08,0,0,0,.66,0v1.45h.76V13a2.87,2.87,0,0,0,1.07-.65,4,4,0,0,0,.93-1.82C7.85,10,7.91,9.33,7.69,9.11ZM4.29,12.22v-.41a2.62,2.62,0,0,1,.65-1.26,3.72,3.72,0,0,1,2.21-.91,3.71,3.71,0,0,1-.91,2.21,2.64,2.64,0,0,1-1.95.69v-.17S4.3,12.27,4.29,12.22ZM6.21,8.79a2.59,2.59,0,0,1-1.93.68,2.87,2.87,0,0,0,0-.61,2.64,2.64,0,0,1,.66-1.36,3.58,3.58,0,0,1,2.18-.9A3.69,3.69,0,0,1,6.21,8.79ZM3.92,7.3a2.12,2.12,0,0,1-1-1.75,2.7,2.7,0,0,1,1-2.22A2.8,2.8,0,0,1,5,5.55,2.18,2.18,0,0,1,3.92,7.3ZM3.57,9.45a2.5,2.5,0,0,1-2-.66,3.69,3.69,0,0,1-.9-2.18,3.68,3.68,0,0,1,2.18.9A2.48,2.48,0,0,1,3.57,9.45Zm.69.72a2.75,2.75,0,0,0-.34.53,2.75,2.75,0,0,0-.34-.53,1.32,1.32,0,0,0,.34-.07A1.32,1.32,0,0,0,4.26,10.17Zm-.72,1.64v.72a2.63,2.63,0,0,1-1.95-.68A3.71,3.71,0,0,1,.68,9.64a3.72,3.72,0,0,1,2.21.91A2.62,2.62,0,0,1,3.54,11.81Z"/><path class="cls-1" d="M14,10.26V1.85a1.9,1.9,0,0,0-3.8,0v8.41a3.13,3.13,0,0,0-1.35,2.57,3.25,3.25,0,0,0,6.5,0A3.13,3.13,0,0,0,14,10.26Zm-1.9,5a2.51,2.51,0,0,1-2.54-2.47,2.45,2.45,0,0,1,1.19-2.09l.17-.1V1.85a1.18,1.18,0,0,1,2.37,0v8.79l.17.1a2.45,2.45,0,0,1,1.19,2.09A2.51,2.51,0,0,1,12.07,15.3Z"/><path class="cls-1" d="M12.42,11.66v-7h-.71v7a1.23,1.23,0,0,0-.9,1.17,1.26,1.26,0,0,0,2.51,0A1.23,1.23,0,0,0,12.42,11.66Z"/></g></g></svg>