<svg xmlns="http://www.w3.org/2000/svg" viewBox="0 0 16 15.18"><defs><style>.cls-1{fill:#2196f3;}</style></defs><title>icon-lp4</title><g id="图层_2" data-name="图层 2"><g id="图层_1-2" data-name="图层 1"><path class="cls-1" d="M6.89,14.47V11.19H1.06A.09.09,0,0,1,1,11.1v-10A.09.09,0,0,1,1.06,1H14.92a.09.09,0,0,1,.09.09V3.13h.44a.69.69,0,0,1,.54.27V1.06A1.06,1.06,0,0,0,14.92,0H1.06A1.06,1.06,0,0,0,0,1.06v10a1.06,1.06,0,0,0,1.06,1.06H6.2v1.37H5.42a.59.59,0,0,0-.59.59v.45a.59.59,0,0,0,.59.59H7.59A.7.7,0,0,1,6.89,14.47Z"/><path class="cls-1" d="M10.23,14.16H8.43a.09.09,0,0,1-.09-.09V4.67a.09.09,0,0,1,.09-.09H14.9a.09.09,0,0,1,.09.09V7.59h1V4.67a1.1,1.1,0,0,0-1.1-1.1H8.43a1.1,1.1,0,0,0-1.1,1.1v9.4a1.1,1.1,0,0,0,1.1,1.1h1.8Z"/><path class="cls-1" d="M10.89,8.22v7H16v-7Zm3,6.13a.29.29,0,1,1-.22-.35A.29.29,0,0,1,13.85,14.35Zm1.05-1.16H12V9.3H14.9Z"/></g></g></svg>