<svg xmlns="http://www.w3.org/2000/svg" viewBox="0 0 11.43 16"><defs><style>.cls-1{fill:#fff;}</style></defs><title>m90015-100</title><g id="图层_2" data-name="图层 2"><g id="图层_1-2" data-name="图层 1"><path class="cls-1" d="M5.71,0H5.54A5.75,5.75,0,0,0,0,5.73,5.68,5.68,0,0,0,1.58,9.65l.29.3c.74.76,1,1,1,2.05v.57H8.57V12a2.35,2.35,0,0,1,.93-2L10,9.48A5.71,5.71,0,0,0,5.71,0ZM9.15,8.72l-.48.52a3.56,3.56,0,0,0-1.21,2.18H4A3.51,3.51,0,0,0,2.68,9.15L2.4,8.86A4.54,4.54,0,0,1,1.14,5.73,4.6,4.6,0,0,1,5.57,1.14h.14A4.57,4.57,0,0,1,9.15,8.72Zm-6.3,4.42H8.57v1.14H2.86ZM4,14.86H7.43V16H4Zm0,0"/><path class="cls-1" d="M2.29,5.71H3.43A2.29,2.29,0,0,1,5.71,3.43V2.29A3.43,3.43,0,0,0,2.29,5.71Zm0,0"/></g></g></svg>