<svg xmlns="http://www.w3.org/2000/svg" viewBox="0 0 16 15.16"><defs><style>.cls-1{fill:#fff;}</style></defs><title>icon-wet</title><g id="图层_2" data-name="图层 2"><g id="图层_1-2" data-name="图层 1"><path class="cls-1" d="M15.68,4.62a.32.32,0,0,1-.15,0L8,.73.47,4.59A.32.32,0,0,1,.18,4L8,0l7.82,4a.32.32,0,0,1-.15.61Z"/><path class="cls-1" d="M14,15.16H1.84V5.26a.32.32,0,1,1,.65,0v9.26H13.4V5.26a.32.32,0,1,1,.65,0Z"/><path class="cls-1" d="M8.19,2.88l-.25-.42-.25.42C7.56,3.1,4.51,8.19,4.51,10a3.43,3.43,0,0,0,6.86,0C11.37,8.17,8.23,2.93,8.19,2.88Zm-.25,10A2.85,2.85,0,0,1,5.1,10c0-1.35,2.13-5.15,2.84-6.39.71,1.23,2.84,5,2.84,6.39A2.85,2.85,0,0,1,7.94,12.84Z"/><path class="cls-1" d="M9.93,10.86A2.69,2.69,0,0,1,6.31,8.6V8.48l-.06.1A2.21,2.21,0,0,0,10,10.92l.06-.1Z"/></g></g></svg>