<svg xmlns="http://www.w3.org/2000/svg" viewBox="0 0 16 16"><defs><style>.cls-1{fill:#fff;fill-rule:evenodd;}</style></defs><title>icon-fan</title><g id="图层_2" data-name="图层 2"><g id="图层_1-2" data-name="图层 1"><path class="cls-1" d="M4,3.33A3.33,3.33,0,0,0,6.58,6.57h0A2,2,0,0,0,6,8H.07A3.32,3.32,0,0,0,0,8.67H0a3.33,3.33,0,0,0,6.57.75A2,2,0,0,0,8,10v5.94a3.32,3.32,0,0,0,.67.07h0a3.33,3.33,0,0,0,.72-6.58h0A2,2,0,0,0,10,8h6A3.33,3.33,0,0,0,16,7.33h0a3.33,3.33,0,0,0-6.59-.71l0,0A2,2,0,0,0,8,6V.07A3.21,3.21,0,0,0,7.33,0h0A3.33,3.33,0,0,0,4,3.33ZM8.92,8.94a1.33,1.33,0,1,1,0-1.89A1.33,1.33,0,0,1,8.92,8.94Z"/></g></g></svg>