<svg xmlns="http://www.w3.org/2000/svg" viewBox="0 0 13.97 16"><defs><style>.cls-1{fill:#fff;}</style></defs><title>m90015-20</title><g id="图层_2" data-name="图层 2"><g id="图层_1-2" data-name="图层 1"><path class="cls-1" d="M7,16a.43.43,0,0,1-.43-.43V.43a.43.43,0,1,1,.86,0V15.58A.43.43,0,0,1,7,16Z"/><path class="cls-1" d="M13.54,12.22a.48.48,0,0,1-.21-.05L.21,4.59A.42.42,0,0,1,.06,4a.42.42,0,0,1,.58-.15l13.11,7.57a.42.42,0,0,1,.15.58.44.44,0,0,1-.37.21Z"/><path class="cls-1" d="M.43,12.23A.44.44,0,0,1,.06,12a.43.43,0,0,1,.15-.58L13.33,3.86a.42.42,0,0,1,.43.73L.64,12.17a.49.49,0,0,1-.21.06ZM7,5l-2.5-2.5a.42.42,0,0,1,.6-.6L7,3.79,8.88,1.89a.42.42,0,0,1,.6.6ZM.84,7.44a.43.43,0,0,1-.41-.31.42.42,0,0,1,.3-.52l2.59-.7-.7-2.6a.42.42,0,1,1,.82-.21l.91,3.41L.95,7.42Z"/><path class="cls-1" d="M3,13.26l-.11,0a.44.44,0,0,1-.3-.52l.7-2.59L.73,9.43a.42.42,0,0,1,.21-.82l3.41.91-.91,3.41a.43.43,0,0,1-.41.32Zm6.15,1a.46.46,0,0,1-.3-.13L7,12.24l-1.89,1.9a.42.42,0,1,1-.6-.6L7,11l2.5,2.51a.42.42,0,0,1,0,.6.45.45,0,0,1-.31.13Zm1.75-1a.43.43,0,0,1-.41-.31L9.62,9.53,13,8.62a.42.42,0,1,1,.21.82l-2.59.7.7,2.59a.42.42,0,0,1-.3.52h-.11Zm2.2-5.82-.11,0L9.62,6.51l.91-3.42a.42.42,0,0,1,.82.21l-.7,2.6,2.59.7a.44.44,0,0,1,.3.52A.43.43,0,0,1,13.14,7.44Z"/></g></g></svg>