<svg xmlns="http://www.w3.org/2000/svg" viewBox="0 0 16 15.63"><defs><style>.cls-1{fill:#2196f3;}</style></defs><title>2</title><g id="图层_2" data-name="图层 2"><g id="图层_1-2" data-name="图层 1"><path class="cls-1" d="M15.8,10.1l-4-2.45c-.16.24-.32.48-.5.71l3.39,2.1-7,4.22L4.82,12.75l2.64-1.83-.62-.62L4.05,12.23,1.23,10.33,5,8c-.17-.24-.32-.48-.47-.72L.21,9.95a.43.43,0,0,0,0,.73l7.26,4.88a.43.43,0,0,0,.46,0l7.87-4.72a.43.43,0,0,0,0-.74Z"/><path class="cls-1" d="M8.28,0A4.73,4.73,0,0,0,3.55,4.73c0,2.61,4.46,6.86,4.73,6.86S13,7.34,13,4.73A4.73,4.73,0,0,0,8.28,0Zm0,6.86a2.21,2.21,0,1,1,2.21-2.21A2.21,2.21,0,0,1,8.28,6.86Z"/></g></g></svg>