<svg xmlns="http://www.w3.org/2000/svg" viewBox="0 0 9.62 16"><defs><style>.cls-1{fill:#2196f3;}</style></defs><title>icon-lp4</title><g id="图层_2" data-name="图层 2"><g id="图层_1-2" data-name="图层 1"><path class="cls-1" d="M9.44,8a1.12,1.12,0,0,0-.79-.18c.79-1.17,1.16-3.12.73-3.54s-1.53-.17-2.51.2A2.81,2.81,0,0,0,7,3.65C7,1.54,5.47,0,4.81,0s-2.2,1.65-2.2,3.65a2.82,2.82,0,0,0,.13.84C1.76,4.12.57,4,.23,4.29S0,5.34.19,6A5.59,5.59,0,0,0,1,7.83,1.11,1.11,0,0,0,.18,8C-.1,8.29,0,9.12.16,9.8A4.91,4.91,0,0,0,1.29,12a3.53,3.53,0,0,0,1.31.79v2h.93V13.07a3.81,3.81,0,0,0,.81,0V16h.93V13.1a3.79,3.79,0,0,0,.81,0v1.78H7v-2A3.53,3.53,0,0,0,8.33,12,4.91,4.91,0,0,0,9.47,9.8C9.63,9.12,9.72,8.29,9.44,8ZM5.27,11.85v-.51a3.22,3.22,0,0,1,.8-1.55A4.57,4.57,0,0,1,8.78,8.67a4.56,4.56,0,0,1-1.12,2.71,3.24,3.24,0,0,1-2.39.84V12C5.28,12,5.28,11.9,5.27,11.85ZM7.63,7.63a3.17,3.17,0,0,1-2.37.83,3.53,3.53,0,0,0,0-.74,3.25,3.25,0,0,1,.81-1.67,4.4,4.4,0,0,1,2.68-1.1A4.53,4.53,0,0,1,7.63,7.63ZM4.81,5.8A2.6,2.6,0,0,1,3.54,3.65,3.32,3.32,0,0,1,4.81.92,3.44,3.44,0,0,1,6.09,3.65,2.68,2.68,0,0,1,4.81,5.8ZM4.39,8.44A3.07,3.07,0,0,1,2,7.63,4.53,4.53,0,0,1,.89,4.95a4.51,4.51,0,0,1,2.68,1.1A3,3,0,0,1,4.39,8.44Zm.85.88a3.38,3.38,0,0,0-.42.65,3.38,3.38,0,0,0-.42-.65,1.62,1.62,0,0,0,.42-.09A1.62,1.62,0,0,0,5.23,9.33Zm-.89,2v.89A3.23,3.23,0,0,1,2,11.38,4.55,4.55,0,0,1,.84,8.67,4.57,4.57,0,0,1,3.55,9.79,3.22,3.22,0,0,1,4.35,11.34Z"/></g></g></svg>