<svg xmlns="http://www.w3.org/2000/svg" viewBox="0 0 16 5.99"><defs><style>.cls-1{fill:#fff;}</style></defs><title>icon-barnline</title><g id="图层_2" data-name="图层 2"><g id="图层_1-2" data-name="图层 1"><polygon class="cls-1" points="15.79 5.99 15.77 2.62 15.84 2.54 13.82 0.78 10.97 0.43 10.98 0.4 13.84 0.75 13.84 0.75 15.89 2.53 15.8 2.63 15.82 5.99 15.79 5.99"/><path class="cls-1" d="M.08,3.28,0,3.15H0L11,0l2.92.49h0L16,2.5l-.06.1L13.82.78,11,.43Zm0-.1,0,.07L11,.4h0l2.86.35,2.1,1.81,0-.05-2.11-2L11,0Z"/><rect class="cls-1" x="10.96" y="0.42" width="0.03" height="5.57"/><rect class="cls-1" x="-1.16" y="4.59" width="2.76" height="0.03" transform="translate(-4.38 4.8) rotate(-89.7)"/></g></g></svg>