<svg xmlns="http://www.w3.org/2000/svg" viewBox="0 0 16 14.75"><defs><style>.cls-1{fill:#2196f3;}</style></defs><title>icon-lp2</title><g id="图层_2" data-name="图层 2"><g id="图层_1-2" data-name="图层 1"><path class="cls-1" d="M2.42,14.75H.84A.84.84,0,0,1,0,13.91V10.32a.84.84,0,0,1,.84-.84H2.42a.84.84,0,0,1,.84.84v3.59A.84.84,0,0,1,2.42,14.75ZM1,13.77H2.28v-3.3H1Z"/><path class="cls-1" d="M6.7,14.75H5.12a.84.84,0,0,1-.84-.84V7.51a.84.84,0,0,1,.84-.84H6.7a.84.84,0,0,1,.84.84v6.4A.84.84,0,0,1,6.7,14.75Zm-1.44-1H6.56V7.66H5.27Z"/><path class="cls-1" d="M10.84,14.75H9.26a.84.84,0,0,1-.84-.84V9.34a.84.84,0,0,1,.84-.84h1.58a.84.84,0,0,1,.84.84v4.57A.84.84,0,0,1,10.84,14.75Zm-1.44-1H10.7V9.49H9.4Z"/><path class="cls-1" d="M15.16,14.75H13.58a.84.84,0,0,1-.84-.84V6.41a.84.84,0,0,1,.84-.84h1.58a.84.84,0,0,1,.84.84v7.5A.84.84,0,0,1,15.16,14.75Zm-1.44-1H15V6.56H13.72Z"/><polygon class="cls-1" points="0.81 8.92 0.17 8.17 5.88 3.33 9.65 5.94 14 1.09 14.73 1.75 9.8 7.24 5.94 4.57 0.81 8.92"/><polygon class="cls-1" points="12.86 0.08 15.77 0 15.7 2.94 12.86 0.08"/></g></g></svg>