<svg xmlns="http://www.w3.org/2000/svg" viewBox="0 0 14.14 16"><defs><style>.cls-1{fill:#fff;}</style></defs><title>m90015-120</title><g id="图层_2" data-name="图层 2"><g id="图层_1-2" data-name="图层 1"><path class="cls-1" d="M7.07,0a17.89,17.89,0,0,1,4.79.58c1.41.41,2.28,1,2.28,1.82s-.87,1.41-2.28,1.82a17.89,17.89,0,0,1-4.79.58,17.88,17.88,0,0,1-4.79-.58C.87,3.81,0,3.17,0,2.4S.87,1,2.28.58A17.82,17.82,0,0,1,7.07,0Zm4.52,1.51A16.93,16.93,0,0,0,7.07,1a16.93,16.93,0,0,0-4.52.54c-1,.28-1.58.6-1.58.89s.6.61,1.58.89a16.93,16.93,0,0,0,4.52.54,16.93,16.93,0,0,0,4.52-.54c1-.28,1.58-.6,1.58-.89s-.6-.6-1.58-.89Zm0,0"/><path class="cls-1" d="M0,2.34a.49.49,0,0,1,1,0V13.6a.49.49,0,0,1-1,0Zm13.17,0a.49.49,0,0,1,1,0V13.6a.49.49,0,0,1-1,0Zm0,0"/><path class="cls-1" d="M7.4,10.72A2.47,2.47,0,0,1,4.92,13.2a2.42,2.42,0,0,1-2.48-2.48c0-1.42,2.48-4.25,2.48-4.25S7.4,9.37,7.4,10.72Zm0,0"/><path class="cls-1" d="M13.16,12.31V13.6c0,.29-.6.6-1.58.89A16.93,16.93,0,0,1,7.07,15a16.93,16.93,0,0,1-4.52-.54c-1-.28-1.58-.6-1.58-.89H1V12.31A1.59,1.59,0,0,0,0,13.6c0,.77.87,1.41,2.28,1.82A17.89,17.89,0,0,0,7.07,16a17.9,17.9,0,0,0,4.79-.58c1.41-.41,2.28-1,2.28-1.82A1.6,1.6,0,0,0,13.16,12.31Z"/><rect class="cls-1" x="9.16" y="6.86" width="4.74" height="1.09" rx="0.54" ry="0.54"/><rect class="cls-1" x="9.16" y="9.29" width="4.74" height="1.09" rx="0.54" ry="0.54"/><rect class="cls-1" x="9.16" y="11.72" width="4.74" height="1.09" rx="0.54" ry="0.54"/></g></g></svg>