<svg xmlns="http://www.w3.org/2000/svg" viewBox="0 0 9.04 16"><defs><style>.cls-1{fill:#fff;}</style></defs><title>m90015-60</title><g id="图层_2" data-name="图层 2"><g id="图层_1-2" data-name="图层 1"><path class="cls-1" d="M0,8a4.52,4.52,0,0,0,2.33,4,.46.46,0,0,0,0,.1v2.32a.46.46,0,0,0,.93,0v-2a4.48,4.48,0,0,0,.81.16v3a.46.46,0,0,0,.93,0v-3a4.49,4.49,0,0,0,.81-.16v2a.46.46,0,1,0,.93,0V12.06a.46.46,0,0,0,0-.1A4.52,4.52,0,0,0,9,8a.46.46,0,0,0-.46-.46,4.54,4.54,0,0,0-.75.06A4.5,4.5,0,0,0,9,4.52a.46.46,0,0,0-.46-.46A4.5,4.5,0,0,0,5.87,5a4.53,4.53,0,0,0-1-4.83.46.46,0,0,0-.66,0A4.53,4.53,0,0,0,3.17,5a4.5,4.5,0,0,0-2.71-.9A.46.46,0,0,0,0,4.52,4.5,4.5,0,0,0,1.21,7.6a4.53,4.53,0,0,0-.75-.06A.46.46,0,0,0,0,8ZM4.52,9h0A4.53,4.53,0,0,0,5.27,9a4.54,4.54,0,0,0-.75,1.08A4.54,4.54,0,0,0,3.77,9,4.5,4.5,0,0,0,4.52,9ZM5,11.56A3.6,3.6,0,0,1,8.08,8.5,3.6,3.6,0,0,1,5,11.56ZM8.08,5A3.6,3.6,0,0,1,5,8.08,3.6,3.6,0,0,1,8.08,5ZM4.52,1.17a3.6,3.6,0,0,1,0,4.33,3.6,3.6,0,0,1,0-4.33ZM4,8.08A3.6,3.6,0,0,1,1,5,3.6,3.6,0,0,1,4,8.08Zm0,3.48A3.6,3.6,0,0,1,1,8.5,3.6,3.6,0,0,1,4,11.56Z"/></g></g></svg>