<svg xmlns="http://www.w3.org/2000/svg" viewBox="0 0 11.28 16"><defs><style>.cls-1{fill:#fff;}</style></defs><title>m90015-70</title><g id="图层_2" data-name="图层 2"><g id="图层_1-2" data-name="图层 1"><path class="cls-1" d="M9.59,4.52V3.6H10a.5.5,0,0,0,0-1H7.42l-.3-1H8.2c.14,0,.19-.18.19-.32V.18C8.39,0,8.34,0,8.2,0H3.31C3.17,0,3,0,3,.18v1.1a.37.37,0,0,0,.31.32h1L4,2.6H1.16a.5.5,0,0,0,0,1H1.7v.92A3.75,3.75,0,0,0,0,7.63v6.64A1.81,1.81,0,0,0,1.77,16H9.63a1.71,1.71,0,0,0,1.66-1.74V7.63A3.53,3.53,0,0,0,9.59,4.52Zm-.9-.92v.5A2.65,2.65,0,0,0,7.85,4h0l-.12-.4Zm-3-1.7h.05L6,2.6H5.5ZM5,4.38l.23-.78H6.26l.23.78s0,0,0,.13H4.93C4.95,4.4,5,4.42,5,4.38ZM2.61,3.6H3.76L3.64,4H3.55a3.3,3.3,0,0,0-.94.09ZM.94,7.37A2.5,2.5,0,0,1,3.29,4.92H8.16a2.47,2.47,0,0,1,2.19,2.45v3.29H.94Zm9.4,6.85a.85.85,0,0,1-.85.85H1.79a.85.85,0,0,1-.85-.85V11.69h9.4Z"/></g></g></svg>