<svg xmlns="http://www.w3.org/2000/svg" viewBox="0 0 16 15.93"><defs><style>.cls-1{fill:#fff;}</style></defs><title>m90015-90</title><g id="图层_2" data-name="图层 2"><g id="图层_1-2" data-name="图层 1"><path class="cls-1" d="M10.56,2.39l-.4.93,2.66-.86L11.55,0l-.4,1a7.62,7.62,0,0,0-8,1.26l1,1.13a6.06,6.06,0,0,1,6.44-1M5.38,13.54l.4-.93-2.66.86,1.26,2.46.4-1a7.62,7.62,0,0,0,8-1.26l-1-1.13a6.06,6.06,0,0,1-6.44,1m-3-8.17.93.4L2.46,3.12,0,4.32l1,.4a7.62,7.62,0,0,0,1.26,8l1.13-1a6,6,0,0,1-1-6.37m12.55,5.78a7.62,7.62,0,0,0-1.26-8l-1.13,1a6.08,6.08,0,0,1,1,6.44l-.93-.4.86,2.66L16,11.55l-1.06-.4"/></g></g></svg>