<?xml version="1.0" encoding="UTF-8"?>
<svg width="203px" height="30px" viewBox="0 0 203 30" version="1.1" xmlns="http://www.w3.org/2000/svg" xmlns:xlink="http://www.w3.org/1999/xlink">
    <!-- Generator: Sketch 49 (51002) - http://www.bohemiancoding.com/sketch -->
    <title>资源 2</title>
    <desc>Created with Sketch.</desc>
    <defs></defs>
    <g id="Page-1" stroke="none" stroke-width="1" fill="none" fill-rule="evenodd">
        <g id="资源-2" fill-rule="nonzero">
            <polygon id="Shape" fill="#FFFFFF" points="144.137148 5.61428571 141.177923 5.61428571 141.478134 7.18571429 136.946373 7.18571429 137.461021 4.55714286 134.501796 4.55714286 133.944261 7.4 133.937113 9.17857143 133.937113 9.25 144.487394 9.25 144.480246 7.38571429"></polygon>
            <path d="M142.671831,10.3571429 L133.944261,10.3571429 L133.944261,25.3928571 L135.09507,25.3928571 C136.094985,25.384997 136.900306,24.5706621 136.896338,23.5714286 L136.896338,20.1428571 L140.727606,20.1428571 L140.727606,18.0857143 L136.896338,18.0857143 L136.896338,16.3 L140.727606,16.3 L140.727606,14.2857143 L136.896338,14.2857143 L136.896338,12.4142857 L141.528169,12.4142857 L141.528169,25.3928571 L144.480246,25.3928571 L144.480246,12.1428571 C144.464681,11.1548042 143.660695,10.3609109 142.671831,10.3571429 Z" id="Shape" fill="#FFFFFF"></path>
            <path d="M148.268627,10.4714286 L153.643838,8.50714286 L153.693873,8.50714286 L153.693873,5.89285714 L148.268627,7.85714286 L148.268627,4.55714286 L145.316549,4.55714286 L145.316549,12.7285714 C145.316549,13.2097499 145.507831,13.6712206 145.848315,14.0114652 C146.1888,14.3517097 146.650595,14.5428571 147.132113,14.5428571 L154.51588,14.5428571 L154.51588,12.4785714 L148.268627,12.4785714 L148.268627,10.4714286 Z" id="Shape" fill="#FFFFFF"></path>
            <path d="M148.268627,21.3214286 L153.643838,19.3571429 L153.693873,19.3571429 L153.693873,16.75 L148.275775,18.7357143 L148.275775,15.4142857 L145.316549,15.4142857 L145.316549,23.5714286 C145.316549,24.5734309 146.129405,25.3857143 147.132113,25.3857143 L154.51588,25.3857143 L154.51588,23.3285714 L148.268627,23.3285714 L148.268627,21.3214286 Z" id="Shape" fill="#FFFFFF"></path>
            <path d="M191.348944,8.88571429 L188.160986,8.88571429 L187.846479,10.1 L186.466937,10.1 L186.466937,12.1428571 L187.274648,12.1428571 L186.445493,15 L186.445493,16.8857143 L193.193099,16.8857143 L193.193099,19.1285714 L186.445493,19.1285714 L186.445493,21.1928571 L193.193099,21.1928571 L193.193099,25.3428571 L194.329613,25.3428571 C195.32413,25.3548716 196.143198,24.5650434 196.16662,23.5714286 L196.16662,21.2428571 L202.556831,21.2428571 L202.556831,19.1857143 L196.16662,19.1857143 L196.16662,16.9357143 L202.556831,16.9357143 L202.556831,14.8714286 L196.16662,14.8714286 L196.16662,12.9785714 L195.030106,12.9785714 C194.027398,12.9785714 193.214542,13.7908548 193.214542,14.7928571 L193.214542,14.8785714 L189.719225,14.8785714 L190.498345,12.1428571 L202.556831,12.1428571 L202.556831,10.1 L191.034437,10.1 L191.348944,8.88571429 Z" id="Shape" fill="#FFFFFF"></path>
            <path d="M194.200951,6.42857143 L193.607676,4.59285714 L193.607676,4.54285714 L190.627007,4.54285714 L191.220282,6.42857143 L182.228239,6.42857143 L182.228239,25.3928571 L182.478415,25.3928571 C183.969004,25.3889321 185.176389,24.1823971 185.180317,22.6928571 L185.180317,8.50714286 L202.549683,8.50714286 L202.549683,6.42857143 L194.200951,6.42857143 Z" id="Shape" fill="#FFFFFF"></path>
            <polygon id="Shape" fill="#FFFFFF" points="157.918275 24.0857143 157.911127 24.1642857 159.698099 24.1642857 160.755986 16.1857143 158.990458 16.0285714"></polygon>
            <polygon id="Shape" fill="#FFFFFF" points="166.152641 16.0285714 164.387113 16.1857143 165.437852 24.1071429 165.445 24.1642857 167.23912 24.1642857 166.166937 16.1"></polygon>
            <polygon id="Shape" fill="#FFFFFF" points="160.755986 11.7071429 160.169859 5.82142857 158.390035 5.82142857 158.990458 11.8642857"></polygon>
            <polygon id="Shape" fill="#FFFFFF" points="166.753063 5.82142857 164.980387 5.82142857 164.401408 11.6428571 164.394261 11.7071429 166.159789 11.8642857"></polygon>
            <path d="M164.051162,5.59285714 C164.047266,5.02641329 163.588709,4.56817894 163.021866,4.56428571 L161.099085,4.56428571 L161.099085,12.9357143 L157.746725,12.9357143 L157.746725,15 L161.099085,15 L161.099085,24.3571429 C161.099071,24.9263742 161.558762,25.3889314 162.12838,25.3928571 L164.051162,25.3928571 L164.051162,15 L167.403521,15 L167.403521,12.9357143 L164.051162,12.9357143 L164.051162,5.59285714 Z" id="Shape" fill="#FFFFFF"></path>
            <path d="M176.774401,6.42857143 L174.694366,6.42857143 L174.079648,4.54285714 L171.098979,4.54285714 L171.713697,6.42857143 L167.782359,6.42857143 L167.782359,23.5714286 C167.782359,24.5734309 168.595215,25.3857143 169.597923,25.3857143 L172.049648,25.3857143 L172.049648,23.3285714 L170.734437,23.3285714 L170.734437,16.95 L171.549296,16.95 L174.565704,25.2285714 L174.565704,25.3928571 L178.575669,25.3928571 L178.575669,23.3285714 L177.310493,23.3285714 L176.552817,20.8857143 L178.53993,20.1714286 L178.589965,20.1714286 L178.589965,17.4428571 L175.516373,18.5714286 L174.915951,16.9428571 L178.589965,16.9428571 L178.589965,8.25714286 C178.593776,7.77349394 178.404178,7.30834476 178.063279,6.96500419 C177.722381,6.62166362 177.258406,6.42855643 176.774401,6.42857143 Z M170.734437,12.7142857 L174.844472,12.7142857 L174.844472,10.6642857 L170.734437,10.6642857 L170.734437,8.52142857 L175.630739,8.52142857 L175.630739,14.9 L170.734437,14.9 L170.734437,12.7142857 Z" id="Shape" fill="#FFFFFF"></path>
            <polygon id="Shape" fill="#FFFFFF" points="109.634296 12.1428571 109.634296 14.2071429 113.644261 14.2071429 115.602782 11.6571429 117.532711 14.1785714 117.554155 14.2071429 120.877923 14.2071429 118.762148 11.45 118.740704 11.4214286 115.781479 11.4214286 116.367606 10.6571429 120.291796 10.6571429 120.291796 8.59285714 116.424789 8.59285714 116.424789 7.55714286 119.841479 7.55714286 119.841479 5.49285714 113.043838 5.49285714 113.251127 4.55714286 110.270458 4.55714286 109.569965 7.47142857 109.548521 7.55714286 113.472711 7.55714286 113.472711 8.59285714 109.612852 8.59285714 109.612852 10.6571429 113.043838 10.6571429 111.907324 12.1428571"></polygon>
            <path d="M128.661972,5.49285714 L121.199577,5.49285714 L121.199577,12.3928571 C121.199577,13.3948595 122.012433,14.2071429 123.015141,14.2071429 L130.463239,14.2071429 L130.463239,7.30714286 C130.46327,6.31069303 129.659092,5.5007032 128.661972,5.49285714 Z M127.525458,7.55714286 L127.525458,12.1428571 L124.165951,12.1428571 L124.165951,7.55714286 L127.525458,7.55714286 Z" id="Shape" fill="#FFFFFF"></path>
            <path d="M127.768486,15.1642857 L110.670739,15.1642716 L110.670739,23.5714286 C110.670739,24.5734309 111.483595,25.3857143 112.486303,25.3857143 L129.591197,25.3857143 L129.591197,16.9785714 C129.591201,16.4961528 129.398938,16.0335963 129.056906,15.6931457 C128.714875,15.3526951 128.251241,15.1623864 127.768486,15.1642857 Z M113.651408,19.0357143 L113.651408,17.2285714 L126.660563,17.2285714 L126.660563,23.3285714 L113.651408,23.3285714 L113.651408,21.1 L125.631268,21.1 L125.631268,19.0357143 L113.651408,19.0357143 Z" id="Shape" fill="#FFFFFF"></path>
            <path d="M79.3415493,2.45714286 C79.3415493,2.45714286 79.5416901,1.85714286 80.056338,2.12142857 C80.5709859,2.38571429 82.7796831,4.00714286 82.2435915,6.47142857 C82.1653394,6.85393071 81.8993473,7.17121235 81.5362061,7.31521461 C81.1730649,7.45921686 80.7617417,7.41052196 80.4423239,7.18571429 C79.7275352,6.67857143 78.6196127,5.32142857 78.5838732,4.32857143 C78.6267606,3.76428571 78.8126056,3.61428571 78.8126056,3.61428571 C79.0337524,3.25065141 79.2112889,2.86226393 79.3415493,2.45714286 Z" id="Shape" fill="#FFBC15"></path>
            <path d="M85.2671479,3.30714286 C85.2671479,3.30714286 85.6459859,3.2 85.6888732,3.56428571 C85.7317606,3.92857143 85.6888732,5.62857143 84.1949648,6.20714286 C83.9647167,6.30555322 83.6997225,6.27637611 83.496439,6.13023189 C83.2931554,5.98408767 83.181232,5.74229184 83.2014085,5.49285714 C83.244223,4.77514301 83.5376464,4.09518309 84.0305634,3.57142857 C84.3379225,3.39285714 84.4665845,3.45 84.4665845,3.45 C84.7382188,3.43474216 85.0070173,3.38677622 85.2671479,3.30714286 Z" id="Shape" fill="#FFBC15"></path>
            <path d="M2.81626761,20.1857143 C1.46967611,18.8453679 0.712721648,17.0242856 0.712721648,15.125 C0.712721648,13.2257144 1.46967611,11.4046321 2.81626761,10.0642857 C4.15581202,8.73152251 5.9724366,7.98841339 7.86267606,8 C9.12360262,7.99862411 10.3367408,8.48200334 11.2507746,9.35 L11.4008803,9.47142857 L11.4008803,0 L15.0105634,0 L15.0105634,21.9857143 L11.4366197,21.9857143 L11.4366197,20.9071429 L11.2865141,21.0571429 C10.3620045,21.9151019 9.12057386,22.3476134 7.86267606,22.25 C5.97457158,22.2506496 4.1619643,21.5091838 2.81626761,20.1857143 Z M4.34591549,15.1214286 C4.34118428,17.0831545 5.90042215,18.6919663 7.86267606,18.75 C9.80354438,18.6638849 11.3327373,17.0664133 11.3327373,15.125 C11.3327373,13.1835867 9.80354438,11.5861151 7.86267606,11.5 C5.9036464,11.561556 4.34550075,13.1628216 4.33876761,15.1214286 L4.34591549,15.1214286 Z" id="Shape" fill="#FFBC15"></path>
            <path d="M19.856831,20.2142857 C18.5259201,18.8506062 17.7731089,17.0261958 17.7553521,15.1214286 C17.7543487,13.2044975 18.5093955,11.3644038 19.856831,10 C21.2238198,8.67801969 23.050974,7.93794117 24.9532746,7.93571429 C26.8526265,7.90946237 28.6813725,8.65436457 30.0211268,10 C32.0839611,12.0518261 32.705617,15.1439403 31.5958575,17.832705 C30.486098,20.5214696 27.8638078,22.2765628 24.9532746,22.2785714 C23.0521388,22.2704176 21.2271134,21.5312013 19.856831,20.2142857 Z M21.2864085,15.1214286 C21.3257524,17.1411911 22.9905669,18.7497369 25.0119306,18.7210328 C27.0332943,18.6923286 28.6516974,17.0371598 28.6335934,15.0170956 C28.6154894,12.9970315 26.9676807,11.3710936 24.9461268,11.3785714 C22.9056577,11.4099084 21.2736554,13.0822516 21.2935563,15.1214286 L21.2864085,15.1214286 Z" id="Shape" fill="#FFBC15"></path>
            <path d="M37.2119014,28.8714286 C36.7326647,28.5865769 36.2887993,28.24612 35.8895423,27.8571429 L35.4106338,27.3785714 L38.1053873,25.0142857 L38.4985211,25.3428571 C39.274582,25.9356501 40.195042,26.3104798 41.1646831,26.4285714 C43.2464667,26.3589699 44.8943643,24.6457292 44.8815845,22.5642857 L44.8815845,20.8428571 L44.7314789,20.9928571 C43.8953592,21.8149366 42.75878,22.2589231 41.5864085,22.2214286 L41.0789085,22.2214286 C39.2762584,22.1911143 37.5561521,21.4610318 36.2826761,20.1857143 C34.2423053,18.1403934 33.6352163,15.0685133 34.7443269,12.401643 C35.8534374,9.7347727 38.4604868,7.99772287 41.3505282,8 C42.6102164,7.92198301 43.8423925,8.39055725 44.7314789,9.28571429 L44.8815845,9.40714286 L44.8815845,8.26428571 L48.5055634,8.26428571 L48.5055634,22.6142857 C48.5153574,24.5666478 47.724993,26.4379254 46.3183099,27.7928571 C44.9692589,29.1861997 43.1046344,29.961503 41.1646831,29.9357143 C39.7731397,29.9595581 38.4030869,29.5906717 37.2119014,28.8714286 Z M37.8123239,15.1214286 C37.8596287,17.0866428 39.4872978,18.6441896 41.4540996,18.6063114 C43.4209015,18.5684332 44.9873068,16.9493723 44.9588026,14.983796 C44.9302984,13.0182197 43.3176025,11.4451963 41.3505282,11.4642857 C39.3686616,11.511072 37.7922205,13.140506 37.8123239,15.1214286 Z" id="Shape" fill="#FFFFFF"></path>
            <path d="M52.1795775,21.9857143 L52.1795775,8.26428571 L55.953662,8.26428571 L55.953662,9.37142857 C56.988294,8.43977815 58.3350896,7.92998731 59.7277465,7.94285714 L60.6283803,7.94285714 L59.7277465,11.6857143 L59.1559155,11.6857143 C57.4362679,11.6455715 56.0048189,12.9963672 55.9465141,14.7142857 L55.9465141,21.9857143 L52.1795775,21.9857143 Z" id="Shape" fill="#FFFFFF"></path>
            <path d="M63.6733803,20.1857143 C62.3267888,18.8453679 61.5698343,17.0242856 61.5698343,15.125 C61.5698343,13.2257144 62.3267888,11.4046321 63.6733803,10.0642857 C65.0181665,8.72622035 66.8435783,7.98267624 68.7412324,8 C70.002159,7.99862411 71.2152971,8.48200334 72.129331,9.35 L72.2794366,9.47142857 L72.2794366,8.26428571 L75.9034155,8.26428571 L75.9034155,21.9785714 L72.2794366,21.9785714 L72.2794366,20.9071429 L72.129331,21.0571429 C71.2146994,21.9082633 69.988087,22.3427061 68.7412324,22.2571429 C66.844689,22.2615305 65.0232049,21.517019 63.6733803,20.1857143 Z M65.2030282,15.1214286 C65.2501265,17.0622944 66.8544794,18.6021605 68.7970323,18.5709722 C70.7395852,18.5397838 72.2936069,16.9492089 72.2782868,15.0078329 C72.2629666,13.0664568 70.6840359,11.5005706 68.7412324,11.5 C66.7733396,11.5465575 65.2024767,13.1543697 65.2030282,15.1214286 Z" id="Shape" fill="#FFFFFF"></path>
            <path d="M97.9260563,21.9857143 L97.9260563,14.6428571 C97.9261738,13.8763526 97.6180836,13.1419458 97.0710172,12.6046668 C96.5239509,12.0673879 95.7837931,11.7723004 95.0168662,11.7857143 C93.4326226,11.7930729 92.1425204,13.0600943 92.1076761,14.6428571 L92.1076761,21.9857143 L88.3621831,21.9857143 L88.3621831,8.26428571 L92.1076761,8.26428571 L92.1076761,9.28571429 C92.8599768,8.48021357 93.9142845,8.02461757 95.0168662,8.02857143 C96.7908198,8.00741446 98.4987054,8.70031225 99.7558555,9.95120333 C101.013006,11.2020944 101.713707,12.9057918 101.700141,14.6785714 L101.700141,21.9857143 L97.9260563,21.9857143 Z" id="Shape" fill="#FFFFFF"></path>
            <rect id="Rectangle-path" fill="#FFBC15" x="80.2278873" y="8.26428571" width="3.89559859" height="13.7142857"></rect>
        </g>
    </g>
</svg>