<?xml version="1.0" encoding="UTF-8"?>
<svg width="283px" height="42px" viewBox="0 0 283 42" version="1.1" xmlns="http://www.w3.org/2000/svg" xmlns:xlink="http://www.w3.org/1999/xlink">
    <!-- Generator: Sketch 51.2 (57519) - http://www.bohemiancoding.com/sketch -->
    <title>logo_huanglan</title>
    <desc>Created with Sketch.</desc>
    <defs></defs>
    <g id="Page-1" stroke="none" stroke-width="1" fill="none" fill-rule="evenodd">
        <g id="logo_huanglan" transform="translate(-1.000000, 0.000000)" fill-rule="nonzero">
            <polygon id="Shape" fill="#2196f3" points="201.65 7.86 197.51 7.86 197.93 10.06 191.59 10.06 192.31 6.38 188.17 6.38 187.39 10.36 187.38 12.85 187.38 12.95 202.14 12.95 202.13 10.34"></polygon>
            <path d="M199.6,14.5 L187.39,14.5 L187.39,35.55 L189,35.55 C190.398895,35.5389958 191.525551,34.398927 191.52,33 L191.52,28.2 L196.88,28.2 L196.88,25.32 L191.52,25.32 L191.52,22.82 L196.88,22.82 L196.88,20 L191.52,20 L191.52,17.38 L198,17.38 L198,35.55 L202.13,35.55 L202.13,17 C202.108224,15.6167259 200.983435,14.5052752 199.6,14.5 Z" id="Shape" fill="#2196f3"></path>
            <path d="M207.43,14.66 L214.95,11.91 L215.02,11.91 L215.02,8.25 L207.43,11 L207.43,6.38 L203.3,6.38 L203.3,17.82 C203.3,18.4936499 203.567606,19.1397088 204.043949,19.6160512 C204.520291,20.0923936 205.16635,20.36 205.84,20.36 L216.17,20.36 L216.17,17.47 L207.43,17.47 L207.43,14.66 Z" id="Shape" fill="#2196f3"></path>
            <path d="M207.43,29.85 L214.95,27.1 L215.02,27.1 L215.02,23.45 L207.44,26.23 L207.44,21.58 L203.3,21.58 L203.3,33 C203.3,34.4028033 204.437197,35.54 205.84,35.54 L216.17,35.54 L216.17,32.66 L207.43,32.66 L207.43,29.85 Z" id="Shape" fill="#2196f3"></path>
            <path d="M267.7,12.44 L263.24,12.44 L262.8,14.14 L260.87,14.14 L260.87,17 L262,17 L260.84,21 L260.84,23.64 L270.28,23.64 L270.28,26.78 L260.84,26.78 L260.84,29.67 L270.28,29.67 L270.28,35.48 L271.87,35.48 C273.261345,35.4968203 274.407233,34.3910608 274.44,33 L274.44,29.74 L283.38,29.74 L283.38,26.86 L274.44,26.86 L274.44,23.71 L283.38,23.71 L283.38,20.82 L274.44,20.82 L274.44,18.17 L272.85,18.17 C271.447197,18.17 270.31,19.3071967 270.31,20.71 L270.31,20.83 L265.42,20.83 L266.51,17 L283.38,17 L283.38,14.14 L267.26,14.14 L267.7,12.44 Z" id="Shape" fill="#2196f3"></path>
            <path d="M271.69,9 L270.86,6.43 L270.86,6.36 L266.69,6.36 L267.52,9 L254.94,9 L254.94,35.55 L255.29,35.55 C257.375356,35.544505 259.064505,33.855356 259.07,31.77 L259.07,11.91 L283.37,11.91 L283.37,9 L271.69,9 Z" id="Shape" fill="#2196f3"></path>
            <polygon id="Shape" fill="#2196f3" points="220.93 33.72 220.92 33.83 223.42 33.83 224.9 22.66 222.43 22.44"></polygon>
            <polygon id="Shape" fill="#2196f3" points="232.45 22.44 229.98 22.66 231.45 33.75 231.46 33.83 233.97 33.83 232.47 22.54"></polygon>
            <polygon id="Shape" fill="#2196f3" points="224.9 16.39 224.08 8.15 221.59 8.15 222.43 16.61"></polygon>
            <polygon id="Shape" fill="#2196f3" points="233.29 8.15 230.81 8.15 230 16.3 229.99 16.39 232.46 16.61"></polygon>
            <path d="M229.51,7.83 C229.504549,7.03697861 228.863021,6.39545051 228.07,6.39 L225.38,6.39 L225.38,18.11 L220.69,18.11 L220.69,21 L225.38,21 L225.38,34.1 C225.379981,34.8969238 226.023095,35.544504 226.82,35.55 L229.51,35.55 L229.51,21 L234.2,21 L234.2,18.11 L229.51,18.11 L229.51,7.83 Z" id="Shape" fill="#2196f3"></path>
            <path d="M247.31,9 L244.4,9 L243.54,6.36 L239.37,6.36 L240.23,9 L234.73,9 L234.73,33 C234.73,34.4028033 235.867197,35.54 237.27,35.54 L240.7,35.54 L240.7,32.66 L238.86,32.66 L238.86,23.73 L240,23.73 L244.22,35.32 L244.22,35.55 L249.83,35.55 L249.83,32.66 L248.06,32.66 L247,29.24 L249.78,28.24 L249.85,28.24 L249.85,24.42 L245.55,26 L244.71,23.72 L249.85,23.72 L249.85,11.56 C249.855332,10.8828915 249.590081,10.2316827 249.113159,9.75100587 C248.636238,9.27032907 247.987129,8.99997901 247.31,9 Z M238.86,17.8 L244.61,17.8 L244.61,14.93 L238.86,14.93 L238.86,11.93 L245.71,11.93 L245.71,20.86 L238.86,20.86 L238.86,17.8 Z" id="Shape" fill="#2196f3"></path>
            <polygon id="Shape" fill="#2196f3" points="153.38 17 153.38 19.89 158.99 19.89 161.73 16.32 164.43 19.85 164.46 19.89 169.11 19.89 166.15 16.03 166.12 15.99 161.98 15.99 162.8 14.92 168.29 14.92 168.29 12.03 162.88 12.03 162.88 10.58 167.66 10.58 167.66 7.69 158.15 7.69 158.44 6.38 154.27 6.38 153.29 10.46 153.26 10.58 158.75 10.58 158.75 12.03 153.35 12.03 153.35 14.92 158.15 14.92 156.56 17"></polygon>
            <path d="M180,7.69 L169.56,7.69 L169.56,17.35 C169.56,18.7528033 170.697197,19.89 172.1,19.89 L182.52,19.89 L182.52,10.23 C182.520043,8.83497025 181.394987,7.70098449 180,7.69 Z M178.41,10.58 L178.41,17 L173.71,17 L173.71,10.58 L178.41,10.58 Z" id="Shape" fill="#2196f3"></path>
            <path d="M178.75,21.23 L154.83,21.2299803 L154.83,33 C154.83,34.4028033 155.967197,35.54 157.37,35.54 L181.3,35.54 L181.3,23.77 C181.300005,23.0946139 181.031027,22.4470349 180.552519,21.970404 C180.074012,21.4937731 179.425381,21.227341 178.75,21.23 Z M159,26.65 L159,24.12 L177.2,24.12 L177.2,32.66 L159,32.66 L159,29.54 L175.76,29.54 L175.76,26.65 L159,26.65 Z" id="Shape" fill="#2196f3"></path>
            <path d="M111,3.44 C111,3.44 111.28,2.6 112,2.97 C112.72,3.34 115.81,5.61 115.06,9.06 C114.950524,9.595503 114.578397,10.0396973 114.070357,10.2413004 C113.562317,10.4429036 112.98687,10.3747307 112.54,10.06 C111.54,9.35 109.99,7.45 109.94,6.06 C110,5.27 110.26,5.06 110.26,5.06 C110.569388,4.55091197 110.817764,4.0071695 111,3.44 Z" id="Shape" fill="#FFBC15"></path>
            <path d="M119.29,4.63 C119.29,4.63 119.82,4.48 119.88,4.99 C119.94,5.5 119.88,7.88 117.79,8.69 C117.46788,8.8277745 117.097149,8.78692655 116.812752,8.58232464 C116.528355,8.37772273 116.371773,8.03920858 116.4,7.69 C116.459898,6.68520022 116.870402,5.73325632 117.56,5 C117.99,4.75 118.17,4.83 118.17,4.83 C118.55002,4.80863903 118.926073,4.74148671 119.29,4.63 Z" id="Shape" fill="#FFBC15"></path>
            <path d="M3.94,28.26 C2.05609859,26.383515 0.997108119,23.8339999 0.997108119,21.175 C0.997108119,18.5160001 2.05609859,15.966485 3.94,14.09 C5.81404243,12.2241315 8.35552707,11.1837787 11,11.2 C12.7640549,11.1980738 14.4612531,11.8748047 15.74,13.09 L15.95,13.26 L15.95,0 L21,0 L21,30.78 L16,30.78 L16,29.27 L15.79,29.48 C14.4965975,30.6811426 12.7598176,31.2866587 11,31.15 C8.35851393,31.1509094 5.82264957,30.1128573 3.94,28.26 Z M6.08,21.17 C6.07338096,23.9164163 8.25477778,26.1687528 11,26.25 C13.7153035,26.1294389 15.8546669,23.8929786 15.8546669,21.175 C15.8546669,18.4570214 13.7153035,16.2205611 11,16.1 C8.25928856,16.1861784 6.07941977,18.4279502 6.07,21.17 L6.08,21.17 Z" id="Shape" fill="#FFBC15"></path>
            <path d="M27.78,28.3 C25.918036,26.3908487 24.864842,23.8366742 24.84,21.17 C24.8385962,18.4862965 25.8949178,15.9101653 27.78,14 C29.6924375,12.1492276 32.2486533,11.1131176 34.91,11.11 C37.5672213,11.0732473 40.1256639,12.1161104 42,14 C44.8859357,16.8725565 45.7556415,21.2015164 44.2030716,24.9657869 C42.6505016,28.7300574 38.9818789,31.1871879 34.91,31.19 C32.2502828,31.1785846 29.6970453,30.1436819 27.78,28.3 Z M29.78,21.17 C29.8350428,23.9976676 32.1641428,26.2496317 34.9920605,26.2094459 C37.8199782,26.1692601 40.0841481,23.8520237 40.0588203,21.0239339 C40.0334926,18.1958441 37.7281839,15.919531 34.9,15.93 C32.0453536,15.9738717 29.7621582,18.3151522 29.79,21.17 L29.78,21.17 Z" id="Shape" fill="#FFBC15"></path>
            <path d="M52.06,40.42 C51.3895408,40.0212077 50.7685666,39.544568 50.21,39 L49.54,38.33 L53.31,35.02 L53.86,35.48 C54.9457207,36.3099102 56.2334578,36.8346717 57.59,37 C60.5024461,36.9025579 62.8078791,34.5040208 62.79,31.59 L62.79,29.18 L62.58,29.39 C61.4102563,30.5409113 59.8201651,31.1624923 58.18,31.11 L57.47,31.11 C54.9480659,31.06756 52.5416117,30.0454445 50.76,28.26 C47.9054912,25.3965508 47.0561647,21.0959186 48.6078267,17.3623002 C50.1594888,13.6286818 53.8067894,11.196812 57.85,11.2 C59.6123225,11.0907762 61.336155,11.7467802 62.58,13 L62.79,13.17 L62.79,11.57 L67.86,11.57 L67.86,31.66 C67.8737019,34.3933069 66.7679704,37.0130955 64.8,38.91 C62.9126578,40.8606795 60.3040206,41.9461042 57.59,41.91 C55.6432102,41.9433814 53.7264861,41.4269404 52.06,40.42 Z M52.9,21.17 C52.9661801,23.9213 55.2433132,26.1018655 57.994898,26.0488359 C60.7464829,25.9958064 62.937907,23.7291213 62.8980292,20.9773144 C62.8581514,18.2255075 60.601966,16.0232749 57.85,16.05 C55.0773394,16.1155008 52.871875,18.3967085 52.9,21.17 Z" id="Shape" fill="#2196f3"></path>
            <path d="M73,30.78 L73,11.57 L78.28,11.57 L78.28,13.12 C79.7274655,11.8156894 81.6116525,11.1019822 83.56,11.12 L84.82,11.12 L83.56,16.36 L82.76,16.36 C80.3541876,16.3038001 78.3515693,18.1949141 78.27,20.6 L78.27,30.78 L73,30.78 Z" id="Shape" fill="#2196f3"></path>
            <path d="M89.08,28.26 C87.1960986,26.383515 86.1371081,23.8339999 86.1371081,21.175 C86.1371081,18.5160001 87.1960986,15.966485 89.08,14.09 C90.9613758,12.2167085 93.5151539,11.1757467 96.17,11.2 C97.9340549,11.1980738 99.6312531,11.8748047 100.91,13.09 L101.12,13.26 L101.12,11.57 L106.19,11.57 L106.19,30.77 L101.12,30.77 L101.12,29.27 L100.91,29.48 C99.6304168,30.6715686 97.914368,31.2797885 96.17,31.16 C93.5167078,31.1661428 90.9684246,30.1238266 89.08,28.26 Z M91.22,21.17 C91.2858913,23.8872122 93.5304046,26.0430247 96.2480649,25.999361 C98.9657251,25.9556973 101.139824,23.7288925 101.118391,21.010966 C101.096958,18.2930396 98.8880109,16.1007988 96.17,16.1 C93.416889,16.1651805 91.2192285,18.4161176 91.22,21.17 Z" id="Shape" fill="#2196f3"></path>
            <path d="M137,30.78 L137,20.5 C137.000164,19.4268936 136.569142,18.3987242 135.803788,17.6465336 C135.038434,16.894343 134.002942,16.4812206 132.93,16.5 C130.71362,16.510302 128.908748,18.284132 128.86,20.5 L128.86,30.78 L123.62,30.78 L123.62,11.57 L128.86,11.57 L128.86,13 C129.91248,11.872299 131.387472,11.2344646 132.93,11.24 C135.411787,11.2103802 137.801144,12.1804371 139.559916,13.9316847 C141.318688,15.6829322 142.29898,18.0681085 142.28,20.55 L142.28,30.78 L137,30.78 Z" id="Shape" fill="#2196f3"></path>
            <rect id="Rectangle-path" fill="#FFBC15" x="112.24" y="11.57" width="5.45" height="19.2"></rect>
        </g>
    </g>
</svg>