<?xml version="1.0" encoding="UTF-8"?>
<svg width="206px" height="53px" viewBox="0 0 206 53" version="1.1" xmlns="http://www.w3.org/2000/svg" xmlns:xlink="http://www.w3.org/1999/xlink">
    <!-- Generator: Sketch 60.1 (88133) - https://sketch.com -->
    <title>logo-nn</title>
    <desc>Created with Sketch.</desc>
    <g id="页面-1" stroke="none" stroke-width="1" fill="none" fill-rule="evenodd">
        <g id="logo-nn" transform="translate(2.000000, 0.000000)">
            <g id="编组" transform="translate(63.000000, 5.000000)" fill="#FFFFFF" fill-rule="nonzero">
                <g>
                    <path d="M5.5,5.5 L5.5,9.6 C5.6,14.4 4.7,18 3,20.4 C3,20.3 2.3,19.6 0.9,18.3 C2.3,16.5 3,13.5 2.9,9.3 L2.9,2.9 L9.8,2.9 L9.8,2.3 L9.8,1.1 L12.8,1.1 L12.8,2 L12.8,3 L19.1,3 L19.1,5.6 L5.5,5.6 L5.5,5.5 Z" id="路径"></path>
                    <path d="M24.4,20.7 L21.8,20.7 L21.8,7 L27.2,7 L27.2,4 L21.6,4 L21.6,1.9 L39.8,1.9 L39.8,4 L34,4 L34,7 L39.6,7 L39.6,20.8 L37,20.8 L37,19.9 L24.4,19.9 L24.4,20.7 Z M31.5,12.6 L31.5,9.1 L29.6,9.1 C29.6,12 28.7,14.7 26.9,16.3 C26.2,15.6 25,15.1 24.4,14.6 L24.4,17.9 L37,17.9 L37,15 L33.7,15 C32.2,15 31.5,14.2 31.5,12.6 Z M24.4,9.1 L24.4,14.4 C25.9,13.2 27.2,11.2 27.2,9.1 L24.4,9.1 Z M29.6,4 L29.6,7 L31.5,7 L31.5,4 L29.6,4 Z M37,12.4 L37,9.1 L34,9.1 L34,11.5 C34,12.1 34.3,12.4 34.9,12.4 L37,12.4 L37,12.4 Z" id="形状"></path>
                    <path d="M45,0.7 L47.6,0.7 L47.6,20.2 L45,20.2 L45,14 C43.8,14.9 42.8,15.8 41.9,16.6 L41.1,13.4 C41.2,13.3 41.4,13.2 41.6,13.1 C42.5,12.5 43.6,11.6 45.1,10.5 L45.1,0.7 L45,0.7 Z M41.2,3.9 L43.2,3.1 C43.8,4.8 44.4,6.6 45,8.4 L42.7,9.2 C42.3,7.5 41.8,5.7 41.2,3.9 Z M48.8,19 L48.8,16.9 L53.2,16.9 L53.2,8.8 L48.7,8.8 L48.7,6.8 L53.2,6.8 L53.2,0.7 L55.8,0.7 L55.8,6.8 L60.6,6.8 L60.6,8.8 L55.8,8.8 L55.8,16.9 L59.7,16.9 L59.7,19 L48.8,19 Z" id="形状"></path>
                    <path d="M70.6,0.4 L73,0.7 C72.7,1.3 72.5,1.9 72.4,2.5 L79.6,2.5 L79.6,5 L71.3,5 C70.8,6 70.3,6.9 69.8,7.7 C69.6,7.5 69.2,7.1 68.6,6.7 C68.3,6.5 68.1,6.3 68,6.2 L65,6.2 C64.9,7 64.9,7.8 64.9,8.4 L68.5,8.4 C68.5,11 68.4,13.6 68.3,16.2 C68.3,18.6 67.5,19.9 66,19.9 C65.5,20 64.9,20 64.2,20 C64.1,19.2 64,18.4 63.8,17.7 C63.7,17.9 63.6,18.2 63.4,18.5 C63,19.3 62.8,20 62.6,20.4 C62,19.2 61.5,18.3 61,17.6 C61.9,15.4 62.4,12.9 62.5,10 C62.5,9.2 62.5,7.9 62.6,6.2 L61.3,6.2 L61.3,3.8 L63.7,3.8 C63.2,3.1 62.9,3.2 62.6,2.4 L65,1.1 C65.6,1.6 65.9,1.9 66.2,2.8 C66,2.5 66.1,2.7 66.4,3.4 L65.1,3.8 L68.1,3.8 L68.1,5 C69.3,3.6 70,2 70.6,0.4 Z M63.9,17.3 C64.1,17.3 64.6,17.3 65.2,17.4 C65.8,17.4 66.1,16.9 66.1,15.9 C66.1,15.6 66.1,14.9 66.1,13.9 C66.2,12.5 66.2,11.4 66.2,10.6 L64.9,10.6 C64.8,13.2 64.4,15.4 63.9,17.3 Z M79.1,6.7 L79.1,9.1 L75.6,9.1 C75.6,9.4 75.6,9.8 75.5,10.3 C75.5,10.8 75.5,11.2 75.4,11.5 L79.7,11.5 L79.7,14 L75.8,14 C76.9,15.8 78.2,17 79.8,17.8 C79.5,18.1 79.1,18.8 78.5,19.8 C78.4,20 78.3,20.1 78.3,20.2 C76.6,19.1 75.3,17.6 74.4,15.6 C73.6,17.5 72.3,19 70.5,20.3 C70.1,19.9 69.7,19.4 69.1,18.8 C68.8,18.5 68.7,18.2 68.5,18.1 C70.6,17 72,15.6 72.5,13.9 L68.9,13.9 L68.9,11.4 L73.1,11.4 C73.1,11.2 73.1,10.8 73.1,10.4 C73.2,9.8 73.2,9.3 73.2,9 L72.3,9 C71.8,9.8 71.4,10.6 71,11.2 C70.5,10.8 69.8,10.4 69,9.8 C70.1,8.4 71,6.8 71.7,5 L73.7,5.6 C73.6,5.7 73.6,5.9 73.5,6.1 C73.4,6.3 73.3,6.5 73.3,6.6 L79.1,6.6 L79.1,6.7 Z" id="形状"></path>
                    <path d="M88.8,1 L91.8,1 L91.8,2.1 L91.8,2.9 L98.1,2.9 L98.1,20.9 L95.6,20.9 L95.6,19.7 L85.8,19.9 L85.8,20.9 L83.2,20.9 L83.2,2.9 L88.7,2.8 L88.7,1.4 L88.8,1 Z M95.6,7.5 L95.6,5.1 L85.8,5.1 L85.8,7.5 L95.6,7.5 Z M85.7,10 L85.7,12.4 L95.5,12.4 L95.5,10 L85.7,10 Z M85.7,14.5 L85.7,16.9 L95.5,16.9 L95.5,14.5 L85.7,14.5 Z" id="形状"></path>
                    <path d="M101.3,9.1 L103,7.1 C104.2,8 105.3,8.9 106.2,9.9 L104.5,11.9 C103.6,11.3 102.6,10.3 101.3,9.1 Z M103.6,12.8 C104.4,13.2 105.3,13.5 106,13.8 C105.8,14.6 105.5,15.8 105.1,17.5 C104.7,19.1 104.4,20.4 104.2,21.1 C104,21 103.6,20.9 103.2,20.8 C102.6,20.6 102.1,20.4 101.8,20.4 C102.4,18.3 103,15.8 103.6,12.8 Z M101.9,3.6 L103.4,1.8 C104.7,2.8 105.8,3.7 106.8,4.5 L105.1,6.6 C104.6,6 103.5,5 101.9,3.6 Z M114.3,5.4 L116.3,4.1 C118.1,6.9 119.4,9.1 120.1,10.5 L118.1,11.8 C117.8,11.2 117.4,10.6 117.1,10 C115.1,10.1 112.7,10.1 109.9,10.3 C109.4,10.4 109,10.4 108.7,10.4 C108.6,10.4 108.4,10.4 108.2,10.5 C107.8,10.6 107.5,10.6 107.3,10.7 L106.4,8.4 C107.1,8.1 107.7,7.7 108,7.3 C109.3,5.6 110.4,3.7 111.3,1.6 L114.1,2.6 C113.3,4 112,5.7 110.3,7.9 C112,7.8 113.8,7.7 115.7,7.7 C115.2,6.9 114.7,6.1 114.3,5.4 Z M109.9,20.2 L109.9,21.2 L107.3,21.2 L107.3,12.1 L118.6,12.1 L118.6,21.2 L116,21.2 L116,20.2 L109.9,20.2 L109.9,20.2 Z M116.1,18 L116.1,14.5 L110,14.5 L110,18 L116.1,18 Z" id="形状"></path>
                    <path d="M124.8,4 L124.8,18 L139.9,18 L139.9,19.8 L122.7,19.8 L122.7,2.1 L139.4,2.1 L139.4,4 L124.8,4 Z M126.1,7.2 L127.9,5.2 C128.4,5.6 129.1,6.2 130,7.1 C130.9,7.9 131.6,8.6 132,9.1 C133,7.8 134,6.5 135,5.1 L137.3,6.7 C136.3,8.2 135.2,9.7 134,11 C135.4,12.4 136.8,13.8 138.2,15.2 L136,17.3 C135.6,16.8 134.9,16.1 134,15.2 C133.2,14.3 132.5,13.6 132,13.2 C130.6,14.7 129.1,16.1 127.5,17.4 C127.2,16.9 126.6,16.2 125.6,15.2 C127.2,14 128.6,12.7 130,11.3 C128.8,9.8 127.5,8.5 126.1,7.2 Z" id="形状"></path>
                </g>
                <g transform="translate(1.000000, 22.000000)" id="形状">
                    <path d="M16.1,16.5 L16.1,9.1 L3.9,9.1 L3.9,20.9 L1.3,21 L1.3,7 L8.4,7 L8.4,5 L0.6,5 L0.6,3 L8.4,3 L8.4,1.2 L10.9,1.2 L10.9,3 L18.5,3 L18.5,5 L10.9,5 L10.9,7 L18.6,7 L18.6,17.5 C18.6,19.2 17.7,21 15.9,21.1 C15.7,21.1 14.7,21.1 14.3,21.1 C13.4,21.2 12.6,21.1 12.6,21.1 L12.6,18.9 C12.6,18.9 13.9,18.8 14.7,18.8 C15.7,18.8 16.1,17.6 16.1,16.5 Z M11.4,9.4 L13.6,10.2 C13.4,10.4 13.2,10.7 12.9,11.1 C12.8,11.2 12.8,11.8 12.7,11.8 L14.3,11.8 L14.3,13.8 L10.7,13.8 L10.7,15 L14.6,15 L14.6,16.8 L10.7,16.8 L10.7,21 L8.2,21 L8.2,16.8 L4.3,16.8 L4.3,15 L8.2,15 L8.2,13.9 L4.6,13.9 L4.6,11.9 L6.2,11.9 C6.1,11.7 5.9,10.9 5.7,10.6 C5.5,10.4 5.4,10.2 5.4,10.1 L7.6,9.4 C8,10.1 8.4,11.3 8.8,12 L10.1,12 C10.6,11.4 11,10.1 11.4,9.4 Z"></path>
                    <path d="M20.5,12 L20.5,9.9 L38.6,9.9 L38.6,12 L31.5,12 L31.5,16.9 C31.5,19.1 30.5,20 28.5,20 C27.5,20.1 24.9,20 24.9,20 L24.9,19.5 L24.9,17.9 L27.4,17.9 L28.7,17.9 L28.7,11.9 L20.5,11.9 L20.5,12 Z M28.1,1.1 L30.8,1.1 C30.9,1.3 30.9,2.7 30.9,2.7 L30.9,3.9 L37.9,3.9 L37.9,9.1 L35.6,9.1 L35.6,6 L23.7,6 L23.7,9.1 L21.3,9.1 L21.3,3.9 L28.3,3.9 L28.3,2.5 C28.2,2.5 28.1,1.1 28.1,1.1 Z"></path>
                    <path d="M56.9,11.8 L58.5,13.8 L55.8,15.4 C56.5,16 57.5,17.8 58.8,18.2 C58.3,19 57.8,19.8 57.4,20.5 C55.5,19.8 54,18.8 52.9,17.5 C52.9,17.9 52.9,18.3 52.8,18.8 C52.8,19.2 52.8,19.4 52.8,19.6 C50.4,20.2 48.8,20.6 48,20.9 L47,20 C47.5,19.6 47.7,19 47.6,18.3 L47.6,14.4 L46.3,15.7 C45.9,15.2 45.5,14.7 44.9,14.1 L44.9,21.2 L42.7,21.2 L42.7,14.8 C42.1,16.2 41.5,17.4 40.9,18.4 C40.8,18.1 40.7,17.7 40.5,17 C40.3,16.4 40.2,15.9 40.1,15.6 C41,14.4 41.8,12.8 42.5,10.9 L40.4,10.9 L40.4,8.9 L42.7,8.9 L42.7,1 L44.9,1 L44.9,7.3 C45,7.1 45.1,6.8 45.2,6.4 C45.4,5.7 45.7,4.8 46,3.7 L47.5,4.2 C47.4,4.5 47.2,5 47,5.5 C46.9,5.9 46.6,6.7 46.1,7.9 L44.8,7.4 L44.8,8.9 L46.9,8.9 L46.9,10.9 L44.8,10.9 L44.8,12.9 L45.5,12.2 C45.7,12.4 46,12.7 46.4,13.2 C46.9,13.7 47.2,14 47.5,14.3 L47.5,3.3 L51.7,3.1 L51.8,1.3 L53.7,1.3 L53.8,3.2 L57.6,3.2 L57.6,12 L53.2,12 C53.5,12.8 53.8,13.5 54.3,14.2 C55.6,13.1 56.4,12.4 56.9,11.8 Z M40.2,4.1 L41.6,3.6 C41.8,4.1 41.9,4.7 42.1,5.6 C42.4,6.4 42.5,6.9 42.6,7.2 L41.2,7.7 C41.1,7.5 41.1,7.3 41,6.9 C40.7,5.9 40.4,4.9 40.2,4.1 Z M55.3,6.9 L55.3,5.2 L49.9,5.2 L49.9,6.9 L55.3,6.9 Z M49.9,10 L55.3,10 L55.3,8.4 L49.9,8.4 L49.9,10 Z M51,11.8 L50,11.8 L50,18.4 C50.6,18.1 51.6,17.8 53,17.5 C52.1,16.3 51.4,13.4 51,11.8 Z"></path>
                    <path d="M68.5,2.3 L71,2.3 L71,2.8 C73.3,4.8 75.9,6.3 78.9,7.1 C78.4,7.8 78,8.6 77.5,9.4 C77,9.1 76.4,8.9 75.8,8.7 L75.8,14.3 L77.4,16 C76.4,16.4 75.4,16.8 74.5,17.2 C75.5,17.7 76.6,18.1 77.8,18.5 L76.6,20.6 C74.1,19.4 71.8,18.4 69.6,17.7 C69.5,18.3 69.5,18.8 69.5,19.2 C66.4,19.8 64.5,20.3 63.7,20.7 L62.9,19.4 C63.3,19 63.1,17.9 63.1,17.2 L63.1,8.9 C62.6,9.1 62.2,9.3 61.7,9.6 C61.4,9.1 60.9,8.3 60.3,7.4 C63.7,6 66.5,4.3 68.5,2.3 Z M73.4,10.3 L73.4,8.9 L65.4,8.9 L65.4,10.3 L73.4,10.3 Z M65.4,13.2 L73.4,13.2 L73.4,11.9 L65.4,11.9 L65.4,13.2 Z M68.5,17.2 C67.9,16.9 67.3,16.7 66.8,16.5 L67.7,14.9 L65.4,14.9 L65.4,17.8 C66.5,17.7 67.5,17.4 68.5,17.2 Z M67.9,6.2 L70.1,5.6 C70.2,5.9 70.4,6.3 70.7,7 C70.8,7.2 70.8,7.4 70.9,7.5 L73.4,7.5 C72,6.6 70.8,5.6 69.6,4.5 C68.4,5.5 67,6.5 65.5,7.5 L68.4,7.5 C68.3,7.3 68.3,7.1 68.2,6.9 C68,6.5 68,6.3 67.9,6.2 Z M74.5,14.9 L68.3,14.9 C68.5,15 68.8,15.1 69.3,15.3 C70.3,15.7 71.1,16 71.7,16.2 C72,16 72.5,15.8 73.1,15.5 C73.7,15.3 74.2,15.1 74.5,14.9 Z"></path>
                    <path d="M82.9,1.1 L85.2,1.5 C84.9,2.9 84.8,5.3 84.4,6.6 L84.4,20.4 L82.1,20.4 L82.1,12 C81.8,12.7 81.4,13.4 81,14 C80.8,13.2 80.6,12.1 80.3,10.6 C81.6,8 82.2,4.1 82.9,1.1 Z M96.9,2.4 L98.8,3.5 C98.3,4.5 97.6,5.5 96.7,6.6 L98.8,6.6 L98.8,8.9 L94.9,8.9 C94.7,9.2 94.3,10.5 93.7,10.9 C93.5,11.1 93.4,11.2 93.3,11.3 L97.8,11.3 L97.8,20.4 L95.5,20.4 L95.5,19.5 L92.3,19.5 L92.3,20.4 L90,20.4 L90,13.8 C89.6,14 89.2,14.2 88.9,14.5 C88.7,14.2 88.4,13.6 88,12.6 C88.3,13.3 88.3,13.2 87.9,12.4 L87.9,15.8 C88.1,15.7 88.3,15.5 88.6,15.3 C88.9,15.1 89.1,14.9 89.2,14.8 C89.2,15 89.2,15.3 89.3,15.6 C89.4,16.3 89.4,16.9 89.5,17.2 C88.3,18 87.3,18.8 86.5,19.5 L85.2,18 C85.6,17.6 85.7,17.1 85.7,16.5 L85.7,8.9 L84.6,8.9 L84.6,6.7 L87.9,6.7 L87.9,12.1 C89.3,11.4 90.5,9.6 91.7,8.7 L88.6,8.7 L88.6,6.7 L91.4,6.4 L91.4,4.8 L89.2,4.8 L89.2,2.8 L91.4,2.8 L91.4,0.6 L93.7,0.6 L93.7,3 L95.7,3 L95.7,4.4 C96.1,3.8 96.6,3.1 96.9,2.4 Z M85.2,3.2 L87.3,2.4 C87.7,3.3 88.2,3.8 88.7,5.2 L86.5,6.1 C86.2,4.9 85.7,4.4 85.2,3.2 Z M95.5,14.5 L95.5,13.2 L92.3,13.2 L92.3,14.5 L95.5,14.5 Z M92.3,16.3 L92.3,17.6 L95.5,17.6 L95.5,16.3 L92.3,16.3 Z M95.3,4.9 L93.7,4.9 L93.7,6.5 L93.9,6.5 C94.3,6 94.8,5.5 95.3,4.9 Z"></path>
                    <path d="M107.5,3 L117,2.8 L117,4.7 C115.9,5.8 114.5,6.8 112.9,7.7 C114.6,8.1 116.6,8.3 118.9,8.4 C118.4,9.5 118,11.2 117.8,11.6 C114.8,11.4 112.1,9.9 109.7,9.1 C107.7,9.8 105.4,11.3 102.8,11.7 L116.8,11.7 L116.8,21 L114.2,21 L114.2,20.2 L105.1,20.2 L105.1,21 L102.5,21 L102.5,11.7 C102.3,11.7 102.2,11.7 102,11.8 C101.7,11.8 101.5,11.8 101.4,11.9 C101.1,11.2 100.7,10.5 100.4,9.7 C102.8,9.4 104.9,9 106.8,8.5 C105.9,8 105.2,7.4 104.5,6.8 C103.7,7.4 102.9,8 102.1,8.5 C101.9,8.3 101.6,7.9 101.1,7.4 C100.8,7.1 100.7,7 100.6,6.9 C102.6,5.6 104.4,3 105.5,1.1 L108.2,1.3 C108,1.4 107.8,3.1 107.8,3.1 C107.8,3.1 107.6,2.8 107.5,3 Z M105.1,13.5 L105.1,14.8 L108.5,14.8 L108.5,13.5 L105.1,13.5 Z M105.1,16.6 L105.1,17.9 L108.5,17.9 L108.5,16.6 L105.1,16.6 Z M109.6,6 C111.1,5.4 112.3,5.4 113.3,4.7 L106.4,4.9 C107.3,5.6 108.3,5.4 109.6,6 Z M114.1,14.8 L114.1,13.5 L110.7,13.5 L110.7,14.8 L114.1,14.8 Z M110.8,16.6 L110.8,17.9 L114.2,17.9 L114.2,16.6 L110.8,16.6 Z"></path>
                    <path d="M129.7,1 L131.8,1.1 L131.9,1.3 L131.7,3.1 L138.6,3 L138.6,5.1 L124.4,5.1 L124.4,10.6 C124.4,15.1 123.6,18.4 122.1,20.5 C121.5,19.7 120.8,19 120.2,18.4 C121.3,16.6 121.8,14 121.8,10.6 L121.8,3 L129.7,3 C129.7,2.9 129.7,2.2 129.7,2.2 L129.7,1 Z M124.2,18.1 L124.2,15.9 L130.7,15.9 L130.7,14.2 L125.3,14.2 L125.3,12 C125.8,11.3 126.2,9.8 126.7,9 L124.7,9 L124.7,6.8 L127.7,6.8 C128,6.3 128.3,5.8 128.5,5.2 L131.1,5.6 C130.9,6 130.7,6.4 130.6,6.8 L138.7,6.8 L138.7,9 L129.3,9 C129.2,9.3 129,10.3 128.7,10.8 C128.4,11.3 128.2,11.7 128.1,12 L130.7,12 L130.7,10 L133.2,10 L133.2,12.1 L138.9,12.1 L138.9,14.3 L133.2,14.3 L133.2,16 L139.8,16 L139.8,18.2 L133.2,18.2 L133.2,21 L130.7,21 L130.7,18.2 L124.2,18.2 L124.2,18.1 Z"></path>
                </g>
            </g>
            <g id="编组">
                <path d="M46.1,28.2 C46.1,40.7 35.9,50.9 23.3,50.9 C10.7,50.9 0.4,40.7 0.4,28.2 C0.4,15.7 10.6,5.5 23.3,5.5 C26.5,5.5 31.6,6.4 33.7,7.7" id="路径" stroke="#FFFFFF" stroke-width="4"></path>
                <polygon id="路径" fill="#FFFFFF" fill-rule="nonzero" points="47.6 32.2 23.3 32.2 23.3 28.2 47.9 28.2"></polygon>
                <g transform="translate(8.000000, 0.000000)" fill="#FFFFFF" fill-rule="nonzero">
                    <rect id="矩形" transform="translate(15.784530, 27.522745) rotate(40.046931) translate(-15.784530, -27.522745) " x="15.1845439" y="4.07328658" width="1.19997229" height="46.8989168"></rect>
                    <rect id="矩形" transform="translate(22.953050, 23.027214) rotate(85.044552) translate(-22.953050, -23.027214) " x="22.4030294" y="19.5770827" width="1.10004177" height="6.90026203"></rect>
                    <rect id="矩形" transform="translate(18.988216, 19.729073) rotate(175.044552) translate(-18.988216, -19.729073) " x="18.4381954" y="16.2789418" width="1.10004177" height="6.90026203"></rect>
                    <rect id="矩形" transform="translate(25.810385, 19.639477) rotate(85.044552) translate(-25.810385, -19.639477) " x="25.2603641" y="16.1893458" width="1.10004177" height="6.90026203"></rect>
                    <rect id="矩形" transform="translate(21.839292, 16.396738) rotate(175.044552) translate(-21.839292, -16.396738) " x="21.2892707" y="12.9466065" width="1.10004177" height="6.90026203"></rect>
                    <rect id="矩形" transform="translate(28.503283, 16.469557) rotate(85.044552) translate(-28.503283, -16.469557) " x="27.953262" y="13.0194258" width="1.10004177" height="6.90026203"></rect>
                    <rect id="矩形" transform="translate(24.491673, 13.121005) rotate(175.044552) translate(-24.491673, -13.121005) " x="23.9416523" y="9.67087432" width="1.10004177" height="6.90026203"></rect>
                    <rect id="矩形" transform="translate(31.099312, 13.295945) rotate(85.044552) translate(-31.099312, -13.295945) " x="30.5492914" y="9.84581422" width="1.10004177" height="6.90026203"></rect>
                    <rect id="矩形" transform="translate(27.173023, 10.039465) rotate(175.044552) translate(-27.173023, -10.039465) " x="26.6230023" y="6.5893337" width="1.10004177" height="6.90026203"></rect>
                    <rect id="矩形" transform="translate(34.057177, 9.906770) rotate(85.044552) translate(-34.057177, -9.906770) " x="33.5071561" y="6.45663889" width="1.10004177" height="6.90026203"></rect>
                    <rect id="矩形" transform="translate(30.008860, 6.615999) rotate(175.044552) translate(-30.008860, -6.615999) " x="29.4588392" y="3.16586841" width="1.10004177" height="6.90026203"></rect>
                    <path d="M31.6,0.5 C31.8,0.3 32.2,0.2 32.4,0.4 L35.1,2.7 C35.3,2.9 35.4,3.3 35.2,3.5 L32.9,6.2 C32.7,6.4 32.3,6.5 32.1,6.3" id="路径"></path>
                    <path d="M39.7,7.3 C39.9,7.1 39.9,6.7 39.6,6.5 L37,4.2 C36.8,4 36.4,4 36.2,4.3 L33.9,7 C33.7,7.2 33.7,7.6 34,7.8" id="路径"></path>
                </g>
            </g>
        </g>
    </g>
</svg>