<?xml version="1.0" encoding="UTF-8"?>
<svg width="323px" height="38px" viewBox="0 0 323 38" version="1.1" xmlns="http://www.w3.org/2000/svg" xmlns:xlink="http://www.w3.org/1999/xlink">
    <!-- Generator: Sketch 60.1 (88133) - https://sketch.com -->
    <title>logo-转曲-20191209-01</title>
    <desc>Created with Sketch.</desc>
    <defs>
        <linearGradient x1="0.355804788%" y1="60.5270818%" x2="103.595829%" y2="43.7007825%" id="linearGradient-1">
            <stop stop-color="#B76815" offset="0%"></stop>
            <stop stop-color="#BE701B" offset="2.424957%"></stop>
            <stop stop-color="#DD9534" offset="14.34%"></stop>
            <stop stop-color="#F0AC44" offset="23.99%"></stop>
            <stop stop-color="#F7B44A" offset="30.11%"></stop>
            <stop stop-color="#E39E3B" offset="39.73%"></stop>
            <stop stop-color="#CA8329" offset="54.36%"></stop>
            <stop stop-color="#B86F1B" offset="69.23%"></stop>
            <stop stop-color="#AE6414" offset="84.33%"></stop>
            <stop stop-color="#AA6011" offset="100%"></stop>
        </linearGradient>
        <linearGradient x1="-2.85006508%" y1="57.5749486%" x2="99.9934727%" y2="43.4604103%" id="linearGradient-2">
            <stop stop-color="#B76815" offset="0%"></stop>
            <stop stop-color="#C0721C" offset="21.49%"></stop>
            <stop stop-color="#D78D2F" offset="58.25%"></stop>
            <stop stop-color="#F7B44A" offset="100%"></stop>
        </linearGradient>
    </defs>
    <g id="页面-1" stroke="none" stroke-width="1" fill="none" fill-rule="evenodd">
        <g id="logo-转曲-20191209-01" transform="translate(-1.000000, 0.000000)" fill-rule="nonzero">
            <g id="编组" transform="translate(0.000000, 1.000000)">
                <path d="M46.1,1.1 C41.3,1.4 38,1.6 32.6,3.1 C13.6,8.7 -0.4,18.6 1.1,26.7 C2.6,34.8 20.7,37.8 40.2,32.9 C40.9,32.7 43.4,32 44.2,31.8 C44.2,31.8 44.3,31.7 44.3,31.7 C44.3,31.7 44.2,31.7 44.2,31.7 C41.4,32.3 37.5,33 32.8,33.2 C28.1,33.3 7,33.6 2.7,28.3 C2.4,27.9 -1.2,22.8 11.1,15.4 C11.1,15.4 2,23.9 6.2,27.7 C6.2,27.7 9.1,30.9 20.2,28.3 C20.2,28.3 28.5,26.4 32.2,24.9 C32.2,24.9 32.3,24.8 31.9,24.9 C31.5,25 29.8,25.4 29.4,25.5 C16.8,28.2 8.9,27.9 8.3,24.9 C7.8,21.8 15.3,16.2 25.8,13 C36.4,9.8 45.4,9 46.8,12.9 C47.4,14.5 47.2,15.1 45.7,17.9 C45.5,18.2 45.1,18.9 45.5,18.6 C45.5,18.6 60.3,7.6 51.4,2.2 C51.6,2.2 49.9,1.2 46.1,1.1" id="路径" fill="url(#linearGradient-1)"></path>
                <path d="M53.4,0.9 C56.5,2 59.3,1.8 60.6,4.5 C62.2,7.7 60,11.2 52.1,17.9 C52.1,17.9 42.6,24.7 37.2,26.5 C37.2,26.5 23.4,32.2 13.7,31.5 C13.6,31.5 13.7,31.5 13.6,31.5 C13.6,31.5 13.6,31.5 13.6,31.5 C13.6,31.5 13.7,31.5 13.7,31.5 C13.7,31.5 13.6,31.5 13.7,31.5 C15.8,31.9 34.9,35 57.7,25.5 C57.7,25.5 59.1,24.9 61,23.9 C68.9,19.3 72.7,13.6 71.5,8.8 C70.3,3.8 62.9,1.4 53.4,0.9 C53.4,0.9 53.4,0.9 53.4,0.9" id="路径" fill="url(#linearGradient-2)"></path>
            </g>
            <g id="编组" transform="translate(80.000000, 0.000000)" fill="#FFFFFF">
                <g>
                    <path d="M3.9,13.6 L3.9,19.4 L9.2,17.8 L9.3,20.3 C8.4,20.6 4.1,21.9 1.5,22.7 L0.6,20.3 C1.4,20 1.4,19.7 1.4,19.2 L1.4,3 L8.1,3 C7.9,2.3 7.7,1.7 7.4,0.9 L9.8,0.5 C10.1,1.1 10.4,2.1 10.6,3 L17,3 L17,12.9 L18.4,14.8 C16.8,15.8 14.9,16.9 13.1,17.8 C14.9,18.8 17.1,19.5 20.1,20.1 L19.2,22.4 C12.5,20.9 8.9,18.7 6.2,13.7 L3.9,13.7 L3.9,13.6 Z M3.9,5 L3.9,7.2 L14.6,7.2 L14.6,5 L3.9,5 Z M14.6,11.5 L14.6,9.3 L3.9,9.3 L3.9,11.5 L14.6,11.5 Z M9,13.6 C9.6,14.6 10.3,15.5 11.1,16.2 C12.6,15.5 14.3,14.5 15.8,13.6 L9,13.6 Z" id="形状"></path>
                    <path d="M43.1,22.9 C39.8,21.7 37.3,20.4 35.2,18.8 C33.1,20.3 30.5,21.6 27.2,23 L26,20.5 C29,19.5 31.4,18.3 33.3,17.1 C31.9,15.6 30.7,14 29.7,11.9 C28.5,15.6 26.6,19.1 23.8,22.3 L21.9,20.3 C25.7,15.9 27.6,10.9 28.5,6 L23.4,6 L23.4,3.7 L28.9,3.7 C29,2.7 29.1,1.7 29.2,0.7 L31.8,0.8 C31.7,1.8 31.6,2.7 31.5,3.7 L43.7,3.7 L43.7,6.1 L31.1,6.1 C30.9,6.9 30.8,7.8 30.6,8.6 L41.4,8.6 L41.4,10.9 C40.3,13.5 39,15.5 37.1,17.2 C38.9,18.4 41.2,19.4 44.1,20.4 L43.1,22.9 Z M31.7,10.9 C32.7,12.8 33.8,14.3 35.2,15.7 C36.9,14.3 38.1,12.7 38.9,10.9 L31.7,10.9 Z" id="形状"></path>
                    <path d="M66.8,4.4 C66.7,5.4 66.3,17.6 66.2,18.6 C66,21.1 65,21.7 62.5,21.9 L60.5,22 L59.8,19.7 L61.8,19.6 C63.4,19.5 64,19.2 64.1,17.5 C64.1,16.6 64.6,7.5 64.6,6.6 L63.6,6.6 C62.6,13.4 61.1,17.5 55.9,22.2 L54.4,20.4 C59,16.3 60.7,12.2 61.7,6.5 L60.2,6.5 C59.2,11.2 57.6,14.3 53.9,18 L52.5,16.2 C55.7,13.3 57.4,10.5 58.3,6.5 L56.7,6.5 C56.1,7.8 55.3,9 54.5,10.2 L52.8,8.7 C53.1,8.3 53.4,8 53.6,7.5 L52,7.5 L52,11.7 L54.2,10.8 L54.4,13.1 L52,14.1 L52,22.3 L50,22.3 L50,14.9 C48.4,15.5 47,16.1 46.6,16.3 L46,13.9 C46.5,13.8 48.2,13.1 50,12.4 L50,7.4 L48.7,7.4 C48.5,8.9 48.3,10.4 48,11.7 L46,11.3 C46.6,8.7 47,5.3 47.2,2.5 L49.2,2.7 L49,5.2 L50,5.2 L50,0.8 L52.1,0.9 L52.1,5.4 L54.1,5.4 L54.1,7.2 C55.3,5.2 56.4,2.9 57,0.6 L59.1,1.2 C58.7,2.4 58.3,3.4 57.9,4.5 L66.8,4.5 L66.8,4.4 Z" id="路径"></path>
                    <path d="M73.7,12.1 C72.7,11.1 70.6,9.3 69.5,8.6 L70.8,6.8 C72.1,7.6 73.8,8.9 75,9.9 L73.7,12.1 Z M74.8,13.8 C74.6,14.8 72.8,21.1 72.3,22.4 L69.9,21.7 C70.4,20.7 72.3,14.1 72.5,13.1 L74.8,13.8 Z M74.6,6.5 C73.6,5.5 71.4,3.8 70.4,3.1 L71.7,1.3 C72.9,2 74.9,3.4 75.9,4.4 L74.6,6.5 Z M76.8,12.3 L79.1,12.4 C79.1,13.1 79.1,14.1 79.1,14.9 C79,18.6 78.5,20.3 75.2,23.2 L73.6,21.5 C76.3,19.4 77,18.1 76.9,14.3 L76.9,12.3 L76.8,12.3 Z M79.5,5.7 L76,5.7 L76,3.4 L81.4,3.4 C81.1,2.5 80.8,1.6 80.7,1 L83.1,0.7 C83.3,1.3 83.7,2.4 84,3.4 L90.1,3.4 L90.1,5.7 L82.4,5.7 C81.2,7.1 80,8.6 79.1,9.3 L85.5,9.1 C84.9,8.5 84.3,7.9 83.8,7.4 L85.5,6 C86.8,7.2 88.7,9.3 89.9,10.7 L88.3,12.4 L87.2,11.1 C84.9,11.2 78.2,11.4 75.7,11.6 L75.1,9.6 C75.7,9.5 76.1,9.1 76.5,8.9 C77.3,8.3 78.4,7 79.5,5.7 Z M81.1,12.3 L83.2,12.4 L83.2,22 L81.1,22 L81.1,12.3 Z M91.3,17.8 C91.3,18.8 91.2,19.6 91.1,20.2 C90.9,21.8 90.3,22.4 88.5,22.4 L87.4,22.4 C85.7,22.4 85.1,21.9 85.1,20.3 L85.1,12.3 L87.3,12.4 L87.3,19.6 C87.3,20.2 87.5,20.3 88.1,20.3 L88.3,20.3 C89,20.3 89.1,20.2 89.2,19.5 C89.3,18.9 89.4,18 89.4,17.3 L91.3,17.8 Z" id="形状"></path>
                    <polygon id="路径" points="94 11.6 101.3 11.6 101.3 14 94 14"></polygon>
                    <path d="M125.3,13 L125.3,14.7 L104.1,14.7 L104.1,13 L110.1,13 C110,12.5 109.9,12 109.8,11.6 L106.9,11.6 L106.9,7.7 L122.2,7.7 L122.2,11.6 L119.1,11.6 C119,12 118.9,12.5 118.8,13 L125.3,13 Z M110.3,14.9 C110.3,15.1 110.3,15.4 110.2,15.8 L115,15.8 C114.9,16.4 114.8,19.2 114.7,19.8 C114.6,21.8 114,22.2 111.8,22.4 L110.1,22.5 L109.5,20.5 L111.1,20.4 C112.1,20.3 112.5,20.2 112.5,19.2 C112.6,18.8 112.6,18.1 112.6,17.6 L110,17.6 C109.6,20 108.4,21.3 105.5,23 L104.2,21.2 C106.5,20 107.4,19.3 107.8,17.7 L105,17.7 L105,15.9 L108,15.9 L108,15 L110.3,15 L110.3,14.9 Z M113.5,4.3 L104.8,4.3 L104.8,2.6 L113.5,2.6 L113.5,0.8 L115.9,0.9 L115.9,2.6 L124.7,2.6 L124.7,4.3 L115.9,4.3 L115.9,5.3 L123.6,5.3 L123.6,6.9 L106,6.9 L106,5.3 L113.6,5.3 L113.6,4.3 L113.5,4.3 Z M109.4,10.2 L120.1,10.2 L120.1,9.1 L109.4,9.1 L109.4,10.2 Z M112,11.6 C112.1,12.1 112.2,12.6 112.3,13 L116.9,13 L117.3,11.6 L112,11.6 Z M115.9,15.8 L123.7,15.8 L123.7,22.3 L121.6,22.3 L121.6,21.4 L117.9,21.4 L117.9,22.4 L115.9,22.4 L115.9,15.8 L115.9,15.8 Z M117.9,17.5 L117.9,19.7 L121.6,19.7 L121.6,17.5 L117.9,17.5 Z" id="形状"></path>
                    <path d="M139.8,19.6 C142.9,19.7 146,19.7 149.1,19.6 L148.6,21.8 C145.6,21.9 142.6,21.9 139.6,21.8 C136.4,21.7 133.9,20.8 132.3,18.3 C131.6,19.9 130.5,21.3 129.2,22.7 L127.3,21.1 C129.9,18.3 131,16.3 131.4,12 L133.8,12.2 C133.7,13.6 133.5,14.8 133.2,15.8 C134.3,17.7 135.6,18.7 137.4,19.2 L137.4,10.2 L129.3,10.2 L129.3,8.1 L147.4,8.1 L147.4,10.3 L139.8,10.3 L139.8,13.6 L146.6,13.6 L146.6,15.8 L139.8,15.8 L139.8,19.6 Z M131.3,7.5 L128.9,7.5 L128.9,3 L137.3,3 C137.1,2.3 136.9,1.7 136.7,1 L139.3,0.6 C139.5,1.2 139.8,2 140.1,3 L147.9,3 L147.9,7.6 L145.6,7.6 L145.6,5.2 L131.2,5.2 L131.2,7.5 L131.3,7.5 Z" id="形状"></path>
                    <path d="M161.9,12.5 L169.5,12.5 L169.5,22.5 L167,22.5 L167,21.6 L156.9,21.6 L156.9,22.5 L154.4,22.5 L154.4,13 L152.3,14 L151.3,12 C153.9,11 155.5,10 156.2,8.4 L151.8,8.4 L151.8,6.4 L153.6,6.4 L152.1,5.2 C153.3,3.7 154.3,1.7 154.8,0.3 L156.8,1 C156.6,1.5 156.4,2 156.2,2.6 L162.2,2.6 L162.2,4.5 L158.9,4.5 C158.9,5.1 158.9,5.7 158.9,6.1 L158.9,6.4 L162.8,6.4 L162.8,8.3 L158.7,8.3 C158.7,8.3 158.7,8.3 158.7,8.4 C160.1,9.1 162,10.2 162.9,10.8 L161.9,12.5 Z M156.7,6.4 L156.7,6.2 C156.7,5.8 156.7,5.1 156.7,4.5 L155.2,4.5 C154.8,5.1 154.4,5.8 154,6.4 L156.7,6.4 Z M155.3,12.5 L161.4,12.5 C160.4,11.7 159,10.9 157.9,10.2 C157.3,11.1 156.4,11.8 155.3,12.5 Z M167,14.5 L156.9,14.5 L156.9,16.1 L167,16.1 L167,14.5 Z M167,19.7 L167,18 L156.9,18 L156.9,19.6 L167,19.6 L167,19.7 Z M171.3,2.4 L171.3,11.2 L163.3,11.2 L163.3,2.4 L171.3,2.4 Z M169.1,4.5 L165.4,4.5 L165.4,9.1 L169.1,9.1 L169.1,4.5 Z" id="形状"></path>
                    <path d="M183.2,2.4 C184.2,3.6 185.7,5.6 186.7,6.9 L185,8.6 C184.8,8.2 184.5,7.8 184.3,7.4 C182.5,7.5 178.1,7.7 176.2,8 L175.6,5.7 C176.1,5.6 176.3,5.3 176.7,5 C177.3,4.4 179,2.2 179.8,0.5 L182,1.6 C181,3 179.8,4.8 179,5.6 L182.9,5.4 L181.6,3.7 L183.2,2.4 Z M176.5,9 L185.3,9 L185.3,20.1 C185.3,22 184.7,22.4 182.7,22.5 L181.8,22.6 L181.1,20.3 L182.3,20.2 C182.9,20.1 183,20 183,19.2 L183,18 L178.6,18 L178.6,22.4 L176.4,22.4 L176.4,9 L176.5,9 Z M178.7,11.1 L178.7,12.5 L183.1,12.5 L183.1,11.1 L178.7,11.1 Z M183.1,15.9 L183.1,14.5 L178.7,14.5 L178.7,15.9 L183.1,15.9 Z M186.9,8.6 L186.9,0.9 L189.2,1 L189.2,4.3 C191,3.5 193.2,2.5 194.2,1.8 L195.2,4 C193.9,4.8 191.1,6 189.2,6.8 L189.2,7.9 C189.2,8.8 189.3,8.9 190.1,9 C190.8,9 191.6,9 192.3,9 C193.4,8.9 193.6,8.6 193.7,7.8 C193.8,7.3 193.9,6.8 193.9,6.2 L196,7.1 C195.9,7.7 195.8,8.3 195.7,8.9 C195.3,10.7 194.8,11.2 193,11.3 C191.7,11.3 190.4,11.3 189.1,11.3 C187.5,11.1 186.9,10.4 186.9,8.6 Z M196.1,17.4 C196,18.2 195.9,18.9 195.8,19.6 C195.4,21.4 194.8,22 192.9,22 C191.6,22 190.4,22 189.2,22 C187.7,21.9 187,21.2 187,19.4 L187,11.6 L189.3,11.7 L189.3,14.9 C191.1,14.1 193.3,13 194.5,12.2 L195.6,14.4 C194.1,15.3 191.3,16.6 189.3,17.4 L189.3,18.7 C189.3,19.6 189.6,19.8 190.4,19.9 C191,19.9 191.7,19.9 192.3,19.9 C193.5,19.8 193.6,19.6 193.8,18.6 C193.9,18 194,17.4 194,16.6 L196.1,17.4 Z" id="形状"></path>
                    <path d="M206,17.3 C205.5,16.5 204.7,15.3 203.9,14.3 L203.9,22.6 L201.9,22.6 L201.9,15 C201.1,16.7 200.2,18.3 199.1,19.5 L197.9,17.6 C199.3,15.8 200.7,13.4 201.5,11.1 L198.6,11.1 L198.6,9 L201.9,9 L201.9,0.8 L203.9,0.9 L203.9,7.4 C204.5,6.1 205.2,3.8 205.6,2.5 L207.3,3.1 C206.9,4.3 206.1,6.8 205.5,8.1 L204,7.5 L204,9.1 L206.9,9.1 L206.9,11.2 L204,11.2 L204,13 L204.8,12.3 C205.6,13.1 206.8,14.6 207.5,15.8 L206,17.3 Z M200.1,8.1 C199.8,6.7 199,4.3 198.5,3.2 L200.3,2.5 C200.8,3.8 201.6,6.3 201.9,7.5 L200.1,8.1 Z M220.1,20.4 L218.7,22.4 C214.7,20.2 212.4,17.7 211.1,13.4 L209.7,13.4 L209.7,19.8 C210.5,19.5 212.3,18.7 213,18.4 L213.3,20.6 C212.5,20.9 210.3,21.8 209.3,22.2 C208.8,22.4 208.3,22.6 207.9,22.9 L207,20.8 C207.6,20.4 207.6,20.3 207.6,19.6 L207.6,3 L211.6,3 C211.4,2.4 211.3,1.8 211.1,1.2 L213.4,0.8 C213.6,1.4 213.9,2.3 214.1,3 L218.2,3 L218.2,13.4 L213.2,13.4 C213.6,14.4 214,15.3 214.5,16.1 C215.7,15.3 216.9,14.3 218.1,13.5 L219.2,15.2 C218.2,16 216.9,16.9 215.8,17.7 C216.8,18.7 218.2,19.6 220.1,20.4 Z M209.7,5.1 L209.7,7.2 L216.2,7.2 L216.2,5.1 L209.7,5.1 Z M209.7,11.3 L216.2,11.3 L216.2,9.2 L209.7,9.2 L209.7,11.3 Z" id="形状"></path>
                    <path d="M243.3,19.2 L236.6,19.2 L236.6,22.5 L234.3,22.5 L234.3,19.2 L226.9,19.2 L226.9,17 L234.3,17 L234.3,15 L228.3,15 L228.3,12.9 C228.9,12 229.6,10.9 230.3,9.7 L227.4,9.7 L227.4,7.5 L231.4,7.5 C231.8,6.7 232.1,6 232.4,5.3 L226.8,5.3 L226.8,10.7 C226.8,16.8 225.9,19.1 223.9,22.8 L221.6,21.7 C223.8,17.9 224.4,15.8 224.4,10.9 L224.4,3.2 L233.2,3.2 C233,2.5 232.8,1.7 232.5,1.1 L234.9,0.7 C235.2,1.5 235.5,2.3 235.8,3.2 L243,3.2 L243,5.3 L232.6,5.3 L234.5,5.9 C234.3,6.4 234,7 233.8,7.6 L242.2,7.6 L242.2,9.7 L232.7,9.7 C232.1,10.9 231.4,12 230.7,12.9 L234.2,12.9 L234.2,10.4 L236.5,10.5 L236.5,12.9 L241.6,12.9 L241.6,15 L236.5,15 L236.5,17 L243.2,17 L243.2,19.2 L243.3,19.2 Z" id="路径"></path>
                </g>
                <g transform="translate(1.000000, 29.000000)">
                    <polygon id="路径" points="5.2 7.7 5.2 8.7 0.5 8.7 0.5 0.4 1.6 0.4 1.6 7.8 5.2 7.8"></polygon>
                    <polygon id="路径" points="8.7 0.3 9.8 0.3 9.8 8.6 8.7 8.6"></polygon>
                    <path d="M18.8,6.2 L15.1,6.2 L14.2,8.7 L13.1,8.7 L16.3,0.4 L17.7,0.4 L20.8,8.7 L19.7,8.7 L18.8,6.2 Z M18.5,5.2 L17.1,1.3 L17,1.3 L15.6,5.2 L18.5,5.2 Z" id="形状"></path>
                    <polygon id="路径" points="24.2 0.3 25.9 0.3 29.7 7.2 29.8 7.2 29.8 0.3 30.9 0.3 30.9 8.6 29.5 8.6 25.4 1.3 25.3 1.3 25.3 8.6 24.2 8.6"></polygon>
                    <path d="M34.9,4.5 C34.9,1.3 36.4,0.2 38.9,0.2 C39.7,0.2 40.6,0.3 41.1,0.5 L41.1,1.5 C40.5,1.3 39.8,1.2 39,1.2 C37.1,1.2 36.1,1.8 36.1,4.5 C36.1,7.3 37.1,7.8 39,7.8 C39.4,7.8 40,7.8 40.4,7.6 L40.4,5 L38.7,5 L38.7,4.1 L41.4,4.1 L41.4,8.3 C40.8,8.5 39.9,8.6 38.9,8.6 C36.4,8.8 34.9,8 34.9,4.5 Z" id="路径"></path>
                    <polygon id="路径" points="47.4 5.1 44.5 0.4 45.7 0.4 47.9 4.2 48 4.2 50.2 0.4 51.4 0.4 48.4 5.1 48.4 8.7 47.3 8.7 47.3 5.1"></polygon>
                    <path d="M54.5,4.5 C54.5,1.2 55.7,0.2 58.1,0.2 C60.5,0.2 61.7,1.1 61.7,4.5 C61.7,7.9 60.5,8.8 58.1,8.8 C55.7,8.8 54.5,7.8 54.5,4.5 Z M60.5,4.5 C60.5,2.2 60.1,1.1 58,1.1 C56,1.1 55.5,2.2 55.5,4.5 C55.5,6.9 55.9,7.9 58,7.9 C60.1,7.8 60.5,6.9 60.5,4.5 Z" id="形状"></path>
                    <path d="M65.7,6 L65.7,0.4 L66.8,0.4 L66.8,5.8 C66.8,7.4 67.3,7.9 68.9,7.9 C70.5,7.9 71,7.4 71,5.8 L71,0.4 L72.1,0.4 L72.1,6 C72.1,8 71,8.8 68.9,8.8 C66.8,8.8 65.7,8 65.7,6 Z" id="路径"></path>
                    <polygon id="路径" points="86.2 7.7 86.2 8.7 81.5 8.7 81.5 0.4 82.6 0.4 82.6 7.8 86.2 7.8"></polygon>
                    <path d="M89.4,4.5 C89.4,1.2 90.6,0.2 93,0.2 C95.4,0.2 96.6,1.1 96.6,4.5 C96.6,7.9 95.4,8.8 93,8.8 C90.7,8.8 89.4,7.8 89.4,4.5 Z M95.5,4.5 C95.5,2.2 95.1,1.1 93,1.1 C91,1.1 90.5,2.2 90.5,4.5 C90.5,6.9 90.9,7.9 93,7.9 C95.1,7.8 95.5,6.9 95.5,4.5 Z" id="形状"></path>
                    <path d="M100.5,4.5 C100.5,1.3 102,0.2 104.5,0.2 C105.3,0.2 106.2,0.3 106.7,0.5 L106.7,1.5 C106.1,1.3 105.4,1.2 104.6,1.2 C102.7,1.2 101.7,1.8 101.7,4.5 C101.7,7.3 102.7,7.8 104.6,7.8 C105,7.8 105.6,7.8 106,7.6 L106,5 L104.3,5 L104.3,4.1 L107,4.1 L107,8.3 C106.4,8.5 105.5,8.6 104.5,8.6 C101.9,8.8 100.5,8 100.5,4.5 Z" id="路径"></path>
                    <polygon id="路径" points="111 0.3 112.1 0.3 112.1 8.6 111 8.6"></polygon>
                    <path d="M116,8.4 L116,7.4 C116.5,7.6 117.5,7.8 118.5,7.8 C119.7,7.8 120.4,7.4 120.4,6.4 C120.4,5.4 120,5.1 118.5,4.7 C116.8,4.3 116.2,3.9 116.2,2.4 C116.2,0.9 117.1,0.1 119,0.1 C119.8,0.1 120.7,0.2 121.1,0.4 L121.1,1.4 C120.6,1.2 119.8,1.1 119,1.1 C117.8,1.1 117.3,1.3 117.3,2.4 C117.3,3.2 117.5,3.5 119,3.8 C120.9,4.2 121.5,4.7 121.5,6.4 C121.5,8 120.5,8.8 118.5,8.8 C117.4,8.8 116.4,8.6 116,8.4 Z" id="路径"></path>
                    <polygon id="路径" points="130.4 1.3 128 1.3 128 8.7 126.9 8.7 126.9 1.3 124.5 1.3 124.5 0.3 130.4 0.3"></polygon>
                    <polygon id="路径" points="133.8 0.3 134.9 0.3 134.9 8.6 133.8 8.6"></polygon>
                    <path d="M138.9,4.5 C138.9,1.3 140.4,0.2 142.8,0.2 C143.6,0.2 144.1,0.3 144.6,0.4 L144.6,1.4 C144.1,1.2 143.6,1.1 142.8,1.1 C140.9,1.1 140,1.9 140,4.4 C140,7.1 140.9,7.7 142.7,7.7 C143.5,7.7 144,7.6 144.7,7.4 L144.7,8.3 C144.2,8.5 143.5,8.7 142.7,8.7 C140.4,8.8 138.9,8 138.9,4.5 Z" id="路径"></path>
                    <path d="M148.1,8.4 L148.1,7.4 C148.6,7.6 149.6,7.8 150.6,7.8 C151.8,7.8 152.5,7.4 152.5,6.4 C152.5,5.4 152.1,5.1 150.6,4.7 C148.9,4.3 148.3,3.9 148.3,2.4 C148.3,0.9 149.2,0.1 151.1,0.1 C151.9,0.1 152.8,0.2 153.2,0.4 L153.2,1.4 C152.7,1.2 151.9,1.1 151.1,1.1 C149.9,1.1 149.4,1.3 149.4,2.4 C149.4,3.2 149.6,3.5 151.1,3.8 C153,4.2 153.6,4.7 153.6,6.4 C153.6,8 152.6,8.8 150.6,8.8 C149.5,8.8 148.5,8.6 148.1,8.4 Z" id="路径"></path>
                    <polygon id="路径" points="162.3 4.5 165.8 4.5 165.8 5.4 162.3 5.4"></polygon>
                    <path d="M181.6,4.5 C181.6,7.7 180,8.7 177.6,8.7 L175.2,8.7 L175.2,0.4 L177.6,0.4 C180,0.3 181.6,1 181.6,4.5 Z M180.5,4.5 C180.5,1.8 179.3,1.3 177.6,1.3 L176.3,1.3 L176.3,7.7 L177.6,7.7 C179.3,7.7 180.5,7 180.5,4.5 Z" id="形状"></path>
                    <path d="M185.4,4.5 C185.4,1.2 186.6,0.2 189,0.2 C191.4,0.2 192.6,1.1 192.6,4.5 C192.6,7.9 191.4,8.8 189,8.8 C186.7,8.8 185.4,7.8 185.4,4.5 Z M191.5,4.5 C191.5,2.2 191.1,1.1 189,1.1 C187,1.1 186.5,2.2 186.5,4.5 C186.5,6.9 186.9,7.9 189,7.9 C191.1,7.8 191.5,6.9 191.5,4.5 Z" id="形状"></path>
                    <path d="M196.5,4.5 C196.5,1.3 198,0.2 200.5,0.2 C201.3,0.2 202.2,0.3 202.7,0.5 L202.7,1.5 C202.1,1.3 201.4,1.2 200.6,1.2 C198.7,1.2 197.7,1.8 197.7,4.5 C197.7,7.3 198.7,7.8 200.6,7.8 C201,7.8 201.6,7.8 202,7.6 L202,5 L200.3,5 L200.3,4.1 L203,4.1 L203,8.3 C202.4,8.5 201.5,8.6 200.5,8.6 C197.9,8.8 196.5,8 196.5,4.5 Z" id="路径"></path>
                    <path d="M211.8,8.7 L209.5,5.3 C209.4,5.3 209.2,5.3 209.1,5.3 L208.1,5.3 L208.1,8.6 L207,8.6 L207,0.3 L209.1,0.3 C211.4,0.3 212.3,0.9 212.3,2.8 C212.3,4.2 211.7,4.9 210.6,5.2 L213.1,8.7 L211.8,8.7 L211.8,8.7 Z M211.2,2.8 C211.2,1.5 210.6,1.3 209,1.3 L208.1,1.3 L208.1,4.4 L209,4.4 C210.6,4.4 211.2,4.2 211.2,2.8 Z" id="形状"></path>
                    <path d="M221.2,6.2 L217.5,6.2 L216.6,8.7 L215.5,8.7 L218.7,0.4 L220.1,0.4 L223.2,8.7 L222.1,8.7 L221.2,6.2 Z M220.9,5.2 L219.5,1.3 L219.4,1.3 L218,5.2 L220.9,5.2 Z" id="形状"></path>
                    <polygon id="路径" points="226.6 0.3 227.7 0.3 227.7 8.6 226.6 8.6"></polygon>
                    <polygon id="路径" points="232 0.3 233.7 0.3 237.5 7.2 237.6 7.2 237.6 0.3 238.7 0.3 238.7 8.6 237.3 8.6 233.2 1.3 233.1 1.3 233.1 8.6 232 8.6"></polygon>
                </g>
            </g>
        </g>
    </g>
</svg>