<?xml version="1.0" encoding="UTF-8"?>
<svg width="444px" height="37px" viewBox="0 0 444 37" version="1.1" xmlns="http://www.w3.org/2000/svg" xmlns:xlink="http://www.w3.org/1999/xlink">
    <!-- Generator: Sketch 61.2 (89653) - https://sketch.com -->
    <title>呼和浩特市第五粮食仓库</title>
    <desc>Created with Sketch.</desc>
    <g id="页面-1" stroke="none" stroke-width="1" fill="none" fill-rule="evenodd">
        <g id="呼和浩特市第五粮食仓库" transform="translate(-1.000000, -2.000000)" fill="#FFFFFF" fill-rule="nonzero">
            <g id="编组" transform="translate(286.000000, 2.000000)">
                <polygon id="路径" points="1.1 34.2 1.1 34.3 4.2 34.3 6 20.7 3 20.4"></polygon>
                <polygon id="路径" points="15.2 20.4 12.2 20.7 14 34.2 14 34.3 17.1 34.3 15.2 20.5"></polygon>
                <polygon id="路径" points="6 13 5 2.9 1.9 2.9 2.9 13.2"></polygon>
                <polygon id="路径" points="16.2 2.9 13.2 2.9 12.2 12.9 12.2 13 15.2 13.2"></polygon>
                <path d="M11.6,2.5 C11.6,1.5 10.8,0.7 9.8,0.7 L6.5,0.7 L6.5,15.1 L0.8,15.1 L0.8,18.6 L6.5,18.6 L6.5,34.6 C6.5,35.6 7.3,36.4 8.3,36.4 L11.6,36.4 L11.6,18.6 L17.3,18.6 L17.3,15.1 L11.6,15.1 L11.6,2.5 Z" id="路径"></path>
                <path d="M33.4,4 L29.8,4 L28.8,0.8 L23.7,0.8 L24.7,4 L18,4 L18,33.4 C18,35.1 19.4,36.5 21.1,36.5 L25.3,36.5 L25.3,33 L23,33 L23,22 L24.4,22 L29.6,36.2 L29.6,36.5 L36.5,36.5 L36.5,33 L34.3,33 L33,28.8 L36.4,27.6 L36.5,27.6 L36.5,23 L31.2,24.9 L30.2,22.1 L36.5,22.1 L36.5,7.1 C36.5,5.4 35.1,4 33.4,4 Z M23.1,14.7 L30.1,14.7 L30.1,11.2 L23.1,11.2 L23.1,7.5 L31.5,7.5 L31.5,18.4 L23.1,18.4 L23.1,14.7 Z" id="形状"></path>
            </g>
            <g id="编组" transform="translate(409.000000, 2.000000)">
                <path d="M15.8,8 L10.3,8 L9.8,10.1 L7.4,10.1 L7.4,13.7 L8.8,13.7 L7.4,18.7 L7.4,21.8 L7.4,21.9 L19,21.9 L19,25.8 L7.3,25.8 L7.3,29.4 L19,29.4 L19,36.6 L21,36.6 C22.7,36.6 24.1,35.2 24.1,33.5 L24.1,29.5 L35.1,29.5 L35.1,25.9 L24.1,25.9 L24.1,22 L35.1,22 L35.1,18.4 L24.1,18.4 L24.1,15.1 L22.1,15.1 C20.4,15.1 19,16.5 19,18.2 L19,18.3 L13,18.3 L14.3,13.6 L35.1,13.6 L35.1,10 L15.2,10 L15.8,8 Z" id="路径"></path>
                <path d="M20.7,3.8 L19.7,0.6 L19.7,0.5 L14.6,0.5 L15.7,3.8 L0.2,3.8 L0.2,36.6 L0.6,36.6 C3.2,36.6 5.3,34.5 5.3,31.9 L5.3,7.4 L35.3,7.4 L35.3,3.8 L20.7,3.8 Z" id="路径"></path>
            </g>
            <g id="编组" transform="translate(1.000000, 3.000000)">
                <path d="M14.4,2 L37,0.4 L37,4.7 L28.5,5.3 L28.5,19.7 L37,19.7 L37,23.5 L28.5,23.5 L28.5,29.4 C28.5,30.2 28.4,30.9 28.1,31.5 C27.9,32.1 27.5,32.7 27.1,33.2 C26.7,33.7 26.2,34.1 25.6,34.4 C25,34.7 24.4,34.8 23.8,34.8 L18.5,34.8 L19.7,30.7 L21.2,30.7 C21.6,30.7 21.9,30.5 22.2,30.2 C22.5,29.9 22.6,29.5 22.6,29.1 L22.6,23.4 L14.3,23.4 L14.3,19.6 L22.6,19.6 L22.6,5.6 L14.3,6.2 L14.3,2 L14.4,2 Z M21.6,17.3 L16.6,17.3 L15,8 L20,8 L21.6,17.3 Z M29.9,17.3 L31.5,7.9 L36.5,7.9 L34.9,17.3 L29.9,17.3 Z" id="形状"></path>
                <path d="M10.9,0.9 L0.5,0.9 L0.5,31.5 C0.5,33.3 1.5,34.7 2.7,34.7 L13.1,34.7 L13.1,4.1 C13.1,2.3 12.1,0.9 10.9,0.9 Z M8.3,29.7 L5.8,29.7 L5.8,29.7 L4.8,29.7 L4.8,5.9 L8.9,5.9 L8.9,29.8 L8.3,29.8 L8.3,29.7 Z" id="形状"></path>
            </g>
            <g id="编组" transform="translate(83.000000, 2.000000)">
                <path d="M0.1,9 L3,9 L0.1,0.8 L6,0.8 L9.9,12 L7,12 L9.9,20.2 L4,20.2 L0.1,9 Z M0.1,36.7 L4,22.4 L9.8,22.4 L6,36.7 L0.1,36.7 Z M27.3,13.6 L36.7,13.6 L36.7,17.1 L10.6,17.1 L10.6,13.6 L21,13.6 L21,7.8 L10.6,7.8 L12.9,1.6 L18.8,1.6 L18.1,4 L21,4 L21,0.7 L27.3,0.7 L27.3,4 L36.1,4 L36.1,7.8 L27.3,7.8 L27.3,13.6 Z" id="形状"></path>
                <path d="M33.7,20.6 L11.5,20.6 L11.5,33.6 C11.5,35.1 12.6,36.4 13.9,36.4 L36.2,36.4 L36.2,23.4 C36.1,21.8 35,20.6 33.7,20.6 Z M17.3,26.6 L17.3,24.1 L30.5,24.1 L30.5,32.7 L17.3,32.7 L17.3,29.8 L17.3,29.8 L17.3,26.6 L17.3,26.6 Z" id="形状"></path>
            </g>
            <g id="编组" transform="translate(329.000000, 2.000000)">
                <path d="M30.3,4.6 C30,4.6 29.7,4.5 29.3,4.3 C29,4.1 28.7,3.8 28.5,3.5 L26.5,0.7 L6.2,0.7 L3.9,3.2 C3.4,3.8 2.9,4.1 2.6,4.3 C2.2,4.5 1.8,4.6 1.2,4.6 L0.1,4.6 L0.1,8.2 L3.3,8.2 C4.1,8.2 4.7,8.1 5.4,7.8 C6,7.6 6.6,7.1 7.2,6.4 L9,4.3 L23,4.3 L24.6,6.9 C24.8,7.2 25.1,7.4 25.6,7.7 C26.1,8 26.9,8.1 27.9,8.1 L31.5,8.1 L31.5,4.6 L30.3,4.6 Z" id="路径"></path>
                <path d="M26.5,10 L19.8,10 L18,7.3 L10.8,7.3 L12.6,10 L0.7,10 L0.7,34.3 C0.7,35.5 2.8,36.6 5.3,36.6 L11.8,36.6 L11.8,34.3 L5.7,34.3 L5.7,25.8 L10.5,25.8 L21.1,37 L21.1,37 L25.9,37 L30.8,36.7 L30.8,33.9 L25.6,34.4 L23.3,32.1 L31.1,30.4 L31.1,27.3 L20.3,28.9 L17.6,26 L31,26 L31,12.3 C31.1,11 29.1,10 26.5,10 Z M26.2,21.6 L5.7,21.6 L5.7,18.9 L22.9,18.9 L22.9,16.1 L5.7,16.1 L5.7,13.4 L26.2,13.4 L26.2,21.6 Z" id="形状"></path>
            </g>
            <g id="编组" transform="translate(42.000000, 2.000000)">
                <path d="M0.2,2.3 L18.4,0.8 L18.4,4.8 L12,5.3 L12,11.6 L18.3,11.6 L18.3,15.7 L12,15.7 L12,15.7 L6.5,15.7 L6.5,15.7 L0.2,15.7 L0.2,11.6 L6.5,11.6 L6.5,5.7 L0.2,6.2 L0.2,2.3 Z M4,36 L0.2,36 L1.5,18.1 L5.3,18.1 L4,36 Z M18.3,36 L14.4,36 L13.3,18.1 L17.2,18.1 L18.3,36 Z M31.4,35.2 L26.1,35.2 L23,35.2 C23,35.2 21.7,35 21.1,34.3 C20.5,33.7 20.2,32.4 20.2,32.4 L20.2,4.7 L20.2,4.7 L20.2,3 L32.6,3 C33.2,3 33.8,3.1 34.4,3.4 C35,3.7 35.5,4.1 35.9,4.6 C36.3,5.1 36.7,5.7 36.9,6.3 C37.2,6.9 37.3,7.6 37.3,8.4 L37.3,35.2 L31.4,35.2 L31.4,35.2 Z M31.4,8 L26.1,8 L26.1,30.4 L30.1,30.4 C30.5,30.4 30.8,30.3 31,30 C31.2,29.7 31.4,29.3 31.4,28.9 L31.4,8 L31.4,8 Z" id="形状"></path>
                <path d="M12,6.1 C12,5.2 11.2,4.5 10.1,4.5 L6.6,4.5 L6.6,17.4 L6.6,17.4 L6.6,20.6 L6.6,20.6 L6.6,35 C6.6,35.9 7.4,36.6 8.5,36.6 L12,36.6 L12,20.6 L12,20.6 L12,17.4 L12,17.4 L12,6.1 Z" id="路径"></path>
            </g>
            <g id="编组" transform="translate(123.000000, 2.000000)">
                <path d="M7,27.4 L0.5,28.3 L0.5,24.2 L6.9,23.3 L6.9,10.6 L0.7,10.6 L1.2,1.7 L5.9,1.7 L5.6,7.4 L6.9,7.4 L6.9,6.3 L12.7,6.3 L12.7,7.4 L16.3,7.4 L16.3,10.6 L12.7,10.6 L12.7,22.5 L16.1,22 L16.1,26.1 L12.7,26.6 L12.7,28.3 L7,28.3 L7,27.4 Z M37.5,14.8 L17.1,14.8 L17.1,11.6 L24.5,11.6 L24.5,7.7 L18.3,7.7 L18.3,4.6 L24.5,4.6 L24.5,0.7 L30.1,0.7 L30.1,4.5 L36.3,4.5 L36.3,7.7 L30.1,7.7 L30.1,11.6 L37.4,11.6 L37.4,14.8 L37.5,14.8 Z M35,31.2 C35,32 34.9,32.7 34.6,33.3 C34.4,34 34,34.5 33.6,35 C33.2,35.5 32.7,35.9 32.1,36.2 C31.5,36.5 30.9,36.6 30.3,36.6 L25,36.6 L26.6,32.2 L28.3,32.2 C28.7,32.2 29,32.1 29.3,31.8 C29.6,31.5 29.7,31.1 29.7,30.7 L29.7,21.8 L17.6,21.8 L17.6,18.9 L29.7,18.9 L29.7,17.3 L35.1,17.3 L35.1,18.9 L37,18.9 L37,21.8 L35,21.8 L35,31.2 Z M24.1,24.9 L26.5,31.8 L20.9,31.8 L18.5,24.9 L24.1,24.9 Z" id="形状"></path>
                <path d="M12.8,2.7 C12.8,1.7 11.9,0.9 10.8,0.9 L7,0.9 L7,15.2 L7,15.2 L7,19.5 L7,18.7 L7,34.7 C7,35.7 7.9,36.5 9,36.5 L12.8,36.5 L12.8,18.8 L12.8,18.8 L12.8,15.3 L12.8,15.3 L12.8,2.7 Z" id="路径"></path>
            </g>
            <path d="M282.6,38.1 L245.8,38.1 L245.8,33.8 L251.8,33.8 L254.1,20.2 L247.5,20.2 L247.5,15.9 L255,15.9 L256.3,7.5 L246.5,7.5 L246.5,3.3 L281.8,3.3 L281.8,7.6 L262,7.6 L260.7,16 L276.2,16 C277.1,16 277.8,16.4 278.4,17.1 C279,17.8 279.3,18.7 279.3,19.7 L279.3,21 L279.3,33.8 L282.6,33.8 L282.6,38.1 L282.6,38.1 Z M257.5,33.8 L273.6,33.8 L273.6,21.2 L273.6,20.2 L272.7,20.2 L259.7,20.2 L257.5,33.8 Z" id="形状"></path>
            <path d="M223,8.3 L219.8,8.3 L222.3,12.6 L217,12.6 L214.6,8.3 L212.7,8.3 L211.1,12.5 L205,12.5 L208.6,2.8 L214.7,2.8 L214.2,4.3 L223,4.3 L223,8.3 Z M226.2,27.9 L241.6,27.9 L241.6,29.8 L241.6,31.6 L241.6,33.6 C241.6,34.2 241.5,34.8 241.3,35.4 C241.1,36 240.8,36.4 240.5,36.9 C240.2,37.3 239.7,37.7 239.3,37.9 C238.8,38.1 238.3,38.3 237.8,38.3 L230.9,38.3 L232.4,34.2 L235.1,34.2 C235.3,34.2 235.6,34.1 235.7,33.9 C235.9,33.7 236,33.4 236,33.1 L236,31.7 L226.4,31.7 L226.4,38.3 L220.6,38.3 L220.6,31.7 L217,31.7 L212.8,38.3 L205.8,38.3 L210,31.7 L206.3,31.7 L206.3,27 L206.3,24.8 L206.3,21.1 L206.3,20.5 L220.5,20.5 L220.5,17.4 L206.4,17.4 L206.4,14 L235.2,14 L241,14 L241,18.3 L241,20.3 C241,21.6 240.6,21.8 239.9,22.7 C239.1,23.6 238.2,24 237.1,24 L226.3,24 L226.3,27.9 L226.2,27.9 Z M220.4,27.9 L220.4,24.1 L211.9,24.1 L211.9,27.9 L220.4,27.9 Z M232.7,4.4 L241.5,4.4 L241.5,8.4 L238.3,8.4 L240.8,12.7 L235.6,12.7 L233,8.3 L231.1,8.3 L229.6,12.5 L223.5,12.5 L227.1,2.8 L233.2,2.8 L232.7,4.4 Z M226.2,20.6 L235.1,20.6 L235.1,19.5 L235.1,17.5 L226.2,17.5 L226.2,20.6 Z" id="形状"></path>
            <g id="编组" transform="translate(164.000000, 2.000000)">
                <path d="M20.9,7.1 C20.9,6.1 20,5.3 18.9,5.3 L15.1,5.3 L15.1,15.1 L15.1,15.1 L15.1,19.4 L15.1,18.6 L15.1,34.6 C15.1,35.6 16,36.4 17.1,36.4 L20.9,36.4 L20.9,18.6 L20.9,18.6 L20.9,15.1 L20.9,15.1 L20.9,7.1 Z" id="路径"></path>
                <path d="M20.8,8.6 L20.8,13.7 L31.3,13.7 L32.6,13.7 C33.1,13.7 33.6,13.8 34.1,14.1 C34.6,14.3 35,14.7 35.4,15.1 C35.7,15.5 36,16 36.2,16.6 C36.4,17.2 36.5,17.8 36.5,18.4 L36.5,29.7 L36.5,30.8 C36.5,31.8 36.2,32.7 35.6,33.4 C35,34.1 34.3,34.5 33.4,34.5 L27.4,34.5 L29.3,29.6 L30.5,29.6 C30.8,29.6 31,29.5 31.1,29.3 C31.3,29.1 31.4,28.8 31.4,28.6 L31.4,20.1 L31.4,17.4 L30.1,17.4 L20.9,17.4 L20.9,15.2 C20.9,15.2 21,16 20.6,16.3 C20.2,16.6 19.5,16.6 19.5,16.6 L20.1,16.6 L15.8,16.6 L15.8,17.4 L6.9,17.4 L6.9,34.5 L1.7,34.5 L1.7,13.7 L6.2,13.7 L6.9,13.7 L15.8,13.7 L15.8,8.6 L0.9,8.6 L0.9,4.5 L15.2,4.5 L14.2,0.5 L20,0.5 L21,4.4 L36.9,4.4 L36.9,8.5 L20.8,8.5 L20.8,8.6 Z" id="路径"></path>
            </g>
            <path d="M377,2.9 L377,2.9 L392,2.9 L393.7,2.9 L397.4,2.9 L401.8,13.5 L396.3,13.5 L394,7.2 L375,7.2 L372.9,13.5 L367,13.5 L371.1,2.9 L377,2.9 Z M372.8,33.2 L372.8,34.4 L373.7,34.4 L401.9,34.4 L400.7,38.4 L371.1,38.4 C370.1,38.4 369.2,38 368.5,37.1 C367.8,36.2 367.4,35.2 367.4,34 L367.4,15.1 L367.4,15.1 L367.4,15.1 L400.8,15.1 L400.8,18.1 L400.8,19.9 L400.8,26 C400.8,27 400.5,27.9 399.9,28.6 C399.3,29.3 398.6,29.7 397.8,29.7 L395.7,29.7 L395.1,29.7 L377.2,29.7 L378.7,25.8 L394.3,25.8 L395.1,25.8 L395.1,23.9 L395.1,19 L372.7,19 L372.8,33.2 Z" id="形状"></path>
        </g>
    </g>
</svg>