<?xml version="1.0" encoding="UTF-8"?>
<svg width="322px" height="37px" viewBox="0 0 322 37" version="1.1" xmlns="http://www.w3.org/2000/svg" xmlns:xlink="http://www.w3.org/1999/xlink">
    <!-- Generator: Sketch 61.2 (89653) - https://sketch.com -->
    <title>呼和浩特南郊粮库</title>
    <desc>Created with Sketch.</desc>
    <g id="页面-1" stroke="none" stroke-width="1" fill="none" fill-rule="evenodd">
        <g id="呼和浩特南郊粮库" transform="translate(-3.000000, -1.000000)" fill="#FFFFFF" fill-rule="nonzero">
            <g id="编组" transform="translate(247.000000, 1.000000)">
                <polygon id="路径" points="0.3 34.4 0.2 34.5 3.3 34.5 5.1 20.8 2.1 20.6"></polygon>
                <polygon id="路径" points="14.4 20.6 11.3 20.8 13.1 34.4 13.2 34.5 16.2 34.5 14.4 20.7"></polygon>
                <polygon id="路径" points="5.1 13.2 4.1 3.1 1.1 3.1 2.1 13.4"></polygon>
                <polygon id="路径" points="15.4 3.1 12.3 3.1 11.4 13.1 11.3 13.2 14.4 13.4"></polygon>
                <path d="M10.8,2.7 C10.8,1.7 10,0.9 9,0.9 L5.7,0.9 L5.7,15.3 L0,15.3 L0,18.8 L5.7,18.8 L5.7,34.8 C5.7,35.8 6.5,36.6 7.5,36.6 L10.8,36.6 L10.8,18.8 L16.5,18.8 L16.5,15.3 L10.8,15.3 L10.8,2.7 Z" id="路径"></path>
                <path d="M32.6,4.2 L29,4.2 L28,1 L22.9,1 L23.9,4.2 L17.2,4.2 L17.2,33.6 C17.2,35.3 18.6,36.7 20.3,36.7 L24.5,36.7 L24.5,33.2 L22.2,33.2 L22.2,22.2 L23.6,22.2 L28.8,36.4 L28.8,36.7 L35.7,36.7 L35.7,33.2 L33.5,33.2 L32.2,29 L35.6,27.8 L35.7,27.8 L35.7,23 L30.4,24.9 L29.4,22.1 L35.7,22.1 L35.7,7.3 C35.7,5.5 34.3,4.2 32.6,4.2 Z M22.2,14.9 L29.2,14.9 L29.2,11.4 L22.2,11.4 L22.2,7.7 L30.6,7.7 L30.6,18.6 L22.2,18.6 L22.2,14.9 Z" id="形状"></path>
            </g>
            <g id="编组" transform="translate(289.000000, 1.000000)">
                <path d="M15.9,8.2 L10.4,8.2 L9.9,10.3 L7.5,10.3 L7.5,13.9 L8.9,13.9 L7.5,18.9 L7.5,22 L7.5,22.1 L19.2,22.1 L19.2,26 L7.5,26 L7.5,29.6 L19.2,29.6 L19.2,36.8 L21.2,36.8 C22.9,36.8 24.3,35.4 24.3,33.7 L24.3,29.7 L35.3,29.7 L35.3,26 L24.3,26 L24.3,22.1 L35.3,22.1 L35.3,18.5 L24.3,18.5 L24.3,15.2 L22.3,15.2 C20.6,15.2 19.2,16.6 19.2,18.3 L19.2,18.4 L13.2,18.4 L14.5,13.7 L35.3,13.7 L35.3,10.1 L15.4,10.1 L15.9,8.2 Z" id="路径"></path>
                <path d="M20.8,4 L19.8,0.8 L19.8,0.7 L14.7,0.7 L15.8,4 L0.3,4 L0.3,36.8 L0.7,36.8 C3.3,36.8 5.4,34.7 5.4,32.1 L5.4,7.6 L35.4,7.6 L35.4,4 L20.8,4 Z" id="路径"></path>
            </g>
            <g id="编组" transform="translate(3.000000, 2.000000)">
                <path d="M14.3,2.2 L36.9,0.6 L36.9,4.9 L28.4,5.5 L28.4,19.9 L36.9,19.9 L36.9,23.7 L28.4,23.7 L28.4,29.6 C28.4,30.4 28.3,31.1 28,31.7 C27.8,32.3 27.4,32.9 27,33.4 C26.6,33.9 26.1,34.3 25.5,34.6 C24.9,34.9 24.3,35 23.7,35 L18.4,35 L19.6,30.9 L21.1,30.9 C21.5,30.9 21.8,30.7 22.1,30.4 C22.4,30.1 22.5,29.7 22.5,29.3 L22.5,23.6 L14.2,23.6 L14.2,19.8 L22.5,19.8 L22.5,5.8 L14.2,6.4 L14.2,2.2 L14.3,2.2 Z M21.5,17.5 L16.5,17.5 L14.9,8.1 L19.9,8.1 L21.5,17.5 Z M29.8,17.5 L31.4,8.1 L36.4,8.1 L34.8,17.5 L29.8,17.5 Z" id="形状"></path>
                <path d="M10.8,1.1 L0.4,1.1 L0.4,31.7 C0.4,33.5 1.4,34.9 2.6,34.9 L13,34.9 L13,4.3 C13,2.5 12,1.1 10.8,1.1 Z M8.2,29.9 L5.7,29.9 L5.7,29.9 L4.7,29.9 L4.7,6 L8.8,6 L8.8,29.9 L8.2,29.9 L8.2,29.9 Z" id="形状"></path>
            </g>
            <g id="编组" transform="translate(85.000000, 1.000000)">
                <path d="M0,9.1 L2.9,9.1 L0,0.9 L5.8,0.9 L9.7,12.1 L6.8,12.1 L9.7,20.3 L3.9,20.3 L0,9.1 Z M0,36.8 L3.9,22.6 L9.7,22.6 L5.8,36.8 L0,36.8 Z M27.2,13.8 L36.6,13.8 L36.6,17.3 L10.5,17.3 L10.5,13.8 L20.9,13.8 L20.9,8 L10.5,8 L12.8,1.8 L18.7,1.8 L18,4.2 L20.9,4.2 L20.9,0.9 L27.2,0.9 L27.2,4.2 L36,4.2 L36,8 L27.2,8 L27.2,13.8 Z" id="形状"></path>
                <path d="M33.6,20.8 L11.4,20.8 L11.4,33.8 C11.4,35.3 12.5,36.6 13.8,36.6 L36,36.6 L36,23.6 C36,22 34.9,20.8 33.6,20.8 Z M17.2,26.8 L17.2,24.3 L30.4,24.3 L30.4,32.9 L17.2,32.9 L17.2,30 L17.2,30 L17.2,26.8 L17.2,26.8 Z" id="形状"></path>
            </g>
            <g id="编组" transform="translate(44.000000, 2.000000)">
                <path d="M0,1.5 L18.2,0 L18.2,4 L11.9,4.5 L11.9,10.8 L18.2,10.8 L18.2,14.9 L11.9,14.9 L11.9,14.9 L6.4,14.9 L6.4,14.9 L0,14.9 L0,10.8 L6.3,10.8 L6.3,4.9 L0,5.5 L0,1.5 Z M3.9,35.2 L0,35.2 L1.3,17.3 L5.1,17.3 L3.9,35.2 Z M18.2,35.2 L14.3,35.2 L13.2,17.3 L17.1,17.3 L18.2,35.2 Z M31.3,34.4 L26,34.4 L22.9,34.4 C22.9,34.4 21.6,34.2 21,33.5 C20.4,32.9 20.1,31.6 20.1,31.6 L20.1,3.9 L20.1,3.9 L20.1,2.2 L32.5,2.2 C33.1,2.2 33.7,2.3 34.3,2.6 C34.9,2.9 35.4,3.3 35.8,3.8 C36.2,4.3 36.6,4.9 36.8,5.5 C37.1,6.1 37.2,6.8 37.2,7.6 L37.2,34.4 L31.3,34.4 L31.3,34.4 Z M31.3,7.2 L26,7.2 L26,29.6 L30,29.6 C30.4,29.6 30.7,29.5 30.9,29.2 C31.1,28.9 31.3,28.5 31.3,28.1 L31.3,7.2 L31.3,7.2 Z" id="形状"></path>
                <path d="M11.9,5.3 C11.9,4.4 11.1,3.7 10,3.7 L6.5,3.7 L6.5,16.6 L6.5,16.6 L6.5,19.8 L6.5,19.8 L6.5,34.2 C6.5,35.1 7.3,35.8 8.4,35.8 L11.9,35.8 L11.9,19.8 L11.9,19.8 L11.9,16.6 L11.9,16.6 L11.9,5.3 Z" id="路径"></path>
            </g>
            <g id="编组" transform="translate(125.000000, 1.000000)">
                <path d="M6.9,27.6 L0.4,28.5 L0.4,24.4 L6.8,23.5 L6.8,10.8 L0.6,10.8 L1.1,1.9 L5.8,1.9 L5.5,7.6 L6.8,7.6 L6.8,6.5 L12.6,6.5 L12.6,7.6 L16.2,7.6 L16.2,10.8 L12.6,10.8 L12.6,22.7 L16,22.2 L16,26.3 L12.6,26.8 L12.6,28.5 L6.8,28.5 L6.8,27.6 L6.9,27.6 Z M37.4,15 L17,15 L17,11.8 L24.4,11.8 L24.4,7.9 L18.2,7.9 L18.2,4.7 L24.4,4.7 L24.4,0.9 L30,0.9 L30,4.7 L36.2,4.7 L36.2,7.9 L30,7.9 L30,11.8 L37.3,11.8 L37.3,15 L37.4,15 Z M34.9,31.4 C34.9,32.2 34.8,32.9 34.5,33.5 C34.3,34.2 33.9,34.7 33.5,35.2 C33.1,35.7 32.6,36.1 32,36.4 C31.4,36.7 30.8,36.8 30.2,36.8 L24.8,36.8 L26.4,32.4 L28.1,32.4 C28.5,32.4 28.8,32.3 29.1,32 C29.4,31.7 29.5,31.3 29.5,30.9 L29.5,22 L17.4,22 L17.4,19.1 L29.5,19.1 L29.5,17.5 L34.9,17.5 L34.9,19.1 L36.8,19.1 L36.8,22 L34.9,22 L34.9,31.4 L34.9,31.4 Z M24,25.1 L26.4,32 L20.8,32 L18.4,25.1 L24,25.1 Z" id="形状"></path>
                <path d="M12.7,2.9 C12.7,1.9 11.8,1.1 10.7,1.1 L6.9,1.1 L6.9,15.4 L6.9,15.4 L6.9,19.7 L6.9,18.9 L6.9,34.9 C6.9,35.9 7.8,36.7 8.9,36.7 L12.7,36.7 L12.7,18.9 L12.7,18.9 L12.7,15.4 L12.7,15.4 L12.7,2.9 Z" id="路径"></path>
            </g>
            <path d="M198.8,10.6 C199.4,10.6 199.9,10.7 200.4,11 C200.9,11.3 201.3,11.6 201.7,12 C202.1,12.4 202.4,13 202.6,13.5 C202.8,14.1 202.9,14.7 202.9,15.4 L202.9,32.5 C202.9,33.9 202.5,35 201.7,35.9 C200.9,36.8 199.9,37.3 198.8,37.3 L193.9,37.3 L195.6,33 L196.5,33 C196.8,33 197.1,32.9 197.3,32.6 C197.5,32.3 197.6,32 197.6,31.6 L197.6,15.8 L197.6,14.4 L196.4,14.4 L172,14.4 L172,37.3 L166.7,37.3 L166.7,10.6 L181.3,10.6 L181.3,7.9 L166.6,7.9 L166.6,3.9 L181.3,3.9 L181.3,2.5 L187.3,2.5 L187.3,3.9 L202.5,3.9 L202.5,7.9 L187.4,7.9 L187.4,10.6 L198.8,10.6 Z M181.5,26.8 L181.5,23 L173.2,23 L173.2,19.6 L175.4,19.6 L174.1,16 L180.2,16 L181.5,19.5 L187.7,19.5 L189,16 L195.1,16 L193.8,19.5 L195.9,19.5 L195.9,23 L188,23 L188,26.8 L195.9,26.8 L195.9,30.2 L188,30.2 L188,35.8 C188,35.8 188.1,36.5 187.7,36.9 C187.3,37.3 186.4,37.3 186.4,37.3 L181.6,37.3 L181.6,30.2 L173.3,30.2 L173.3,26.8 L181.5,26.8 L181.5,26.8 Z" id="形状"></path>
            <g id="编组" transform="translate(207.000000, 2.000000)">
                <path d="M5.8,16.5 L0.6,16.5 L3,8.8 L8.2,8.8 L5.8,16.5 Z M13.2,3.4 L20.6,3.4 L20.6,6.5 L0.1,6.5 L0.1,3.4 L7.7,3.4 L6.5,0 L12,0 L13.2,3.4 Z M19.6,18 C18.4,21.5 15.8,25.4 13.6,27.9 C14.5,28.5 15.4,29 16.4,29.4 C17.4,29.9 18.5,30.3 19.8,30.7 L20.7,35.7 C18.7,35 16.8,34.3 15.1,33.5 C13.4,32.7 11.8,31.8 10.4,30.7 C7.5,32.7 4.1,34.4 0.2,35.6 L1.1,30.4 C3.4,29.6 5.5,28.7 7.2,27.6 C5,25.1 2.4,21.5 1.1,18 L6.4,18.9 C6.8,20 7.3,20.9 7.8,21.8 C8.3,22.7 9.7,24.1 10.4,24.8 C11,24 12.5,22.4 13,21.5 C13.5,20.6 14,19.7 14.5,18.6 L19.6,18 Z M17.7,8.8 L20.1,16.5 L14.9,16.5 L12.3,8.8 L17.7,8.8 Z" id="形状"></path>
                <path d="M23,35.5 L23,4.3 L23,0.1 L31.9,0.1 C31.9,0.1 33.6,0.1 34.5,1.1 C35.1,1.7 35.5,2.7 35.5,4.1 C35.5,4.1 35.5,12.7 35.5,13.5 C35.5,14.3 33.5,14.4 33.5,14.4 C33.5,14.4 34.7,15.1 35,15.6 C35.4,16.2 35.5,17 35.5,17.7 L35.5,27.6 C35.5,27.6 35.6,29 34.3,29 C33,29 27.6,29 27.6,29 L27.6,35.4 L23,35.4 L23,35.5 Z M29.8,13.3 L31,13.3 L31,4.1 L31,2.8 L27.5,2.8 L27.5,4.1 L27.5,13.3 L29.8,13.3 L29.8,13.3 Z M31.1,26.5 L31.1,16 L29.9,16 L27.7,16 L27.7,26.4 L31.1,26.5 Z" id="形状"></path>
            </g>
        </g>
    </g>
</svg>