<?xml version="1.0" encoding="UTF-8"?>
<svg width="273px" height="30px" viewBox="0 0 273 30" version="1.1" xmlns="http://www.w3.org/2000/svg" xmlns:xlink="http://www.w3.org/1999/xlink">
    <!-- Generator: Sketch 61.2 (89653) - https://sketch.com -->
    <title>logo-01</title>
    <desc>Created with Sketch.</desc>
    <g id="页面-1" stroke="none" stroke-width="1" fill="none" fill-rule="evenodd">
        <g id="logo-01" transform="translate(-5.000000, -3.000000)" fill="#FFFFFF" fill-rule="nonzero">
            <g id="编组" transform="translate(5.000000, 3.000000)">
                <g transform="translate(174.000000, 0.000000)" id="路径">
                    <polygon points="14.8 1.9 10.7 1.9 11.1 4.1 4.7 4.1 5.5 0.4 1.3 0.4 0.5 4.4 0.5 6.8 0.5 6.9 15.3 6.9 15.3 4.3"></polygon>
                    <path d="M12.7,8.5 L0.5,8.5 L0.5,29.6 L2.1,29.6 C3.5,29.6 4.6,28.5 4.6,27.1 L4.6,22.3 L10,22.3 L10,19.4 L4.6,19.4 L4.6,16.9 L10,16.9 L10,14 L4.6,14 L4.6,11.4 L11.1,11.4 L11.1,29.6 L15.2,29.6 L15.2,11 C15.3,9.6 14.1,8.5 12.7,8.5 Z"></path>
                    <path d="M20.6,8.7 L28.1,5.9 L28.2,5.9 L28.2,2.2 L20.6,5 L20.6,0.4 L16.5,0.4 L16.5,11.8 C16.5,13.2 17.6,14.3 19,14.3 L29.3,14.3 L29.3,11.4 L20.6,11.4 L20.6,8.7 L20.6,8.7 Z"></path>
                    <path d="M20.6,23.8 L28.1,21 L28.2,21 L28.2,17.4 L20.6,20.2 L20.6,15.6 L16.5,15.6 L16.5,27 C16.5,28.4 17.6,29.5 19,29.5 L29.3,29.5 L29.3,26.6 L20.6,26.6 L20.6,23.8 L20.6,23.8 Z"></path>
                </g>
                <g transform="translate(244.000000, 0.000000)" id="路径">
                    <path d="M13.1,6.4 L8.6,6.4 L8.2,8.1 L6.3,8.1 L6.3,11 L7.5,11 L6.3,15 L6.3,17.5 L6.3,17.6 L15.7,17.6 L15.7,20.7 L6.3,20.7 L6.3,23.6 L15.7,23.6 L15.7,29.4 L17.3,29.4 C18.7,29.4 19.8,28.3 19.8,26.9 L19.8,23.6 L28.7,23.6 L28.7,20.7 L19.8,20.7 L19.8,17.6 L28.7,17.6 L28.7,14.7 L19.8,14.7 L19.8,12 L18.2,12 C16.8,12 15.7,13.1 15.7,14.5 L15.7,14.6 L10.8,14.6 L11.9,10.8 L28.8,10.8 L28.8,7.9 L12.7,7.9 L13.1,6.4 Z"></path>
                    <path d="M17.1,3 L16.3,0.4 L16.3,0.3 L12.1,0.3 L13,2.9 L0.4,2.9 L0.4,29.4 L0.7,29.4 C2.8,29.4 4.5,27.7 4.5,25.6 L4.5,5.9 L28.8,5.9 L28.8,3 L17.1,3 Z"></path>
                </g>
                <g transform="translate(209.000000, 0.000000)">
                    <polygon id="路径" points="0.2 27.7 0.2 27.8 2.7 27.8 4.2 16.6 1.7 16.4"></polygon>
                    <polygon id="路径" points="11.7 16.4 9.3 16.6 10.7 27.7 10.7 27.8 13.2 27.8 11.7 16.5"></polygon>
                    <polygon id="路径" points="4.2 10.4 3.4 2.1 0.9 2.1 1.7 10.6"></polygon>
                    <polygon id="路径" points="12.6 2.1 10.1 2.1 9.3 10.3 9.3 10.4 11.7 10.6"></polygon>
                    <path d="M8.8,1.8 C8.8,1 8.2,0.4 7.4,0.4 L4.7,0.4 L4.7,12.1 L0,12.1 L0,15 L4.7,15 L4.7,28.1 C4.7,28.9 5.3,29.5 6.1,29.5 L8.8,29.5 L8.8,15 L13.5,15 L13.5,12.1 L8.8,12.1 L8.8,1.8 L8.8,1.8 Z" id="路径"></path>
                    <path d="M26.6,3 L23.7,3 L22.8,0.4 L18.6,0.4 L19.5,3 L14,3 L14,27 C14,28.4 15.1,29.5 16.5,29.5 L19.9,29.5 L19.9,26.6 L18.1,26.6 L18.1,17.7 L19.3,17.7 L23.5,29.3 L23.5,29.5 L29.1,29.5 L29.1,26.6 L27.3,26.6 L26.2,23.2 L29,22.2 L29.1,22.2 L29.1,18.4 L24.8,20 L24,17.7 L29.1,17.7 L29.1,5.6 C29.1,4.2 28,3 26.6,3 Z M18.1,11.8 L23.8,11.8 L23.8,8.9 L18.1,8.9 L18.1,5.9 L25,5.9 L25,14.8 L18.1,14.8 L18.1,11.8 Z" id="形状"></path>
                </g>
                <g transform="translate(103.000000, 0.000000)">
                    <polygon id="路径" points="1.1 27.7 1.1 27.8 3.6 27.8 5.1 16.6 2.6 16.4"></polygon>
                    <polygon id="路径" points="12.7 16.4 10.2 16.6 11.6 27.7 11.7 27.8 14.2 27.8 12.7 16.5"></polygon>
                    <polygon id="路径" points="5.1 10.4 4.3 2.1 1.8 2.1 2.6 10.6"></polygon>
                    <polygon id="路径" points="13.5 2.1 11 2.1 10.2 10.3 10.2 10.4 12.7 10.6"></polygon>
                    <path d="M9.7,1.8 C9.7,1 9.1,0.4 8.3,0.4 L5.6,0.4 L5.6,12.1 L0.9,12.1 L0.9,15 L5.6,15 L5.6,28.1 C5.6,28.9 6.2,29.5 7,29.5 L9.7,29.5 L9.7,15 L14.4,15 L14.4,12.1 L9.7,12.1 L9.7,1.8 Z" id="路径"></path>
                    <path d="M27.5,3 L24.6,3 L23.7,0.4 L19.5,0.4 L20.4,3 L14.9,3 L14.9,27 C14.9,28.4 16,29.5 17.4,29.5 L20.8,29.5 L20.8,26.6 L19,26.6 L19,17.7 L20.2,17.7 L24.4,29.3 L24.4,29.5 L30,29.5 L30,26.6 L28.2,26.6 L27.1,23.2 L29.9,22.2 L30,22.2 L30,18.4 L25.7,20 L24.9,17.7 L30,17.7 L30,5.6 C30,4.2 28.9,3 27.5,3 Z M19.1,11.8 L24.8,11.8 L24.8,8.9 L19.1,8.9 L19.1,5.9 L26,5.9 L26,14.8 L19.1,14.8 L19.1,11.8 L19.1,11.8 Z" id="形状"></path>
                </g>
                <g transform="translate(139.000000, 0.000000)">
                    <polygon id="路径" points="0.3 11 0.3 13.9 5.9 13.9 8.6 10.3 11.3 13.8 11.4 13.9 16 13.9 13.1 10 13 10 8.9 10 9.7 8.9 15.2 8.9 15.2 6 9.8 6 9.8 4.6 14.6 4.6 14.6 1.7 5 1.7 5.3 0.4 1.2 0.4 0.2 4.5 0.2 4.6 5.7 4.6 5.7 6 0.3 6 0.3 8.9 5.1 8.9 3.5 11"></polygon>
                    <path d="M26.9,1.7 L16.5,1.7 L16.5,11.4 C16.5,12.8 17.6,13.9 19,13.9 L29.4,13.9 L29.4,4.2 C29.4,2.8 28.3,1.7 26.9,1.7 Z M25.3,4.6 L25.3,11 L20.6,11 L20.6,4.6 L25.3,4.6 Z" id="形状"></path>
                    <path d="M25.7,15.2 L1.8,15.2 L1.8,27 C1.8,28.4 2.9,29.5 4.3,29.5 L28.2,29.5 L28.2,17.8 C28.2,16.4 27.1,15.2 25.7,15.2 Z M5.9,20.6 L5.9,18.1 L24.1,18.1 L24.1,26.6 L5.9,26.6 L5.9,23.5 L22.7,23.5 L22.7,20.6 L5.9,20.6 Z" id="形状"></path>
                </g>
                <g>
                    <path d="M25.7,5.7 L0.6,5.7 L0.6,17.5 C0.6,18.9 1.8,20 3.3,20 L28.4,20 L28.4,8.2 C28.4,6.8 27.2,5.7 25.7,5.7 Z M4.9,11.1 L4.9,8.6 L24,8.6 L24,17.1 L4.9,17.1 L4.9,14 L4.9,14 L4.9,11.1 L4.9,11.1 Z" id="形状"></path>
                    <path d="M17.1,1.7 C17.1,0.9 16.5,0.2 15.7,0.2 L13,0.2 L13,12.1 L13,12.1 L13,15 L13,15 L13,28.3 C13,29.1 13.6,29.8 14.4,29.8 L17.1,29.8 L17.1,15 L17.1,15 L17.1,12.1 L17.1,12.1 L17.1,1.7 Z" id="路径"></path>
                </g>
                <g transform="translate(34.000000, 0.000000)">
                    <polygon id="路径" points="21.6 8.1 18.8 1.8 16.5 2.5 19.3 9"></polygon>
                    <polygon id="路径" points="19.8 14.9 17 8.6 14.6 9.3 17.5 15.8"></polygon>
                    <g id="路径">
                        <polygon points="0.6 27.7 0.6 27.8 3.1 27.8 4.6 13.5 2.1 13.2"></polygon>
                        <polygon points="12.1 13.2 9.7 13.5 11.1 27.7 11.1 27.8 13.6 27.8 12.1 13.3"></polygon>
                        <polygon points="12.5 2.7 11.9 0.2 1.5 2.2 1.4 2.3 1.8 4.7"></polygon>
                        <path d="M9.2,1.8 C9.2,1 8.6,1.8 7.8,1.8 L5.1,1.8 L5.1,8.7 L0.4,8.7 L0.4,11.6 L5.1,11.6 L5.1,28.1 C5.1,28.9 5.7,29.5 6.5,29.5 L9.2,29.5 L9.2,11.5 L13.9,11.5 L13.9,8.6 L9.2,8.6 L9.2,1.8 Z"></path>
                    </g>
                    <path d="M26.7,1.8 C26.7,1 26.1,0.4 25.3,0.4 L22.6,0.4 L22.6,12.1 L22.6,12.1 L22.6,15 L22.6,15 L22.6,28.1 C22.6,28.9 23.2,29.5 24,29.5 L26.7,29.5 L26.7,15 L26.7,15 L26.7,12.1 L26.7,12.1 L26.7,1.8 L26.7,1.8 Z" id="路径"></path>
                    <rect id="矩形" x="15.6" y="17.5" width="13.9" height="3.1"></rect>
                </g>
                <g transform="translate(69.000000, 0.000000)">
                    <polygon id="路径" points="21.9 0.6 7.6 0.6 0.8 4 0.8 8.5 8.7 4.1 20.8 4.1 28.7 8.5 28.7 4"></polygon>
                    <polygon id="路径" points="9.9 26.1 6.7 19.9 3.4 21 6.8 27.3"></polygon>
                    <polygon id="路径" points="26.6 21.3 23.4 20.2 20.2 26.2 20.1 26.3 23.2 27.5"></polygon>
                    <path d="M16.8,9.9 C16.8,9.2 16.2,8.6 15.4,8.6 L12.7,8.6 L12.7,16.1 L12.7,16.1 L12.7,18.6 L12.7,18.6 L12.7,28.3 C12.7,29 13.3,29.6 14.1,29.6 L16.8,29.6 L16.8,18.6 L16.8,18.6 L16.8,16.1 L16.8,16.1 L16.8,9.9 Z" id="路径"></path>
                    <rect id="矩形" x="3.1" y="8.2" width="23.3" height="3.1"></rect>
                    <rect id="矩形" x="2" y="15.6" width="26.9" height="3.1"></rect>
                    <rect id="矩形" x="0.7" y="26.4" width="28.5" height="3.2"></rect>
                </g>
            </g>
        </g>
    </g>
</svg>