<?xml version="1.0" encoding="UTF-8"?>
<svg width="283px" height="85px" viewBox="0 0 283 85" version="1.1" xmlns="http://www.w3.org/2000/svg" xmlns:xlink="http://www.w3.org/1999/xlink">
    <!-- Generator: Sketch 61.2 (89653) - https://sketch.com -->
    <title>内蒙古牧王粮食股份有限公司</title>
    <desc>Created with Sketch.</desc>
    <g id="页面-1" stroke="none" stroke-width="1" fill="none" fill-rule="evenodd">
        <g id="内蒙古牧王粮食股份有限公司" transform="translate(-2.000000, -3.000000)" fill="#FFFFFF" fill-rule="nonzero">
            <path d="M9,39.7 L3.3,39.7 L3.3,13.2 L3.3,10 L3.3,8.6 L18.7,8.6 L18.7,4.1 L24.6,4.1 L24.6,8.6 L40,8.6 L40.1,8.6 L40.1,35.1 C40.1,36.4 39.7,37.4 39,38.3 C38.3,39.2 37.4,39.6 36.3,39.6 L29.3,39.6 L30.6,35.5 L33.5,35.5 C33.8,35.5 34,35.4 34.2,35.2 C34.4,35 34.5,34.7 34.5,34.4 L34.5,12.4 L24.4,12.4 L23.1,16.8 L27.5,16.8 L32.3,32.9 L27,32.9 L22.6,18.6 L16.8,32.9 L10.9,32.9 L18.7,12.4 L9,12.4 L9,39.7 Z" id="路径"></path>
            <path d="M50.5,8.4 L45.5,8.4 L45.5,5.2 L49.1,5.2 L48.7,4 L55.6,4 L56,5.2 L72,5.2 L72.4,4 L79.2,4 L78.8,5.2 L82.5,5.2 L82.5,8.3 L77.5,8.3 L77.1,10.1 L70.2,10.1 L70.6,8.3 L57.4,8.3 L57.8,10.1 L50.9,10.1 L50.5,8.4 Z M47.8,17.5 L45.6,17.5 L45.6,11.3 L79.7,11.3 C80.5,11.3 81.2,11.6 81.8,12.3 C82.4,13 82.7,13.8 82.7,14.8 L82.7,17.5 L80.4,17.5 L80.4,18.9 L47.8,18.9 L47.8,17.5 Z M62.1,35.6 L45.5,39.3 L45.5,36.3 L62.1,32.6 L62.1,31 L45.5,34.8 L45.5,31.7 L61.8,28.1 L61.6,27 L45.6,30.6 L45.6,27.3 L60.8,23.6 L45.5,23.6 L45.5,20.8 L82.5,20.8 L82.5,23.6 L66.2,23.6 L66.9,26 L70.6,26 L74.2,29.4 L76.9,25.9 L82.1,25.9 L76.8,33.1 L82.7,39.9 L75,39.9 L69.4,33.5 L67.8,31.7 L67.8,36 C67.8,36.6 67.7,37.1 67.6,37.5 C67.5,37.9 67.2,38.3 66.9,38.7 C66.6,39 66.2,39.3 65.8,39.5 C65.4,39.7 65,39.8 64.5,39.8 L59.4,39.8 L60.1,37.3 L61.4,37.3 C61.6,37.3 61.8,37.2 61.9,37.1 C62,37 62.1,36.8 62.1,36.6 L62.1,35.6 L62.1,35.6 Z M51.3,14.3 L51.3,16 L76.8,16 C76.8,15.7 76.7,15.1 76.5,14.7 C76.2,14.4 76,14.3 75.7,14.3 L51.3,14.3 L51.3,14.3 Z" id="形状"></path>
            <g id="编组" transform="translate(210.000000, 3.000000)">
                <polygon id="路径" points="1 34.4 0.9 34.6 4 34.6 5.8 20.9 2.8 20.6"></polygon>
                <polygon id="路径" points="15.1 20.6 12 20.9 13.8 34.5 13.9 34.6 16.9 34.6 15.1 20.7"></polygon>
                <polygon id="路径" points="5.8 13.2 4.8 3.1 1.8 3.1 2.8 13.5"></polygon>
                <polygon id="路径" points="16.1 3.1 13.1 3.1 12.1 13.1 12.1 13.2 15.1 13.5"></polygon>
                <path d="M11.5,2.7 C11.5,1.7 10.7,0.9 9.7,0.9 L6.4,0.9 L6.4,15.3 L0.7,15.3 L0.7,18.8 L6.4,18.8 L6.4,34.8 C6.4,35.8 7.2,36.6 8.2,36.6 L11.5,36.6 L11.5,18.8 L17.2,18.8 L17.2,15.3 L11.5,15.3 L11.5,2.7 Z" id="路径"></path>
                <path d="M33.3,4.2 L29.7,4.2 L28.7,1 L23.6,1 L24.6,4.2 L17.9,4.2 L17.9,33.6 C17.9,35.3 19.3,36.7 21,36.7 L25.2,36.7 L25.2,33.2 L22.9,33.2 L22.9,22.2 L24.3,22.2 L29.5,36.4 L29.5,36.7 L36.4,36.7 L36.4,33.2 L34.2,33.2 L32.9,29 L36.3,27.8 L36.4,27.8 L36.4,23 L31.1,24.9 L30.1,22.1 L36.4,22.1 L36.4,7.3 C36.4,5.6 35,4.2 33.3,4.2 Z M22.9,15 L29.9,15 L29.9,11.5 L22.9,11.5 L22.9,7.8 L31.3,7.8 L31.3,18.7 L22.9,18.7 L22.9,15 Z" id="形状"></path>
            </g>
            <g id="编组" transform="translate(88.000000, 4.000000)">
                <path d="M32.7,14.5 L1.7,14.5 L1.7,32 C1.7,34.1 3.2,35.8 5,35.8 L36,35.8 L36,18.2 C36,16.2 34.5,14.5 32.7,14.5 Z M7.9,22.5 L7.9,18.2 L29.8,18.2 L29.8,32 L7.9,32 L7.9,26.8 L7.9,26.8 L7.9,22.5 L7.9,22.5 Z" id="形状"></path>
                <path d="M35.5,8.4 C36.3,8.4 37,7.6 37,6.7 L37,4.6 L18,4.6 L18,4.6 L15,4.6 L15,4.6 L1.8,4.6 C1,4.6 0.3,5.4 0.3,6.3 L0.3,8.4 L15,8.4 L15,8.4 L17.9,8.4 L17.9,8.4 L35.5,8.4 L35.5,8.4 Z" id="路径"></path>
                <path d="M22.2,1.7 C22.2,0.8 21.3,0.1 20.3,0.1 L15.8,0.1 L15.8,15.8 L15.8,16.2 L15.8,16.2 L15.8,16 L15.8,16.6 C15.8,17.5 16.7,17.7 17.7,17.7 L22.2,17.7 L22.2,16 L22.2,15.8 L22.2,15.8 L22.2,15.8 L22.2,1.7 Z" id="路径"></path>
            </g>
            <g id="编组" transform="translate(252.000000, 4.000000)">
                <path d="M31,3.9 C30.7,3.9 30.4,3.8 30,3.6 C29.7,3.4 29.4,3.1 29.2,2.8 L27.2,8.8817842e-16 L6.9,8.8817842e-16 L4.6,2.5 C4.1,3.1 3.6,3.4 3.3,3.6 C2.9,3.8 2.5,3.9 1.9,3.9 L0.8,3.9 L0.8,7.5 L4,7.5 C4.8,7.5 5.4,7.4 6.1,7.1 C6.7,6.9 7.3,6.4 7.9,5.7 L9.7,3.6 L23.7,3.6 L25.3,6.2 C25.5,6.5 25.8,6.7 26.3,7 C26.8,7.3 27.6,7.4 28.6,7.4 L32.2,7.4 L32.2,3.9 L31,3.9 Z" id="路径"></path>
                <path d="M27.2,9.3 L20.5,9.3 L18.7,6.6 L11.5,6.6 L13.3,9.3 L1.4,9.3 L1.4,33.6 C1.4,34.8 3.5,35.9 6,35.9 L12.5,35.9 L12.5,33.6 L6.4,33.6 L6.4,25.1 L11.2,25.1 L21.8,36.2 L21.8,36.2 L26.6,36.2 L31.5,35.9 L31.5,33.1 L26.3,33.6 L24,31.3 L31.8,29.6 L31.8,26.5 L21.1,28 L18.4,25.1 L31.8,25.1 L31.8,11.5 C31.9,10.3 29.8,9.3 27.2,9.3 Z M26.9,20.9 L6.4,20.9 L6.4,18.2 L23.6,18.2 L23.6,15.4 L6.4,15.4 L6.4,12.7 L26.9,12.7 L26.9,20.9 Z" id="形状"></path>
            </g>
            <path d="M89,54.4 L97.7,54.4 L100.1,51.5 L106.2,51.5 L103.5,54.5 L123.4,54.5 L123.4,59.5 L100.6,59.5 L97.4,63.2 L118,63.2 C119.7,63.2 121,63.7 121.9,64.5 C122.7,65.3 123.2,66.4 123.2,67.9 L123.2,83 L123.3,87.4 L114.5,87.4 L113.3,84.2 L118.1,84.1 L118.1,80.9 L97.4,80.9 L97.4,87.2 L92.3,87.2 L92.3,70.2 L87.3,68.8 L95.1,59.4 L89,59.2 L89,54.4 Z M97.4,70.6 L118,70.6 L117.9,67.6 L97.3,67.7 L97.3,70.6 L97.4,70.6 Z M97.4,77.3 L118,77.3 L118,74 L97.4,74 L97.4,77.3 Z" id="形状"></path>
            <g id="编组" transform="translate(131.000000, 51.000000)">
                <path d="M30.4,0.8 L26.8,0.8 L26.8,0.8 L21.7,0.8 L21.7,0.8 L15,0.8 L15,32.5 C15,34.4 16.4,35.9 18.1,35.9 L22.3,35.9 L22.3,32.8 L20.1,32.8 L20.1,20.3 L21.5,20.3 L26.6,35.6 L26.6,35.9 L33.4,35.9 L33.4,32.9 L31.2,32.9 L29.9,27.5 L33.3,26.2 L33.4,26.2 L33.4,21.9 L28.2,24 L27.2,20.3 L33.5,20.3 L33.5,4.2 C33.5,2.3 32.1,0.8 30.4,0.8 Z M20.1,12.1 L27.1,12.1 L27.1,8.8 L20.1,8.8 L20.1,3.9 L28.5,3.9 L28.5,16.8 L20.1,16.8 L20.1,12.1 Z" id="形状"></path>
                <path d="M0.2,36 L0.2,4.7 L0.2,0.6 L9.1,0.6 C9.1,0.6 10.8,0.6 11.7,1.6 C12.3,2.2 12.7,3.2 12.7,4.6 C12.7,4.6 12.7,13.2 12.7,14 C12.7,14.8 10.7,14.9 10.7,14.9 C10.7,14.9 11.9,15.6 12.2,16.1 C12.6,16.7 12.7,17.5 12.7,18.2 L12.7,28.1 C12.7,28.1 12.8,29.5 11.5,29.5 C10.2,29.5 4.8,29.5 4.8,29.5 L4.8,36 L0.2,36 Z M7.1,13.7 L8.3,13.7 L8.3,4.5 L8.3,3.2 L4.8,3.2 L4.8,4.5 L4.8,13.7 L7.1,13.7 Z M8.4,26.9 L8.4,16.4 L7.2,16.4 L5,16.4 L5,26.8 L8.4,26.9 Z" id="形状"></path>
            </g>
            <g id="编组" transform="translate(170.000000, 51.000000)">
                <path d="M27.3,25.3 L28.2,30.7 C28.2,31.3 28.1,31.7 28,31.8 C27.8,32 27.6,32 27.2,32 L9.1,32.1 L22.5,14 L16.2,14 L2.5,31.5 L2.5,36.2 L29.2,36.2 C30.7,36.2 31.7,35.9 32.2,35.4 C32.7,34.9 33.1,34.3 33.3,33.6 C33.5,32.9 33.6,32.2 33.6,31.2 L32.7,25.3 L27.3,25.3 Z" id="路径"></path>
                <polyline id="路径" points="7.1 16.2 17.3 0.4 11.6 0.4 0.3 17 6.6 17"></polyline>
                <polyline id="路径" points="36.3 16.5 26.8 0.4 21 0.4 30.3 16.5"></polyline>
            </g>
            <g id="编组" transform="translate(211.000000, 51.000000)">
                <rect id="矩形" x="1.2" y="8.6" width="24.7" height="3.2"></rect>
                <path d="M25.2,19.7 L25.2,19.6 C25.2,18.8 24.9,17.9 24.2,17.3 L24.2,17.3 C23.6,16.7 22.7,16.4 21.9,16.3 L21.9,16.3 L2,16.3 L2,29.7 L2,29.7 C2.1,30.5 2.4,31.3 3,31.9 L3,31.9 C3.7,32.5 4.5,32.9 5.4,32.9 L5.5,32.9 L20.3,32.9 C22,32.9 25.2,32.9 25.2,32.9 C25.2,32.9 25.2,28.3 25.2,27.6 L25.2,19.7 L25.2,19.7 Z M7.1,29.8 L7.1,19.3 L20.1,19.3 L20.1,29.8 L7.1,29.8 Z" id="形状"></path>
                <path d="M35,1.3 L35,1.3 C34.3,0.6 33.5,0.3 32.7,0.3 L0.5,0.3 L0.5,3.9 L30.7,3.9 L30.7,32.5 L27.8,32.6 L27.8,36.2 L36.1,36.2 L36.1,3.8 L36.1,3.7 C36,2.8 35.7,2 35,1.3 Z" id="路径"></path>
            </g>
            <path d="M142.8,24.7 L145.2,24.1 L145.2,28.7 L142.8,29.3 L142.8,39.6 L136.5,39.6 L136.5,31 L129,32.7 L129,28.4 L136.5,26.4 L136.5,17.2 L129.2,17.2 L130.2,6.9 L135.3,6.9 L134.8,13.4 L136.6,13.4 L136.6,3.8 L142.9,3.8 L142.9,13.4 L145,13.4 L145,17.2 L142.9,17.2 L142.9,24.7 L142.8,24.7 Z M165.7,12.7 C165.7,16.6 165.2,20 164.3,22.9 C163.3,25.8 162.1,28.3 160.5,30.4 C161.4,31 162.3,31.5 163.2,31.9 C164.1,32.3 165,32.7 165.8,32.9 L165.8,39.5 C164.2,39 162.5,38.4 160.9,37.6 C159.2,36.8 157.7,35.8 156.2,34.7 C154.7,35.9 153.1,36.8 151.5,37.6 C149.8,38.4 148.2,39 146.6,39.5 L146.6,33 C147.4,32.7 148.3,32.4 149.2,32 C150.1,31.6 151,31.1 151.9,30.5 C150.4,28.6 149.2,26.2 148.3,23.6 C147.4,20.9 146.8,17.8 146.7,14.2 L152,14.2 C152.1,16.9 152.6,19.3 153.4,21.3 C154.2,23.3 155.2,25.1 156.4,26.5 C157.7,24.9 158.7,23 159.6,20.8 C160.4,18.6 160.9,15.1 160.9,12 L160,12 L147.1,12 L149.6,4 L156,4 L155,7.9 L166,7.9 L166,12.7 L165.7,12.7 Z" id="形状"></path>
            <polygon id="路径" points="205.9 39.3 169.8 39.3 169.8 34.3 184.8 34.3 184.8 24 172.8 24 172.8 19 184.8 19 184.8 9.6 171.3 9.6 171.3 4.6 204.6 4.6 204.6 9.6 190.7 9.6 190.7 19 202.6 19 202.6 24 190.7 24 190.7 34.3 205.7 34.3 205.7 39.3"></polygon>
            <path d="M15.1,51.7 C16,51.7 16.8,52.1 17.5,52.8 C18.2,53.5 18.5,54.5 18.5,55.6 L18.5,83.5 C18.5,84.2 18.4,84.8 18.2,85.4 C18,85.9 17.8,86.3 17.5,86.6 C17.2,86.9 16.9,87.1 16.6,87.3 C16.3,87.4 16,87.5 15.7,87.5 L10.7,87.5 L11.9,84.1 L12.6,84.1 C12.8,84.1 13,84 13,83.8 C13,83.7 13,83.6 13,83.5 L13,76.5 L8.5,76.5 L8.5,82.7 L7.6,87.5 L2.7,87.5 L3.5,82.7 L3.5,51.7 L5.8,51.7 L8.5,51.7 L13,51.7 L15.1,51.7 L15.1,51.7 Z M8.5,56 L8.5,62.2 L13,62.2 L13,58.1 L13,56 L11.7,56 L8.5,56 Z M13,72.5 L13,66.3 L8.5,66.3 L8.5,72.5 L13,72.5 Z M40.1,72.2 C39.7,73.7 38.9,75.2 37.9,76.6 C36.9,78 35.7,79.3 34.4,80.6 C35.7,81.2 36.8,81.6 37.8,81.8 C38.8,82 39.6,82.1 40.2,82.1 L40.2,87.5 C38.3,87.5 36.4,87.2 34.6,86.7 C32.8,86.2 31.1,85.4 29.4,84.2 C27.6,85.2 25.9,86 24.1,86.6 C22.3,87.2 20.7,87.5 19.3,87.5 L19.3,82.1 C20.3,81.9 21.2,81.6 22.1,81.3 C23,81 23.9,80.6 24.7,80.2 C22.8,78.2 21,75.8 19.3,72.9 L25.4,72.9 C26.6,74.7 27.9,76.2 29.3,77.3 C31.3,75.7 32.9,73 34.1,71 L19.2,71 L19.2,67.5 L40.1,67.5 L40.1,69.9 L40.1,71.9 L40.1,72.2 L40.1,72.2 Z M38.5,59.3 C38.5,59.8 38.6,60.1 38.9,60.4 C39.2,60.7 39.5,60.8 39.8,60.8 L40.1,60.8 L40.1,65.7 L36.7,65.7 C36.1,65.7 35.6,65.6 35.1,65.3 C34.6,65.1 34.2,64.7 33.9,64.3 C33.5,63.9 33.3,63.4 33.1,62.8 C32.9,62.2 32.8,61.6 32.8,61 L32.8,55.6 L26.9,55.6 L26.9,62.1 L25.3,65.6 L19.4,65.6 L21,62.1 L21,51.7 L24.4,51.7 L26.8,51.7 L38.6,51.7 L38.6,59.3 L38.5,59.3 Z" id="形状"></path>
            <path d="M48.5,64.5 L45,64.5 L49.6,51 L55.3,51 L52.4,59.4 L53.9,59.4 L53.9,86.9 L48.5,86.9 L48.5,64.5 L48.5,64.5 Z M60.7,51.2 L55,62.7 L61,62.7 L66.8,51.2 L66.8,51.2 L60.7,51.2 Z M56.2,86.9 L61.7,69.3 L56.2,69.3 L56.2,65.2 L80.6,65.2 L80.6,81.3 C80.6,82.1 80.5,82.8 80.2,83.4 C80,84.1 79.7,84.7 79.2,85.2 C78.8,85.7 78.3,86.1 77.7,86.4 C77.1,86.7 76.5,86.8 75.9,86.8 L67.2,86.8 L69.1,81.9 L73.4,81.9 C73.8,81.9 74.1,81.7 74.4,81.4 C74.7,81.2 74.8,80.8 74.8,80.4 L74.8,69.3 L67.9,69.3 L62.4,86.9 L56.2,86.9 Z M76.3,51.2 L82,62.7 L75.8,62.7 L70,51.2 L70,51.2 L76.3,51.2 Z" id="形状"></path>
        </g>
    </g>
</svg>