<?xml version="1.0" encoding="UTF-8"?>
<svg width="323px" height="38px" viewBox="0 0 323 38" version="1.1" xmlns="http://www.w3.org/2000/svg" xmlns:xlink="http://www.w3.org/1999/xlink">
    <!-- Generator: Sketch 60.1 (88133) - https://sketch.com -->
    <title>邬桥logo-20191209-01</title>
    <desc>Created with Sketch.</desc>
    <defs>
        <linearGradient x1="0.371160453%" y1="60.609427%" x2="103.611185%" y2="43.7831277%" id="linearGradient-1">
            <stop stop-color="#B76815" offset="0%"></stop>
            <stop stop-color="#BE701B" offset="2.424957%"></stop>
            <stop stop-color="#DD9534" offset="14.34%"></stop>
            <stop stop-color="#F0AC44" offset="23.99%"></stop>
            <stop stop-color="#F7B44A" offset="30.11%"></stop>
            <stop stop-color="#E39E3B" offset="39.73%"></stop>
            <stop stop-color="#CA8329" offset="54.36%"></stop>
            <stop stop-color="#B86F1B" offset="69.23%"></stop>
            <stop stop-color="#AE6414" offset="84.33%"></stop>
            <stop stop-color="#AA6011" offset="100%"></stop>
        </linearGradient>
        <linearGradient x1="-2.8359933%" y1="57.6384916%" x2="100.007544%" y2="43.5239533%" id="linearGradient-2">
            <stop stop-color="#B76815" offset="0%"></stop>
            <stop stop-color="#C0721C" offset="21.49%"></stop>
            <stop stop-color="#D78D2F" offset="58.25%"></stop>
            <stop stop-color="#F7B44A" offset="100%"></stop>
        </linearGradient>
    </defs>
    <g id="页面-1" stroke="none" stroke-width="1" fill="none" fill-rule="evenodd">
        <g id="邬桥logo-20191209-01" transform="translate(-1.000000, 0.000000)" fill-rule="nonzero">
            <g id="编组" transform="translate(0.000000, 2.000000)">
                <path d="M46.1,0.8 C41.3,1.1 38,1.3 32.6,2.8 C13.6,8.4 -0.4,18.3 1.1,26.4 C2.6,34.5 20.7,37.5 40.2,32.6 C40.9,32.4 43.4,31.7 44.2,31.5 C44.2,31.5 44.3,31.4 44.3,31.4 C44.3,31.4 44.2,31.4 44.2,31.4 C41.4,32 37.5,32.7 32.8,32.9 C28.1,33.1 7,33.4 2.7,28 C2.4,27.6 -1.2,22.5 11.1,15.1 C11.1,15.1 2,23.6 6.2,27.4 C6.2,27.4 9.1,30.6 20.2,28 C20.2,28 28.5,26.1 32.2,24.6 C32.2,24.6 32.3,24.5 31.9,24.6 C31.5,24.7 29.8,25.1 29.4,25.2 C16.8,27.9 8.9,27.6 8.3,24.6 C7.8,21.5 15.3,15.9 25.8,12.7 C36.4,9.5 45.4,8.7 46.8,12.6 C47.4,14.2 47.2,14.8 45.7,17.6 C45.5,17.9 45.1,18.6 45.5,18.3 C45.5,18.3 60.3,7.3 51.4,1.9 C51.6,1.9 49.9,1 46.1,0.8" id="路径" fill="url(#linearGradient-1)"></path>
                <path d="M53.4,0.6 C56.5,1.7 59.3,1.5 60.6,4.2 C62.2,7.4 60,10.9 52.1,17.6 C52.1,17.6 42.6,24.4 37.2,26.2 C37.2,26.2 23.4,31.9 13.7,31.2 C13.6,31.2 13.7,31.2 13.6,31.2 C13.6,31.2 13.6,31.2 13.6,31.2 C13.6,31.2 13.7,31.2 13.7,31.2 C13.7,31.2 13.6,31.2 13.7,31.2 C15.8,31.6 34.9,34.7 57.7,25.2 C57.7,25.2 59.1,24.6 61,23.6 C68.9,19 72.7,13.3 71.5,8.5 C70.3,3.6 62.9,1.1 53.4,0.6 C53.4,0.6 53.4,0.6 53.4,0.6" id="路径" fill="url(#linearGradient-2)"></path>
            </g>
            <g id="编组" transform="translate(80.000000, 0.000000)" fill="#FFFFFF">
                <path d="M3.9,13.7 L3.9,19.5 L9.2,17.9 L9.3,20.4 C8.4,20.7 4.1,22 1.5,22.8 L0.6,20.4 C1.4,20.1 1.4,19.8 1.4,19.3 L1.4,3.1 L8.1,3.1 C8,2.4 7.8,1.7 7.5,1 L9.9,0.6 C10.2,1.2 10.5,2.2 10.7,3.1 L17.1,3.1 L17.1,13 L18.5,14.9 C16.9,15.9 15,17 13.2,17.9 C15,18.9 17.2,19.6 20.2,20.2 L19.3,22.5 C12.6,21 9,18.8 6.3,13.8 L3.9,13.8 L3.9,13.7 Z M3.9,5.1 L3.9,7.3 L14.6,7.3 L14.6,5.1 L3.9,5.1 Z M14.6,11.6 L14.6,9.5 L3.9,9.5 L3.9,11.7 L14.6,11.7 L14.6,11.6 Z M9,13.7 C9.6,14.7 10.3,15.6 11.1,16.3 C12.6,15.6 14.3,14.6 15.8,13.7 L9,13.7 L9,13.7 Z" id="形状"></path>
                <path d="M43.1,23 C39.8,21.8 37.3,20.5 35.2,18.9 C33.1,20.4 30.5,21.7 27.2,23.1 L26,20.6 C29,19.6 31.4,18.4 33.3,17.2 C31.9,15.7 30.7,14.1 29.7,12 C28.5,15.7 26.6,19.2 23.8,22.4 L21.9,20.4 C25.7,16 27.6,11 28.5,6.1 L23.4,6.1 L23.4,3.8 L28.9,3.8 C29,2.8 29.1,1.8 29.2,0.8 L31.8,0.9 C31.7,1.9 31.6,2.8 31.5,3.8 L43.7,3.8 L43.7,6.2 L31.1,6.2 C30.9,7 30.8,7.9 30.6,8.7 L41.4,8.7 L41.4,11 C40.3,13.6 39,15.6 37.1,17.3 C38.9,18.5 41.2,19.5 44.1,20.5 L43.1,23 Z M31.7,11 C32.7,12.9 33.8,14.4 35.2,15.8 C36.9,14.4 38.1,12.8 38.9,11 L31.7,11 Z" id="形状"></path>
                <path d="M66.8,4.5 C66.7,5.5 66.3,17.7 66.2,18.7 C66,21.2 65,21.8 62.5,22 L60.5,22.1 L59.8,19.8 L61.8,19.7 C63.4,19.6 64,19.3 64.1,17.6 C64.1,16.7 64.6,7.6 64.6,6.7 L63.6,6.7 C62.6,13.5 61.1,17.6 55.9,22.3 L54.4,20.5 C59,16.4 60.7,12.3 61.7,6.6 L60.2,6.6 C59.2,11.3 57.6,14.4 53.9,18.1 L52.5,16.3 C55.7,13.4 57.4,10.6 58.3,6.6 L56.7,6.6 C56.1,7.9 55.3,9.1 54.5,10.3 L52.8,8.8 C53.1,8.4 53.4,8.1 53.6,7.6 L52,7.6 L52,11.8 L54.2,10.9 L54.4,13.2 L52,14.2 L52,22.4 L50,22.4 L50,15 C48.4,15.6 47,16.2 46.6,16.4 L46,14 C46.5,13.9 48.2,13.2 50,12.5 L50,7.5 L48.7,7.5 C48.5,9 48.3,10.5 48,11.8 L46,11.4 C46.6,8.8 47,5.4 47.2,2.6 L49.2,2.8 L49,5.3 L50,5.3 L50,0.9 L52,1 L52,5.5 L54,5.5 L54,7.3 C55.2,5.3 56.3,3 56.9,0.7 L59,1.3 C58.6,2.5 58.2,3.5 57.8,4.6 L66.8,4.6 L66.8,4.5 Z" id="路径"></path>
                <path d="M73.7,12.2 C72.7,11.2 70.6,9.4 69.5,8.7 L70.8,6.9 C72.1,7.7 73.8,9 75,10 L73.7,12.2 Z M74.8,13.9 C74.6,14.9 72.8,21.2 72.3,22.5 L69.9,21.8 C70.4,20.8 72.3,14.2 72.5,13.2 L74.8,13.9 Z M74.6,6.6 C73.6,5.6 71.4,3.9 70.4,3.2 L71.7,1.4 C72.9,2.1 74.9,3.5 75.9,4.5 L74.6,6.6 Z M76.8,12.4 L79.1,12.5 C79.1,13.2 79.1,14.2 79.1,15 C79,18.7 78.5,20.4 75.2,23.3 L73.6,21.6 C76.3,19.5 77,18.2 76.9,14.4 L76.9,12.4 L76.8,12.4 Z M79.5,5.8 L76,5.8 L76,3.5 L81.4,3.5 C81.1,2.6 80.8,1.7 80.7,1.1 L83.1,0.8 C83.3,1.4 83.7,2.5 84,3.5 L90.1,3.5 L90.1,5.8 L82.4,5.8 C81.2,7.2 80,8.7 79.1,9.4 L85.5,9.2 C84.9,8.6 84.3,8 83.8,7.5 L85.5,6.1 C86.8,7.3 88.7,9.4 89.9,10.8 L88.3,12.5 L87.2,11.2 C84.9,11.3 78.2,11.5 75.7,11.7 L75.1,9.7 C75.7,9.6 76.1,9.2 76.5,9 C77.3,8.4 78.4,7.1 79.5,5.8 Z M81.1,12.4 L83.2,12.5 L83.2,22.1 L81.1,22.1 L81.1,12.4 Z M91.3,17.9 C91.3,18.9 91.2,19.7 91.1,20.3 C90.9,21.9 90.3,22.5 88.5,22.5 L87.4,22.5 C85.7,22.5 85.1,22 85.1,20.4 L85.1,12.4 L87.3,12.5 L87.3,19.7 C87.3,20.3 87.5,20.4 88.1,20.4 L88.3,20.4 C89,20.4 89.1,20.3 89.2,19.6 C89.3,19 89.4,18.1 89.4,17.4 L91.3,17.9 Z" id="形状"></path>
                <polygon id="路径" points="94 11.7 101.3 11.7 101.3 14.1 94 14.1"></polygon>
                <path d="M112.2,17.3 C111,17.5 105.5,18.4 104.3,18.6 L104.1,16.2 C105.4,16 110.7,15.2 112,15 L112.2,17.3 Z M107.8,11.5 L115.2,11.5 C115.2,12.1 114.9,17.7 114.9,18.3 C114.8,21.2 114.2,22 111.2,22.2 L109.3,22.3 L108.6,20 L110.7,19.9 C112.5,19.8 112.8,19.5 112.9,18 C113,17.4 113.1,14.1 113.1,13.6 L105.7,13.6 L105.7,2.8 L108.3,2.8 C108.6,2 108.9,1.1 109.1,0.6 L111.3,1 C111.2,1.4 110.9,2.2 110.7,2.8 L114.8,2.8 C114.8,3.4 114.7,6.6 114.6,7.1 C114.5,9.3 113.6,10 111.7,10.1 L110.4,10.2 L109.7,8.1 L111.2,8 C112.2,7.9 112.6,7.7 112.6,6.8 L112.7,5 L107.9,5 L107.9,11.5 L107.8,11.5 Z M125.1,15.8 C125,18.2 124,19.4 121.1,19.7 L120.3,19.8 L119.5,17.4 L120.5,17.3 C122.5,17 122.8,16.7 122.8,15.2 C122.8,13.9 122.2,12.3 120.5,10.4 C121.3,8.3 122,6.3 122.6,4.2 L118.9,4.2 L118.9,22.7 L116.7,22.7 L116.7,2.1 L124.9,2.1 L124.9,4.4 C124.3,6.2 123.7,8.1 122.9,10 C124.4,12 125.1,13.8 125.1,15.8 Z" id="形状"></path>
                <path d="M134.7,13.4 C134.2,12.8 133.6,12.1 133,11.4 L133,22.6 L130.8,22.6 L130.8,12.4 C130.1,14.2 129.2,15.9 128.3,17.2 L126.9,15.1 C128.1,13.2 129.7,10 130.7,7.3 L128.1,7.3 L128.1,5.1 L130.8,5.1 L130.8,1 L133,1.1 L133,5.2 L135.2,5.2 L135.2,7.5 L133,7.5 L133,9.4 L133.4,9 C134.2,9.8 135.4,11 136.1,11.9 L134.7,13.4 Z M148.3,16.2 C147.1,15.6 146.1,14.9 145.2,14.2 L145.2,22.6 L142.9,22.6 L142.9,13.4 L144.3,13.4 C143.2,12.3 142.3,11 141.5,9.5 L141.3,9.5 C140.7,11 139.8,12.2 138.6,13.5 L139.8,13.5 L139.8,15.3 C139.8,18.9 139.1,20.7 136,23.1 L134.4,21.4 C137.1,19 137.5,18.2 137.5,15.2 L137.5,14.2 C136.7,14.8 135.8,15.5 134.7,16.3 L133.5,14.3 C136.1,12.6 137.7,11.3 138.7,9.4 L135.6,9.4 L135.6,7.2 L139.6,7.2 C139.8,6.4 140,5.4 140.2,4.3 C138.7,4.4 137.3,4.5 136,4.6 L135.8,2.4 C139.2,2.2 144.2,1.7 147.1,1.2 L147.3,3.5 C146,3.7 144.4,3.9 142.6,4.1 C142.4,5.3 142.3,6.3 142,7.2 L148.3,7.2 L148.3,9.4 L143.8,9.4 C145,11.3 146.7,12.4 149.3,13.8 L148.3,16.2 Z" id="形状"></path>
                <path d="M161.9,12.6 L169.5,12.6 L169.5,22.6 L167,22.6 L167,21.7 L156.9,21.7 L156.9,22.6 L154.4,22.6 L154.4,13 L152.3,14 L151.3,12 C153.9,11 155.5,10 156.2,8.4 L151.8,8.4 L151.8,6.5 L153.6,6.5 L152.1,5.3 C153.3,3.8 154.3,1.8 154.8,0.4 L156.8,1.1 C156.6,1.6 156.4,2.1 156.2,2.7 L162.2,2.7 L162.2,4.6 L158.9,4.6 C158.9,5.2 158.9,5.8 158.9,6.2 L158.9,6.5 L162.8,6.5 L162.8,8.4 L158.7,8.4 C158.7,8.4 158.7,8.4 158.7,8.5 C160.1,9.2 162,10.3 162.9,10.9 L161.9,12.6 Z M156.7,6.5 L156.7,6.3 C156.7,5.9 156.7,5.2 156.7,4.6 L155.2,4.6 C154.8,5.2 154.4,5.9 154,6.5 L156.7,6.5 Z M155.3,12.6 L161.4,12.6 C160.4,11.8 159,11 157.9,10.3 C157.3,11.3 156.4,11.9 155.3,12.6 Z M167,14.6 L156.9,14.6 L156.9,16.2 L167,16.2 L167,14.6 Z M167,19.8 L167,18.2 L156.9,18.2 L156.9,19.8 L167,19.8 Z M171.3,2.5 L171.3,11.3 L163.3,11.3 L163.3,2.5 L171.3,2.5 Z M169.1,4.6 L165.4,4.6 L165.4,9.2 L169.1,9.2 L169.1,4.6 Z" id="形状"></path>
                <path d="M183.2,2.5 C184.2,3.7 185.7,5.7 186.7,7 L185,8.7 C184.8,8.3 184.5,7.9 184.3,7.5 C182.5,7.6 178.1,7.8 176.2,8.1 L175.6,5.8 C176.1,5.7 176.3,5.4 176.7,5.1 C177.3,4.5 179,2.3 179.8,0.6 L182,1.7 C181.1,3.2 179.9,5 179.1,5.8 L183,5.6 L181.7,3.9 L183.2,2.5 Z M176.5,9.1 L185.3,9.1 L185.3,20.2 C185.3,22.1 184.7,22.5 182.7,22.6 L181.8,22.7 L181.1,20.4 L182.3,20.3 C182.9,20.2 183,20.1 183,19.3 L183,18 L178.6,18 L178.6,22.4 L176.4,22.4 L176.4,9.1 L176.5,9.1 Z M178.7,11.2 L178.7,12.6 L183.1,12.6 L183.1,11.2 L178.7,11.2 Z M183.1,16 L183.1,14.6 L178.7,14.6 L178.7,16 L183.1,16 Z M186.9,8.7 L186.9,1 L189.2,1.1 L189.2,4.4 C191,3.6 193.2,2.6 194.2,1.9 L195.2,4.1 C193.9,4.9 191.1,6.1 189.2,6.9 L189.2,8 C189.2,8.9 189.3,9 190.1,9.1 C190.8,9.1 191.6,9.1 192.3,9.1 C193.4,9 193.6,8.7 193.7,7.9 C193.8,7.4 193.9,6.9 193.9,6.3 L196,7.2 C195.9,7.8 195.8,8.4 195.7,9 C195.3,10.8 194.8,11.3 193,11.4 C191.7,11.4 190.4,11.4 189.1,11.4 C187.5,11.2 186.9,10.5 186.9,8.7 Z M196.1,17.5 C196,18.3 195.9,19 195.8,19.7 C195.4,21.5 194.8,22.1 192.9,22.1 C191.6,22.1 190.4,22.1 189.2,22.1 C187.7,22 187,21.3 187,19.5 L187,11.7 L189.3,11.8 L189.3,15 C191.1,14.2 193.3,13.1 194.5,12.3 L195.6,14.5 C194.1,15.4 191.3,16.7 189.3,17.5 L189.3,18.8 C189.3,19.7 189.6,19.9 190.4,20 C191,20 191.7,20 192.3,20 C193.5,19.9 193.6,19.7 193.8,18.7 C193.9,18.1 194,17.5 194,16.7 L196.1,17.5 Z" id="形状"></path>
                <path d="M206,17.4 C205.5,16.6 204.7,15.4 203.9,14.4 L203.9,22.7 L201.9,22.7 L201.9,15.1 C201.1,16.8 200.2,18.4 199.1,19.6 L197.9,17.7 C199.3,15.9 200.7,13.5 201.5,11.2 L198.6,11.2 L198.6,9.2 L201.9,9.2 L201.9,0.9 L203.9,1 L203.9,7.5 C204.5,6.2 205.2,3.9 205.6,2.6 L207.3,3.2 C206.9,4.4 206.1,6.9 205.5,8.2 L204,7.6 L204,9.2 L206.9,9.2 L206.9,11.3 L204,11.3 L204,13.1 L204.8,12.4 C205.6,13.2 206.8,14.7 207.5,15.9 L206,17.4 Z M200.1,8.3 C199.8,6.9 199,4.5 198.5,3.4 L200.3,2.7 C200.8,4 201.6,6.5 201.9,7.7 L200.1,8.3 Z M220.1,20.5 L218.7,22.5 C214.7,20.3 212.4,17.8 211.1,13.5 L209.7,13.5 L209.7,19.9 C210.5,19.6 212.3,18.8 213,18.5 L213.3,20.7 C212.5,21 210.3,21.9 209.3,22.3 C208.8,22.5 208.3,22.7 207.9,23 L207,20.9 C207.6,20.5 207.6,20.4 207.6,19.7 L207.6,3.1 L211.6,3.1 C211.4,2.5 211.3,1.9 211.1,1.3 L213.4,0.9 C213.6,1.5 213.9,2.4 214.1,3.1 L218.2,3.1 L218.2,13.5 L213.2,13.5 C213.6,14.5 214,15.4 214.5,16.2 C215.7,15.4 216.9,14.4 218.1,13.6 L219.2,15.3 C218.2,16.1 216.9,17 215.8,17.8 C216.8,18.8 218.2,19.7 220.1,20.5 Z M209.7,5.2 L209.7,7.3 L216.2,7.3 L216.2,5.2 L209.7,5.2 Z M209.7,11.4 L216.2,11.4 L216.2,9.3 L209.7,9.3 L209.7,11.4 Z" id="形状"></path>
                <path d="M243.3,19.3 L236.6,19.3 L236.6,22.6 L234.3,22.6 L234.3,19.3 L226.9,19.3 L226.9,17.1 L234.3,17.1 L234.3,15.1 L228.3,15.1 L228.3,13 C228.9,12.1 229.6,11 230.3,9.8 L227.4,9.8 L227.4,7.6 L231.4,7.6 C231.8,6.8 232.1,6.1 232.4,5.4 L226.8,5.4 L226.8,10.8 C226.8,16.9 225.9,19.2 223.9,22.9 L221.6,21.8 C223.8,18 224.4,15.9 224.4,11 L224.4,3.3 L233.2,3.3 C233,2.6 232.8,1.8 232.5,1.2 L234.9,0.8 C235.2,1.6 235.5,2.4 235.8,3.3 L243,3.3 L243,5.4 L232.6,5.4 L234.5,6 C234.3,6.5 234,7.1 233.8,7.7 L242.2,7.7 L242.2,9.8 L232.7,9.8 C232.1,11 231.4,12.1 230.7,13 L234.2,13 L234.2,10.5 L236.5,10.6 L236.5,13 L241.6,13 L241.6,15.1 L236.5,15.1 L236.5,17.1 L243.2,17.1 L243.2,19.3 L243.3,19.3 Z" id="路径"></path>
            </g>
            <g id="编组" transform="translate(81.000000, 29.000000)" fill="#FFFFFF">
                <polygon id="路径" points="5.2 7.8 5.2 8.8 0.5 8.8 0.5 0.5 1.6 0.5 1.6 7.9 5.2 7.9"></polygon>
                <polygon id="路径" points="8.7 0.4 9.8 0.4 9.8 8.7 8.7 8.7"></polygon>
                <path d="M18.8,6.3 L15.1,6.3 L14.2,8.8 L13.1,8.8 L16.3,0.5 L17.7,0.5 L20.8,8.8 L19.7,8.8 L18.8,6.3 Z M18.5,5.3 L17.1,1.4 L17,1.4 L15.6,5.3 L18.5,5.3 Z" id="形状"></path>
                <polygon id="路径" points="24.2 0.4 25.9 0.4 29.7 7.3 29.8 7.3 29.8 0.4 30.9 0.4 30.9 8.7 29.5 8.7 25.4 1.4 25.3 1.4 25.3 8.7 24.2 8.7"></polygon>
                <path d="M34.9,4.6 C34.9,1.4 36.4,0.3 38.9,0.3 C39.7,0.3 40.6,0.4 41.1,0.6 L41.1,1.6 C40.5,1.4 39.8,1.3 39,1.3 C37.1,1.3 36.1,1.9 36.1,4.6 C36.1,7.4 37.1,7.9 39,7.9 C39.4,7.9 40,7.9 40.4,7.7 L40.4,5.1 L38.7,5.1 L38.7,4.2 L41.4,4.2 L41.4,8.4 C40.8,8.6 39.9,8.7 38.9,8.7 C36.4,8.9 34.9,8.1 34.9,4.6 Z" id="路径"></path>
                <polygon id="路径" points="47.4 5.2 44.5 0.5 45.7 0.5 47.9 4.3 48 4.3 50.2 0.5 51.4 0.5 48.4 5.2 48.4 8.8 47.3 8.8 47.3 5.2"></polygon>
                <path d="M54.5,4.6 C54.5,1.3 55.7,0.3 58.1,0.3 C60.5,0.3 61.7,1.2 61.7,4.6 C61.7,8 60.5,8.9 58.1,8.9 C55.7,8.9 54.5,7.9 54.5,4.6 Z M60.5,4.6 C60.5,2.3 60.1,1.2 58,1.2 C56,1.2 55.5,2.3 55.5,4.6 C55.5,7 55.9,8 58,8 C60.1,7.9 60.5,7 60.5,4.6 Z" id="形状"></path>
                <path d="M65.7,6.1 L65.7,0.5 L66.8,0.5 L66.8,5.9 C66.8,7.5 67.3,8 68.9,8 C70.5,8 71,7.5 71,5.9 L71,0.5 L72.1,0.5 L72.1,6.1 C72.1,8.1 71,8.9 68.9,8.9 C66.8,8.9 65.7,8.1 65.7,6.1 Z" id="路径"></path>
                <polygon id="路径" points="86.2 7.8 86.2 8.8 81.5 8.8 81.5 0.5 82.6 0.5 82.6 7.9 86.2 7.9"></polygon>
                <path d="M89.4,4.6 C89.4,1.3 90.6,0.3 93,0.3 C95.4,0.3 96.6,1.2 96.6,4.6 C96.6,8 95.4,8.9 93,8.9 C90.7,8.9 89.4,7.9 89.4,4.6 Z M95.5,4.6 C95.5,2.3 95.1,1.2 93,1.2 C91,1.2 90.5,2.3 90.5,4.6 C90.5,7 90.9,8 93,8 C95.1,7.9 95.5,7 95.5,4.6 Z" id="形状"></path>
                <path d="M100.5,4.6 C100.5,1.4 102,0.3 104.5,0.3 C105.3,0.3 106.2,0.4 106.7,0.6 L106.7,1.6 C106.1,1.4 105.4,1.3 104.6,1.3 C102.7,1.3 101.7,1.9 101.7,4.6 C101.7,7.4 102.7,7.9 104.6,7.9 C105,7.9 105.6,7.9 106,7.7 L106,5.1 L104.3,5.1 L104.3,4.2 L107,4.2 L107,8.4 C106.4,8.6 105.5,8.7 104.5,8.7 C101.9,8.9 100.5,8.1 100.5,4.6 Z" id="路径"></path>
                <polygon id="路径" points="111 0.4 112.1 0.4 112.1 8.7 111 8.7"></polygon>
                <path d="M116,8.5 L116,7.5 C116.5,7.7 117.5,7.9 118.5,7.9 C119.7,7.9 120.4,7.5 120.4,6.5 C120.4,5.5 120,5.2 118.5,4.8 C116.8,4.4 116.2,4 116.2,2.5 C116.2,1 117.1,0.2 119,0.2 C119.8,0.2 120.7,0.3 121.1,0.5 L121.1,1.5 C120.6,1.3 119.8,1.2 119,1.2 C117.8,1.2 117.3,1.4 117.3,2.5 C117.3,3.3 117.5,3.6 119,3.9 C120.9,4.3 121.5,4.8 121.5,6.5 C121.5,8.1 120.5,8.9 118.5,8.9 C117.4,8.9 116.4,8.7 116,8.5 Z" id="路径"></path>
                <polygon id="路径" points="130.4 1.4 128 1.4 128 8.8 126.9 8.8 126.9 1.4 124.5 1.4 124.5 0.4 130.4 0.4"></polygon>
                <polygon id="路径" points="133.8 0.4 134.9 0.4 134.9 8.7 133.8 8.7"></polygon>
                <path d="M138.9,4.6 C138.9,1.4 140.4,0.3 142.8,0.3 C143.6,0.3 144.1,0.4 144.6,0.5 L144.6,1.5 C144.1,1.3 143.6,1.2 142.8,1.2 C140.9,1.2 140,2 140,4.5 C140,7.2 140.9,7.8 142.7,7.8 C143.5,7.8 144,7.7 144.7,7.5 L144.7,8.4 C144.2,8.6 143.5,8.8 142.7,8.8 C140.4,8.9 138.9,8.1 138.9,4.6 Z" id="路径"></path>
                <path d="M148.1,8.5 L148.1,7.5 C148.6,7.7 149.6,7.9 150.6,7.9 C151.8,7.9 152.5,7.5 152.5,6.5 C152.5,5.5 152.1,5.2 150.6,4.8 C148.9,4.4 148.3,4 148.3,2.5 C148.3,1 149.2,0.2 151.1,0.2 C151.9,0.2 152.8,0.3 153.2,0.5 L153.2,1.5 C152.7,1.3 151.9,1.2 151.1,1.2 C149.9,1.2 149.4,1.4 149.4,2.5 C149.4,3.3 149.6,3.6 151.1,3.9 C153,4.3 153.6,4.8 153.6,6.5 C153.6,8.1 152.6,8.9 150.6,8.9 C149.5,8.9 148.5,8.7 148.1,8.5 Z" id="路径"></path>
                <polygon id="路径" points="162.3 4.6 165.8 4.6 165.8 5.5 162.3 5.5"></polygon>
                <path d="M181.6,4.6 C181.6,7.8 180,8.8 177.6,8.8 L175.2,8.8 L175.2,0.5 L177.6,0.5 C180,0.4 181.6,1.1 181.6,4.6 Z M180.5,4.6 C180.5,1.9 179.3,1.4 177.6,1.4 L176.3,1.4 L176.3,7.8 L177.6,7.8 C179.3,7.8 180.5,7.1 180.5,4.6 Z" id="形状"></path>
                <path d="M185.4,4.6 C185.4,1.3 186.6,0.3 189,0.3 C191.4,0.3 192.6,1.2 192.6,4.6 C192.6,8 191.4,8.9 189,8.9 C186.7,8.9 185.4,7.9 185.4,4.6 Z M191.5,4.6 C191.5,2.3 191.1,1.2 189,1.2 C187,1.2 186.5,2.3 186.5,4.6 C186.5,7 186.9,8 189,8 C191.1,7.9 191.5,7 191.5,4.6 Z" id="形状"></path>
                <path d="M196.5,4.6 C196.5,1.4 198,0.3 200.5,0.3 C201.3,0.3 202.2,0.4 202.7,0.6 L202.7,1.6 C202.1,1.4 201.4,1.3 200.6,1.3 C198.7,1.3 197.7,1.9 197.7,4.6 C197.7,7.4 198.7,7.9 200.6,7.9 C201,7.9 201.6,7.9 202,7.7 L202,5.1 L200.3,5.1 L200.3,4.2 L203,4.2 L203,8.4 C202.4,8.6 201.5,8.7 200.5,8.7 C197.9,8.9 196.5,8.1 196.5,4.6 Z" id="路径"></path>
                <path d="M211.8,8.8 L209.5,5.4 C209.4,5.4 209.2,5.4 209.1,5.4 L208.1,5.4 L208.1,8.7 L207,8.7 L207,0.4 L209.1,0.4 C211.4,0.4 212.3,1 212.3,2.9 C212.3,4.3 211.7,5 210.6,5.3 L213.1,8.8 L211.8,8.8 Z M211.2,2.9 C211.2,1.6 210.6,1.4 209,1.4 L208.1,1.4 L208.1,4.5 L209,4.5 C210.6,4.5 211.2,4.3 211.2,2.9 Z" id="形状"></path>
                <path d="M221.2,6.3 L217.5,6.3 L216.6,8.8 L215.5,8.8 L218.7,0.5 L220.1,0.5 L223.2,8.8 L222.1,8.8 L221.2,6.3 Z M220.9,5.3 L219.5,1.4 L219.4,1.4 L218,5.3 L220.9,5.3 Z" id="形状"></path>
                <polygon id="路径" points="226.6 0.4 227.7 0.4 227.7 8.7 226.6 8.7"></polygon>
                <polygon id="路径" points="232 0.4 233.7 0.4 237.5 7.3 237.6 7.3 237.6 0.4 238.7 0.4 238.7 8.7 237.3 8.7 233.2 1.4 233.1 1.4 233.1 8.7 232 8.7"></polygon>
            </g>
        </g>
    </g>
</svg>