<?xml version="1.0" encoding="UTF-8"?>
<svg width="371px" height="84px" viewBox="0 0 371 84" version="1.1" xmlns="http://www.w3.org/2000/svg" xmlns:xlink="http://www.w3.org/1999/xlink">
    <!-- Generator: Sketch 61.2 (89653) - https://sketch.com -->
    <title>内蒙古良储粮油购销有限责任公司</title>
    <desc>Created with Sketch.</desc>
    <g id="页面-1" stroke="none" stroke-width="1" fill="none" fill-rule="evenodd">
        <g id="内蒙古良储粮油购销有限责任公司" transform="translate(-2.000000, -3.000000)" fill="#FFFFFF" fill-rule="nonzero">
            <g id="编组" transform="translate(2.000000, 3.000000)">
                <path d="M301.7,0.1 C302.3,0.1 302.9,0.2 303.5,0.5 C304.1,0.8 304.6,1.2 305,1.7 C305.4,2.2 305.7,2.8 306,3.4 C306.3,4 306.4,4.8 306.4,5.5 L306.4,28.1 L302.7,28.1 L306.4,35.8 L301,35.8 L298.3,29.9 L295.8,35.8 L290.5,35.8 L293.4,28.1 L291,28.1 L291,0.1 L301.7,0.1 Z M301.9,26.5 L301.9,6.6 L301.9,3.3 L300.6,3.3 L294.9,3.3 L294.9,24 L296,20.9 L296,6.4 L300.9,6.4 L300.9,22.4 L299.6,25.8 L301.5,25.8 L301.9,26.5 Z M327.6,3.6 L327.6,30.6 C327.6,31.4 327.5,32.1 327.2,32.7 C327,33.4 326.6,33.9 326.2,34.4 C325.8,34.9 325.3,35.3 324.7,35.6 C324.1,35.9 323.5,36 322.9,36 L316.7,36 L318.3,31.6 L320.4,31.6 C320.8,31.6 321.1,31.5 321.3,31.2 C321.6,30.9 321.7,30.6 321.7,30.1 L321.7,29.8 L317,29.8 L316.9,28.9 L306.6,28.9 L310.5,10.2 L316.4,10.2 L313.6,25.4 L316.2,25.4 L315.2,18 L320.1,18 L321.9,29.4 L321.9,7 L313.3,7 L312,7 L307.5,7 L310.2,0.1 L315.8,0.1 L314.8,3.2 L327.6,3.2 L327.6,3.6 Z" id="形状"></path>
                <path d="M345.7,5.6 L333.3,5.6 L335.6,0 L340.6,0 L340,1.8 L345.8,1.8 L345.8,5.6 L345.7,5.6 Z M342.2,13.5 L342.2,20.2 L345.7,20.2 L345.7,23.7 L342.2,23.7 L342.2,30.1 C342.2,30.6 342.3,30.9 342.5,31.2 C342.8,31.5 343,31.6 343.4,31.6 L345.7,31.6 L344.4,35.8 L341,35.8 C340.3,35.8 339.8,35.7 339.3,35.4 C338.7,35.1 338.2,34.7 337.9,34.3 C337.5,33.8 337.2,33.3 337,32.6 C336.8,32 336.7,31.3 336.7,30.5 L336.7,23.7 L333.3,23.7 L333.3,20.2 L336.7,20.2 L336.7,13.5 L333.3,13.5 L333.3,9.7 L345.7,9.7 L345.7,13.5 L342.2,13.5 Z M366.3,10.6 C367.4,10.6 368.3,11.1 369.1,12 C369.9,12.9 370.3,14 370.3,15.3 L370.3,30.6 C370.3,31.3 370.2,32 370,32.7 C369.7,33.4 369.4,34 369,34.4 C368.6,34.9 368.1,35.3 367.5,35.5 C367.2,35.7 367,35.8 366.7,35.8 C366.4,35.8 366.1,35.9 365.7,35.9 L359.7,35.9 L361.1,31.7 L363.1,31.7 C363.4,31.7 363.7,31.6 364,31.3 C364.3,31 364.4,30.6 364.4,30.2 L364.4,28.6 L352.7,28.6 L352.7,35.9 L346.9,35.9 L346.9,10.6 L355.7,10.6 L355.7,0 L361.5,0 L361.5,10.5 L366.3,10.5 L366.3,10.6 Z M348.9,9.2 L347.1,1.2 L351.8,1.2 L353.6,9.2 L348.9,9.2 Z M363.2,14.3 L352.8,14.3 L352.8,18.5 L364.5,18.5 L364.5,17 L364.5,14.3 L363.2,14.3 Z M364.4,21.6 L352.7,21.6 L352.7,25.4 L364.4,25.4 L364.4,21.6 Z M365.6,1.1 L370.3,1.1 L368.5,9.1 L363.8,9.1 L365.6,1.1 Z" id="形状"></path>
                <path d="M110,76.3 L119.6,83.1 L111.1,83.1 L102.4,76.9 L92.8,83.1 L82.5,83.1 L97.6,73.2 L97.6,70 L104.5,70 L104.5,75.5 L103.3,76.3 L110,76.3 Z M97.6,47.3 L104.5,47.3 L104.5,48.8 L119.5,48.8 L119.5,52.6 L104.5,52.6 L104.5,54.2 L117.6,54.2 L117.6,58 L104.5,58 L104.5,59.7 L119.5,59.7 L119.5,63.5 L104.5,63.5 L97.6,63.5 L82.6,63.5 L82.6,59.7 L97.6,59.7 L97.6,58 L84.5,58 L84.5,54.2 L97.6,54.2 L97.6,52.6 L82.6,52.6 L82.6,48.8 L97.6,48.8 L97.6,47.3 Z M112.6,77.1 L112.6,70.6 C112.6,70.2 112.5,69.8 112.2,69.5 C111.9,69.2 111.6,69.1 111.3,69.1 L90,69.1 L90,77.2 L84.2,77.2 L84.2,64.6 L113.9,64.6 C114.5,64.6 115.1,64.7 115.7,65 C116.3,65.3 116.7,65.7 117.2,66.2 C117.6,66.7 117.9,67.3 118.2,67.9 C118.4,68.6 118.6,69.3 118.6,70 L118.6,77.1 L112.6,77.1 Z" id="形状"></path>
                <path d="M133.9,47.4 L131,55.7 L132.5,55.7 L132.5,83.1 L127.1,83.1 L127.1,60.8 L123.5,60.8 L128.2,47.4 L133.9,47.4 Z M145,61.9 L145,53.8 L136.1,54.8 L136.1,50 L159.5,47.3 L159.5,52.1 L150.6,53.1 L150.6,61.8 L160.5,61.8 L160.5,66.6 L150.6,66.6 L150.6,78.2 L159.5,78.2 L159.5,83 L136.1,83 L136.1,78.2 L145,78.2 L145,66.7 L134.8,66.7 L134.8,61.9 L145,61.9 Z" id="形状"></path>
                <path d="M6.6,36.1 L0.9,36.1 L0.9,9.6 L0.9,6.4 L0.9,5 L16.3,5 L16.3,0.5 L22.2,0.5 L22.2,5 L37.7,5 L37.8,5 L37.8,31.5 C37.8,32.8 37.4,33.8 36.7,34.7 C36,35.6 35.1,36 34,36 L27,36 L28.3,31.9 L31.2,31.9 C31.5,31.9 31.7,31.8 31.9,31.6 C32.1,31.4 32.2,31.1 32.2,30.8 L32.2,8.8 L22,8.8 L20.7,13.2 L25.1,13.2 L30,29.2 L24.6,29.2 L20.2,14.9 L14.4,29.2 L8.5,29.2 L16.3,8.7 L6.6,8.7 L6.6,36.1 Z" id="路径"></path>
                <path d="M48.1,4.8 L43.1,4.8 L43.1,1.6 L46.7,1.6 L46.3,0.4 L53.2,0.4 L53.6,1.6 L69.6,1.6 L70,0.4 L77,0.4 L76.6,1.6 L80.3,1.6 L80.3,4.7 L75.3,4.7 L74.9,6.5 L68,6.5 L68.4,4.7 L55,4.7 L55.4,6.5 L48.5,6.5 L48.1,4.8 Z M45.4,13.9 L43.2,13.9 L43.2,7.7 L77.3,7.7 C78.1,7.7 78.8,8 79.4,8.7 C80,9.4 80.3,10.2 80.3,11.2 L80.3,13.9 L78,13.9 L78,15.3 L45.4,15.3 L45.4,13.9 Z M59.7,32 L43.1,35.7 L43.1,32.7 L59.7,29 L59.7,27.4 L43.1,31.2 L43.1,28.1 L59.4,24.5 L59.1,23.4 L43.1,27 L43.1,23.7 L58.3,20 L43.1,20 L43.1,17.2 L80.1,17.2 L80.1,20 L63.8,20 L64.5,22.4 L68.2,22.4 L71.8,25.8 L74.5,22.3 L79.7,22.3 L74.4,29.5 L80.3,36.3 L72.8,36.3 L67,29.8 L65.5,28 L65.5,32.4 C65.5,33 65.4,33.5 65.3,33.9 C65.2,34.3 64.9,34.7 64.6,35.1 C64.3,35.4 63.9,35.7 63.5,35.9 C63.1,36.1 62.7,36.2 62.2,36.2 L57.1,36.2 L57.8,33.7 L59.1,33.7 C59.3,33.7 59.5,33.6 59.6,33.5 C59.7,33.4 59.8,33.2 59.8,33 L59.8,32 L59.7,32 Z M48.9,10.7 L48.9,12.4 L74.4,12.4 C74.4,12.1 74.3,11.5 74.1,11.1 C73.8,10.8 73.6,10.7 73.3,10.7 L48.9,10.7 L48.9,10.7 Z" id="形状"></path>
                <g transform="translate(208.000000, 0.000000)">
                    <polygon id="路径" points="0.4 33.8 0.4 33.9 3.5 33.9 5.3 20.2 2.3 20"></polygon>
                    <polygon id="路径" points="14.5 20 11.5 20.2 13.3 33.8 13.3 33.9 16.4 33.9 14.5 20.1"></polygon>
                    <polygon id="路径" points="5.3 12.6 4.3 2.5 1.2 2.5 2.2 12.8"></polygon>
                    <polygon id="路径" points="15.5 2.5 12.5 2.5 11.5 12.4 11.5 12.6 14.5 12.8"></polygon>
                    <path d="M10.9,2.1 C10.9,1.1 10.1,0.3 9.1,0.3 L5.8,0.3 L5.8,14.7 L0.1,14.7 L0.1,18.2 L5.8,18.2 L5.8,34.2 C5.8,35.2 6.6,36 7.6,36 L10.9,36 L10.9,18.2 L16.6,18.2 L16.6,14.7 L10.9,14.7 L10.9,2.1 Z" id="路径"></path>
                    <path d="M32.7,3.5 L29.1,3.5 L28.1,0.3 L23,0.3 L24,3.5 L17.3,3.5 L17.3,32.9 C17.3,34.6 18.7,36 20.4,36 L24.6,36 L24.6,32.5 L22.3,32.5 L22.3,21.5 L23.7,21.5 L28.9,35.7 L28.9,36 L35.8,36 L35.8,32.5 L33.6,32.5 L32.3,28.3 L35.7,27.1 L35.8,27.1 L35.8,22.5 L30.5,24.4 L29.5,21.6 L35.8,21.6 L35.8,6.7 C35.8,4.9 34.4,3.5 32.7,3.5 Z M22.4,14.3 L29.4,14.3 L29.4,10.8 L22.4,10.8 L22.4,7.1 L30.8,7.1 L30.8,18 L22.4,18 L22.4,14.3 Z" id="形状"></path>
                </g>
                <path d="M157.9,3.7 L149.9,3.7 L147.9,0.5 L138.3,0.5 L140.3,3.7 L127.6,3.7 L127.6,33.4 C127.6,35.1 128.1,36.2 131.4,36.2 L140.8,36.2 L140.8,32.7 L134,32.7 L134,22.9 L143.7,22.9 L153.4,36 L153.7,36.3 L162.4,36.3 L162.4,32.8 L157.4,33.1 L154.9,29.8 L162.2,28.4 L162.2,28.4 L162.3,24.6 L152.2,26.5 L150,22.9 L162.4,22.9 L162.4,7.5 C162.4,5.1 161.1,3.7 157.9,3.7 Z M134,14.5 L150.4,14.5 L150.4,11 L134,11 L134,7.3 L156.6,7.3 L156.6,18.8 L134,18.8 L134,14.5 Z" id="形状"></path>
                <g transform="translate(167.000000, 0.000000)">
                    <path d="M7.5,6.8 C7.5,5.8 6.9,7.7 5.9,7.7 L2.5,7.7 L2.5,22.6 L2.5,22.6 L2.5,27.1 L2.5,26.3 L2.5,35 C2.5,36 3.3,36.8 4.3,36.8 L7.7,36.8 L7.7,26.3 L7.7,26.3 L7.7,22.6 L7.7,22.6 L7.5,6.8 Z" id="路径"></path>
                    <path d="M0.5,13.3 L4.5,0.2 L9.6,0.2 L5.4,13.2 L0.5,13.3 Z M11.4,33.7 L11.4,13.9 L10,13.9 L9.8,11.5 L12.5,11.5 C13.9,11.5 14.9,11.9 15.5,12.6 C16,13.2 16.2,14.1 16.2,15.2 L16.2,28.4 L18.3,28.1 L18.4,32.9 L11.4,33.7 Z M12.7,9 L10.4,1.6 L15.2,1.6 L17.5,8.9 L12.7,9 Z M19.1,3.8 L23.5,3.8 L23.5,0.5 L28.3,0.5 L28.3,3.8 L32.3,3.8 L32.3,3.8 L33.1,1.5 L37.2,1.5 L34.1,12.1 L37.1,12.1 L37.1,14.6 L25.9,14.6 L24.5,18.8 C24.7,18.8 32.9,18.8 32.9,18.8 C34.6,18.8 35.4,19.3 35.8,19.7 C36.2,20.1 36.5,20.6 36.5,22.2 L36.5,31.3 L36.5,36.3 L23.8,36.3 C22,36.3 21.8,36.6 21,35.7 C20.3,34.9 20.3,34.6 20.3,33.1 L20.3,25 L17.5,24.2 L21.1,14.6 L18.3,14.6 L18.3,12.1 L23.6,12.1 L23.6,6.3 L19.2,6.3 L19.2,3.8 L19.1,3.8 Z M24.8,26.1 L31.6,26.1 L31.6,23.2 L31.6,20.9 L24.8,20.9 L24.8,23.2 L24.8,26.1 Z M31.7,31.5 L31.7,28.3 L24.9,28.3 L24.9,34 L26.1,34 L31.7,34 L31.7,31.5 Z M28.2,12.1 L29.4,12.1 L31.2,6.3 L28.3,6.3 L28.3,12.1 L28.2,12.1 Z" id="形状"></path>
                </g>
                <g transform="translate(85.000000, 0.000000)">
                    <path d="M33.3,14.7 L2.3,14.7 L2.3,32.2 C2.3,34.3 3.8,36 5.6,36 L36.6,36 L36.6,18.5 C36.6,16.4 35.1,14.7 33.3,14.7 Z M8.5,22.8 L8.5,18.5 L30.4,18.5 L30.4,32.4 L8.5,32.4 L8.5,27.2 L8.5,27.2 L8.5,22.8 L8.5,22.8 Z" id="形状"></path>
                    <path d="M36,8.7 C36.8,8.7 37.5,7.9 37.5,7 L37.5,4.9 L18.5,4.9 L18.5,4.9 L15.6,4.9 L15.6,4.9 L2.4,4.9 C1.6,4.9 0.9,5.7 0.9,6.6 L0.9,8.7 L15.6,8.7 L15.6,8.7 L18.5,8.7 L18.5,8.7 L36,8.7 Z" id="路径"></path>
                    <path d="M22.8,1.9 C22.8,1 21.9,0.3 20.9,0.3 L16.4,0.3 L16.4,16 L16.4,16.4 L16.4,16.4 L16.4,16.2 L16.4,16.8 C16.4,17.7 17.3,17.9 18.3,17.9 L22.8,17.9 L22.8,16.2 L22.8,16 L22.8,16 L22.8,16 L22.8,1.9 Z" id="路径"></path>
                </g>
                <g transform="translate(248.000000, 0.000000)">
                    <polygon id="路径" points="0.4 35.9 6.2 35.9 10.2 21.8 4.4 21.8"></polygon>
                    <polygon id="路径" points="6.2 0.2 0.4 0.2 3.3 8.4 0.4 8.4 4.4 19.4 10.2 19.4 7.3 11.3 10.2 11.3"></polygon>
                    <path d="M34.2,3.5 L27.9,3.5 L27.9,1.8 C27.9,0.9 27,0.2 26,0.2 L21.5,0.2 L21.5,3.6 L11.6,3.6 L11.6,32.6 C11.6,34.2 12.5,36 14.1,36 L37.5,36 L37.5,7.3 C37.4,5.2 36.6,3.5 34.2,3.5 Z M31.6,7.3 L31.6,18 L27.9,18 L27.9,16.1 L27.9,15.9 L27.9,7.3 L31.6,7.3 Z M17.4,11.6 L17.4,7.3 L21.5,7.3 L21.5,15.9 L21.5,16.2 L21.5,16.4 L21.5,18 L17.4,18 L17.4,15.9 L17.4,11.6 Z M17.4,21.4 L21.5,21.4 L21.5,32.2 L17.4,32.2 L17.4,21.4 Z M27.9,32.2 L27.9,21.4 L31.6,21.4 L31.6,32.2 L27.9,32.2 Z" id="形状"></path>
                </g>
                <path d="M2,50.5 L10.7,50.5 L13.1,47.6 L19.2,47.6 L16.5,50.6 L36.4,50.6 L36.4,55.6 L13.7,55.6 L10.5,59.3 L31,59.3 C32.7,59.3 34,59.8 34.9,60.6 C35.7,61.4 36.2,62.5 36.2,64 L36.2,79.1 L36.3,83.5 L27.5,83.5 L26.3,80.3 L31.1,80.2 L31.1,77 L10.4,77 L10.4,83.3 L5.3,83.3 L5.3,66.3 L0.3,64.9 L8.1,55.5 L2,55.3 L2,50.5 Z M10.4,66.6 L31,66.6 L30.9,63.6 L10.3,63.7 L10.3,66.6 L10.4,66.6 Z M10.4,73.4 L31,73.4 L31,70.1 L10.4,70.1 L10.4,73.4 Z" id="形状"></path>
                <g transform="translate(42.000000, 47.000000)" id="形状">
                    <path d="M31,0.9 L27.4,0.9 L27.4,0.9 L22.3,0.9 L22.3,0.9 L15.6,0.9 L15.6,32.6 C15.6,34.5 17,36 18.7,36 L22.9,36 L22.9,32.9 L20.7,32.9 L20.7,20.3 L22.1,20.3 L27.2,35.6 L27.2,35.9 L34,35.9 L34,32.9 L31.8,32.9 L30.5,27.5 L33.9,26.2 L34,26.2 L34,21.9 L28.8,24 L27.8,20.3 L34.1,20.3 L34.1,4.2 C34.1,2.4 32.7,0.9 31,0.9 Z M20.7,12.2 L27.7,12.2 L27.7,8.9 L20.7,8.9 L20.7,4 L29,4 L29,16.9 L20.6,16.9 L20.6,12.2 L20.7,12.2 Z"></path>
                    <path d="M0.8,36 L0.8,4.8 L0.8,0.7 L9.7,0.7 C9.7,0.7 11.4,0.7 12.3,1.7 C12.9,2.3 13.3,3.3 13.3,4.7 C13.3,4.7 13.3,13.3 13.3,14.1 C13.3,14.9 11.3,15 11.3,15 C11.3,15 12.5,15.7 12.8,16.2 C13.2,16.8 13.3,17.6 13.3,18.3 L13.3,28.2 C13.3,28.2 13.4,29.6 12.1,29.6 C10.8,29.6 5.4,29.6 5.4,29.6 L5.4,36 L0.8,36 Z M7.7,13.8 L8.9,13.8 L8.9,4.6 L8.9,3.3 L5.4,3.3 L5.4,4.6 L5.4,13.8 L7.7,13.8 Z M8.9,27 L8.9,16.5 L7.7,16.5 L5.5,16.5 L5.5,27 L8.9,27 Z"></path>
                </g>
                <g transform="translate(165.000000, 47.000000)" id="路径">
                    <path d="M27.5,25.5 L28.4,30.9 C28.4,31.5 28.3,31.9 28.2,32 C28,32.2 27.8,32.2 27.4,32.2 L9.3,32.3 L22.8,14.1 L16.5,14.1 L2.8,31.6 L2.8,36.3 L29.5,36.3 C31,36.3 32,36 32.5,35.5 C33,35 33.4,34.4 33.6,33.7 C33.8,33 33.9,32.3 33.9,31.3 L33,25.4 L27.5,25.4 L27.5,25.5 Z"></path>
                    <polyline points="7.2 16.4 17.4 0.5 11.7 0.5 0.4 17.2 6.7 17.2"></polyline>
                    <polyline points="36.5 16.7 27 0.5 21.1 0.5 30.4 16.7"></polyline>
                </g>
                <g transform="translate(206.000000, 47.000000)">
                    <rect id="矩形" x="1" y="8.7" width="24.7" height="3.2"></rect>
                    <path d="M25.1,19.9 L25.1,19.8 C25.1,19 24.8,18.1 24.1,17.5 L24.1,17.5 C23.5,16.9 22.6,16.6 21.8,16.5 L21.8,16.5 L2,16.5 L2,29.9 L2,29.9 C2.1,30.7 2.4,31.5 3,32.1 L3,32.1 C3.7,32.7 4.5,33.1 5.4,33.1 L5.5,33.1 L20.3,33.1 C22,33.1 25.2,33.1 25.2,33.1 C25.2,33.1 25.2,28.5 25.2,27.8 L25.2,19.9 L25.1,19.9 Z M7,30 L7,19.4 L20,19.4 L20,29.9 L7,30 Z" id="形状"></path>
                    <path d="M34.9,1.5 L34.9,1.5 C34.2,0.8 33.4,0.5 32.6,0.5 L0.4,0.5 L0.4,4 L30.6,4 L30.6,32.6 L27.7,32.7 L27.7,36.3 L36,36.3 L36,4 L36,3.9 C35.8,3 35.5,2.1 34.9,1.5 Z" id="路径"></path>
                </g>
            </g>
        </g>
    </g>
</svg>