<?xml version="1.0" encoding="UTF-8"?>
<svg width="471px" height="39px" viewBox="0 0 471 39" version="1.1" xmlns="http://www.w3.org/2000/svg" xmlns:xlink="http://www.w3.org/1999/xlink">
    <!-- Generator: Sketch 51.2 (57519) - http://www.bohemiancoding.com/sketch -->
    <title>guangxi_logo</title>
    <desc>Created with Sketch.</desc>
    <defs></defs>
    <g id="Page-1" stroke="none" stroke-width="1" fill="none" fill-rule="evenodd">
        <g id="guangxi_logo" fill="#FFFFFF" fill-rule="nonzero">
            <polygon id="Shape" points="239.377049 2.02111324 234.036544 2.02111324 234.581626 5.03723608 226.424863 5.03723608 227.349556 0 222.012295 0 221.009734 5.45182342 221.003245 8.86180422 221 9 240 9 239.993511 5.42763916"></polygon>
            <path d="M236.726264,11 L221,11 L221,39 L223.050546,39 C224.856048,38.9981531 226.31925,37.4871709 226.321038,35.6227115 L226.321038,29.2400383 L233.218921,29.2400383 L233.218921,25.3970324 L226.321038,25.3970324 L226.321038,22.0666507 L233.218921,22.0666507 L233.218921,18.2705516 L226.321038,18.2705516 L226.321038,14.8430059 L234.675717,14.8430059 L234.675717,39 L240,39 L240,14.3772885 C239.998209,12.5115217 238.533032,10.9999991 236.726264,11 Z" id="Shape"></path>
            <path d="M247.461433,10.6630611 L257.392522,7.11952407 L257.479052,7.09031909 L257.479052,2.41103299 L247.461433,5.98053002 L247.461433,0 L242,0 L242,14.7290427 C242.003662,16.5340614 243.503486,17.9964292 245.354738,18 L259,18 L259,14.2779881 L247.461433,14.2779881 L247.461433,10.6630611 Z" id="Shape"></path>
            <path d="M247.461433,30.6584926 L257.392522,27.1143166 L257.479052,27.0851064 L257.479052,22.4082221 L247.461433,25.9783628 L247.461433,20 L242,20 L242,34.7284529 C242.001835,36.5345369 243.502728,37.9982109 245.354738,38 L259,38 L259,34.277317 L247.461433,34.277317 L247.461433,30.6584926 Z" id="Shape"></path>
            <path d="M149.102708,8 L143.175207,8 L142.591184,10.2087696 L140.016782,10.2087696 L140.016782,13.9620419 L141.577534,13.9620419 L140.033565,19.2140052 L140.016782,22.5091623 L140.016782,22.6400524 L152.573283,22.6400524 L152.573283,26.7205497 L140,26.7205497 L140,30.473822 L152.573283,30.473822 L152.573283,38 L154.694563,38 C156.557121,37.9982227 158.068641,36.5304706 158.07787,34.7146597 L158.07787,30.460733 L169.993287,30.460733 L169.993287,26.7205497 L158.07787,26.7205497 L158.07787,22.6400524 L169.993287,22.6400524 L169.993287,18.8867801 L158.07787,18.8867801 L158.07787,15.434555 L155.95659,15.434555 C154.088808,15.4363588 152.575133,16.9120598 152.573283,18.7329843 L152.573283,18.8867801 L146.065115,18.8867801 L147.511748,13.9784031 L170,13.9784031 L170,10.2120419 L148.518684,10.2120419 L149.102708,8 Z" id="Shape"></path>
            <path d="M154.793623,3.44619105 L153.712135,0.0918984281 L153.68264,0 L148.258813,0 L149.386182,3.44619105 L133,3.44619105 L133,38 L133.455536,38 C136.170487,38 138.371391,35.7958396 138.371391,33.0768699 L138.371391,7.22059078 L170,7.22059078 L170,3.44619105 L154.793623,3.44619105 Z" id="Shape"></path>
            <polygon id="Shape" points="88.0189753 35.8540146 88 36 91.14358 36 93 21.2786994 89.8975332 21"></polygon>
            <polygon id="Shape" points="103.100506 21 100 21.2786994 101.842604 35.8871931 101.858407 36 105 36 103.116308 21.1260783"></polygon>
            <polygon id="Shape" points="93 12.7215605 92.009901 2 89 2 90.0114242 13"></polygon>
            <polygon id="Shape" points="104 2 100.990854 2 100.012195 12.5905301 100 12.7215605 102.987805 13"></polygon>
            <path d="M99.7472978,1.88456886 C99.7472994,0.84503105 98.8872857,0.00181104148 97.8251957,0 L94.2459933,0 L94.2459933,15.2833938 L88,15.2833938 L88,19.0426819 L94.2493477,19.0426819 L94.2493477,36.1154311 C94.2493461,37.154969 95.1093598,37.998189 96.1714499,38 L99.7506523,38 L99.7506523,19.0426819 L106,19.0426819 L106,15.2833938 L99.7472978,15.2833938 L99.7472978,1.88456886 Z" id="Shape"></path>
            <path d="M122.64056,3.44648873 L118.784536,3.44648873 L117.654724,0 L112.138977,0 L113.272121,3.44320636 L106,3.44320636 L106,34.6913708 C106.001837,36.5179263 107.504834,37.9981906 109.35944,38 L113.898684,38 L113.898684,34.2384037 L111.465756,34.2384037 L111.465756,22.6024013 L112.995501,22.6024013 L118.574571,37.7013043 L118.574571,38 L125.990002,38 L125.990002,34.2384037 L123.657057,34.2384037 L122.237294,29.7875097 L125.903349,28.4745616 L125.990002,28.4450203 L125.990002,23.521465 L120.307615,25.569664 L119.201133,22.6155308 L126,22.6155308 L126,6.75511791 C125.998163,4.92856246 124.495166,3.4482981 122.64056,3.44648873 Z M111.469088,14.9052432 L119.071155,14.9052432 L119.071155,11.1436469 L111.469088,11.1436469 L111.469088,7.22121448 L120.530912,7.22121448 L120.530912,18.8375227 L111.465756,18.8375227 L111.469088,14.9052432 Z" id="Shape"></path>
            <polygon id="Shape" points="176.160203 14.1495711 176.160203 18 183.596313 18 187.224253 13.2431928 190.80213 17.9462887 190.838843 18 197 18 193.085029 12.8537859 193.044978 12.8034316 187.55801 12.8034316 188.646058 11.3733681 195.911952 11.3733681 195.911952 7.52629616 188.756198 7.52629616 188.756198 5.59940321 195.084234 5.59940321 195.084234 1.74897426 182.481564 1.74897426 182.87206 0 177.345041 0 176.040051 5.43491235 176 5.59940321 183.279243 5.59940321 183.279243 7.52629616 176.126828 7.52629616 176.126828 11.3733681 182.484901 11.3733681 180.372219 14.1495711"></polygon>
            <path d="M211.671329,2 L198,2 L198,14.6684556 C198.000875,15.5529124 198.352761,16.400796 198.978247,17.0255816 C199.603733,17.6503671 200.451581,18.0008754 201.335276,17.9999984 L215,18 L215,5.33154273 C214.99818,3.49233767 213.508949,2.0018219 211.671329,2 Z M209.584305,5.79095189 L209.584305,14.2090465 L203.425602,14.2090465 L203.425602,5.79095189 L209.584305,5.79095189 Z" id="Shape"></path>
            <path d="M209.642558,19 L178,19 L178,34.6305419 C178.001836,36.4906784 179.503939,37.9981574 181.357442,38 L213,38 L213,22.3627727 C212.994498,20.5052475 211.493466,19.0018328 209.642558,19 Z M183.48249,26.190183 L183.48249,22.8474666 L207.547488,22.8474666 L207.547488,34.1625616 L183.48249,34.1625616 L183.48249,30.020936 L205.63228,30.020936 L205.63228,26.190183 L183.48249,26.190183 Z" id="Shape"></path>
            <path d="M416.969603,14.5635597 L418.894364,18.3024686 L400.259926,18.3024686 L417.802464,7.82350874 L408.739365,7.82350874 L405.460386,9.63287358 L401.699397,9.63287358 L410.552641,4.67881929 L425.770383,4.67881929 L425.770383,1 L390.967299,1 L390.967299,4.69217254 L401.371499,4.69217254 L391.534562,9.80646578 L391.534562,13.3383994 L399.259837,13.3383994 L390.406593,18.3024686 L390,18.3024686 L390,21.9979794 L405.594825,21.9979794 L405.594825,35.3078275 L401.9486,35.3078275 L401.9486,39 L407.303173,39 C409.33972,38.9981594 410.990216,37.3177975 410.992024,35.2443995 L410.992024,21.9979794 L427,21.9979794 L422.993088,14.5635597 L416.969603,14.5635597 Z" id="Shape"></path>
            <polygon id="Shape" points="397.145141 24 393.364785 34.4502522 390 34.4502522 390 38 394.487497 38 397.936066 37.9967905 403 24"></polygon>
            <polygon id="Shape" points="420.853351 24 415 24 420.065979 37.9967905 428 38 428 34.4502522 424.636082 34.4502522"></polygon>
            <polygon id="Shape" points="348 4.67827761 352.47191 4.67827761 352.47191 15.8993524 348 15.8993524 348 19.57763 352.47191 19.57763 352.47191 33.8118327 348 35.2917907 348 39 362 34.6998075 362 30.9849466 357.743178 32.2720112 357.743178 19.57763 362 19.57763 362 15.8993524 357.743178 15.8993524 357.743178 4.67827761 362 4.67827761 362 1 348 1"></polygon>
            <path d="M377.30925,29.7829219 L385.440495,29.7829219 L385.440495,26.0907494 L377.30925,26.0907494 L377.30925,22.475358 L385.138966,22.475358 L385.138966,4.08793815 C385.137119,2.38327969 383.750707,1.00183989 382.039913,1 L363.750473,1 L363.750473,19.3874198 C363.75232,21.0920783 365.138732,22.4735181 366.849527,22.475358 L371.824763,22.475358 L371.824763,26.0907494 L363.539403,26.0907494 L363.539403,29.7829219 L371.824763,29.7829219 L371.824763,35.3078275 L363,35.3078275 L363,39 L386,39 L386,35.3078275 L377.326001,35.3078275 L377.30925,29.7829219 Z M377.30925,9.91996837 L377.30925,4.69217254 L380.016315,4.69217254 L380.016315,9.91996837 L377.30925,9.91996837 Z M377.30925,18.7831855 L377.30925,13.6121409 L380.016315,13.6121409 L380.016315,18.7831855 L377.30925,18.7831855 Z M371.824763,13.6121409 L371.824763,18.7831855 L369.040641,18.7831855 L369.040641,13.6121409 L371.824763,13.6121409 Z M371.824763,4.69217254 L371.824763,9.91996837 L369.040641,9.91996837 L369.040641,4.69217254 L371.824763,4.69217254 Z" id="Shape"></path>
            <path d="M315.8114,26.2308255 L336.473084,26.2308255 L336.473084,19.1140222 C336.471269,17.3949644 335.108487,16.0018554 333.426852,16 L311,16 L311,35.8624122 C311.001811,37.5801582 312.36259,38.9727254 314.042939,38.9764344 L337,39 L337,27.6245609 L315.8114,27.6245609 L315.8114,26.2308255 Z M315.8114,19.7233607 L331.658391,19.7233607 L331.658391,22.5040984 L315.8114,22.5040984 L315.8114,19.7233607 Z M332.231412,31.3479215 L332.231412,35.2497073 L315.8114,35.2497073 L315.8114,31.3479215 L332.231412,31.3479215 Z" id="Shape"></path>
            <polygon id="Shape" points="311.891805 6.10520231 312.751664 6.10520231 313.983267 10 318.295493 10 317.067123 6.10520231 322 6.10520231 322 2.26936416 313.530709 2.26936416 314.073778 1 308.846739 1 305 10 310.230272 10"></polygon>
            <polygon id="Shape" points="332.529099 2.26936416 333.072271 1 327.844237 1 324 10 329.228033 10 330.889882 6.10520231 331.749905 6.10520231 332.981742 10 337.294789 10 336.066185 6.10520231 341 6.10520231 341 2.26936416"></polygon>
            <polygon id="Shape" points="325.628824 10 321.220052 10 321.535201 11.1298283 306 11.1298283 306 19 310.501659 19 310.501659 14.693133 337.574641 14.693133 337.574641 19 342 19 342 11.1298283 325.947291 11.1298283"></polygon>
            <polygon id="Shape" points="439.063673 14.2723731 444.523265 1 438.622857 1 433.163265 14.2723731 433 14.2723731 433 17.9004613 438.198367 17.9004613 433.032653 29.6146591 433 29.693388 433 33 444.402449 33 444.402449 29.3719118 439.02449 29.3719118 445 14.2723731"></polygon>
            <path d="M467.296172,32.6266034 L467.296172,35.2974873 L464.311697,35.2974873 L464.311697,21.5758215 L470.886242,21.5758215 L468.657923,13.8302583 L463.94031,13.8302583 L465.081237,17.8799859 L452.912473,17.8799859 L457.720423,7.90757336 L470.401097,7.90757336 L470.401097,4.21507644 L461.310493,4.21507644 L460.397082,1 L455.043763,1 L455.977248,4.21173783 L446,4.21173783 L446,7.90757336 L451.463731,7.90757336 L446,18.1938148 L446,21.5758215 L450.560359,21.5758215 L449.593415,35.3075031 L446.133833,35.3075031 L446.133833,39 L451.94553,39 C453.569942,38.9936237 454.914862,37.7389381 455.03038,36.1221226 L456.047511,21.5758215 L458.821199,21.5758215 L458.821199,35.9117905 C458.823043,37.6165988 460.207592,38.9981599 461.916087,39 L471,39 L471,32.6266034 L467.296172,32.6266034 Z" id="Shape"></path>
            <rect id="Rectangle-path" x="433" y="35" width="12" height="4"></rect>
            <path d="M20.9471603,1 L15.6272466,1 L16.3587347,3.53066245 L0,3.53066245 L0,39 L0.462167505,39 C3.13141245,38.9981586 5.29480521,36.8258787 5.29663911,34.1456686 L5.29663911,8.30820594 L37,8.30820594 L37,3.53066245 L21.6686736,3.53066245 L20.9471603,1 Z" id="Shape"></path>
            <path d="M299.996724,17.9534863 L299.996724,13.0251473 L288.504128,15.36402 L288.504128,3.42240394 C288.502323,2.08531027 287.439975,1.00184046 286.128948,1 L283.28856,1 L283.28856,16.4399015 L275,18.1339137 L275,23.0589115 L283.28856,21.3648993 L283.28856,35.2410973 C283.290366,37.3163184 284.939419,38.9981578 286.974184,39 L300,39 L300,32.6215598 L294.627179,32.6215598 L294.627179,35.2945573 L288.504128,35.2945573 L288.504128,20.2990416 L299.996724,17.9534863 Z" id="Shape"></path>
            <polygon id="Shape" points="278 1 271.822754 1 263 20.43068 268.501867 20.43068 268.501867 39 273.911487 39 273.911487 16.4677561 270.97606 16.4677561"></polygon>
            <path d="M44,4.69282137 L54.7135829,4.69282137 L54.7135829,11.7045075 L44,11.7045075 L44,35.2370618 C44.0018407,37.3145122 45.6853397,38.9981591 47.7626076,39 L82,39 L82,15.4741235 C81.9981593,13.3966731 80.3146603,11.7130262 78.2373924,11.7111853 L71.3865753,11.7111853 L71.3865753,4.69949917 L82,4.69949917 L82,1 L44,1 L44,4.69282137 Z M57.6081532,28.6761269 C58.9441896,28.6742877 60.0268027,27.5915795 60.0286417,26.2554257 L60.0286417,15.4040067 L66.0681778,15.4040067 L66.0681778,26.2587646 C66.0700031,27.59232 67.1485611,28.6739565 68.4819891,28.6794658 L75.8569671,28.6794658 L75.8569671,24.9833055 L71.3865753,24.9833055 L71.3865753,15.4040067 L76.5246881,15.4040067 L76.5246881,35.3138564 L49.4819891,35.3138564 L49.4819891,15.4040067 L54.7135829,15.4040067 L54.7135829,24.9833055 L50.1697417,24.9833055 L50.1697417,28.6794658 L57.6081532,28.6761269 Z M60.0286417,11.7078464 L60.0286417,4.69616027 L66.0681778,4.69616027 L66.0681778,11.7078464 L60.0286417,11.7078464 Z" id="Shape"></path>
        </g>
    </g>
</svg>