<?xml version="1.0" encoding="UTF-8"?>
<svg width="394px" height="34px" viewBox="0 0 394 34" version="1.1" xmlns="http://www.w3.org/2000/svg" xmlns:xlink="http://www.w3.org/1999/xlink">
    <!-- Generator: Sketch 60.1 (88133) - https://sketch.com -->
    <title>logo-jc</title>
    <desc>Created with Sketch.</desc>
    <g id="页面-1" stroke="none" stroke-width="1" fill="none" fill-rule="evenodd">
        <g id="logo-jc" fill="#FFFFFF" fill-rule="nonzero">
            <g id="编组">
                <g transform="translate(37.000000, 3.000000)">
                    <polygon id="路径" points="27.5 2.5 27.7 0 22.8 0 22.3 2.5 8.2 2.5 8.4 0 3.8 0 3.2 2.5 0.2 2.5 0.2 6.1 30.6 6.1 30.6 2.5"></polygon>
                    <rect id="矩形" x="0.2" y="13.6" width="30.4" height="3.6"></rect>
                    <rect id="矩形" x="0.1" y="25.9" width="30.5" height="3.6"></rect>
                </g>
                <g transform="translate(323.000000, 1.000000)" id="路径">
                    <path d="M26.3,22.6 L27.2,26.8 C27.2,27.3 27.1,27.6 27,27.8 C26.8,27.9 26.6,28 26.2,28 L9.2,28.1 L21.8,12.5 L15.9,12.5 L3,28.1 L3,32.3 L28.1,32.3 C29.5,32.3 30.4,32.1 30.9,31.6 C31.4,31.1 31.7,30.6 31.9,30 C32.1,29.4 32.2,28.7 32.2,27.9 L31.3,22.6 C31.3,22.6 26.3,22.6 26.3,22.6 Z"></path>
                    <polyline points="7.3 14.5 16.9 0.3 11.5 0.3 0.8 15.2 6.8 15.2"></polyline>
                    <polyline points="34.8 14.7 25.9 0.3 20.4 0.3 29.2 14.7"></polyline>
                </g>
                <g transform="translate(109.000000, 1.000000)" id="路径">
                    <path d="M11.7,0.2 L7.2,0.2 L7.2,4 L5.6,4 L5.6,1.3 L2.7,1.3 L2.7,7 L0.8,8.1 L0.9,10.8 L5.6,8.3 L5.6,6.8 L7.4,6.8 L7.4,12.3 L2.2,21.2 L0.6,21.2 L0.7,24.4 L4.3,24.4 L7.4,19.3 L7.4,25.6 C7.4,26.9 7.4,29.1 7.4,29.1 C7.4,29.1 6.5,29.1 5.9,29.1 L2.7,29.1 L2.7,32.2 L7.4,32.2 C9.2,32.2 10.3,31.8 10.8,31 C11.3,30.2 11.6,29.2 11.6,28.2 L11.6,15.2 L13,15.2 L13,11.6 L11.6,11.6 L11.6,6.8 L13.1,6.8 L13.1,4 L11.6,4 L11.6,0.2 L11.7,0.2 Z"></path>
                    <path d="M25.5,2.9 L25.5,1.3 C25.5,1.3 25.5,1.1 25,0.6 C24.5,0.1 24.3,0.2 24.3,0.2 L21,0.2 L21,3 L14.3,3 L14.3,6.2 L21,6.2 L21,11.4 L14,11.4 L14,14.5 L32,14.5 L32,11.4 L25.7,11.4 L25.7,6 L32.2,6 L32.2,2.9 L25.5,2.9 Z"></path>
                    <path d="M29.5,15.4 L25.5,15.4 L25.5,18 L14.1,18 L14.1,21.2 L25.5,21.2 L25.5,29.3 L22.6,29.3 L22.6,32.5 L25.8,32.5 C26.6,32.5 27.4,32.4 28,32 C28.6,31.6 29.1,31.2 29.2,30.6 C29.4,30 29.6,29 29.6,27.5 L29.6,21.2 L32.2,21.2 L32.2,18 L29.6,18 L29.6,15.4 L29.5,15.4 Z"></path>
                    <polygon points="20.5 23.2 15.7 23.2 18.8 27.3 23.5 27.3"></polygon>
                </g>
                <path d="M177.9,6.9 L177.9,3.4 L164.6,3.4 L164,1.4 L159.2,1.4 L159.8,3.4 L146.6,3.4 L146.6,6.9 L159.8,6.9 L159.8,9.9 L147,9.9 L147,32.2 L151.5,32.2 L151.5,13.6 L159.8,13.6 L159.8,24.8 L159.8,33.2 L161.6,33.2 C163.3,33.2 164.7,31.8 164.7,30.1 L164.7,24.8 L164.7,21.7 L164.7,16.2 L164.7,13.7 L164.7,13.7 L172.6,13.7 L172.6,29.1 L170.2,29.1 L170.2,32.2 L177.5,32.2 L177.5,9.9 L164.7,9.9 L164.7,6.9 L177.9,6.9 Z" id="路径"></path>
                <g transform="translate(255.000000, 1.000000)">
                    <path d="M14.8,13.6 L9.6,13.6 L9.6,1.9 C9.6,1.2 9.1,0.7 8.4,0.7 L5.8,0.7 L5.8,13.6 L0.6,13.6 L0.6,16 L5.8,16 L5.8,30.8 C5.8,31.5 6.3,32 7,32 L9.6,32 L9.6,16 L14.8,16 L14.8,13.6 Z" id="路径"></path>
                    <path d="M31.9,6 C31.9,4.7 30.8,3.6 29.5,3.6 L26,3.6 L25.1,0.7 L21.3,0.7 L22.2,3.6 L16,3.6 L16,29.5 C16,30.8 17.1,31.9 18.4,31.9 L21.8,31.9 L21.8,29.5 L19.8,29.5 L19.8,19 L21.7,19 L26.4,32 L26.4,32 L30.7,32 L31.8,32 L31.8,29.6 L30,29.6 L28.6,25.2 L31.8,24 L31.8,20.7 L27.2,22.4 L26,19 L31.8,19 L31.8,6 L31.9,6 Z M28.1,16.6 L19.8,16.6 L19.8,12.5 L26.1,12.5 L26.1,10.1 L19.8,10.1 L19.8,6 L28.1,6 L28.1,16.6 Z" id="形状"></path>
                    <polygon id="路径" points="0.6 30.3 3.1 30.3 4.8 18.2 2.3 18"></polygon>
                    <polygon id="路径" points="10.6 18.2 12.1 30.3 14.8 30.3 13 18"></polygon>
                    <polygon id="路径" points="4.8 11.2 3.9 2.3 1.4 2.3 2.3 11.4"></polygon>
                    <polygon id="路径" points="14 2.3 11.5 2.3 10.6 11.2 13 11.4"></polygon>
                </g>
                <g transform="translate(291.000000, 1.000000)">
                    <path d="M27.6,3.8 C27.3,3.8 27,3.7 26.7,3.5 C26.4,3.3 26.2,3.1 26,2.8 L24.3,0.3 L6.3,0.3 L4.3,2.5 C3.8,3 3.4,3.3 3.1,3.5 C2.8,3.7 2.4,3.8 1.9,3.8 L0.9,3.8 L0.9,7 L3.8,7 C4.5,7 5.1,6.9 5.6,6.7 C6.2,6.5 6.7,6.1 7.2,5.5 L8.8,3.7 L21.2,3.7 L22.6,6 C22.7,6.2 23,6.5 23.5,6.7 C23.9,7 24.6,7.1 25.6,7.1 L28.8,7.1 L28.8,3.8 L27.6,3.8 Z" id="路径"></path>
                    <path d="M24.4,8.6 L18.5,8.6 L16.9,6.2 L10.5,6.2 L12.1,8.6 L1.6,8.6 L1.6,30.2 C1.6,31.3 3.4,32.2 5.7,32.2 L11.5,32.2 L11.5,30.2 L6,30.2 L6,22.7 L10.3,22.7 L19.4,32.2 L19.4,32.2 L25.5,32.2 L28.6,32.2 L28.6,30.2 L23.6,30.2 L21.1,27.6 L28.6,26.6 L28.6,23.8 L19,25.2 L16.6,22.6 L28.5,22.6 L28.5,10.6 C28.4,9.5 26.5,8.6 24.4,8.6 Z M24,18.9 L5.8,18.9 L5.8,16.5 L21.1,16.5 L21.1,14 L5.8,14 L5.8,11.6 L24,11.6 L24,18.9 Z" id="形状"></path>
                </g>
                <g transform="translate(72.000000, 1.000000)">
                    <polygon id="路径" points="3 29.2 0.6 29.1 0.6 31.6 6.1 31.6 8.4 24.2 4.1 24.2"></polygon>
                    <polygon id="路径" points="8.4 9.3 8.4 6.7 6.1 6.8 4.9 1.8 0.6 1.8 3 9.3"></polygon>
                    <path d="M30.3,18.8 L30.3,18.8 C29.7,18.2 29,18 28.3,18 L28.3,18 L11.3,18 L11.3,29.5 L11.3,29.5 C11.3,30.2 11.7,30.9 12.1,31.4 L12.1,31.4 C12.7,32 13.4,32.2 14.1,32.2 L14.1,32.2 L26.7,32.2 C28.1,32.2 30.9,32.2 30.9,32.2 C30.9,32.2 30.9,28.2 30.9,27.6 L30.9,21 C31,20 30.7,19.2 30.3,18.8 Z M15.7,29.3 L15.7,20.9 L26.8,20.9 L26.8,29.3 L15.7,29.3 Z" id="形状"></path>
                    <polygon id="路径" points="6 11.9 1.6 11.9 4.1 19.4 9.5 19.4 9.5 16.9 7 16.9"></polygon>
                    <path d="M23.8,12.3 L23.8,6.8 L31.3,6.8 L31.3,3.5 L23.8,3.5 L23.8,1.1 C23.8,1.1 23.8,1 23.6,0.6 C23.2,0.2 23.1,0.4 23.1,0.4 L19.5,0.4 L19.5,3.6 L16.9,3.6 L17.7,0.8 L13.4,0.8 L11.9,5.8 L10.1,6.6 L10.1,9.6 L14.8,8.8 L15.7,6.8 L19.3,6.8 L19.3,12.3 L10.4,12.3 L10.4,15.5 L31.6,15.5 L31.6,12.3 C31.7,12.3 23.8,12.3 23.8,12.3 Z" id="路径"></path>
                </g>
                <g transform="translate(182.000000, 1.000000)">
                    <path d="M13.9,11.5 L11.7,11.5 L11.7,6.7 L14.1,6.7 L14.1,4 L11.7,4 L11.7,0.2 L7.6,0.2 L7.6,4 L2.1,4 L2.1,6.8 L7.6,6.8 L7.6,12.3 L2.5,21.2 L0.9,21.2 L1,24.3 L4.5,24.3 L7.6,19.3 L7.6,25.6 C7.6,26.9 7.6,29 7.6,29 C7.6,29 6.6,29 6.1,29 L3,29 L3,32.1 L7.7,32.1 C9.5,32.1 10.7,31.7 11.1,30.9 C11.6,30.1 11.6,29.1 11.6,28 L11.6,15.2 L13.8,15.2 L13.8,11.5 L13.9,11.5 Z" id="路径"></path>
                    <path d="M29.8,20 L32.8,20 L32.8,16.8 L32.8,15 L34.1,15 L34.1,12.4 L32.8,12.4 L32.8,10 L32.8,9.8 C32.8,9.1 32.5,8.3 32,7.8 L32,7.8 C31.4,7.2 30.7,7 29.9,7 L25.7,7 L25.7,5.4 L33.6,5.4 L33.6,3 L25.7,3 L25.7,2 C25.7,2 25.7,1.7 25.3,1.2 C24.9,0.8 24.4,0.8 24.4,0.8 L21.9,0.8 L21.9,2.9 L15.6,2.9 L15.6,5.5 L21.9,5.5 L21.9,7 L15.6,7 L15.6,9.6 L21.9,9.6 L21.9,12.5 L15.6,12.5 L15.6,15 L21.9,15 L21.9,17.6 L15.6,17.6 L15.6,20.2 L21.9,20.2 L21.9,28.4 L19.6,27 L19.6,22.6 L15.5,22.6 L15.5,22.6 L15.5,27.5 L13.5,29.1 L13.5,32.5 L15.4,31 L17.5,29.4 L23.3,31.8 L33.7,31.8 L33.7,28.8 L25.4,28.8 L25.4,25.2 L32.1,25.2 L32.1,22.7 L25.4,22.7 L25.4,20.1 L29.8,20 L29.8,20 Z M29.2,16.3 L29.2,17.5 L27.3,17.5 L25.5,17.5 L25.5,14.9 L29.1,14.9 L29.1,16.3 L29.2,16.3 Z M25.5,9.6 L29.2,9.6 L29.2,12.5 L25.5,12.5 C25.5,12.4 25.5,9.6 25.5,9.6 Z" id="形状"></path>
                </g>
                <g transform="translate(220.000000, 1.000000)" id="路径">
                    <polygon points="29.9 3.5 27.9 0.4 23.4 0.4 25.4 3.5"></polygon>
                    <path d="M0.4,32.1 C1.6,32.1 2.3,31.9 3,31.5 C3.7,31.1 4.1,30.5 4.3,29.6 C4.5,28.8 4.6,27.9 4.6,27 L4.6,16.5 L11.9,16.5 L11.9,28.9 L8.9,29 L8.9,32 L15.8,31.9 L15.8,16 C15.8,16 15.8,16 15.8,15.9 L15.8,15.8 C15.8,15.8 15.8,15.8 15.8,15.7 L15.8,15.6 L15.8,15.6 C15.7,15 15.5,14.3 15,13.8 L15,13.8 C14.4,13.3 13.7,13 13,13 L13,13 L4.6,13 L4.6,7.9 L18.4,7.9 L19.9,27.6 C20,28.4 20.2,29.3 20.5,30.3 C20.9,31.3 22.1,31.7 24.3,31.7 L30.7,31.7 L30.7,28.1 L26.4,28.1 L24.5,28.1 L24,24.9 L29.8,14.9 L27,13.1 L23.4,19.3 L22.6,7.9 L30,7.9 L30,4.4 L29.3,4.4 L24.2,4.4 L22.4,4.4 L22.1,0.9 L17.6,0.9 L17.9,4.4 L0.4,4.4 L0.4,26.5 L0.4,28.2 L0.4,28.6"></path>
                </g>
                <g transform="translate(362.000000, 1.000000)">
                    <rect id="矩形" x="1.4" y="8" width="21.5" height="3.1"></rect>
                    <path d="M22.1,17.7 L22.1,17.7 C22.1,16.9 21.8,16.1 21.3,15.6 L21.3,15.6 C20.7,15.1 20,14.8 19.3,14.8 L19.3,14.8 L2,14.8 L2,26.4 L2,26.4 C2,27.1 2.3,27.8 2.8,28.3 L2.8,28.3 C3.4,28.9 4.1,29.1 4.9,29.1 L4.9,29.1 L17.7,29.1 C19.2,29.1 22,29.1 22,29.1 C22,29.1 22,25.1 22,24.5 L22.1,17.7 L22.1,17.7 Z M6.4,26.1 L6.4,17.6 L17.7,17.6 L17.7,26.1 L6.4,26.1 Z" id="形状"></path>
                    <path d="M30.8,1.7 L30.8,1.7 C30.2,1.1 29.5,0.9 28.8,0.8 L0.8,0.8 L0.8,4.5 L27,4.5 L27,28.4 L24.3,28.4 L24.3,31.8 L31.5,31.8 L31.5,3.8 L31.5,3.7 C31.5,3 31.3,2.3 30.8,1.7 Z" id="路径"></path>
                </g>
                <g>
                    <rect id="矩形" x="0.3" y="24.7" width="24.5" height="3.4"></rect>
                    <path d="M31.6,20.7 C31.6,19.9 31.2,19.2 30.5,18.6 L30.5,18.6 C29.9,18.1 29.2,17.9 28.5,18 L7.5,18 C6.7,18 6.1,18 6.1,18 C6.1,18 6.1,17.3 6.1,16.8 L6.1,6.8 L25.9,6.8 L25.9,10.7 L25.9,12 L25.1,12 L13.9,12.1 L13.9,15 L27.8,15 L30.6,15 L30.6,12 L30.6,6.1 L30.6,6.1 C30.6,4.4 29.3,3.2 27.7,3.2 L27.7,3.2 C27.6,3.2 27.6,3.2 27.5,3.2 L18.2,3.2 L18.2,0.5 L13.2,0.5 L11.8,3.1 L1.3,3.1 L1.3,18 C1.3,18.5 1.3,19.1 1.4,19.7 C1.5,20.3 1.9,20.9 2.3,21.2 C2.9,21.7 3.8,21.9 5.2,21.9 L26.6,21.9 L26.6,28.7 C26.6,29.2 26.5,29.5 26.4,29.6 C26.3,29.7 25.9,29.8 25.5,29.8 L18.8,29.8 L18.8,29.8 C18.3,31 19,32.4 20.2,32.9 L20.2,32.9 C20.6,33 20.9,33.1 21.3,33.1 L21.3,33.1 L27.4,33.3 C29.3,33.3 30.3,32.9 30.8,32.1 C31.3,31.3 31.5,30.4 31.5,29.4 L31.6,20.7 L31.6,20.7 Z" id="路径"></path>
                </g>
            </g>
        </g>
    </g>
</svg>