<?xml version="1.0" encoding="UTF-8"?>
<svg width="364px" height="84px" viewBox="0 0 364 84" version="1.1" xmlns="http://www.w3.org/2000/svg" xmlns:xlink="http://www.w3.org/1999/xlink">
    <!-- Generator: Sketch 61.2 (89653) - https://sketch.com -->
    <title>内蒙古呼和浩特新城国家粮食储备库</title>
    <desc>Created with Sketch.</desc>
    <g id="页面-1" stroke="none" stroke-width="1" fill="none" fill-rule="evenodd">
        <g id="内蒙古呼和浩特新城国家粮食储备库" transform="translate(-2.000000, -3.000000)" fill="#FFFFFF" fill-rule="nonzero">
            <path d="M2.7,86.3 L3.6,77.2 L8.1,77.2 L7.2,86.3 L2.7,86.3 Z M2.8,52.1 L8,52.1 L7.5,50.6 L14.3,50.6 L14.8,52.1 L21.4,52.1 L21.4,55.6 L2.8,55.6 L2.8,52.1 Z M9.2,70.4 L9.2,66 L2.8,66 L2.8,62.5 L5,62.5 L3.5,58.3 L8.9,58.3 L10.4,62.5 L13.8,62.5 L15.3,58.3 L20.7,58.3 L19.2,62.5 L21.4,62.5 L21.4,66 L15,66 L15,70.4 L21.4,70.4 L21.4,73.6 L15,73.6 L15,81.6 C15,82.2 14.9,82.8 14.7,83.4 C14.5,84 14.2,84.5 13.9,84.9 C13.5,85.3 13.1,85.7 12.6,85.9 C12.1,86.1 11.6,86.3 11.1,86.3 L7.3,86.3 L8.4,82.9 L8.6,82.9 C9,82.9 9.3,82.6 9.3,82.1 L9.3,73.6 L2.8,73.6 L2.8,70.4 L9.2,70.4 Z M16.1,77.2 L20.5,77.2 L21.4,86.3 L17,86.3 L16.1,77.2 Z M29,55 L29,60.4 L39.6,60.4 L39.6,64 L38.2,64 L38.2,86.2 L32.5,86.2 L32.5,64 L29,64 L29,82.1 L27.9,86.3 L22.2,86.3 L23.3,82.1 L23.3,55.9 L23.3,53.5 L23.3,51.7 L39.6,50.6 L39.6,54.2 L29,55 Z" id="形状"></path>
            <path d="M56.5,84.7 L44.4,86.2 L44.4,82.6 L47.8,82.2 L47.8,60.2 L45.2,60.2 L45.2,56.6 L47.8,56.6 L47.8,51.7 L53,51.7 L53,56.6 L55.6,56.6 L55.6,60.2 L53,60.2 L53,81.6 L56.4,81.2 L56.4,84.7 L56.5,84.7 Z M81.2,60.7 L78.1,72.6 L80.7,86.3 L76.2,86.3 L75.4,82.4 L74.4,86.3 L70.2,86.3 L73.6,73.3 L70.5,56.7 L62.4,56.7 L62.4,62.7 L70.5,62.7 L70.5,80.8 C70.5,81.6 70.4,82.3 70.1,82.9 C69.8,83.5 69.5,84.1 69.1,84.6 C68.7,85.1 68.2,85.5 67.6,85.8 C67,86.1 66.4,86.2 65.8,86.2 L62.5,86.2 L63.9,82.3 L64.4,82.3 C64.8,82.3 65.1,82.2 65.3,81.9 C65.5,81.6 65.7,81.2 65.7,80.8 L65.7,66.1 L62.2,66.1 L62,86.4 L57,86.4 L57.5,53.4 L69.8,53.4 L69.3,50.6 L73.8,50.6 L74.3,53.4 L76,53.4 L75.5,50.6 L79.8,50.6 L81.2,56.8 L79.6,56.8 L76.9,56.8 L75.3,56.8 L76.4,63.5 L77.1,60.7 L81.2,60.7 L81.2,60.7 Z" id="形状"></path>
            <path d="M92.2,50.6 L117.4,50.6 L117.4,50.6 L123.2,50.6 L123.2,80.9 C123.2,81.7 123.1,82.4 122.8,83 C122.6,83.7 122.2,84.2 121.8,84.7 C121.4,85.2 120.9,85.6 120.3,85.9 C119.7,86.2 119.1,86.3 118.5,86.3 L86.4,86.3 L86.4,84.6 L86.4,84.6 L86.4,50.6 L87.5,50.6 L92.2,50.6 Z M92.2,54.1 L92.2,82.9 L117.4,82.8 L117.4,54.1 L92.2,54.1 L92.2,54.1 Z M101.7,75.1 L101.7,68.9 L94.4,68.9 L94.4,65.7 L101.7,65.7 L101.7,60.7 L93.5,60.7 L93.5,57.5 L116,57.5 L116,60.7 L107.9,60.7 L107.9,65.7 L115.1,65.7 L115.1,68.9 L107.9,68.9 L107.9,75.1 L110.3,75.1 L109.7,71.8 L114.7,71.8 L116.2,78.9 L112.1,78.9 L111.2,78.9 L93.5,78.9 L93.5,75.1 L101.7,75.1 Z" id="形状"></path>
            <path d="M160.8,52.4 C161.4,52.4 162,52.5 162.6,52.8 C163.2,53.1 163.7,53.5 164.1,54 C164.5,54.5 164.8,55.1 165.1,55.7 C165.4,56.3 165.5,57.1 165.5,57.8 L165.5,61.7 L161,61.7 L161,64 L149.5,64 C149.5,64 151.6,67.3 151.6,69.6 C151.6,72 151.7,72.8 151.7,72.8 L155.3,67.5 L161.1,67.5 L157.3,73.3 L157.3,73.3 L164.8,84.7 L158.3,84.7 L151.8,74 L151.8,74 L151.8,80.9 C151.8,81.7 151.7,82.4 151.4,83 C151.2,83.7 150.8,84.2 150.4,84.7 C150,85.2 149.5,85.6 148.9,85.9 C148.3,86.2 147.8,86.3 147.1,86.3 L141.5,86.3 L143.3,81.9 L144.5,81.9 C144.9,81.9 145.2,81.8 145.5,81.5 C145.8,81.2 145.9,80.8 145.9,80.4 L145.9,79.6 L128.7,84.6 L128.7,81 L146.3,75.7 L146.4,73.8 L128.5,79 L128.5,75.4 L145.6,70.4 L145.4,68.5 L128.5,73.4 L128.5,69.3 L143.6,64.4 L143,64 L132,64 L132,61.8 L128.4,61.8 L128.4,52.5 L143,52.5 L142.4,50.8 L148.7,50.8 L149.3,52.5 L160.8,52.5 L160.8,52.4 Z M133.8,56.4 L133.8,61 L160,61 L160,58.5 L160,56.4 L158.7,56.4 L133.8,56.4 Z" id="形状"></path>
            <path d="M8.5,38.8 L2.8,38.8 L2.8,12.3 L2.8,9.1 L2.8,7.7 L18.2,7.7 L18.2,3.2 L24.1,3.2 L24.1,7.7 L39.6,7.7 L39.7,7.7 L39.7,34.2 C39.7,35.5 39.3,36.5 38.6,37.4 C37.9,38.3 37,38.7 35.9,38.7 L28.9,38.7 L30.2,34.6 L33,34.6 C33.3,34.6 33.5,34.5 33.7,34.3 C33.9,34.1 34,33.8 34,33.5 L34,11.5 L23.9,11.5 L22.6,15.9 L27,15.9 L31.8,32 L26.4,32 L22,17.7 L16.2,32 L10.3,32 L18.1,11.5 L8.5,11.5 L8.5,38.8 Z" id="路径"></path>
            <path d="M50,7.5 L45,7.5 L45,4.3 L48.6,4.3 L48.2,3.1 L55.1,3.1 L55.5,4.3 L71.5,4.3 L72,3.1 L78.8,3.1 L78.4,4.3 L82.1,4.3 L82.1,7.4 L77.1,7.4 L76.7,9.2 L69.8,9.2 L70.2,7.4 L56.9,7.4 L57.3,9.2 L50.4,9.2 L50,7.5 Z M47.3,16.6 L45,16.6 L45,10.4 L79.1,10.4 C79.9,10.4 80.6,10.7 81.2,11.4 C81.8,12.1 82.1,12.9 82.1,13.9 L82.1,16.6 L79.8,16.6 L79.8,18 L47.3,18 L47.3,16.6 Z M61.6,34.7 L45,38.3 L45,35.3 L61.6,31.6 L61.6,30 L45,33.9 L45,30.8 L61.3,27.2 L61,26.1 L45,29.7 L45,26.4 L60.2,22.7 L45,22.7 L45,19.9 L82,19.9 L82,22.7 L65.7,22.7 L66.4,25.1 L70,25.1 L73.6,28.5 L76.3,25 L81.5,25 L76.2,32.2 L82.1,39 L74.6,39 L69,32.6 L67.4,30.8 L67.4,35.2 C67.4,35.8 67.3,36.3 67.2,36.7 C67.1,37.1 66.8,37.5 66.5,37.9 C66.2,38.2 65.8,38.5 65.4,38.7 C65,38.9 64.6,39 64.1,39 L59,39 L59.7,36.5 L61,36.5 C61.2,36.5 61.4,36.4 61.5,36.3 C61.6,36.2 61.7,36 61.7,35.8 L61.7,34.7 L61.6,34.7 Z M50.8,13.4 L50.8,15.1 L76.3,15.1 C76.3,14.8 76.2,14.2 76,13.8 C75.7,13.5 75.5,13.4 75.2,13.4 L50.8,13.4 L50.8,13.4 Z" id="形状"></path>
            <g id="编组" transform="translate(169.000000, 50.000000)">
                <polygon id="路径" points="0.9 33.9 0.9 34.1 4 34.1 5.8 20.4 2.8 20.1"></polygon>
                <polygon id="路径" points="15.1 20.1 12 20.4 13.8 34 13.8 34.1 16.9 34.1 15.1 20.3"></polygon>
                <polygon id="路径" points="5.8 12.7 4.8 2.6 1.8 2.6 2.8 13"></polygon>
                <polygon id="路径" points="16.1 2.6 13 2.6 12 12.6 12 12.7 15.1 13"></polygon>
                <path d="M11.4,2.2 C11.4,1.2 10.6,0.4 9.6,0.4 L6.3,0.4 L6.3,14.8 L0.6,14.8 L0.6,18.3 L6.3,18.3 L6.3,34.3 C6.3,35.3 7.1,36.1 8.1,36.1 L11.4,36.1 L11.4,18.4 L17.1,18.4 L17.1,14.9 L11.4,14.9 L11.4,2.2 Z" id="路径"></path>
                <path d="M33.2,3.7 L29.6,3.7 L28.6,0.5 L23.5,0.5 L24.5,3.7 L17.8,3.7 L17.8,33.1 C17.8,34.8 19.2,36.2 20.9,36.2 L25.1,36.2 L25.1,32.7 L22.8,32.7 L22.8,21.7 L24.2,21.7 L29.4,35.9 L29.4,36.2 L36.3,36.2 L36.3,32.7 L34.1,32.7 L32.8,28.5 L36.2,27.3 L36.3,27.3 L36.3,22.7 L31,24.6 L30,21.8 L36.3,21.8 L36.3,6.8 C36.3,5.1 35,3.7 33.2,3.7 Z M22.9,14.5 L29.9,14.5 L29.9,11 L22.9,11 L22.9,7.3 L31.3,7.3 L31.3,18.2 L22.9,18.2 L22.9,14.5 Z" id="形状"></path>
            </g>
            <g id="编组" transform="translate(330.000000, 50.000000)">
                <path d="M16.5,7.8 L11,7.8 L10.5,9.9 L8.1,9.9 L8.1,13.5 L9.5,13.5 L8.1,18.5 L8.1,21.6 L8.1,21.7 L19.8,21.7 L19.8,25.6 L8.1,25.6 L8.1,29.2 L19.8,29.2 L19.8,36.4 L21.8,36.4 C23.5,36.4 24.9,35 24.9,33.3 L24.9,29.3 L35.9,29.3 L35.9,25.7 L24.9,25.7 L24.9,21.8 L35.9,21.8 L35.9,18.2 L24.9,18.2 L24.9,14.9 L22.9,14.9 C21.2,14.9 19.8,16.3 19.8,18 L19.8,18.1 L13.8,18.1 L15.1,13.4 L35.9,13.4 L35.9,9.8 L16,9.8 L16.5,7.8 Z" id="路径"></path>
                <path d="M21.4,3.6 L20.4,0.4 L20.4,0.3 L15.3,0.3 L16.4,3.6 L0.9,3.6 L0.9,36.4 L1.3,36.4 C3.9,36.4 6,34.3 6,31.7 L6,7.1 L36,7.1 L36,3.5 L21.4,3.5 L21.4,3.6 Z" id="路径"></path>
            </g>
            <g id="编组" transform="translate(291.000000, 50.000000)">
                <g transform="translate(3.000000, 19.000000)">
                    <rect id="矩形" x="4.9" y="7.5" width="20.2" height="3.2"></rect>
                    <rect id="矩形" transform="translate(14.945000, 9.151500) rotate(-90.000000) translate(-14.945000, -9.151500) " x="7.445" y="7.5515" width="15" height="3.2"></rect>
                    <path d="M29.8,5.3 L29.8,3.8 C29.8,3 29.5,2.3 28.9,1.7 L28.9,1.7 C28.3,1.1 27.4,0.8 26.6,0.8 L19.7,0.8 L0.2,0.8 L0.2,14.4 L0.2,14.4 C0.3,15.1 0.6,15.8 1.1,16.4 L1.1,16.4 C1.7,17 2.6,17.3 3.4,17.3 L3.5,17.3 L25,17.3 C26.6,17.3 29.9,17.3 29.9,17.3 C29.9,17.3 29.9,13.1 29.9,12.4 L29.9,5.3 L29.8,5.3 Z M5.2,14.2 L5.2,3.9 L24.8,3.9 L24.8,14.2 L5.2,14.2 Z" id="形状"></path>
                </g>
                <path d="M0.1,7.4 L9.2,0.3 L15.1,0.3 L12.5,2.7 L28,2.7 C30.6,2.7 32.1,3.9 32.4,5.4 C32.7,6.8 31.9,8.3 30.1,9.1 L21.7,12.8 L33.6,18.2 L25.9,18.9 L16.8,15 L9.5,18.2 L0.1,18.1 L11.7,13 L2.3,9.3 L11.8,8.9 L16.7,10.8 L27.9,5.4 L9.2,5.3 L6.6,7.4 L0.1,7.4 Z" id="路径"></path>
            </g>
            <g id="编组" transform="translate(250.000000, 50.000000)">
                <path d="M7.1,7 C7.1,6 6.5,7.9 5.5,7.9 L2,7.9 L2,22.8 L2,22.8 L2,27.3 L2,26.5 L2,35.2 C2,36.2 2.8,37 3.8,37 L7.2,37 L7.2,26.5 L7.2,26.5 L7.2,22.8 L7.2,22.8 L7.1,7 Z" id="路径"></path>
                <path d="M0.1,13.4 L4.1,0.3 L9.2,0.3 L5,13.3 L0.1,13.4 Z M11,33.8 L11,14 L9.6,14 L9.4,11.6 L12.1,11.6 C13.5,11.6 14.5,12 15.1,12.7 C15.6,13.3 15.8,14.2 15.8,15.3 L15.8,28.5 L17.9,28.2 L18,33 L11,33.8 Z M12.3,9.2 L10,1.8 L14.8,1.8 L17.1,9.1 L12.3,9.2 Z M18.7,4 L23.1,4 L23.1,0.7 L27.9,0.7 L27.9,4 L31.9,4 L31.9,4 L32.7,1.7 L36.8,1.7 L33.7,12.3 L36.7,12.3 L36.7,14.8 L25.5,14.8 L24.1,19 C24.3,19 32.5,19 32.5,19 C34.2,19 35,19.5 35.4,19.9 C35.8,20.3 36.1,20.8 36.1,22.4 L36.1,31.5 L36.1,36.5 L23.4,36.5 C21.6,36.5 21.4,36.8 20.6,35.9 C19.9,35.1 19.9,34.8 19.9,33.3 L19.9,25.4 L17.1,24.6 L20.7,15 L17.9,15 L17.9,12.5 L23.2,12.5 L23.2,6.7 L18.8,6.7 L18.8,4 L18.7,4 Z M24.4,26.3 L31.2,26.3 L31.2,23.4 L31.2,21.1 L24.4,21.1 L24.4,23.4 L24.4,26.3 Z M31.3,31.7 L31.3,28.5 L24.5,28.5 L24.5,34.2 L25.7,34.2 L31.3,34.2 L31.3,31.7 Z M27.8,12.3 L29,12.3 L30.8,6.5 L27.9,6.5 L27.9,12.3 L27.8,12.3 Z" id="形状"></path>
            </g>
            <g id="编组" transform="translate(128.000000, 3.000000)">
                <path d="M14.4,2.3 L37,0.7 L37,5 L28.5,5.6 L28.5,20 L37,20 L37,23.8 L28.5,23.8 L28.5,29.7 C28.5,30.5 28.4,31.2 28.1,31.8 C27.9,32.4 27.5,33 27.1,33.5 C26.7,34 26.2,34.4 25.6,34.7 C25,35 24.4,35.1 23.8,35.1 L18.5,35.1 L19.7,31 L21.2,31 C21.6,31 21.9,30.8 22.2,30.5 C22.5,30.2 22.6,29.8 22.6,29.4 L22.6,23.7 L14.3,23.7 L14.3,19.9 L22.6,19.9 L22.6,5.9 L14.3,6.5 L14.3,2.3 L14.4,2.3 Z M21.6,17.6 L16.6,17.6 L15,8.2 L20,8.2 L21.6,17.6 Z M29.9,17.6 L31.5,8.2 L36.5,8.2 L34.9,17.6 L29.9,17.6 Z" id="形状"></path>
                <path d="M10.9,1.2 L0.5,1.2 L0.5,31.8 C0.5,33.6 1.5,35 2.7,35 L13.1,35 L13.1,4.4 C13.1,2.6 12.1,1.2 10.9,1.2 Z M8.4,30 L5.8,30 L5.8,30 L4.8,30 L4.8,6.1 L8.9,6.1 L8.9,30 L8.4,30 L8.4,30 Z" id="形状"></path>
            </g>
            <g id="编组" transform="translate(210.000000, 3.000000)">
                <path d="M0.2,8.2 L3.1,8.2 L0.2,0 L6,0 L9.9,11.2 L7,11.2 L9.9,19.4 L4.1,19.4 L0.2,8.2 Z M0.2,35.9 L4.1,21.7 L9.9,21.7 L6,35.9 L0.2,35.9 Z M27.3,12.9 L36.7,12.9 L36.7,16.4 L10.6,16.4 L10.6,12.9 L21,12.9 L21,7.1 L10.6,7.1 L12.9,0.9 L18.8,0.9 L18.1,3.3 L21,3.3 L21,0 L27.3,0 L27.3,3.3 L36.1,3.3 L36.1,7.1 L27.3,7.1 L27.3,12.9 L27.3,12.9 Z" id="形状"></path>
                <path d="M33.8,19.9 L11.5,19.9 L11.5,32.9 C11.5,34.4 12.6,35.7 13.9,35.7 L36.2,35.7 L36.2,22.7 C36.1,21.1 35.1,19.9 33.8,19.9 Z M17.3,25.9 L17.3,23.4 L30.5,23.4 L30.5,32 L17.3,32 L17.3,29 L17.3,29 L17.3,25.9 L17.3,25.9 Z" id="形状"></path>
            </g>
            <g id="编组" transform="translate(87.000000, 3.000000)">
                <path d="M33.2,14.5 L2.2,14.5 L2.2,32 C2.2,34.1 3.7,35.8 5.5,35.8 L36.5,35.8 L36.5,18.3 C36.5,16.2 35,14.5 33.2,14.5 Z M8.4,22.6 L8.4,18.3 L30.3,18.3 L30.3,32.2 L8.4,32.2 L8.4,27 L8.4,27 L8.4,22.6 L8.4,22.6 Z" id="形状"></path>
                <path d="M36,8.5 C36.8,8.5 37.5,7.7 37.5,6.8 L37.5,4.7 L18.5,4.7 L18.5,4.7 L15.6,4.7 L15.6,4.7 L2.3,4.7 C1.5,4.7 0.8,5.5 0.8,6.4 L0.8,8.5 L15.5,8.5 L15.5,8.5 L18.4,8.5 L18.4,8.5 L36,8.5 Z" id="路径"></path>
                <path d="M22.7,1.8 C22.7,0.9 21.8,0.2 20.8,0.2 L16.3,0.2 L16.3,15.9 L16.3,16.3 L16.3,16.3 L16.3,16.1 L16.3,16.7 C16.3,17.6 17.2,17.8 18.2,17.8 L22.7,17.8 L22.7,16.1 L22.7,15.9 L22.7,15.9 L22.7,15.9 L22.7,1.8 Z" id="路径"></path>
            </g>
            <g id="编组" transform="translate(213.000000, 50.000000)">
                <path d="M30.1,4.4 C29.8,4.4 29.5,4.3 29.1,4.1 C28.8,3.9 28.5,3.6 28.3,3.3 L26.3,0.5 L6,0.5 L3.7,3 C3.2,3.6 2.7,3.9 2.4,4.1 C2,4.3 1.6,4.4 1,4.4 L0,4.4 L0,8 L3.2,8 C4,8 4.6,7.9 5.3,7.6 C5.9,7.4 6.5,6.9 7.1,6.2 L8.9,4.1 L22.9,4.1 L24.5,6.7 C24.7,7 25,7.2 25.5,7.5 C26,7.8 26.8,7.9 27.8,7.9 L31.4,7.9 L31.4,4.3 L30.1,4.3 L30.1,4.4 Z" id="路径"></path>
                <path d="M26.3,9.8 L19.6,9.8 L17.8,7.1 L10.6,7.1 L12.4,9.8 L0.5,9.8 L0.5,34.1 C0.5,35.3 2.6,36.4 5.1,36.4 L11.6,36.4 L11.6,34.1 L5.5,34.1 L5.5,25.6 L10.3,25.6 L20.9,36.7 L20.9,36.7 L25.7,36.7 L30.6,36.4 L30.6,33.6 L25.4,34.1 L23.1,31.8 L30.9,30.1 L30.9,27 L20.1,28.6 L17.4,25.7 L31,25.7 L31,12 C31,10.8 28.9,9.8 26.3,9.8 Z M26,21.4 L5.5,21.4 L5.5,18.7 L22.7,18.7 L22.7,15.9 L5.5,15.9 L5.5,13.2 L26,13.2 L26,21.4 Z" id="形状"></path>
            </g>
            <g id="编组" transform="translate(169.000000, 3.000000)">
                <path d="M0.2,1.6 L18.4,0.1 L18.4,4.1 L12,4.6 L12,10.9 L18.3,10.9 L18.3,15 L12,15 L12,15 L6.5,15 L6.5,15 L0.2,15 L0.2,10.9 L6.5,10.9 L6.5,5 L0.2,5.5 L0.2,1.6 Z M4,35.3 L0.2,35.3 L1.5,17.4 L5.3,17.4 L4,35.3 Z M18.4,35.3 L14.5,35.3 L13.4,17.4 L17.3,17.4 L18.4,35.3 Z M31.4,34.5 L26.1,34.5 L23,34.5 C23,34.5 21.7,34.3 21.1,33.6 C20.5,33 20.2,31.7 20.2,31.7 L20.2,4 L20.2,4 L20.2,2.3 L32.6,2.3 C33.2,2.3 33.8,2.4 34.4,2.7 C35,3 35.5,3.4 35.9,3.9 C36.3,4.4 36.7,5 36.9,5.6 C37.2,6.2 37.3,6.9 37.3,7.7 L37.3,34.5 L31.4,34.5 L31.4,34.5 Z M31.4,7.3 L26.1,7.3 L26.1,29.7 L30.1,29.7 C30.5,29.7 30.8,29.6 31,29.3 C31.3,29 31.4,28.6 31.4,28.2 L31.4,7.3 Z" id="形状"></path>
                <path d="M12,5.4 C12,4.5 11.2,3.8 10.1,3.8 L6.6,3.8 L6.6,16.7 L6.6,16.7 L6.6,19.9 L6.6,19.9 L6.6,34.3 C6.6,35.2 7.4,35.9 8.5,35.9 L12,35.9 L12,19.9 L12,19.9 L12,16.7 L12,16.7 L12,5.4 Z" id="路径"></path>
            </g>
            <g id="编组" transform="translate(250.000000, 3.000000)">
                <path d="M7,26.7 L0.5,27.6 L0.5,23.5 L6.9,22.6 L6.9,9.9 L0.7,9.9 L1.2,1 L5.9,1 L5.6,6.7 L6.9,6.7 L6.9,5.6 L12.7,5.6 L12.7,6.7 L16.3,6.7 L16.3,9.9 L12.7,9.9 L12.7,21.8 L16.1,21.3 L16.1,25.4 L12.7,25.9 L12.7,27.6 L7,27.6 L7,26.7 Z M37.5,14.1 L17.1,14.1 L17.1,10.9 L24.5,10.9 L24.5,7 L18.3,7 L18.3,3.8 L24.5,3.8 L24.5,0 L30.1,0 L30.1,3.8 L36.3,3.8 L36.3,7 L30.1,7 L30.1,10.9 L37.4,10.9 L37.4,14.1 L37.5,14.1 Z M35.1,30.5 C35.1,31.3 35,32 34.7,32.6 C34.5,33.3 34.1,33.8 33.7,34.3 C33.3,34.8 32.8,35.2 32.2,35.5 C31.6,35.8 31,35.9 30.4,35.9 L25,35.9 L26.6,31.5 L28.3,31.5 C28.7,31.5 29,31.4 29.3,31.1 C29.6,30.8 29.7,30.4 29.7,30 L29.7,21.1 L17.6,21.1 L17.6,18.2 L29.7,18.2 L29.7,16.6 L35.1,16.6 L35.1,18.2 L37,18.2 L37,21.1 L35.1,21.1 L35.1,30.5 Z M24.1,24.2 L26.5,31.1 L20.9,31.1 L18.5,24.2 L24.1,24.2 L24.1,24.2 Z" id="形状"></path>
                <path d="M12.8,2 C12.8,1 11.9,0.2 10.8,0.2 L7,0.2 L7,14.5 L7,14.5 L7,18.8 L7,18 L7,34 C7,35 7.9,35.8 9,35.8 L12.8,35.8 L12.8,18 L12.8,18 L12.8,14.5 L12.8,14.5 L12.8,2 Z" id="路径"></path>
            </g>
        </g>
    </g>
</svg>